<?xml version="1.0" encoding="UTF-8" standalone="no"?>
<!DOCTYPE svg PUBLIC "-//W3C//DTD SVG 1.1//EN"
 "http://www.w3.org/Graphics/SVG/1.1/DTD/svg11.dtd">
<!-- Generated by graphviz version 12.2.1 (20241206.2353)
 -->
<!-- Title: Animating.hpp Pages: 1 -->
<svg width="826pt" height="248pt"
 viewBox="0.00 0.00 825.54 248.25" xmlns="http://www.w3.org/2000/svg" xmlns:xlink="http://www.w3.org/1999/xlink">
<g id="graph0" class="graph" transform="scale(1 1) rotate(0) translate(4 244.25)">
<title>Animating.hpp</title>
<!-- Node1 -->
<g id="Node000001" class="node">
<title>Node1</title>
<g id="a_Node000001"><a xlink:title="애니메이션 시스템 헤더">
<polygon fill="#999999" stroke="#666666" points="446.5,-240.25 368.25,-240.25 368.25,-221 446.5,-221 446.5,-240.25"/>
<text text-anchor="middle" x="407.38" y="-226.75" font-family="Helvetica,sans-Serif" font-size="10.00">Animating.hpp</text>
</a>
</g>
</g>
<!-- Node2 -->
<g id="Node000002" class="node">
<title>Node2</title>
<g id="a_Node000002"><a xlink:title=" ">
<polygon fill="#e0e0e0" stroke="#999999" points="82.75,-74.5 0,-74.5 0,-55.25 82.75,-55.25 82.75,-74.5"/>
<text text-anchor="middle" x="41.38" y="-61" font-family="Helvetica,sans-Serif" font-size="10.00">unordered_map</text>
</a>
</g>
</g>
<!-- Node1&#45;&gt;Node2 -->
<g id="edge1_Node000001_Node000002" class="edge">
<title>Node1&#45;&gt;Node2</title>
<g id="a_edge1_Node000001_Node000002"><a xlink:title=" ">
<path fill="none" stroke="#63b8ff" d="M387.18,-220.59C326.31,-193.36 144.41,-111.97 71.8,-79.49"/>
<polygon fill="#63b8ff" stroke="#63b8ff" points="73.45,-76.39 62.89,-75.5 70.59,-82.78 73.45,-76.39"/>
</a>
</g>
</g>
<!-- Node3 -->
<g id="Node000003" class="node">
<title>Node3</title>
<g id="a_Node000003"><a xlink:title=" ">
<polygon fill="#e0e0e0" stroke="#999999" points="430,-19.25 384.75,-19.25 384.75,0 430,0 430,-19.25"/>
<text text-anchor="middle" x="407.38" y="-5.75" font-family="Helvetica,sans-Serif" font-size="10.00">cstdint</text>
</a>
</g>
</g>
<!-- Node1&#45;&gt;Node3 -->
<g id="edge2_Node000001_Node000003" class="edge">
<title>Node1&#45;&gt;Node3</title>
<g id="a_edge2_Node000001_Node000003"><a xlink:title=" ">
<path fill="none" stroke="#63b8ff" d="M446.84,-226.38C565.1,-215.27 902.17,-172.72 797.38,-55.25 773.85,-28.88 532.38,-15.94 441.61,-11.99"/>
<polygon fill="#63b8ff" stroke="#63b8ff" points="441.99,-8.5 431.85,-11.57 441.69,-15.49 441.99,-8.5"/>
</a>
</g>
</g>
<!-- Node4 -->
<g id="Node000004" class="node">
<title>Node4</title>
<g id="a_Node000004"><a xlink:href="_system_8hpp.html" target="_top" xlink:title="시스템 베이스 클래스">
<polygon fill="white" stroke="#666666" points="441.62,-185 373.12,-185 373.12,-165.75 441.62,-165.75 441.62,-185"/>
<text text-anchor="middle" x="407.38" y="-171.5" font-family="Helvetica,sans-Serif" font-size="10.00">System.hpp</text>
</a>
</g>
</g>
<!-- Node1&#45;&gt;Node4 -->
<g id="edge3_Node000001_Node000004" class="edge">
<title>Node1&#45;&gt;Node4</title>
<g id="a_edge3_Node000001_Node000004"><a xlink:title=" ">
<path fill="none" stroke="#63b8ff" d="M407.38,-220.83C407.38,-214.32 407.38,-205.17 407.38,-196.87"/>
<polygon fill="#63b8ff" stroke="#63b8ff" points="410.88,-196.87 407.38,-186.87 403.88,-196.87 410.88,-196.87"/>
</a>
</g>
</g>
<!-- Node5 -->
<g id="Node000005" class="node">
<title>Node5</title>
<g id="a_Node000005"><a xlink:href="_e_c_s_manager_8hpp.html" target="_top" xlink:title="ECS 매니저의 중추 설계 헤더">
<polygon fill="white" stroke="#666666" points="464.5,-129.75 350.25,-129.75 350.25,-110.5 464.5,-110.5 464.5,-129.75"/>
<text text-anchor="middle" x="407.38" y="-116.25" font-family="Helvetica,sans-Serif" font-size="10.00">core/ECSManager.hpp</text>
</a>
</g>
</g>
<!-- Node4&#45;&gt;Node5 -->
<g id="edge4_Node000004_Node000005" class="edge">
<title>Node4&#45;&gt;Node5</title>
<g id="a_edge4_Node000004_Node000005"><a xlink:title=" ">
<path fill="none" stroke="#63b8ff" d="M407.38,-165.58C407.38,-159.07 407.38,-149.92 407.38,-141.62"/>
<polygon fill="#63b8ff" stroke="#63b8ff" points="410.88,-141.62 407.38,-131.62 403.88,-141.62 410.88,-141.62"/>
</a>
</g>
</g>
<!-- Node5&#45;&gt;Node2 -->
<g id="edge5_Node000005_Node000002" class="edge">
<title>Node5&#45;&gt;Node2</title>
<g id="a_edge5_Node000005_Node000002"><a xlink:title=" ">
<path fill="none" stroke="#63b8ff" d="M350.02,-111.12C287.59,-102.36 184.84,-87.78 96.38,-74.5 95.7,-74.4 95.03,-74.3 94.35,-74.19"/>
<polygon fill="#63b8ff" stroke="#63b8ff" points="95.02,-70.76 84.6,-72.71 93.96,-77.68 95.02,-70.76"/>
</a>
</g>
</g>
<!-- Node6 -->
<g id="Node000006" class="node">
<title>Node6</title>
<g id="a_Node000006"><a xlink:title=" ">
<polygon fill="#e0e0e0" stroke="#999999" points="359.88,-74.5 316.88,-74.5 316.88,-55.25 359.88,-55.25 359.88,-74.5"/>
<text text-anchor="middle" x="338.38" y="-61" font-family="Helvetica,sans-Serif" font-size="10.00">vector</text>
</a>
</g>
</g>
<!-- Node5&#45;&gt;Node6 -->
<g id="edge6_Node000005_Node000006" class="edge">
<title>Node5&#45;&gt;Node6</title>
<g id="a_edge6_Node000005_Node000006"><a xlink:title=" ">
<path fill="none" stroke="#63b8ff" d="M395.67,-110.09C385.6,-102.32 370.83,-90.92 358.81,-81.65"/>
<polygon fill="#63b8ff" stroke="#63b8ff" points="361.16,-79.04 351.11,-75.7 356.88,-84.58 361.16,-79.04"/>
</a>
</g>
</g>
<!-- Node7 -->
<g id="Node000007" class="node">
<title>Node7</title>
<g id="a_Node000007"><a xlink:title=" ">
<polygon fill="#e0e0e0" stroke="#999999" points="788.38,-74.5 748.38,-74.5 748.38,-55.25 788.38,-55.25 788.38,-74.5"/>
<text text-anchor="middle" x="768.38" y="-61" font-family="Helvetica,sans-Serif" font-size="10.00">bitset</text>
</a>
</g>
</g>
<!-- Node5&#45;&gt;Node7 -->
<g id="edge7_Node000005_Node000007" class="edge">
<title>Node5&#45;&gt;Node7</title>
<g id="a_edge7_Node000005_Node000007"><a xlink:title=" ">
<path fill="none" stroke="#63b8ff" d="M464.83,-114.14C529.05,-107.96 636.26,-95.83 736.91,-74.74"/>
<polygon fill="#63b8ff" stroke="#63b8ff" points="737.35,-78.22 746.4,-72.71 735.89,-71.38 737.35,-78.22"/>
</a>
</g>
</g>
<!-- Node8 -->
<g id="Node000008" class="node">
<title>Node8</title>
<g id="a_Node000008"><a xlink:title=" ">
<polygon fill="#e0e0e0" stroke="#999999" points="136,-19.25 84.75,-19.25 84.75,0 136,0 136,-19.25"/>
<text text-anchor="middle" x="110.38" y="-5.75" font-family="Helvetica,sans-Serif" font-size="10.00">memory</text>
</a>
</g>
</g>
<!-- Node5&#45;&gt;Node8 -->
<g id="edge8_Node000005_Node000008" class="edge">
<title>Node5&#45;&gt;Node8</title>
<g id="a_edge8_Node000005_Node000008"><a xlink:title=" ">
<path fill="none" stroke="#63b8ff" d="M349.92,-116.96C278.28,-113.09 161.34,-102.56 129.38,-74.5 117,-63.64 112.51,-45.11 110.97,-30.8"/>
<polygon fill="#63b8ff" stroke="#63b8ff" points="114.48,-30.87 110.34,-21.12 107.49,-31.32 114.48,-30.87"/>
</a>
</g>
</g>
<!-- Node9 -->
<g id="Node000009" class="node">
<title>Node9</title>
<g id="a_Node000009"><a xlink:title=" ">
<polygon fill="#e0e0e0" stroke="#999999" points="510.25,-74.5 454.5,-74.5 454.5,-55.25 510.25,-55.25 510.25,-74.5"/>
<text text-anchor="middle" x="482.38" y="-61" font-family="Helvetica,sans-Serif" font-size="10.00">concepts</text>
</a>
</g>
</g>
<!-- Node5&#45;&gt;Node9 -->
<g id="edge9_Node000005_Node000009" class="edge">
<title>Node5&#45;&gt;Node9</title>
<g id="a_edge9_Node000005_Node000009"><a xlink:title=" ">
<path fill="none" stroke="#63b8ff" d="M420.1,-110.09C431.09,-102.29 447.22,-90.84 460.31,-81.54"/>
<polygon fill="#63b8ff" stroke="#63b8ff" points="462.23,-84.47 468.36,-75.83 458.18,-78.76 462.23,-84.47"/>
</a>
</g>
</g>
<!-- Node10 -->
<g id="Node000010" class="node">
<title>Node10</title>
<g id="a_Node000010"><a xlink:title=" ">
<polygon fill="#e0e0e0" stroke="#999999" points="570.5,-74.5 528.25,-74.5 528.25,-55.25 570.5,-55.25 570.5,-74.5"/>
<text text-anchor="middle" x="549.38" y="-61" font-family="Helvetica,sans-Serif" font-size="10.00">queue</text>
</a>
</g>
</g>
<!-- Node5&#45;&gt;Node10 -->
<g id="edge10_Node000005_Node000010" class="edge">
<title>Node5&#45;&gt;Node10</title>
<g id="a_edge10_Node000005_Node000010"><a xlink:title=" ">
<path fill="none" stroke="#63b8ff" d="M431.46,-110.09C455.14,-101.21 491.42,-87.61 517.48,-77.83"/>
<polygon fill="#63b8ff" stroke="#63b8ff" points="518.41,-81.23 526.54,-74.44 515.95,-74.67 518.41,-81.23"/>
</a>
</g>
</g>
<!-- Node11 -->
<g id="Node000011" class="node">
<title>Node11</title>
<g id="a_Node000011"><a xlink:href="_entity_8hpp.html" target="_top" xlink:title="엔티티(ID) 정의를 물리적으로 분리한 헤더">
<polygon fill="white" stroke="#666666" points="436.75,-74.5 378,-74.5 378,-55.25 436.75,-55.25 436.75,-74.5"/>
<text text-anchor="middle" x="407.38" y="-61" font-family="Helvetica,sans-Serif" font-size="10.00">Entity.hpp</text>
</a>
</g>
</g>
<!-- Node5&#45;&gt;Node11 -->
<g id="edge11_Node000005_Node000011" class="edge">
<title>Node5&#45;&gt;Node11</title>
<g id="a_edge11_Node000005_Node000011"><a xlink:title=" ">
<path fill="none" stroke="#63b8ff" d="M407.38,-110.33C407.38,-103.82 407.38,-94.67 407.38,-86.37"/>
<polygon fill="#63b8ff" stroke="#63b8ff" points="410.88,-86.37 407.38,-76.37 403.88,-86.37 410.88,-86.37"/>
</a>
</g>
</g>
<!-- Node12 -->
<g id="Node000012" class="node">
<title>Node12</title>
<g id="a_Node000012"><a xlink:href="_component_8hpp.html" target="_top" xlink:title="컴포넌트 베이스">
<polygon fill="white" stroke="#666666" points="730,-74.5 588.75,-74.5 588.75,-55.25 730,-55.25 730,-74.5"/>
<text text-anchor="middle" x="659.38" y="-61" font-family="Helvetica,sans-Serif" font-size="10.00">components/Component.hpp</text>
</a>
</g>
</g>
<!-- Node5&#45;&gt;Node12 -->
<g id="edge13_Node000005_Node000012" class="edge">
<title>Node5&#45;&gt;Node12</title>
<g id="a_edge13_Node000005_Node000012"><a xlink:title=" ">
<path fill="none" stroke="#63b8ff" d="M450.41,-110.03C493.27,-100.98 559.17,-87.05 605.49,-77.26"/>
<polygon fill="#63b8ff" stroke="#63b8ff" points="605.98,-80.74 615.04,-75.24 604.53,-73.89 605.98,-80.74"/>
</a>
</g>
</g>
<!-- Node13 -->
<g id="Node000013" class="node">
<title>Node13</title>
<g id="a_Node000013"><a xlink:href="_component_pool_8hpp.html" target="_top" xlink:title="풀(Pool) 기반 메모리 관리 인터페이스 및 컴포넌트 전용 풀 구현">
<polygon fill="white" stroke="#666666" points="298.75,-74.5 138,-74.5 138,-55.25 298.75,-55.25 298.75,-74.5"/>
<text text-anchor="middle" x="218.38" y="-61" font-family="Helvetica,sans-Serif" font-size="10.00">components/ComponentPool.hpp</text>
</a>
</g>
</g>
<!-- Node5&#45;&gt;Node13 -->
<g id="edge14_Node000005_Node000013" class="edge">
<title>Node5&#45;&gt;Node13</title>
<g id="a_edge14_Node000005_Node000013"><a xlink:title=" ">
<path fill="none" stroke="#63b8ff" d="M375.31,-110.09C343.95,-101.26 295.99,-87.74 261.34,-77.98"/>
<polygon fill="#63b8ff" stroke="#63b8ff" points="262.62,-74.71 252.05,-75.36 260.73,-81.44 262.62,-74.71"/>
</a>
</g>
</g>
<!-- Node11&#45;&gt;Node3 -->
<g id="edge12_Node000011_Node000003" class="edge">
<title>Node11&#45;&gt;Node3</title>
<g id="a_edge12_Node000011_Node000003"><a xlink:title=" ">
<path fill="none" stroke="#63b8ff" d="M407.38,-55.08C407.38,-48.57 407.38,-39.42 407.38,-31.12"/>
<polygon fill="#63b8ff" stroke="#63b8ff" points="410.88,-31.12 407.38,-21.12 403.88,-31.12 410.88,-31.12"/>
</a>
</g>
</g>
<!-- Node13&#45;&gt;Node3 -->
<g id="edge15_Node000013_Node000003" class="edge">
<title>Node13&#45;&gt;Node3</title>
<g id="a_edge15_Node000013_Node000003"><a xlink:title=" ">
<path fill="none" stroke="#63b8ff" d="M250.44,-54.84C284.59,-45.22 338.45,-30.04 373.35,-20.21"/>
<polygon fill="#63b8ff" stroke="#63b8ff" points="374.26,-23.59 382.94,-17.51 372.36,-16.85 374.26,-23.59"/>
</a>
</g>
</g>
<!-- Node13&#45;&gt;Node8 -->
<g id="edge16_Node000013_Node000008" class="edge">
<title>Node13&#45;&gt;Node8</title>
<g id="a_edge16_Node000013_Node000008"><a xlink:title=" ">
<path fill="none" stroke="#63b8ff" d="M200.05,-54.84C183.3,-46.58 158.24,-34.23 138.87,-24.68"/>
<polygon fill="#63b8ff" stroke="#63b8ff" points="140.66,-21.65 130.14,-20.37 137.56,-27.93 140.66,-21.65"/>
</a>
</g>
</g>
<!-- Node14 -->
<g id="Node000014" class="node">
<title>Node14</title>
<g id="a_Node000014"><a xlink:title=" ">
<polygon fill="#e0e0e0" stroke="#999999" points="194.38,-19.25 154.38,-19.25 154.38,0 194.38,0 194.38,-19.25"/>
<text text-anchor="middle" x="174.38" y="-5.75" font-family="Helvetica,sans-Serif" font-size="10.00">stack</text>
</a>
</g>
</g>
<!-- Node13&#45;&gt;Node14 -->
<g id="edge17_Node000013_Node000014" class="edge">
<title>Node13&#45;&gt;Node14</title>
<g id="a_edge17_Node000013_Node000014"><a xlink:title=" ">
<path fill="none" stroke="#63b8ff" d="M211.11,-55.08C205.09,-47.8 196.36,-37.23 188.92,-28.23"/>
<polygon fill="#63b8ff" stroke="#63b8ff" points="191.83,-26.26 182.76,-20.78 186.43,-30.71 191.83,-26.26"/>
</a>
</g>
</g>
<!-- Node15 -->
<g id="Node000015" class="node">
<title>Node15</title>
<g id="a_Node000015"><a xlink:title=" ">
<polygon fill="#e0e0e0" stroke="#999999" points="270.38,-19.25 212.38,-19.25 212.38,0 270.38,0 270.38,-19.25"/>
<text text-anchor="middle" x="241.38" y="-5.75" font-family="Helvetica,sans-Serif" font-size="10.00">functional</text>
</a>
</g>
</g>
<!-- Node13&#45;&gt;Node15 -->
<g id="edge18_Node000013_Node000015" class="edge">
<title>Node13&#45;&gt;Node15</title>
<g id="a_edge18_Node000013_Node000015"><a xlink:title=" ">
<path fill="none" stroke="#63b8ff" d="M222.17,-55.08C225.12,-48.26 229.31,-38.56 233.03,-29.95"/>
<polygon fill="#63b8ff" stroke="#63b8ff" points="236.14,-31.57 236.89,-21 229.72,-28.79 236.14,-31.57"/>
</a>
</g>
</g>
<!-- Node16 -->
<g id="Node000016" class="node">
<title>Node16</title>
<g id="a_Node000016"><a xlink:title=" ">
<polygon fill="#e0e0e0" stroke="#999999" points="346.75,-19.25 288,-19.25 288,0 346.75,0 346.75,-19.25"/>
<text text-anchor="middle" x="317.38" y="-5.75" font-family="Helvetica,sans-Serif" font-size="10.00">stdexcept</text>
</a>
</g>
</g>
<!-- Node13&#45;&gt;Node16 -->
<g id="edge19_Node000013_Node000016" class="edge">
<title>Node13&#45;&gt;Node16</title>
<g id="a_edge19_Node000013_Node000016"><a xlink:title=" ">
<path fill="none" stroke="#63b8ff" d="M235.17,-54.84C250.39,-46.66 273.07,-34.46 290.76,-24.94"/>
<polygon fill="#63b8ff" stroke="#63b8ff" points="292.02,-28.24 299.17,-20.42 288.7,-22.07 292.02,-28.24"/>
</a>
</g>
</g>
</g>
</svg>
