<?xml version="1.0" encoding="UTF-8" standalone="no"?>
<!DOCTYPE svg PUBLIC "-//W3C//DTD SVG 1.1//EN"
 "http://www.w3.org/Graphics/SVG/1.1/DTD/svg11.dtd">
<!-- Generated by graphviz version 12.2.1 (20241206.2353)
 -->
<!-- Title: Animating.hpp Pages: 1 -->
<svg width="124pt" height="304pt"
 viewBox="0.00 0.00 124.25 303.50" xmlns="http://www.w3.org/2000/svg" xmlns:xlink="http://www.w3.org/1999/xlink">
<g id="graph0" class="graph" transform="scale(1 1) rotate(0) translate(4 299.5)">
<title>Animating.hpp</title>
<!-- Node1 -->
<g id="Node000001" class="node">
<title>Node1</title>
<g id="a_Node000001"><a xlink:title="애니메이션 시스템 헤더">
<polygon fill="#999999" stroke="#666666" points="78.25,-295.5 0,-295.5 0,-276.25 78.25,-276.25 78.25,-295.5"/>
<text text-anchor="middle" x="39.12" y="-282" font-family="Helvetica,sans-Serif" font-size="10.00">Animating.hpp</text>
</a>
</g>
</g>
<!-- Node2 -->
<g id="Node000002" class="node">
<title>Node2</title>
<g id="a_Node000002"><a xlink:href="_systems_8hpp.html" target="_top" xlink:title="게임 내 주요 시스템들을 한데 모아 포함하는 헤더 파일">
<polygon fill="white" stroke="#666666" points="76,-240.25 2.25,-240.25 2.25,-221 76,-221 76,-240.25"/>
<text text-anchor="middle" x="39.12" y="-226.75" font-family="Helvetica,sans-Serif" font-size="10.00">Systems.hpp</text>
</a>
</g>
</g>
<!-- Node1&#45;&gt;Node2 -->
<g id="edge1_Node000001_Node000002" class="edge">
<title>Node1&#45;&gt;Node2</title>
<g id="a_edge1_Node000001_Node000002"><a xlink:title=" ">
<path fill="none" stroke="#63b8ff" d="M39.12,-264.63C39.12,-256.34 39.12,-247.17 39.12,-240.61"/>
<polygon fill="#63b8ff" stroke="#63b8ff" points="35.63,-264.57 39.13,-274.57 42.63,-264.57 35.63,-264.57"/>
</a>
</g>
</g>
<!-- Node3 -->
<g id="Node000003" class="node">
<title>Node3</title>
<g id="a_Node000003"><a xlink:href="_core_8hpp.html" target="_top" xlink:title="모든 해더를 포함하는 헤더">
<polygon fill="white" stroke="#666666" points="67,-129.75 11.25,-129.75 11.25,-110.5 67,-110.5 67,-129.75"/>
<text text-anchor="middle" x="39.12" y="-116.25" font-family="Helvetica,sans-Serif" font-size="10.00">Core.hpp</text>
</a>
</g>
</g>
<!-- Node2&#45;&gt;Node3 -->
<g id="edge2_Node000002_Node000003" class="edge">
<title>Node2&#45;&gt;Node3</title>
<g id="a_edge2_Node000002_Node000003"><a xlink:title=" ">
<path fill="none" stroke="#63b8ff" d="M33.21,-209.55C30.2,-197 27.5,-180.48 29.12,-165.75 30.52,-153.12 34.08,-138.85 36.55,-129.92"/>
<polygon fill="#63b8ff" stroke="#63b8ff" points="29.8,-210.35 35.78,-219.1 36.56,-208.54 29.8,-210.35"/>
</a>
</g>
</g>
<!-- Node6 -->
<g id="Node000006" class="node">
<title>Node6</title>
<g id="a_Node000006"><a xlink:href="_world_8hpp.html" target="_top" xlink:title="시스템을 관리하는 클래스 헤더">
<polygon fill="white" stroke="#666666" points="97.88,-185 38.38,-185 38.38,-165.75 97.88,-165.75 97.88,-185"/>
<text text-anchor="middle" x="68.12" y="-171.5" font-family="Helvetica,sans-Serif" font-size="10.00">World.hpp</text>
</a>
</g>
</g>
<!-- Node2&#45;&gt;Node6 -->
<g id="edge6_Node000002_Node000006" class="edge">
<title>Node2&#45;&gt;Node6</title>
<g id="a_edge6_Node000002_Node000006"><a xlink:title=" ">
<path fill="none" stroke="#63b8ff" d="M49.36,-210.83C54.07,-202.17 59.45,-192.31 63.23,-185.36"/>
<polygon fill="#63b8ff" stroke="#63b8ff" points="46.35,-209.05 44.64,-219.5 52.49,-212.39 46.35,-209.05"/>
</a>
</g>
</g>
<!-- Node4 -->
<g id="Node000004" class="node">
<title>Node4</title>
<g id="a_Node000004"><a xlink:href="_game_8hpp.html" target="_top" xlink:title="Game 세팅, 실제 게임이 구현되는 워크 스페이스">
<polygon fill="white" stroke="#666666" points="69.62,-19.25 8.63,-19.25 8.63,0 69.62,0 69.62,-19.25"/>
<text text-anchor="middle" x="39.12" y="-5.75" font-family="Helvetica,sans-Serif" font-size="10.00">Game.hpp</text>
</a>
</g>
</g>
<!-- Node3&#45;&gt;Node4 -->
<g id="edge3_Node000003_Node000004" class="edge">
<title>Node3&#45;&gt;Node4</title>
<g id="a_edge3_Node000003_Node000004"><a xlink:title=" ">
<path fill="none" stroke="#63b8ff" d="M29.98,-99.93C25.06,-87.32 20.49,-70.43 23.12,-55.25 25.35,-42.44 30.93,-28.44 34.87,-19.6"/>
<polygon fill="#63b8ff" stroke="#63b8ff" points="26.61,-100.95 33.8,-108.73 33.03,-98.16 26.61,-100.95"/>
</a>
</g>
</g>
<!-- Node5 -->
<g id="Node000005" class="node">
<title>Node5</title>
<g id="a_Node000005"><a xlink:href="_protagonist_8hpp_source.html" target="_top" xlink:title=" ">
<polygon fill="white" stroke="#666666" points="116.25,-74.5 32,-74.5 32,-55.25 116.25,-55.25 116.25,-74.5"/>
<text text-anchor="middle" x="74.12" y="-61" font-family="Helvetica,sans-Serif" font-size="10.00">Protagonist.hpp</text>
</a>
</g>
</g>
<!-- Node3&#45;&gt;Node5 -->
<g id="edge4_Node000003_Node000005" class="edge">
<title>Node3&#45;&gt;Node5</title>
<g id="a_edge4_Node000003_Node000005"><a xlink:title=" ">
<path fill="none" stroke="#63b8ff" d="M51.1,-100.9C56.88,-92.11 63.55,-81.96 68.22,-74.86"/>
<polygon fill="#63b8ff" stroke="#63b8ff" points="48.3,-98.79 45.74,-109.07 54.15,-102.63 48.3,-98.79"/>
</a>
</g>
</g>
<!-- Node5&#45;&gt;Node4 -->
<g id="edge5_Node000005_Node000004" class="edge">
<title>Node5&#45;&gt;Node4</title>
<g id="a_edge5_Node000005_Node000004"><a xlink:title=" ">
<path fill="none" stroke="#63b8ff" d="M62.15,-45.65C56.37,-36.86 49.7,-26.71 45.03,-19.61"/>
<polygon fill="#63b8ff" stroke="#63b8ff" points="59.1,-47.38 67.51,-53.82 64.95,-43.54 59.1,-47.38"/>
</a>
</g>
</g>
<!-- Node6&#45;&gt;Node3 -->
<g id="edge7_Node000006_Node000003" class="edge">
<title>Node6&#45;&gt;Node3</title>
<g id="a_edge7_Node000006_Node000003"><a xlink:title=" ">
<path fill="none" stroke="#63b8ff" d="M57.89,-155.58C53.18,-146.92 47.8,-137.06 44.02,-130.11"/>
<polygon fill="#63b8ff" stroke="#63b8ff" points="54.76,-157.14 62.61,-164.25 60.9,-153.8 54.76,-157.14"/>
</a>
</g>
</g>
</g>
</svg>
