<?xml version="1.0" encoding="UTF-8" standalone="no"?>
<!DOCTYPE svg PUBLIC "-//W3C//DTD SVG 1.1//EN"
 "http://www.w3.org/Graphics/SVG/1.1/DTD/svg11.dtd">
<!-- Generated by graphviz version 12.2.1 (20241206.2353)
 -->
<!-- Title: Announcer.hpp Pages: 1 -->
<svg width="125pt" height="193pt"
 viewBox="0.00 0.00 125.38 193.00" xmlns="http://www.w3.org/2000/svg" xmlns:xlink="http://www.w3.org/1999/xlink">
<g id="graph0" class="graph" transform="scale(1 1) rotate(0) translate(4 189)">
<title>Announcer.hpp</title>
<!-- Node1 -->
<g id="Node000001" class="node">
<title>Node1</title>
<g id="a_Node000001"><a xlink:title="이벤트 아나운서 헤더">
<polygon fill="#999999" stroke="#666666" points="80.5,-185 0,-185 0,-165.75 80.5,-165.75 80.5,-185"/>
<text text-anchor="middle" x="40.25" y="-171.5" font-family="Helvetica,sans-Serif" font-size="10.00">Announcer.hpp</text>
</a>
</g>
</g>
<!-- Node2 -->
<g id="Node000002" class="node">
<title>Node2</title>
<g id="a_Node000002"><a xlink:href="_core_8hpp.html" target="_top" xlink:title="모든 해더를 포함하는 헤더">
<polygon fill="white" stroke="#666666" points="68.12,-129.75 12.38,-129.75 12.38,-110.5 68.12,-110.5 68.12,-129.75"/>
<text text-anchor="middle" x="40.25" y="-116.25" font-family="Helvetica,sans-Serif" font-size="10.00">Core.hpp</text>
</a>
</g>
</g>
<!-- Node1&#45;&gt;Node2 -->
<g id="edge1_Node000001_Node000002" class="edge">
<title>Node1&#45;&gt;Node2</title>
<g id="a_edge1_Node000001_Node000002"><a xlink:title=" ">
<path fill="none" stroke="#63b8ff" d="M40.25,-154.13C40.25,-145.84 40.25,-136.67 40.25,-130.11"/>
<polygon fill="#63b8ff" stroke="#63b8ff" points="36.75,-154.07 40.25,-164.07 43.75,-154.07 36.75,-154.07"/>
</a>
</g>
</g>
<!-- Node3 -->
<g id="Node000003" class="node">
<title>Node3</title>
<g id="a_Node000003"><a xlink:href="_game_8hpp.html" target="_top" xlink:title="Game 세팅, 실제 게임이 구현되는 워크 스페이스">
<polygon fill="white" stroke="#666666" points="70.75,-19.25 9.75,-19.25 9.75,0 70.75,0 70.75,-19.25"/>
<text text-anchor="middle" x="40.25" y="-5.75" font-family="Helvetica,sans-Serif" font-size="10.00">Game.hpp</text>
</a>
</g>
</g>
<!-- Node2&#45;&gt;Node3 -->
<g id="edge2_Node000002_Node000003" class="edge">
<title>Node2&#45;&gt;Node3</title>
<g id="a_edge2_Node000002_Node000003"><a xlink:title=" ">
<path fill="none" stroke="#63b8ff" d="M31.11,-99.93C26.18,-87.32 21.61,-70.43 24.25,-55.25 26.48,-42.44 32.05,-28.44 35.99,-19.6"/>
<polygon fill="#63b8ff" stroke="#63b8ff" points="27.74,-100.95 34.93,-108.73 34.16,-98.16 27.74,-100.95"/>
</a>
</g>
</g>
<!-- Node4 -->
<g id="Node000004" class="node">
<title>Node4</title>
<g id="a_Node000004"><a xlink:href="_protagonist_8hpp_source.html" target="_top" xlink:title=" ">
<polygon fill="white" stroke="#666666" points="117.38,-74.5 33.12,-74.5 33.12,-55.25 117.38,-55.25 117.38,-74.5"/>
<text text-anchor="middle" x="75.25" y="-61" font-family="Helvetica,sans-Serif" font-size="10.00">Protagonist.hpp</text>
</a>
</g>
</g>
<!-- Node2&#45;&gt;Node4 -->
<g id="edge3_Node000002_Node000004" class="edge">
<title>Node2&#45;&gt;Node4</title>
<g id="a_edge3_Node000002_Node000004"><a xlink:title=" ">
<path fill="none" stroke="#63b8ff" d="M52.23,-100.9C58,-92.11 64.68,-81.96 69.34,-74.86"/>
<polygon fill="#63b8ff" stroke="#63b8ff" points="49.43,-98.79 46.86,-109.07 55.28,-102.63 49.43,-98.79"/>
</a>
</g>
</g>
<!-- Node4&#45;&gt;Node3 -->
<g id="edge4_Node000004_Node000003" class="edge">
<title>Node4&#45;&gt;Node3</title>
<g id="a_edge4_Node000004_Node000003"><a xlink:title=" ">
<path fill="none" stroke="#63b8ff" d="M63.27,-45.65C57.5,-36.86 50.82,-26.71 46.16,-19.61"/>
<polygon fill="#63b8ff" stroke="#63b8ff" points="60.22,-47.38 68.64,-53.82 66.07,-43.54 60.22,-47.38"/>
</a>
</g>
</g>
</g>
</svg>
