<?xml version="1.0" encoding="UTF-8" standalone="no"?>
<!DOCTYPE svg PUBLIC "-//W3C//DTD SVG 1.1//EN"
 "http://www.w3.org/Graphics/SVG/1.1/DTD/svg11.dtd">
<!-- Generated by graphviz version 12.2.1 (20241206.2353)
 -->
<!-- Title: Announcer.hpp Pages: 1 -->
<svg width="518pt" height="248pt"
 viewBox="0.00 0.00 517.62 248.25" xmlns="http://www.w3.org/2000/svg" xmlns:xlink="http://www.w3.org/1999/xlink">
<g id="graph0" class="graph" transform="scale(1 1) rotate(0) translate(4 244.25)">
<title>Announcer.hpp</title>
<!-- Node1 -->
<g id="Node000001" class="node">
<title>Node1</title>
<g id="a_Node000001"><a xlink:title="이벤트 아나운서 헤더">
<polygon fill="#999999" stroke="#666666" points="166.88,-240.25 86.38,-240.25 86.38,-221 166.88,-221 166.88,-240.25"/>
<text text-anchor="middle" x="126.62" y="-226.75" font-family="Helvetica,sans-Serif" font-size="10.00">Announcer.hpp</text>
</a>
</g>
</g>
<!-- Node2 -->
<g id="Node000002" class="node">
<title>Node2</title>
<g id="a_Node000002"><a xlink:title=" ">
<polygon fill="#e0e0e0" stroke="#999999" points="51.25,-185 0,-185 0,-165.75 51.25,-165.75 51.25,-185"/>
<text text-anchor="middle" x="25.62" y="-171.5" font-family="Helvetica,sans-Serif" font-size="10.00">memory</text>
</a>
</g>
</g>
<!-- Node1&#45;&gt;Node2 -->
<g id="edge1_Node000001_Node000002" class="edge">
<title>Node1&#45;&gt;Node2</title>
<g id="a_edge1_Node000001_Node000002"><a xlink:title=" ">
<path fill="none" stroke="#63b8ff" d="M109.49,-220.59C93.97,-212.41 70.82,-200.21 52.78,-190.69"/>
<polygon fill="#63b8ff" stroke="#63b8ff" points="54.66,-187.73 44.18,-186.16 51.39,-193.92 54.66,-187.73"/>
</a>
</g>
</g>
<!-- Node3 -->
<g id="Node000003" class="node">
<title>Node3</title>
<g id="a_Node000003"><a xlink:title=" ">
<polygon fill="#e0e0e0" stroke="#999999" points="111.75,-185 69.5,-185 69.5,-165.75 111.75,-165.75 111.75,-185"/>
<text text-anchor="middle" x="90.62" y="-171.5" font-family="Helvetica,sans-Serif" font-size="10.00">queue</text>
</a>
</g>
</g>
<!-- Node1&#45;&gt;Node3 -->
<g id="edge2_Node000001_Node000003" class="edge">
<title>Node1&#45;&gt;Node3</title>
<g id="a_edge2_Node000001_Node000003"><a xlink:title=" ">
<path fill="none" stroke="#63b8ff" d="M120.68,-220.83C115.91,-213.78 109.06,-203.65 103.1,-194.83"/>
<polygon fill="#63b8ff" stroke="#63b8ff" points="106.05,-192.94 97.55,-186.61 100.25,-196.86 106.05,-192.94"/>
</a>
</g>
</g>
<!-- Node4 -->
<g id="Node000004" class="node">
<title>Node4</title>
<g id="a_Node000004"><a xlink:href="_events_8hpp.html" target="_top" xlink:title="다양한 이벤트 클래스를 한 데 모아 포함하는 헤더 파일">
<polygon fill="white" stroke="#666666" points="195.38,-185 129.88,-185 129.88,-165.75 195.38,-165.75 195.38,-185"/>
<text text-anchor="middle" x="162.62" y="-171.5" font-family="Helvetica,sans-Serif" font-size="10.00">Events.hpp</text>
</a>
</g>
</g>
<!-- Node1&#45;&gt;Node4 -->
<g id="edge3_Node000001_Node000004" class="edge">
<title>Node1&#45;&gt;Node4</title>
<g id="a_edge3_Node000001_Node000004"><a xlink:title=" ">
<path fill="none" stroke="#63b8ff" d="M132.57,-220.83C137.34,-213.78 144.19,-203.65 150.15,-194.83"/>
<polygon fill="#63b8ff" stroke="#63b8ff" points="153,-196.86 155.7,-186.61 147.2,-192.94 153,-196.86"/>
</a>
</g>
</g>
<!-- Node11 -->
<g id="Node000011" class="node">
<title>Node11</title>
<g id="a_Node000011"><a xlink:href="_dispatcher_8hpp.html" target="_top" xlink:title="이벤트 디스패처 헤더">
<polygon fill="white" stroke="#666666" points="371.25,-185 290,-185 290,-165.75 371.25,-165.75 371.25,-185"/>
<text text-anchor="middle" x="330.62" y="-171.5" font-family="Helvetica,sans-Serif" font-size="10.00">Dispatcher.hpp</text>
</a>
</g>
</g>
<!-- Node1&#45;&gt;Node11 -->
<g id="edge12_Node000001_Node000011" class="edge">
<title>Node1&#45;&gt;Node11</title>
<g id="a_edge12_Node000001_Node000011"><a xlink:title=" ">
<path fill="none" stroke="#63b8ff" d="M161.23,-220.59C195.23,-211.72 247.3,-198.12 284.74,-188.35"/>
<polygon fill="#63b8ff" stroke="#63b8ff" points="285.59,-191.75 294.38,-185.83 283.83,-184.97 285.59,-191.75"/>
</a>
</g>
</g>
<!-- Node5 -->
<g id="Node000005" class="node">
<title>Node5</title>
<g id="a_Node000005"><a xlink:href="_event_8hpp.html" target="_top" xlink:title="이벤트 베이스 클래스 헤더">
<polygon fill="white" stroke="#666666" points="165.75,-74.5 105.5,-74.5 105.5,-55.25 165.75,-55.25 165.75,-74.5"/>
<text text-anchor="middle" x="135.62" y="-61" font-family="Helvetica,sans-Serif" font-size="10.00">Event.hpp</text>
</a>
</g>
</g>
<!-- Node4&#45;&gt;Node5 -->
<g id="edge4_Node000004_Node000005" class="edge">
<title>Node4&#45;&gt;Node5</title>
<g id="a_edge4_Node000004_Node000005"><a xlink:title=" ">
<path fill="none" stroke="#63b8ff" d="M159.56,-165.56C156.53,-156.62 151.87,-142.33 148.62,-129.75 144.85,-115.12 141.48,-98.38 139.11,-85.71"/>
<polygon fill="#63b8ff" stroke="#63b8ff" points="142.6,-85.33 137.38,-76.11 135.71,-86.57 142.6,-85.33"/>
</a>
</g>
</g>
<!-- Node6 -->
<g id="Node000006" class="node">
<title>Node6</title>
<g id="a_Node000006"><a xlink:href="_keyboard_8hpp.html" target="_top" xlink:title="키보드 이벤트 헤더">
<polygon fill="white" stroke="#666666" points="233.62,-129.75 157.62,-129.75 157.62,-110.5 233.62,-110.5 233.62,-129.75"/>
<text text-anchor="middle" x="195.62" y="-116.25" font-family="Helvetica,sans-Serif" font-size="10.00">Keyboard.hpp</text>
</a>
</g>
</g>
<!-- Node4&#45;&gt;Node6 -->
<g id="edge5_Node000004_Node000006" class="edge">
<title>Node4&#45;&gt;Node6</title>
<g id="a_edge5_Node000004_Node000006"><a xlink:title=" ">
<path fill="none" stroke="#63b8ff" d="M168.07,-165.58C172.4,-158.61 178.59,-148.62 184.01,-139.87"/>
<polygon fill="#63b8ff" stroke="#63b8ff" points="186.97,-141.74 189.26,-131.4 181.02,-138.05 186.97,-141.74"/>
</a>
</g>
</g>
<!-- Node8 -->
<g id="Node000008" class="node">
<title>Node8</title>
<g id="a_Node000008"><a xlink:href="_player_collided_8hpp.html" target="_top" xlink:title="플레이어 충돌 이벤트">
<polygon fill="white" stroke="#666666" points="101.5,-129.75 3.75,-129.75 3.75,-110.5 101.5,-110.5 101.5,-129.75"/>
<text text-anchor="middle" x="52.62" y="-116.25" font-family="Helvetica,sans-Serif" font-size="10.00">PlayerCollided.hpp</text>
</a>
</g>
</g>
<!-- Node4&#45;&gt;Node8 -->
<g id="edge8_Node000004_Node000008" class="edge">
<title>Node4&#45;&gt;Node8</title>
<g id="a_edge8_Node000004_Node000008"><a xlink:title=" ">
<path fill="none" stroke="#63b8ff" d="M143.96,-165.34C126.9,-157.08 101.38,-144.73 81.65,-135.18"/>
<polygon fill="#63b8ff" stroke="#63b8ff" points="83.26,-132.07 72.74,-130.86 80.21,-138.37 83.26,-132.07"/>
</a>
</g>
</g>
<!-- Node6&#45;&gt;Node5 -->
<g id="edge7_Node000006_Node000005" class="edge">
<title>Node6&#45;&gt;Node5</title>
<g id="a_edge7_Node000006_Node000005"><a xlink:title=" ">
<path fill="none" stroke="#63b8ff" d="M185.45,-110.09C176.86,-102.47 164.36,-91.37 154.02,-82.2"/>
<polygon fill="#63b8ff" stroke="#63b8ff" points="156.59,-79.8 146.78,-75.78 151.94,-85.04 156.59,-79.8"/>
</a>
</g>
</g>
<!-- Node7 -->
<g id="Node000007" class="node">
<title>Node7</title>
<g id="a_Node000007"><a xlink:title=" ">
<polygon fill="#e0e0e0" stroke="#999999" points="281.5,-74.5 183.75,-74.5 183.75,-55.25 281.5,-55.25 281.5,-74.5"/>
<text text-anchor="middle" x="232.62" y="-61" font-family="Helvetica,sans-Serif" font-size="10.00">SFML/Window.hpp</text>
</a>
</g>
</g>
<!-- Node6&#45;&gt;Node7 -->
<g id="edge6_Node000006_Node000007" class="edge">
<title>Node6&#45;&gt;Node7</title>
<g id="a_edge6_Node000006_Node000007"><a xlink:title=" ">
<path fill="none" stroke="#63b8ff" d="M201.73,-110.33C206.69,-103.21 213.83,-92.93 220,-84.05"/>
<polygon fill="#63b8ff" stroke="#63b8ff" points="222.69,-86.31 225.52,-76.1 216.94,-82.32 222.69,-86.31"/>
</a>
</g>
</g>
<!-- Node8&#45;&gt;Node5 -->
<g id="edge9_Node000008_Node000005" class="edge">
<title>Node8&#45;&gt;Node5</title>
<g id="a_edge9_Node000008_Node000005"><a xlink:title=" ">
<path fill="none" stroke="#63b8ff" d="M66.7,-110.09C79.11,-102.14 97.42,-90.39 112.05,-81"/>
<polygon fill="#63b8ff" stroke="#63b8ff" points="113.68,-84.12 120.2,-75.77 109.9,-78.22 113.68,-84.12"/>
</a>
</g>
</g>
<!-- Node9 -->
<g id="Node000009" class="node">
<title>Node9</title>
<g id="a_Node000009"><a xlink:href="_entity_8hpp.html" target="_top" xlink:title="엔티티(ID) 정의를 물리적으로 분리한 헤더">
<polygon fill="white" stroke="#666666" points="87.88,-74.5 7.38,-74.5 7.38,-55.25 87.88,-55.25 87.88,-74.5"/>
<text text-anchor="middle" x="47.62" y="-61" font-family="Helvetica,sans-Serif" font-size="10.00">core/Entity.hpp</text>
</a>
</g>
</g>
<!-- Node8&#45;&gt;Node9 -->
<g id="edge10_Node000008_Node000009" class="edge">
<title>Node8&#45;&gt;Node9</title>
<g id="a_edge10_Node000008_Node000009"><a xlink:title=" ">
<path fill="none" stroke="#63b8ff" d="M51.8,-110.33C51.18,-103.74 50.31,-94.46 49.52,-86.07"/>
<polygon fill="#63b8ff" stroke="#63b8ff" points="53.03,-86 48.61,-76.37 46.06,-86.65 53.03,-86"/>
</a>
</g>
</g>
<!-- Node10 -->
<g id="Node000010" class="node">
<title>Node10</title>
<g id="a_Node000010"><a xlink:title=" ">
<polygon fill="#e0e0e0" stroke="#999999" points="70.25,-19.25 25,-19.25 25,0 70.25,0 70.25,-19.25"/>
<text text-anchor="middle" x="47.62" y="-5.75" font-family="Helvetica,sans-Serif" font-size="10.00">cstdint</text>
</a>
</g>
</g>
<!-- Node9&#45;&gt;Node10 -->
<g id="edge11_Node000009_Node000010" class="edge">
<title>Node9&#45;&gt;Node10</title>
<g id="a_edge11_Node000009_Node000010"><a xlink:title=" ">
<path fill="none" stroke="#63b8ff" d="M47.62,-55.08C47.62,-48.57 47.62,-39.42 47.62,-31.12"/>
<polygon fill="#63b8ff" stroke="#63b8ff" points="51.13,-31.12 47.63,-21.12 44.13,-31.12 51.13,-31.12"/>
</a>
</g>
</g>
<!-- Node11&#45;&gt;Node5 -->
<g id="edge16_Node000011_Node000005" class="edge">
<title>Node11&#45;&gt;Node5</title>
<g id="a_edge16_Node000011_Node000005"><a xlink:title=" ">
<path fill="none" stroke="#63b8ff" d="M320.06,-165.45C304.07,-152.23 272.42,-127.23 242.62,-110.5 220.31,-97.97 193.77,-86.88 172.7,-78.89"/>
<polygon fill="#63b8ff" stroke="#63b8ff" points="173.94,-75.62 163.35,-75.42 171.5,-82.18 173.94,-75.62"/>
</a>
</g>
</g>
<!-- Node12 -->
<g id="Node000012" class="node">
<title>Node12</title>
<g id="a_Node000012"><a xlink:title=" ">
<polygon fill="#e0e0e0" stroke="#999999" points="372,-129.75 289.25,-129.75 289.25,-110.5 372,-110.5 372,-129.75"/>
<text text-anchor="middle" x="330.62" y="-116.25" font-family="Helvetica,sans-Serif" font-size="10.00">unordered_map</text>
</a>
</g>
</g>
<!-- Node11&#45;&gt;Node12 -->
<g id="edge13_Node000011_Node000012" class="edge">
<title>Node11&#45;&gt;Node12</title>
<g id="a_edge13_Node000011_Node000012"><a xlink:title=" ">
<path fill="none" stroke="#63b8ff" d="M330.62,-165.58C330.62,-159.07 330.62,-149.92 330.62,-141.62"/>
<polygon fill="#63b8ff" stroke="#63b8ff" points="334.13,-141.62 330.63,-131.62 327.13,-141.62 334.13,-141.62"/>
</a>
</g>
</g>
<!-- Node13 -->
<g id="Node000013" class="node">
<title>Node13</title>
<g id="a_Node000013"><a xlink:title=" ">
<polygon fill="#e0e0e0" stroke="#999999" points="433.12,-129.75 390.12,-129.75 390.12,-110.5 433.12,-110.5 433.12,-129.75"/>
<text text-anchor="middle" x="411.62" y="-116.25" font-family="Helvetica,sans-Serif" font-size="10.00">vector</text>
</a>
</g>
</g>
<!-- Node11&#45;&gt;Node13 -->
<g id="edge14_Node000011_Node000013" class="edge">
<title>Node11&#45;&gt;Node13</title>
<g id="a_edge14_Node000011_Node000013"><a xlink:title=" ">
<path fill="none" stroke="#63b8ff" d="M344.37,-165.34C356.35,-157.46 374,-145.86 388.21,-136.52"/>
<polygon fill="#63b8ff" stroke="#63b8ff" points="390.12,-139.45 396.55,-131.03 386.27,-133.6 390.12,-139.45"/>
</a>
</g>
</g>
<!-- Node14 -->
<g id="Node000014" class="node">
<title>Node14</title>
<g id="a_Node000014"><a xlink:title=" ">
<polygon fill="#e0e0e0" stroke="#999999" points="509.62,-129.75 451.62,-129.75 451.62,-110.5 509.62,-110.5 509.62,-129.75"/>
<text text-anchor="middle" x="480.62" y="-116.25" font-family="Helvetica,sans-Serif" font-size="10.00">functional</text>
</a>
</g>
</g>
<!-- Node11&#45;&gt;Node14 -->
<g id="edge15_Node000011_Node000014" class="edge">
<title>Node11&#45;&gt;Node14</title>
<g id="a_edge15_Node000011_Node000014"><a xlink:title=" ">
<path fill="none" stroke="#63b8ff" d="M356.07,-165.34C380.31,-156.74 417.06,-143.69 444.36,-134"/>
<polygon fill="#63b8ff" stroke="#63b8ff" points="445.38,-137.35 453.63,-130.71 443.03,-130.76 445.38,-137.35"/>
</a>
</g>
</g>
</g>
</svg>
