<?xml version="1.0" encoding="UTF-8" standalone="no"?>
<!DOCTYPE svg PUBLIC "-//W3C//DTD SVG 1.1//EN"
 "http://www.w3.org/Graphics/SVG/1.1/DTD/svg11.dtd">
<!-- Generated by graphviz version 12.2.1 (20241206.2353)
 -->
<!-- Title: Collision.hpp Pages: 1 -->
<svg width="122pt" height="304pt"
 viewBox="0.00 0.00 122.00 303.50" xmlns="http://www.w3.org/2000/svg" xmlns:xlink="http://www.w3.org/1999/xlink">
<g id="graph0" class="graph" transform="scale(1 1) rotate(0) translate(4 299.5)">
<title>Collision.hpp</title>
<!-- Node1 -->
<g id="Node000001" class="node">
<title>Node1</title>
<g id="a_Node000001"><a xlink:title="충돌 시스템 헤더">
<polygon fill="#999999" stroke="#666666" points="73,-295.5 0.75,-295.5 0.75,-276.25 73,-276.25 73,-295.5"/>
<text text-anchor="middle" x="36.88" y="-282" font-family="Helvetica,sans-Serif" font-size="10.00">Collision.hpp</text>
</a>
</g>
</g>
<!-- Node2 -->
<g id="Node000002" class="node">
<title>Node2</title>
<g id="a_Node000002"><a xlink:href="_systems_8hpp.html" target="_top" xlink:title="게임 내 주요 시스템들을 한데 모아 포함하는 헤더 파일">
<polygon fill="white" stroke="#666666" points="73.75,-240.25 0,-240.25 0,-221 73.75,-221 73.75,-240.25"/>
<text text-anchor="middle" x="36.88" y="-226.75" font-family="Helvetica,sans-Serif" font-size="10.00">Systems.hpp</text>
</a>
</g>
</g>
<!-- Node1&#45;&gt;Node2 -->
<g id="edge1_Node000001_Node000002" class="edge">
<title>Node1&#45;&gt;Node2</title>
<g id="a_edge1_Node000001_Node000002"><a xlink:title=" ">
<path fill="none" stroke="#63b8ff" d="M36.88,-264.63C36.88,-256.34 36.88,-247.17 36.88,-240.61"/>
<polygon fill="#63b8ff" stroke="#63b8ff" points="33.38,-264.57 36.88,-274.57 40.38,-264.57 33.38,-264.57"/>
</a>
</g>
</g>
<!-- Node3 -->
<g id="Node000003" class="node">
<title>Node3</title>
<g id="a_Node000003"><a xlink:href="_core_8hpp.html" target="_top" xlink:title="모든 해더를 포함하는 헤더">
<polygon fill="white" stroke="#666666" points="64.75,-129.75 9,-129.75 9,-110.5 64.75,-110.5 64.75,-129.75"/>
<text text-anchor="middle" x="36.88" y="-116.25" font-family="Helvetica,sans-Serif" font-size="10.00">Core.hpp</text>
</a>
</g>
</g>
<!-- Node2&#45;&gt;Node3 -->
<g id="edge2_Node000002_Node000003" class="edge">
<title>Node2&#45;&gt;Node3</title>
<g id="a_edge2_Node000002_Node000003"><a xlink:title=" ">
<path fill="none" stroke="#63b8ff" d="M30.96,-209.55C27.95,-197 25.25,-180.48 26.88,-165.75 28.27,-153.12 31.83,-138.85 34.3,-129.92"/>
<polygon fill="#63b8ff" stroke="#63b8ff" points="27.55,-210.35 33.53,-219.1 34.31,-208.54 27.55,-210.35"/>
</a>
</g>
</g>
<!-- Node6 -->
<g id="Node000006" class="node">
<title>Node6</title>
<g id="a_Node000006"><a xlink:href="_world_8hpp.html" target="_top" xlink:title="시스템을 관리하는 클래스 헤더">
<polygon fill="white" stroke="#666666" points="95.62,-185 36.12,-185 36.12,-165.75 95.62,-165.75 95.62,-185"/>
<text text-anchor="middle" x="65.88" y="-171.5" font-family="Helvetica,sans-Serif" font-size="10.00">World.hpp</text>
</a>
</g>
</g>
<!-- Node2&#45;&gt;Node6 -->
<g id="edge6_Node000002_Node000006" class="edge">
<title>Node2&#45;&gt;Node6</title>
<g id="a_edge6_Node000002_Node000006"><a xlink:title=" ">
<path fill="none" stroke="#63b8ff" d="M47.11,-210.83C51.82,-202.17 57.2,-192.31 60.98,-185.36"/>
<polygon fill="#63b8ff" stroke="#63b8ff" points="44.1,-209.05 42.39,-219.5 50.24,-212.39 44.1,-209.05"/>
</a>
</g>
</g>
<!-- Node4 -->
<g id="Node000004" class="node">
<title>Node4</title>
<g id="a_Node000004"><a xlink:href="_game_8hpp.html" target="_top" xlink:title="Game 세팅, 실제 게임이 구현되는 워크 스페이스">
<polygon fill="white" stroke="#666666" points="67.38,-19.25 6.38,-19.25 6.38,0 67.38,0 67.38,-19.25"/>
<text text-anchor="middle" x="36.88" y="-5.75" font-family="Helvetica,sans-Serif" font-size="10.00">Game.hpp</text>
</a>
</g>
</g>
<!-- Node3&#45;&gt;Node4 -->
<g id="edge3_Node000003_Node000004" class="edge">
<title>Node3&#45;&gt;Node4</title>
<g id="a_edge3_Node000003_Node000004"><a xlink:title=" ">
<path fill="none" stroke="#63b8ff" d="M27.73,-99.93C22.81,-87.32 18.24,-70.43 20.88,-55.25 23.1,-42.44 28.68,-28.44 32.62,-19.6"/>
<polygon fill="#63b8ff" stroke="#63b8ff" points="24.36,-100.95 31.55,-108.73 30.78,-98.16 24.36,-100.95"/>
</a>
</g>
</g>
<!-- Node5 -->
<g id="Node000005" class="node">
<title>Node5</title>
<g id="a_Node000005"><a xlink:href="_protagonist_8hpp_source.html" target="_top" xlink:title=" ">
<polygon fill="white" stroke="#666666" points="114,-74.5 29.75,-74.5 29.75,-55.25 114,-55.25 114,-74.5"/>
<text text-anchor="middle" x="71.88" y="-61" font-family="Helvetica,sans-Serif" font-size="10.00">Protagonist.hpp</text>
</a>
</g>
</g>
<!-- Node3&#45;&gt;Node5 -->
<g id="edge4_Node000003_Node000005" class="edge">
<title>Node3&#45;&gt;Node5</title>
<g id="a_edge4_Node000003_Node000005"><a xlink:title=" ">
<path fill="none" stroke="#63b8ff" d="M48.85,-100.9C54.63,-92.11 61.3,-81.96 65.97,-74.86"/>
<polygon fill="#63b8ff" stroke="#63b8ff" points="46.05,-98.79 43.49,-109.07 51.9,-102.63 46.05,-98.79"/>
</a>
</g>
</g>
<!-- Node5&#45;&gt;Node4 -->
<g id="edge5_Node000005_Node000004" class="edge">
<title>Node5&#45;&gt;Node4</title>
<g id="a_edge5_Node000005_Node000004"><a xlink:title=" ">
<path fill="none" stroke="#63b8ff" d="M59.9,-45.65C54.12,-36.86 47.45,-26.71 42.78,-19.61"/>
<polygon fill="#63b8ff" stroke="#63b8ff" points="56.85,-47.38 65.26,-53.82 62.7,-43.54 56.85,-47.38"/>
</a>
</g>
</g>
<!-- Node6&#45;&gt;Node3 -->
<g id="edge7_Node000006_Node000003" class="edge">
<title>Node6&#45;&gt;Node3</title>
<g id="a_edge7_Node000006_Node000003"><a xlink:title=" ">
<path fill="none" stroke="#63b8ff" d="M55.64,-155.58C50.93,-146.92 45.55,-137.06 41.77,-130.11"/>
<polygon fill="#63b8ff" stroke="#63b8ff" points="52.51,-157.14 60.36,-164.25 58.65,-153.8 52.51,-157.14"/>
</a>
</g>
</g>
</g>
</svg>
