<?xml version="1.0" encoding="UTF-8" standalone="no"?>
<!DOCTYPE svg PUBLIC "-//W3C//DTD SVG 1.1//EN"
 "http://www.w3.org/Graphics/SVG/1.1/DTD/svg11.dtd">
<!-- Generated by graphviz version 12.2.1 (20241206.2353)
 -->
<!-- Title: Collision.hpp Pages: 1 -->
<svg width="813pt" height="248pt"
 viewBox="0.00 0.00 813.25 248.25" xmlns="http://www.w3.org/2000/svg" xmlns:xlink="http://www.w3.org/1999/xlink">
<g id="graph0" class="graph" transform="scale(1 1) rotate(0) translate(4 244.25)">
<title>Collision.hpp</title>
<!-- Node1 -->
<g id="Node000001" class="node">
<title>Node1</title>
<g id="a_Node000001"><a xlink:title="충돌 시스템 헤더">
<polygon fill="#999999" stroke="#666666" points="679.75,-240.25 607.5,-240.25 607.5,-221 679.75,-221 679.75,-240.25"/>
<text text-anchor="middle" x="643.62" y="-226.75" font-family="Helvetica,sans-Serif" font-size="10.00">Collision.hpp</text>
</a>
</g>
</g>
<!-- Node2 -->
<g id="Node000002" class="node">
<title>Node2</title>
<g id="a_Node000002"><a xlink:href="_system_8hpp.html" target="_top" xlink:title="시스템 베이스 클래스">
<polygon fill="white" stroke="#666666" points="567.88,-185 499.38,-185 499.38,-165.75 567.88,-165.75 567.88,-185"/>
<text text-anchor="middle" x="533.62" y="-171.5" font-family="Helvetica,sans-Serif" font-size="10.00">System.hpp</text>
</a>
</g>
</g>
<!-- Node1&#45;&gt;Node2 -->
<g id="edge1_Node000001_Node000002" class="edge">
<title>Node1&#45;&gt;Node2</title>
<g id="a_edge1_Node000001_Node000002"><a xlink:title=" ">
<path fill="none" stroke="#63b8ff" d="M624.96,-220.59C607.9,-212.33 582.38,-199.98 562.65,-190.43"/>
<polygon fill="#63b8ff" stroke="#63b8ff" points="564.26,-187.32 553.74,-186.11 561.21,-193.62 564.26,-187.32"/>
</a>
</g>
</g>
<!-- Node17 -->
<g id="Node000017" class="node">
<title>Node17</title>
<g id="a_Node000017"><a xlink:href="_collider_8hpp.html" target="_top" xlink:title="충돌 컴포넌트">
<polygon fill="white" stroke="#666666" points="795.25,-185 672,-185 672,-165.75 795.25,-165.75 795.25,-185"/>
<text text-anchor="middle" x="733.62" y="-171.5" font-family="Helvetica,sans-Serif" font-size="10.00">components/Collider.hpp</text>
</a>
</g>
</g>
<!-- Node1&#45;&gt;Node17 -->
<g id="edge18_Node000001_Node000017" class="edge">
<title>Node1&#45;&gt;Node17</title>
<g id="a_edge18_Node000001_Node000017"><a xlink:title=" ">
<path fill="none" stroke="#63b8ff" d="M658.89,-220.59C672.47,-212.56 692.58,-200.66 708.52,-191.23"/>
<polygon fill="#63b8ff" stroke="#63b8ff" points="710.16,-194.33 716.98,-186.22 706.59,-188.3 710.16,-194.33"/>
</a>
</g>
</g>
<!-- Node18 -->
<g id="Node000018" class="node">
<title>Node18</title>
<g id="a_Node000018"><a xlink:href="_position_8hpp.html" target="_top" xlink:title="위치 컴포넌트">
<polygon fill="white" stroke="#666666" points="706.75,-129.75 580.5,-129.75 580.5,-110.5 706.75,-110.5 706.75,-129.75"/>
<text text-anchor="middle" x="643.62" y="-116.25" font-family="Helvetica,sans-Serif" font-size="10.00">components/Position.hpp</text>
</a>
</g>
</g>
<!-- Node1&#45;&gt;Node18 -->
<g id="edge20_Node000001_Node000018" class="edge">
<title>Node1&#45;&gt;Node18</title>
<g id="a_edge20_Node000001_Node000018"><a xlink:title=" ">
<path fill="none" stroke="#63b8ff" d="M643.62,-220.75C643.62,-203.5 643.62,-165.08 643.62,-141.31"/>
<polygon fill="#63b8ff" stroke="#63b8ff" points="647.13,-141.64 643.63,-131.64 640.13,-141.64 647.13,-141.64"/>
</a>
</g>
</g>
<!-- Node3 -->
<g id="Node000003" class="node">
<title>Node3</title>
<g id="a_Node000003"><a xlink:href="_e_c_s_manager_8hpp.html" target="_top" xlink:title="ECS 매니저의 중추 설계 헤더">
<polygon fill="white" stroke="#666666" points="501.75,-129.75 387.5,-129.75 387.5,-110.5 501.75,-110.5 501.75,-129.75"/>
<text text-anchor="middle" x="444.62" y="-116.25" font-family="Helvetica,sans-Serif" font-size="10.00">core/ECSManager.hpp</text>
</a>
</g>
</g>
<!-- Node2&#45;&gt;Node3 -->
<g id="edge2_Node000002_Node000003" class="edge">
<title>Node2&#45;&gt;Node3</title>
<g id="a_edge2_Node000002_Node000003"><a xlink:title=" ">
<path fill="none" stroke="#63b8ff" d="M518.53,-165.34C505.1,-157.31 485.21,-145.41 469.45,-135.98"/>
<polygon fill="#63b8ff" stroke="#63b8ff" points="471.47,-133.11 461.1,-130.98 467.88,-139.12 471.47,-133.11"/>
</a>
</g>
</g>
<!-- Node4 -->
<g id="Node000004" class="node">
<title>Node4</title>
<g id="a_Node000004"><a xlink:title=" ">
<polygon fill="#e0e0e0" stroke="#999999" points="526,-74.5 443.25,-74.5 443.25,-55.25 526,-55.25 526,-74.5"/>
<text text-anchor="middle" x="484.62" y="-61" font-family="Helvetica,sans-Serif" font-size="10.00">unordered_map</text>
</a>
</g>
</g>
<!-- Node3&#45;&gt;Node4 -->
<g id="edge3_Node000003_Node000004" class="edge">
<title>Node3&#45;&gt;Node4</title>
<g id="a_edge3_Node000003_Node000004"><a xlink:title=" ">
<path fill="none" stroke="#63b8ff" d="M451.23,-110.33C456.58,-103.21 464.3,-92.93 470.97,-84.05"/>
<polygon fill="#63b8ff" stroke="#63b8ff" points="473.76,-86.17 476.97,-76.07 468.16,-81.96 473.76,-86.17"/>
</a>
</g>
</g>
<!-- Node5 -->
<g id="Node000005" class="node">
<title>Node5</title>
<g id="a_Node000005"><a xlink:title=" ">
<polygon fill="#e0e0e0" stroke="#999999" points="587.12,-74.5 544.12,-74.5 544.12,-55.25 587.12,-55.25 587.12,-74.5"/>
<text text-anchor="middle" x="565.62" y="-61" font-family="Helvetica,sans-Serif" font-size="10.00">vector</text>
</a>
</g>
</g>
<!-- Node3&#45;&gt;Node5 -->
<g id="edge4_Node000003_Node000005" class="edge">
<title>Node3&#45;&gt;Node5</title>
<g id="a_edge4_Node000003_Node000005"><a xlink:title=" ">
<path fill="none" stroke="#63b8ff" d="M465.15,-110.09C484.19,-101.72 512.78,-89.13 534.6,-79.53"/>
<polygon fill="#63b8ff" stroke="#63b8ff" points="535.87,-82.79 543.61,-75.56 533.05,-76.39 535.87,-82.79"/>
</a>
</g>
</g>
<!-- Node6 -->
<g id="Node000006" class="node">
<title>Node6</title>
<g id="a_Node000006"><a xlink:title=" ">
<polygon fill="#e0e0e0" stroke="#999999" points="645.62,-74.5 605.62,-74.5 605.62,-55.25 645.62,-55.25 645.62,-74.5"/>
<text text-anchor="middle" x="625.62" y="-61" font-family="Helvetica,sans-Serif" font-size="10.00">bitset</text>
</a>
</g>
</g>
<!-- Node3&#45;&gt;Node6 -->
<g id="edge5_Node000003_Node000006" class="edge">
<title>Node3&#45;&gt;Node6</title>
<g id="a_edge5_Node000003_Node000006"><a xlink:title=" ">
<path fill="none" stroke="#63b8ff" d="M475.78,-110.01C504.29,-101.67 547.93,-88.87 594.43,-75.14"/>
<polygon fill="#63b8ff" stroke="#63b8ff" points="595.3,-78.54 603.89,-72.34 593.31,-71.82 595.3,-78.54"/>
</a>
</g>
</g>
<!-- Node7 -->
<g id="Node000007" class="node">
<title>Node7</title>
<g id="a_Node000007"><a xlink:title=" ">
<polygon fill="#e0e0e0" stroke="#999999" points="51.25,-19.25 0,-19.25 0,0 51.25,0 51.25,-19.25"/>
<text text-anchor="middle" x="25.62" y="-5.75" font-family="Helvetica,sans-Serif" font-size="10.00">memory</text>
</a>
</g>
</g>
<!-- Node3&#45;&gt;Node7 -->
<g id="edge6_Node000003_Node000007" class="edge">
<title>Node3&#45;&gt;Node7</title>
<g id="a_edge6_Node000003_Node000007"><a xlink:title=" ">
<path fill="none" stroke="#63b8ff" d="M387.36,-116.21C283.04,-110.4 70.39,-96.04 44.62,-74.5 31.99,-63.94 27.53,-45.38 26.06,-30.98"/>
<polygon fill="#63b8ff" stroke="#63b8ff" points="29.57,-30.99 25.5,-21.21 22.58,-31.4 29.57,-30.99"/>
</a>
</g>
</g>
<!-- Node8 -->
<g id="Node000008" class="node">
<title>Node8</title>
<g id="a_Node000008"><a xlink:title=" ">
<polygon fill="#e0e0e0" stroke="#999999" points="364.5,-74.5 308.75,-74.5 308.75,-55.25 364.5,-55.25 364.5,-74.5"/>
<text text-anchor="middle" x="336.62" y="-61" font-family="Helvetica,sans-Serif" font-size="10.00">concepts</text>
</a>
</g>
</g>
<!-- Node3&#45;&gt;Node8 -->
<g id="edge7_Node000003_Node000008" class="edge">
<title>Node3&#45;&gt;Node8</title>
<g id="a_edge7_Node000003_Node000008"><a xlink:title=" ">
<path fill="none" stroke="#63b8ff" d="M426.3,-110.09C409.55,-101.83 384.49,-89.48 365.12,-79.93"/>
<polygon fill="#63b8ff" stroke="#63b8ff" points="366.91,-76.9 356.39,-75.62 363.81,-83.18 366.91,-76.9"/>
</a>
</g>
</g>
<!-- Node9 -->
<g id="Node000009" class="node">
<title>Node9</title>
<g id="a_Node000009"><a xlink:title=" ">
<polygon fill="#e0e0e0" stroke="#999999" points="424.75,-74.5 382.5,-74.5 382.5,-55.25 424.75,-55.25 424.75,-74.5"/>
<text text-anchor="middle" x="403.62" y="-61" font-family="Helvetica,sans-Serif" font-size="10.00">queue</text>
</a>
</g>
</g>
<!-- Node3&#45;&gt;Node9 -->
<g id="edge8_Node000003_Node000009" class="edge">
<title>Node3&#45;&gt;Node9</title>
<g id="a_edge8_Node000003_Node000009"><a xlink:title=" ">
<path fill="none" stroke="#63b8ff" d="M437.85,-110.33C432.31,-103.13 424.28,-92.71 417.4,-83.76"/>
<polygon fill="#63b8ff" stroke="#63b8ff" points="420.34,-81.85 411.47,-76.06 414.79,-86.12 420.34,-81.85"/>
</a>
</g>
</g>
<!-- Node10 -->
<g id="Node000010" class="node">
<title>Node10</title>
<g id="a_Node000010"><a xlink:href="_entity_8hpp.html" target="_top" xlink:title="엔티티(ID) 정의를 물리적으로 분리한 헤더">
<polygon fill="white" stroke="#666666" points="112,-74.5 53.25,-74.5 53.25,-55.25 112,-55.25 112,-74.5"/>
<text text-anchor="middle" x="82.62" y="-61" font-family="Helvetica,sans-Serif" font-size="10.00">Entity.hpp</text>
</a>
</g>
</g>
<!-- Node3&#45;&gt;Node10 -->
<g id="edge9_Node000003_Node000010" class="edge">
<title>Node3&#45;&gt;Node10</title>
<g id="a_edge9_Node000003_Node000010"><a xlink:title=" ">
<path fill="none" stroke="#63b8ff" d="M387.23,-112.61C324.81,-105.21 221.89,-92.08 123.44,-74.69"/>
<polygon fill="#63b8ff" stroke="#63b8ff" points="124.34,-71.29 113.88,-72.98 123.1,-78.19 124.34,-71.29"/>
</a>
</g>
</g>
<!-- Node12 -->
<g id="Node000012" class="node">
<title>Node12</title>
<g id="a_Node000012"><a xlink:href="_component_8hpp.html" target="_top" xlink:title="컴포넌트 베이스">
<polygon fill="white" stroke="#666666" points="805.25,-74.5 664,-74.5 664,-55.25 805.25,-55.25 805.25,-74.5"/>
<text text-anchor="middle" x="734.62" y="-61" font-family="Helvetica,sans-Serif" font-size="10.00">components/Component.hpp</text>
</a>
</g>
</g>
<!-- Node3&#45;&gt;Node12 -->
<g id="edge11_Node000003_Node000012" class="edge">
<title>Node3&#45;&gt;Node12</title>
<g id="a_edge11_Node000003_Node000012"><a xlink:title=" ">
<path fill="none" stroke="#63b8ff" d="M494.15,-110.03C543.99,-100.88 620.92,-86.75 674.29,-76.95"/>
<polygon fill="#63b8ff" stroke="#63b8ff" points="674.61,-80.45 683.82,-75.2 673.35,-73.57 674.61,-80.45"/>
</a>
</g>
</g>
<!-- Node13 -->
<g id="Node000013" class="node">
<title>Node13</title>
<g id="a_Node000013"><a xlink:href="_component_pool_8hpp.html" target="_top" xlink:title="풀(Pool) 기반 메모리 관리 인터페이스 및 컴포넌트 전용 풀 구현">
<polygon fill="white" stroke="#666666" points="291,-74.5 130.25,-74.5 130.25,-55.25 291,-55.25 291,-74.5"/>
<text text-anchor="middle" x="210.62" y="-61" font-family="Helvetica,sans-Serif" font-size="10.00">components/ComponentPool.hpp</text>
</a>
</g>
</g>
<!-- Node3&#45;&gt;Node13 -->
<g id="edge12_Node000003_Node000013" class="edge">
<title>Node3&#45;&gt;Node13</title>
<g id="a_edge12_Node000003_Node000013"><a xlink:title=" ">
<path fill="none" stroke="#63b8ff" d="M404.66,-110.03C365.12,-101.03 304.45,-87.23 261.49,-77.45"/>
<polygon fill="#63b8ff" stroke="#63b8ff" points="262.42,-74.07 251.9,-75.27 260.87,-80.9 262.42,-74.07"/>
</a>
</g>
</g>
<!-- Node11 -->
<g id="Node000011" class="node">
<title>Node11</title>
<g id="a_Node000011"><a xlink:title=" ">
<polygon fill="#e0e0e0" stroke="#999999" points="114.25,-19.25 69,-19.25 69,0 114.25,0 114.25,-19.25"/>
<text text-anchor="middle" x="91.62" y="-5.75" font-family="Helvetica,sans-Serif" font-size="10.00">cstdint</text>
</a>
</g>
</g>
<!-- Node10&#45;&gt;Node11 -->
<g id="edge10_Node000010_Node000011" class="edge">
<title>Node10&#45;&gt;Node11</title>
<g id="a_edge10_Node000010_Node000011"><a xlink:title=" ">
<path fill="none" stroke="#63b8ff" d="M84.11,-55.08C85.22,-48.49 86.79,-39.21 88.21,-30.82"/>
<polygon fill="#63b8ff" stroke="#63b8ff" points="91.64,-31.55 89.85,-21.1 84.74,-30.38 91.64,-31.55"/>
</a>
</g>
</g>
<!-- Node13&#45;&gt;Node7 -->
<g id="edge14_Node000013_Node000007" class="edge">
<title>Node13&#45;&gt;Node7</title>
<g id="a_edge14_Node000013_Node000007"><a xlink:title=" ">
<path fill="none" stroke="#63b8ff" d="M179.24,-54.84C146.92,-45.54 96.57,-31.05 62.4,-21.21"/>
<polygon fill="#63b8ff" stroke="#63b8ff" points="63.51,-17.89 52.94,-18.49 61.58,-24.62 63.51,-17.89"/>
</a>
</g>
</g>
<!-- Node13&#45;&gt;Node11 -->
<g id="edge13_Node000013_Node000011" class="edge">
<title>Node13&#45;&gt;Node11</title>
<g id="a_edge13_Node000013_Node000011"><a xlink:title=" ">
<path fill="none" stroke="#63b8ff" d="M190.44,-54.84C171.72,-46.47 143.6,-33.88 122.14,-24.28"/>
<polygon fill="#63b8ff" stroke="#63b8ff" points="123.85,-21.21 113.29,-20.32 120.99,-27.6 123.85,-21.21"/>
</a>
</g>
</g>
<!-- Node14 -->
<g id="Node000014" class="node">
<title>Node14</title>
<g id="a_Node000014"><a xlink:title=" ">
<polygon fill="#e0e0e0" stroke="#999999" points="172.62,-19.25 132.62,-19.25 132.62,0 172.62,0 172.62,-19.25"/>
<text text-anchor="middle" x="152.62" y="-5.75" font-family="Helvetica,sans-Serif" font-size="10.00">stack</text>
</a>
</g>
</g>
<!-- Node13&#45;&gt;Node14 -->
<g id="edge15_Node000013_Node000014" class="edge">
<title>Node13&#45;&gt;Node14</title>
<g id="a_edge15_Node000013_Node000014"><a xlink:title=" ">
<path fill="none" stroke="#63b8ff" d="M200.79,-54.84C192.57,-47.3 180.64,-36.35 170.71,-27.23"/>
<polygon fill="#63b8ff" stroke="#63b8ff" points="173.17,-24.73 163.43,-20.55 168.43,-29.89 173.17,-24.73"/>
</a>
</g>
</g>
<!-- Node15 -->
<g id="Node000015" class="node">
<title>Node15</title>
<g id="a_Node000015"><a xlink:title=" ">
<polygon fill="#e0e0e0" stroke="#999999" points="248.62,-19.25 190.62,-19.25 190.62,0 248.62,0 248.62,-19.25"/>
<text text-anchor="middle" x="219.62" y="-5.75" font-family="Helvetica,sans-Serif" font-size="10.00">functional</text>
</a>
</g>
</g>
<!-- Node13&#45;&gt;Node15 -->
<g id="edge16_Node000013_Node000015" class="edge">
<title>Node13&#45;&gt;Node15</title>
<g id="a_edge16_Node000013_Node000015"><a xlink:title=" ">
<path fill="none" stroke="#63b8ff" d="M212.11,-55.08C213.22,-48.49 214.79,-39.21 216.21,-30.82"/>
<polygon fill="#63b8ff" stroke="#63b8ff" points="219.64,-31.55 217.85,-21.1 212.74,-30.38 219.64,-31.55"/>
</a>
</g>
</g>
<!-- Node16 -->
<g id="Node000016" class="node">
<title>Node16</title>
<g id="a_Node000016"><a xlink:title=" ">
<polygon fill="#e0e0e0" stroke="#999999" points="325,-19.25 266.25,-19.25 266.25,0 325,0 325,-19.25"/>
<text text-anchor="middle" x="295.62" y="-5.75" font-family="Helvetica,sans-Serif" font-size="10.00">stdexcept</text>
</a>
</g>
</g>
<!-- Node13&#45;&gt;Node16 -->
<g id="edge17_Node000013_Node000016" class="edge">
<title>Node13&#45;&gt;Node16</title>
<g id="a_edge17_Node000013_Node000016"><a xlink:title=" ">
<path fill="none" stroke="#63b8ff" d="M225.04,-54.84C237.74,-46.89 256.5,-35.14 271.48,-25.75"/>
<polygon fill="#63b8ff" stroke="#63b8ff" points="273.24,-28.78 279.85,-20.51 269.52,-22.85 273.24,-28.78"/>
</a>
</g>
</g>
<!-- Node17&#45;&gt;Node12 -->
<g id="edge19_Node000017_Node000012" class="edge">
<title>Node17&#45;&gt;Node12</title>
<g id="a_edge19_Node000017_Node000012"><a xlink:title=" ">
<path fill="none" stroke="#63b8ff" d="M733.71,-165.5C733.87,-148.25 734.22,-109.83 734.44,-86.06"/>
<polygon fill="#63b8ff" stroke="#63b8ff" points="737.94,-86.42 734.53,-76.39 730.94,-86.36 737.94,-86.42"/>
</a>
</g>
</g>
<!-- Node18&#45;&gt;Node12 -->
<g id="edge21_Node000018_Node000012" class="edge">
<title>Node18&#45;&gt;Node12</title>
<g id="a_edge21_Node000018_Node000012"><a xlink:title=" ">
<path fill="none" stroke="#63b8ff" d="M659.06,-110.09C672.79,-102.06 693.12,-90.16 709.24,-80.73"/>
<polygon fill="#63b8ff" stroke="#63b8ff" points="710.94,-83.79 717.81,-75.72 707.41,-77.75 710.94,-83.79"/>
</a>
</g>
</g>
</g>
</svg>
