<?xml version="1.0" encoding="UTF-8" standalone="no"?>
<!DOCTYPE svg PUBLIC "-//W3C//DTD SVG 1.1//EN"
 "http://www.w3.org/Graphics/SVG/1.1/DTD/svg11.dtd">
<!-- Generated by graphviz version 12.2.1 (20241206.2353)
 -->
<!-- Title: Component.hpp Pages: 1 -->
<svg width="769pt" height="469pt"
 viewBox="0.00 0.00 768.54 469.25" xmlns="http://www.w3.org/2000/svg" xmlns:xlink="http://www.w3.org/1999/xlink">
<g id="graph0" class="graph" transform="scale(1 1) rotate(0) translate(4 465.25)">
<title>Component.hpp</title>
<!-- Node1 -->
<g id="Node000001" class="node">
<title>Node1</title>
<g id="a_Node000001"><a xlink:title="컴포넌트 베이스">
<polygon fill="#999999" stroke="#666666" points="397.62,-461.25 312.62,-461.25 312.62,-442 397.62,-442 397.62,-461.25"/>
<text text-anchor="middle" x="355.12" y="-447.75" font-family="Helvetica,sans-Serif" font-size="10.00">Component.hpp</text>
</a>
</g>
</g>
<!-- Node2 -->
<g id="Node000002" class="node">
<title>Node2</title>
<g id="a_Node000002"><a xlink:href="_animation_8hpp.html" target="_top" xlink:title="애니메이션 컴포넌트">
<polygon fill="white" stroke="#666666" points="78.25,-406 0,-406 0,-386.75 78.25,-386.75 78.25,-406"/>
<text text-anchor="middle" x="39.12" y="-392.5" font-family="Helvetica,sans-Serif" font-size="10.00">Animation.hpp</text>
</a>
</g>
</g>
<!-- Node1&#45;&gt;Node2 -->
<g id="edge1_Node000001_Node000002" class="edge">
<title>Node1&#45;&gt;Node2</title>
<g id="a_edge1_Node000001_Node000002"><a xlink:title=" ">
<path fill="none" stroke="#63b8ff" d="M301.34,-441.88C247.2,-433.02 161.32,-418.84 87.12,-406 84.37,-405.52 81.53,-405.03 78.67,-404.52"/>
<polygon fill="#63b8ff" stroke="#63b8ff" points="300.47,-445.28 310.9,-443.44 301.6,-438.37 300.47,-445.28"/>
</a>
</g>
</g>
<!-- Node9 -->
<g id="Node000009" class="node">
<title>Node9</title>
<g id="a_Node000009"><a xlink:href="_collider_8hpp.html" target="_top" xlink:title="충돌 컴포넌트">
<polygon fill="white" stroke="#666666" points="431.62,-406 364.62,-406 364.62,-386.75 431.62,-386.75 431.62,-406"/>
<text text-anchor="middle" x="398.12" y="-392.5" font-family="Helvetica,sans-Serif" font-size="10.00">Collider.hpp</text>
</a>
</g>
</g>
<!-- Node1&#45;&gt;Node9 -->
<g id="edge11_Node000001_Node000009" class="edge">
<title>Node1&#45;&gt;Node9</title>
<g id="a_edge11_Node000001_Node000009"><a xlink:title=" ">
<path fill="none" stroke="#63b8ff" d="M369.38,-432.97C376.58,-424.06 385.01,-413.62 390.87,-406.36"/>
<polygon fill="#63b8ff" stroke="#63b8ff" points="366.74,-430.68 363.18,-440.65 372.18,-435.07 366.74,-430.68"/>
</a>
</g>
</g>
<!-- Node12 -->
<g id="Node000012" class="node">
<title>Node12</title>
<g id="a_Node000012"><a xlink:href="_e_c_s_manager_8hpp.html" target="_top" xlink:title="ECS 매니저의 중추 설계 헤더">
<polygon fill="white" stroke="#666666" points="630.38,-406 537.88,-406 537.88,-386.75 630.38,-386.75 630.38,-406"/>
<text text-anchor="middle" x="584.12" y="-392.5" font-family="Helvetica,sans-Serif" font-size="10.00">ECSManager.hpp</text>
</a>
</g>
</g>
<!-- Node1&#45;&gt;Node12 -->
<g id="edge17_Node000001_Node000012" class="edge">
<title>Node1&#45;&gt;Node12</title>
<g id="a_edge17_Node000001_Node000012"><a xlink:title=" ">
<path fill="none" stroke="#63b8ff" d="M405.34,-438.95C447.42,-429.16 506.62,-415.4 545.18,-406.43"/>
<polygon fill="#63b8ff" stroke="#63b8ff" points="404.65,-435.51 395.71,-441.19 406.24,-442.33 404.65,-435.51"/>
</a>
</g>
</g>
<!-- Node17 -->
<g id="Node000017" class="node">
<title>Node17</title>
<g id="a_Node000017"><a xlink:href="_gravity_8hpp.html" target="_top" xlink:title="중력 컴포넌트">
<polygon fill="white" stroke="#666666" points="713.5,-406 648.75,-406 648.75,-386.75 713.5,-386.75 713.5,-406"/>
<text text-anchor="middle" x="681.12" y="-392.5" font-family="Helvetica,sans-Serif" font-size="10.00">Gravity.hpp</text>
</a>
</g>
</g>
<!-- Node1&#45;&gt;Node17 -->
<g id="edge28_Node000001_Node000017" class="edge">
<title>Node1&#45;&gt;Node17</title>
<g id="a_edge28_Node000001_Node000017"><a xlink:title=" ">
<path fill="none" stroke="#63b8ff" d="M409.36,-442.87C466.61,-434.51 559.41,-420.44 639.12,-406 642.2,-405.44 645.4,-404.84 648.59,-404.21"/>
<polygon fill="#63b8ff" stroke="#63b8ff" points="408.94,-439.4 399.55,-444.3 409.95,-446.32 408.94,-439.4"/>
</a>
</g>
</g>
<!-- Node18 -->
<g id="Node000018" class="node">
<title>Node18</title>
<g id="a_Node000018"><a xlink:href="_player_state_8hpp.html" target="_top" xlink:title="플레이어 상태 컴포넌트 헤더">
<polygon fill="white" stroke="#666666" points="182,-406 96.25,-406 96.25,-386.75 182,-386.75 182,-406"/>
<text text-anchor="middle" x="139.12" y="-392.5" font-family="Helvetica,sans-Serif" font-size="10.00">PlayerState.hpp</text>
</a>
</g>
</g>
<!-- Node1&#45;&gt;Node18 -->
<g id="edge29_Node000001_Node000018" class="edge">
<title>Node1&#45;&gt;Node18</title>
<g id="a_edge29_Node000001_Node000018"><a xlink:title=" ">
<path fill="none" stroke="#63b8ff" d="M307.5,-438.88C267.86,-429.11 212.24,-415.4 175.95,-406.45"/>
<polygon fill="#63b8ff" stroke="#63b8ff" points="306.47,-442.23 317.01,-441.23 308.14,-435.44 306.47,-442.23"/>
</a>
</g>
</g>
<!-- Node19 -->
<g id="Node000019" class="node">
<title>Node19</title>
<g id="a_Node000019"><a xlink:href="_position_8hpp.html" target="_top" xlink:title="위치 컴포넌트">
<polygon fill="white" stroke="#666666" points="520.12,-406 450.12,-406 450.12,-386.75 520.12,-386.75 520.12,-406"/>
<text text-anchor="middle" x="485.12" y="-392.5" font-family="Helvetica,sans-Serif" font-size="10.00">Position.hpp</text>
</a>
</g>
</g>
<!-- Node1&#45;&gt;Node19 -->
<g id="edge31_Node000001_Node000019" class="edge">
<title>Node1&#45;&gt;Node19</title>
<g id="a_edge31_Node000001_Node000019"><a xlink:title=" ">
<path fill="none" stroke="#63b8ff" d="M387.7,-437.28C411.19,-427.66 442.29,-414.92 462.96,-406.45"/>
<polygon fill="#63b8ff" stroke="#63b8ff" points="386.51,-433.99 378.58,-441.02 389.16,-440.47 386.51,-433.99"/>
</a>
</g>
</g>
<!-- Node20 -->
<g id="Node000020" class="node">
<title>Node20</title>
<g id="a_Node000020"><a xlink:href="_sprite_8hpp.html" target="_top" xlink:title="스프라이트 컴포넌트">
<polygon fill="white" stroke="#666666" points="260.25,-406 200,-406 200,-386.75 260.25,-386.75 260.25,-406"/>
<text text-anchor="middle" x="230.12" y="-392.5" font-family="Helvetica,sans-Serif" font-size="10.00">Sprite.hpp</text>
</a>
</g>
</g>
<!-- Node1&#45;&gt;Node20 -->
<g id="edge34_Node000001_Node000020" class="edge">
<title>Node1&#45;&gt;Node20</title>
<g id="a_edge34_Node000001_Node000020"><a xlink:title=" ">
<path fill="none" stroke="#63b8ff" d="M323.5,-437.15C300.94,-427.54 271.22,-414.88 251.43,-406.45"/>
<polygon fill="#63b8ff" stroke="#63b8ff" points="321.96,-440.3 332.53,-441 324.7,-433.86 321.96,-440.3"/>
</a>
</g>
</g>
<!-- Node21 -->
<g id="Node000021" class="node">
<title>Node21</title>
<g id="a_Node000021"><a xlink:href="_velocity_8hpp.html" target="_top" xlink:title="속도 컴포넌트">
<polygon fill="white" stroke="#666666" points="346.38,-406 277.88,-406 277.88,-386.75 346.38,-386.75 346.38,-406"/>
<text text-anchor="middle" x="312.12" y="-392.5" font-family="Helvetica,sans-Serif" font-size="10.00">Velocity.hpp</text>
</a>
</g>
</g>
<!-- Node1&#45;&gt;Node21 -->
<g id="edge36_Node000001_Node000021" class="edge">
<title>Node1&#45;&gt;Node21</title>
<g id="a_edge36_Node000001_Node000021"><a xlink:title=" ">
<path fill="none" stroke="#63b8ff" d="M340.87,-432.97C333.67,-424.06 325.24,-413.62 319.38,-406.36"/>
<polygon fill="#63b8ff" stroke="#63b8ff" points="338.07,-435.07 347.07,-440.65 343.51,-430.68 338.07,-435.07"/>
</a>
</g>
</g>
<!-- Node3 -->
<g id="Node000003" class="node">
<title>Node3</title>
<g id="a_Node000003"><a xlink:href="_components_8hpp.html" target="_top" xlink:title="ECS 아키텍처에서 사용되는 주요 컴포넌트를 한데 모아 포함하는 헤더">
<polygon fill="white" stroke="#666666" points="333.25,-350.75 243,-350.75 243,-331.5 333.25,-331.5 333.25,-350.75"/>
<text text-anchor="middle" x="288.12" y="-337.25" font-family="Helvetica,sans-Serif" font-size="10.00">Components.hpp</text>
</a>
</g>
</g>
<!-- Node2&#45;&gt;Node3 -->
<g id="edge2_Node000002_Node000003" class="edge">
<title>Node2&#45;&gt;Node3</title>
<g id="a_edge2_Node000002_Node000003"><a xlink:title=" ">
<path fill="none" stroke="#63b8ff" d="M89.76,-384.55C135.59,-374.74 202.36,-360.47 245.52,-351.24"/>
<polygon fill="#63b8ff" stroke="#63b8ff" points="89.11,-381.11 80.06,-386.62 90.57,-387.95 89.11,-381.11"/>
</a>
</g>
</g>
<!-- Node4 -->
<g id="Node000004" class="node">
<title>Node4</title>
<g id="a_Node000004"><a xlink:href="_core_8hpp.html" target="_top" xlink:title="모든 해더를 포함하는 헤더">
<polygon fill="white" stroke="#666666" points="406,-129.75 350.25,-129.75 350.25,-110.5 406,-110.5 406,-129.75"/>
<text text-anchor="middle" x="378.12" y="-116.25" font-family="Helvetica,sans-Serif" font-size="10.00">Core.hpp</text>
</a>
</g>
</g>
<!-- Node3&#45;&gt;Node4 -->
<g id="edge3_Node000003_Node000004" class="edge">
<title>Node3&#45;&gt;Node4</title>
<g id="a_edge3_Node000003_Node000004"><a xlink:title=" ">
<path fill="none" stroke="#63b8ff" d="M266.48,-323.88C258.14,-316.29 249.56,-306.49 245.12,-295.5 241.92,-287.57 242.35,-284.34 245.12,-276.25 268.28,-208.81 337.06,-151.64 365.55,-130.19"/>
<polygon fill="#63b8ff" stroke="#63b8ff" points="264.15,-326.49 274.06,-330.23 268.64,-321.13 264.15,-326.49"/>
</a>
</g>
</g>
<!-- Node7 -->
<g id="Node000007" class="node">
<title>Node7</title>
<g id="a_Node000007"><a xlink:href="_storage_8hpp.html" target="_top" xlink:title="게임 상태 저장 클래스 헤더">
<polygon fill="white" stroke="#666666" points="322.38,-295.5 253.88,-295.5 253.88,-276.25 322.38,-276.25 322.38,-295.5"/>
<text text-anchor="middle" x="288.12" y="-282" font-family="Helvetica,sans-Serif" font-size="10.00">Storage.hpp</text>
</a>
</g>
</g>
<!-- Node3&#45;&gt;Node7 -->
<g id="edge7_Node000003_Node000007" class="edge">
<title>Node3&#45;&gt;Node7</title>
<g id="a_edge7_Node000003_Node000007"><a xlink:title=" ">
<path fill="none" stroke="#63b8ff" d="M288.12,-319.88C288.12,-311.59 288.12,-302.42 288.12,-295.86"/>
<polygon fill="#63b8ff" stroke="#63b8ff" points="284.63,-319.82 288.13,-329.82 291.63,-319.82 284.63,-319.82"/>
</a>
</g>
</g>
<!-- Node8 -->
<g id="Node000008" class="node">
<title>Node8</title>
<g id="a_Node000008"><a xlink:href="_world_8hpp.html" target="_top" xlink:title="시스템을 관리하는 클래스 헤더">
<polygon fill="white" stroke="#666666" points="413.88,-185 354.38,-185 354.38,-165.75 413.88,-165.75 413.88,-185"/>
<text text-anchor="middle" x="384.12" y="-171.5" font-family="Helvetica,sans-Serif" font-size="10.00">World.hpp</text>
</a>
</g>
</g>
<!-- Node3&#45;&gt;Node8 -->
<g id="edge9_Node000003_Node000008" class="edge">
<title>Node3&#45;&gt;Node8</title>
<g id="a_edge9_Node000003_Node000008"><a xlink:title=" ">
<path fill="none" stroke="#63b8ff" d="M307.01,-323.37C315.14,-315.48 324.33,-305.59 331.12,-295.5 356.54,-257.76 374.72,-205.85 381.36,-185.28"/>
<polygon fill="#63b8ff" stroke="#63b8ff" points="304.79,-320.65 299.86,-330.03 309.56,-325.77 304.79,-320.65"/>
</a>
</g>
</g>
<!-- Node5 -->
<g id="Node000005" class="node">
<title>Node5</title>
<g id="a_Node000005"><a xlink:href="_game_8hpp.html" target="_top" xlink:title="Game 세팅, 실제 게임이 구현되는 워크 스페이스">
<polygon fill="white" stroke="#666666" points="408.62,-19.25 347.62,-19.25 347.62,0 408.62,0 408.62,-19.25"/>
<text text-anchor="middle" x="378.12" y="-5.75" font-family="Helvetica,sans-Serif" font-size="10.00">Game.hpp</text>
</a>
</g>
</g>
<!-- Node4&#45;&gt;Node5 -->
<g id="edge4_Node000004_Node000005" class="edge">
<title>Node4&#45;&gt;Node5</title>
<g id="a_edge4_Node000004_Node000005"><a xlink:title=" ">
<path fill="none" stroke="#63b8ff" d="M368.98,-99.93C364.06,-87.32 359.49,-70.43 362.12,-55.25 364.35,-42.44 369.93,-28.44 373.87,-19.6"/>
<polygon fill="#63b8ff" stroke="#63b8ff" points="365.61,-100.95 372.8,-108.73 372.03,-98.16 365.61,-100.95"/>
</a>
</g>
</g>
<!-- Node6 -->
<g id="Node000006" class="node">
<title>Node6</title>
<g id="a_Node000006"><a xlink:href="_protagonist_8hpp_source.html" target="_top" xlink:title=" ">
<polygon fill="white" stroke="#666666" points="455.25,-74.5 371,-74.5 371,-55.25 455.25,-55.25 455.25,-74.5"/>
<text text-anchor="middle" x="413.12" y="-61" font-family="Helvetica,sans-Serif" font-size="10.00">Protagonist.hpp</text>
</a>
</g>
</g>
<!-- Node4&#45;&gt;Node6 -->
<g id="edge5_Node000004_Node000006" class="edge">
<title>Node4&#45;&gt;Node6</title>
<g id="a_edge5_Node000004_Node000006"><a xlink:title=" ">
<path fill="none" stroke="#63b8ff" d="M390.1,-100.9C395.88,-92.11 402.55,-81.96 407.22,-74.86"/>
<polygon fill="#63b8ff" stroke="#63b8ff" points="387.3,-98.79 384.74,-109.07 393.15,-102.63 387.3,-98.79"/>
</a>
</g>
</g>
<!-- Node6&#45;&gt;Node5 -->
<g id="edge6_Node000006_Node000005" class="edge">
<title>Node6&#45;&gt;Node5</title>
<g id="a_edge6_Node000006_Node000005"><a xlink:title=" ">
<path fill="none" stroke="#63b8ff" d="M401.15,-45.65C395.37,-36.86 388.7,-26.71 384.03,-19.61"/>
<polygon fill="#63b8ff" stroke="#63b8ff" points="398.1,-47.38 406.51,-53.82 403.95,-43.54 398.1,-47.38"/>
</a>
</g>
</g>
<!-- Node7&#45;&gt;Node4 -->
<g id="edge8_Node000007_Node000004" class="edge">
<title>Node7&#45;&gt;Node4</title>
<g id="a_edge8_Node000007_Node000004"><a xlink:title=" ">
<path fill="none" stroke="#63b8ff" d="M296.1,-265.35C306.25,-241.26 324.91,-199.36 345.12,-165.75 352.97,-152.7 363.7,-138.76 370.77,-130"/>
<polygon fill="#63b8ff" stroke="#63b8ff" points="292.9,-263.93 292.3,-274.51 299.37,-266.62 292.9,-263.93"/>
</a>
</g>
</g>
<!-- Node8&#45;&gt;Node4 -->
<g id="edge10_Node000008_Node000004" class="edge">
<title>Node8&#45;&gt;Node4</title>
<g id="a_edge10_Node000008_Node000004"><a xlink:title=" ">
<path fill="none" stroke="#63b8ff" d="M381.88,-154.42C380.93,-146.05 379.89,-136.75 379.14,-130.11"/>
<polygon fill="#63b8ff" stroke="#63b8ff" points="378.37,-154.53 382.96,-164.08 385.32,-153.75 378.37,-154.53"/>
</a>
</g>
</g>
<!-- Node9&#45;&gt;Node3 -->
<g id="edge16_Node000009_Node000003" class="edge">
<title>Node9&#45;&gt;Node3</title>
<g id="a_edge16_Node000009_Node000003"><a xlink:title=" ">
<path fill="none" stroke="#63b8ff" d="M369.2,-381.37C349.5,-371.83 323.97,-359.48 306.88,-351.2"/>
<polygon fill="#63b8ff" stroke="#63b8ff" points="367.58,-384.48 378.1,-385.68 370.63,-378.17 367.58,-384.48"/>
</a>
</g>
</g>
<!-- Node10 -->
<g id="Node000010" class="node">
<title>Node10</title>
<g id="a_Node000010"><a xlink:href="_collision_8hpp.html" target="_top" xlink:title="충돌 시스템 헤더">
<polygon fill="white" stroke="#666666" points="450.25,-295.5 378,-295.5 378,-276.25 450.25,-276.25 450.25,-295.5"/>
<text text-anchor="middle" x="414.12" y="-282" font-family="Helvetica,sans-Serif" font-size="10.00">Collision.hpp</text>
</a>
</g>
</g>
<!-- Node9&#45;&gt;Node10 -->
<g id="edge12_Node000009_Node000010" class="edge">
<title>Node9&#45;&gt;Node10</title>
<g id="a_edge12_Node000009_Node000010"><a xlink:title=" ">
<path fill="none" stroke="#63b8ff" d="M401.08,-375.35C404.57,-351.65 410.24,-313.22 412.8,-295.88"/>
<polygon fill="#63b8ff" stroke="#63b8ff" points="397.65,-374.59 399.66,-385 404.58,-375.62 397.65,-374.59"/>
</a>
</g>
</g>
<!-- Node11 -->
<g id="Node000011" class="node">
<title>Node11</title>
<g id="a_Node000011"><a xlink:href="_systems_8hpp.html" target="_top" xlink:title="게임 내 주요 시스템들을 한데 모아 포함하는 헤더 파일">
<polygon fill="white" stroke="#666666" points="524,-240.25 450.25,-240.25 450.25,-221 524,-221 524,-240.25"/>
<text text-anchor="middle" x="487.12" y="-226.75" font-family="Helvetica,sans-Serif" font-size="10.00">Systems.hpp</text>
</a>
</g>
</g>
<!-- Node10&#45;&gt;Node11 -->
<g id="edge13_Node000010_Node000011" class="edge">
<title>Node10&#45;&gt;Node11</title>
<g id="a_edge13_Node000010_Node000011"><a xlink:title=" ">
<path fill="none" stroke="#63b8ff" d="M435.59,-269.22C448.41,-259.87 464.22,-248.33 474.92,-240.52"/>
<polygon fill="#63b8ff" stroke="#63b8ff" points="433.75,-266.23 427.73,-274.95 437.87,-271.88 433.75,-266.23"/>
</a>
</g>
</g>
<!-- Node11&#45;&gt;Node4 -->
<g id="edge14_Node000011_Node000004" class="edge">
<title>Node11&#45;&gt;Node4</title>
<g id="a_edge14_Node000011_Node000004"><a xlink:title=" ">
<path fill="none" stroke="#63b8ff" d="M470.03,-212.53C457.14,-199.66 439.04,-181.58 423.12,-165.75 410.64,-153.33 396.19,-139.01 387.1,-130.01"/>
<polygon fill="#63b8ff" stroke="#63b8ff" points="467.4,-214.86 476.95,-219.45 472.35,-209.9 467.4,-214.86"/>
</a>
</g>
</g>
<!-- Node11&#45;&gt;Node8 -->
<g id="edge15_Node000011_Node000008" class="edge">
<title>Node11&#45;&gt;Node8</title>
<g id="a_edge15_Node000011_Node000008"><a xlink:title=" ">
<path fill="none" stroke="#63b8ff" d="M459.53,-215.36C441.15,-205.86 417.54,-193.65 401.68,-185.45"/>
<polygon fill="#63b8ff" stroke="#63b8ff" points="457.82,-218.41 468.31,-219.9 461.03,-212.2 457.82,-218.41"/>
</a>
</g>
</g>
<!-- Node12&#45;&gt;Node7 -->
<g id="edge18_Node000012_Node000007" class="edge">
<title>Node12&#45;&gt;Node7</title>
<g id="a_edge18_Node000012_Node000007"><a xlink:title=" ">
<path fill="none" stroke="#63b8ff" d="M548.82,-382.43C488.15,-360.19 365.57,-315.26 312.99,-295.99"/>
<polygon fill="#63b8ff" stroke="#63b8ff" points="547.38,-385.63 557.98,-385.79 549.79,-379.06 547.38,-385.63"/>
</a>
</g>
</g>
<!-- Node12&#45;&gt;Node8 -->
<g id="edge27_Node000012_Node000008" class="edge">
<title>Node12&#45;&gt;Node8</title>
<g id="a_edge27_Node000012_Node000008"><a xlink:title=" ">
<path fill="none" stroke="#63b8ff" d="M631.11,-383.2C693.02,-364.86 789.78,-326.83 751.12,-276.25 709.53,-221.82 494.25,-190.01 414.17,-179.91"/>
<polygon fill="#63b8ff" stroke="#63b8ff" points="630.47,-379.74 621.83,-385.87 632.41,-386.47 630.47,-379.74"/>
</a>
</g>
</g>
<!-- Node13 -->
<g id="Node000013" class="node">
<title>Node13</title>
<g id="a_Node000013"><a xlink:href="_system_8hpp.html" target="_top" xlink:title="시스템 베이스 클래스">
<polygon fill="white" stroke="#666666" points="618.38,-350.75 549.88,-350.75 549.88,-331.5 618.38,-331.5 618.38,-350.75"/>
<text text-anchor="middle" x="584.12" y="-337.25" font-family="Helvetica,sans-Serif" font-size="10.00">System.hpp</text>
</a>
</g>
</g>
<!-- Node12&#45;&gt;Node13 -->
<g id="edge19_Node000012_Node000013" class="edge">
<title>Node12&#45;&gt;Node13</title>
<g id="a_edge19_Node000012_Node000013"><a xlink:title=" ">
<path fill="none" stroke="#63b8ff" d="M584.12,-375.13C584.12,-366.84 584.12,-357.67 584.12,-351.11"/>
<polygon fill="#63b8ff" stroke="#63b8ff" points="580.63,-375.07 584.13,-385.07 587.63,-375.07 580.63,-375.07"/>
</a>
</g>
</g>
<!-- Node13&#45;&gt;Node10 -->
<g id="edge22_Node000013_Node000010" class="edge">
<title>Node13&#45;&gt;Node10</title>
<g id="a_edge22_Node000013_Node000010"><a xlink:title=" ">
<path fill="none" stroke="#63b8ff" d="M544.42,-327.69C513.39,-317.97 471,-304.69 443.1,-295.95"/>
<polygon fill="#63b8ff" stroke="#63b8ff" points="543.25,-330.99 553.84,-330.64 545.35,-324.31 543.25,-330.99"/>
</a>
</g>
</g>
<!-- Node14 -->
<g id="Node000014" class="node">
<title>Node14</title>
<g id="a_Node000014"><a xlink:href="_animating_8hpp.html" target="_top" xlink:title="애니메이션 시스템 헤더">
<polygon fill="white" stroke="#666666" points="546.25,-295.5 468,-295.5 468,-276.25 546.25,-276.25 546.25,-295.5"/>
<text text-anchor="middle" x="507.12" y="-282" font-family="Helvetica,sans-Serif" font-size="10.00">Animating.hpp</text>
</a>
</g>
</g>
<!-- Node13&#45;&gt;Node14 -->
<g id="edge20_Node000013_Node000014" class="edge">
<title>Node13&#45;&gt;Node14</title>
<g id="a_edge20_Node000013_Node000014"><a xlink:title=" ">
<path fill="none" stroke="#63b8ff" d="M561.94,-324.78C548.44,-315.45 531.67,-303.85 520.25,-295.95"/>
<polygon fill="#63b8ff" stroke="#63b8ff" points="559.6,-327.42 569.82,-330.23 563.58,-321.66 559.6,-327.42"/>
</a>
</g>
</g>
<!-- Node15 -->
<g id="Node000015" class="node">
<title>Node15</title>
<g id="a_Node000015"><a xlink:href="_movement_8hpp.html" target="_top" xlink:title="이동 시스템 헤더">
<polygon fill="white" stroke="#666666" points="644.38,-295.5 563.88,-295.5 563.88,-276.25 644.38,-276.25 644.38,-295.5"/>
<text text-anchor="middle" x="604.12" y="-282" font-family="Helvetica,sans-Serif" font-size="10.00">Movement.hpp</text>
</a>
</g>
</g>
<!-- Node13&#45;&gt;Node15 -->
<g id="edge23_Node000013_Node000015" class="edge">
<title>Node13&#45;&gt;Node15</title>
<g id="a_edge23_Node000013_Node000015"><a xlink:title=" ">
<path fill="none" stroke="#63b8ff" d="M591.4,-320.75C594.6,-312.24 598.2,-302.65 600.75,-295.86"/>
<polygon fill="#63b8ff" stroke="#63b8ff" points="588.2,-319.32 587.96,-329.91 594.75,-321.78 588.2,-319.32"/>
</a>
</g>
</g>
<!-- Node16 -->
<g id="Node000016" class="node">
<title>Node16</title>
<g id="a_Node000016"><a xlink:href="_rendering_8hpp.html" target="_top" xlink:title="렌더링 시스템 헤더">
<polygon fill="white" stroke="#666666" points="741.62,-295.5 662.62,-295.5 662.62,-276.25 741.62,-276.25 741.62,-295.5"/>
<text text-anchor="middle" x="702.12" y="-282" font-family="Helvetica,sans-Serif" font-size="10.00">Rendering.hpp</text>
</a>
</g>
</g>
<!-- Node13&#45;&gt;Node16 -->
<g id="edge25_Node000013_Node000016" class="edge">
<title>Node13&#45;&gt;Node16</title>
<g id="a_edge25_Node000013_Node000016"><a xlink:title=" ">
<path fill="none" stroke="#63b8ff" d="M614.56,-326.39C635.78,-316.81 663.5,-304.31 682.01,-295.95"/>
<polygon fill="#63b8ff" stroke="#63b8ff" points="613.2,-323.17 605.52,-330.47 616.08,-329.55 613.2,-323.17"/>
</a>
</g>
</g>
<!-- Node14&#45;&gt;Node11 -->
<g id="edge21_Node000014_Node000011" class="edge">
<title>Node14&#45;&gt;Node11</title>
<g id="a_edge21_Node000014_Node000011"><a xlink:title=" ">
<path fill="none" stroke="#63b8ff" d="M499.85,-265.5C496.65,-256.99 493.05,-247.4 490.5,-240.61"/>
<polygon fill="#63b8ff" stroke="#63b8ff" points="496.5,-266.53 503.29,-274.66 503.05,-264.07 496.5,-266.53"/>
</a>
</g>
</g>
<!-- Node15&#45;&gt;Node11 -->
<g id="edge24_Node000015_Node000011" class="edge">
<title>Node15&#45;&gt;Node11</title>
<g id="a_edge24_Node000015_Node000011"><a xlink:title=" ">
<path fill="none" stroke="#63b8ff" d="M573.94,-271.14C552.9,-261.56 525.42,-249.06 507.07,-240.7"/>
<polygon fill="#63b8ff" stroke="#63b8ff" points="572.35,-274.26 582.9,-275.21 575.25,-267.89 572.35,-274.26"/>
</a>
</g>
</g>
<!-- Node16&#45;&gt;Node11 -->
<g id="edge26_Node000016_Node000011" class="edge">
<title>Node16&#45;&gt;Node11</title>
<g id="a_edge26_Node000016_Node000011"><a xlink:title=" ">
<path fill="none" stroke="#63b8ff" d="M654.72,-273.13C615.27,-263.36 559.9,-249.65 523.78,-240.7"/>
<polygon fill="#63b8ff" stroke="#63b8ff" points="653.64,-276.47 664.18,-275.48 655.32,-269.68 653.64,-276.47"/>
</a>
</g>
</g>
<!-- Node18&#45;&gt;Node3 -->
<g id="edge30_Node000018_Node000003" class="edge">
<title>Node18&#45;&gt;Node3</title>
<g id="a_edge30_Node000018_Node000003"><a xlink:title=" ">
<path fill="none" stroke="#63b8ff" d="M175,-382.55C202.09,-372.87 238.6,-359.82 262.73,-351.2"/>
<polygon fill="#63b8ff" stroke="#63b8ff" points="174.06,-379.17 165.83,-385.83 176.42,-385.76 174.06,-379.17"/>
</a>
</g>
</g>
<!-- Node19&#45;&gt;Node3 -->
<g id="edge33_Node000019_Node000003" class="edge">
<title>Node19&#45;&gt;Node3</title>
<g id="a_edge33_Node000019_Node000003"><a xlink:title=" ">
<path fill="none" stroke="#63b8ff" d="M440.99,-383.45C404.89,-373.69 354.59,-360.09 321.71,-351.2"/>
<polygon fill="#63b8ff" stroke="#63b8ff" points="439.68,-386.72 450.25,-385.95 441.51,-379.96 439.68,-386.72"/>
</a>
</g>
</g>
<!-- Node19&#45;&gt;Node10 -->
<g id="edge32_Node000019_Node000010" class="edge">
<title>Node19&#45;&gt;Node10</title>
<g id="a_edge32_Node000019_Node000010"><a xlink:title=" ">
<path fill="none" stroke="#63b8ff" d="M473.08,-376.97C457.68,-353.44 431.63,-313.62 420.02,-295.88"/>
<polygon fill="#63b8ff" stroke="#63b8ff" points="470.08,-378.78 478.49,-385.23 475.94,-374.95 470.08,-378.78"/>
</a>
</g>
</g>
<!-- Node20&#45;&gt;Node3 -->
<g id="edge35_Node000020_Node000003" class="edge">
<title>Node20&#45;&gt;Node3</title>
<g id="a_edge35_Node000020_Node000003"><a xlink:title=" ">
<path fill="none" stroke="#63b8ff" d="M248.39,-378.61C258.34,-369.47 270.26,-358.53 278.43,-351.02"/>
<polygon fill="#63b8ff" stroke="#63b8ff" points="246.08,-375.98 241.08,-385.32 250.81,-381.13 246.08,-375.98"/>
</a>
</g>
</g>
<!-- Node21&#45;&gt;Node3 -->
<g id="edge37_Node000021_Node000003" class="edge">
<title>Node21&#45;&gt;Node3</title>
<g id="a_edge37_Node000021_Node000003"><a xlink:title=" ">
<path fill="none" stroke="#63b8ff" d="M303.52,-376.29C299.65,-367.71 295.27,-357.98 292.17,-351.11"/>
<polygon fill="#63b8ff" stroke="#63b8ff" points="300.24,-377.52 307.54,-385.2 306.62,-374.65 300.24,-377.52"/>
</a>
</g>
</g>
</g>
</svg>
