<?xml version="1.0" encoding="UTF-8" standalone="no"?>
<!DOCTYPE svg PUBLIC "-//W3C//DTD SVG 1.1//EN"
 "http://www.w3.org/Graphics/SVG/1.1/DTD/svg11.dtd">
<!-- Generated by graphviz version 12.2.1 (20241206.2353)
 -->
<!-- Title: ComponentPool.hpp Pages: 1 -->
<svg width="401pt" height="469pt"
 viewBox="0.00 0.00 400.65 469.25" xmlns="http://www.w3.org/2000/svg" xmlns:xlink="http://www.w3.org/1999/xlink">
<g id="graph0" class="graph" transform="scale(1 1) rotate(0) translate(4 465.25)">
<title>ComponentPool.hpp</title>
<!-- Node1 -->
<g id="Node000001" class="node">
<title>Node1</title>
<g id="a_Node000001"><a xlink:title="풀(Pool) 기반 메모리 관리 인터페이스 및 컴포넌트 전용 풀 구현">
<polygon fill="#999999" stroke="#666666" points="243.98,-461.25 139.48,-461.25 139.48,-442 243.98,-442 243.98,-461.25"/>
<text text-anchor="middle" x="191.73" y="-447.75" font-family="Helvetica,sans-Serif" font-size="10.00">ComponentPool.hpp</text>
</a>
</g>
</g>
<!-- Node2 -->
<g id="Node000002" class="node">
<title>Node2</title>
<g id="a_Node000002"><a xlink:href="_e_c_s_manager_8hpp.html" target="_top" xlink:title="ECS 매니저의 중추 설계 헤더">
<polygon fill="white" stroke="#666666" points="237.98,-406 145.48,-406 145.48,-386.75 237.98,-386.75 237.98,-406"/>
<text text-anchor="middle" x="191.73" y="-392.5" font-family="Helvetica,sans-Serif" font-size="10.00">ECSManager.hpp</text>
</a>
</g>
</g>
<!-- Node1&#45;&gt;Node2 -->
<g id="edge1_Node000001_Node000002" class="edge">
<title>Node1&#45;&gt;Node2</title>
<g id="a_edge1_Node000001_Node000002"><a xlink:title=" ">
<path fill="none" stroke="#63b8ff" d="M191.73,-430.38C191.73,-422.09 191.73,-412.92 191.73,-406.36"/>
<polygon fill="#63b8ff" stroke="#63b8ff" points="188.23,-430.32 191.73,-440.32 195.23,-430.32 188.23,-430.32"/>
</a>
</g>
</g>
<!-- Node3 -->
<g id="Node000003" class="node">
<title>Node3</title>
<g id="a_Node000003"><a xlink:href="_storage_8hpp.html" target="_top" xlink:title="게임 상태 저장 클래스 헤더">
<polygon fill="white" stroke="#666666" points="120.98,-240.25 52.48,-240.25 52.48,-221 120.98,-221 120.98,-240.25"/>
<text text-anchor="middle" x="86.73" y="-226.75" font-family="Helvetica,sans-Serif" font-size="10.00">Storage.hpp</text>
</a>
</g>
</g>
<!-- Node2&#45;&gt;Node3 -->
<g id="edge2_Node000002_Node000003" class="edge">
<title>Node2&#45;&gt;Node3</title>
<g id="a_edge2_Node000002_Node000003"><a xlink:title=" ">
<path fill="none" stroke="#63b8ff" d="M138.28,-383.19C93.61,-369.87 32.69,-343.68 3.73,-295.5 -11.54,-270.1 26.28,-251.15 55.78,-240.73"/>
<polygon fill="#63b8ff" stroke="#63b8ff" points="137.23,-386.52 147.8,-385.89 139.14,-379.79 137.23,-386.52"/>
</a>
</g>
</g>
<!-- Node7 -->
<g id="Node000007" class="node">
<title>Node7</title>
<g id="a_Node000007"><a xlink:href="_system_8hpp.html" target="_top" xlink:title="시스템 베이스 클래스">
<polygon fill="white" stroke="#666666" points="225.98,-350.75 157.48,-350.75 157.48,-331.5 225.98,-331.5 225.98,-350.75"/>
<text text-anchor="middle" x="191.73" y="-337.25" font-family="Helvetica,sans-Serif" font-size="10.00">System.hpp</text>
</a>
</g>
</g>
<!-- Node2&#45;&gt;Node7 -->
<g id="edge7_Node000002_Node000007" class="edge">
<title>Node2&#45;&gt;Node7</title>
<g id="a_edge7_Node000002_Node000007"><a xlink:title=" ">
<path fill="none" stroke="#63b8ff" d="M191.73,-375.13C191.73,-366.84 191.73,-357.67 191.73,-351.11"/>
<polygon fill="#63b8ff" stroke="#63b8ff" points="188.23,-375.07 191.73,-385.07 195.23,-375.07 188.23,-375.07"/>
</a>
</g>
</g>
<!-- Node10 -->
<g id="Node000010" class="node">
<title>Node10</title>
<g id="a_Node000010"><a xlink:href="_world_8hpp.html" target="_top" xlink:title="시스템을 관리하는 클래스 헤더">
<polygon fill="white" stroke="#666666" points="258.48,-185 198.98,-185 198.98,-165.75 258.48,-165.75 258.48,-185"/>
<text text-anchor="middle" x="228.73" y="-171.5" font-family="Helvetica,sans-Serif" font-size="10.00">World.hpp</text>
</a>
</g>
</g>
<!-- Node2&#45;&gt;Node10 -->
<g id="edge19_Node000002_Node000010" class="edge">
<title>Node2&#45;&gt;Node10</title>
<g id="a_edge19_Node000002_Node000010"><a xlink:title=" ">
<path fill="none" stroke="#63b8ff" d="M248.21,-383.29C294.14,-370.16 356.02,-344.2 385.73,-295.5 420.11,-239.12 313.42,-200.04 258.82,-184.22"/>
<polygon fill="#63b8ff" stroke="#63b8ff" points="247.4,-379.88 238.66,-385.88 249.23,-386.64 247.4,-379.88"/>
</a>
</g>
</g>
<!-- Node4 -->
<g id="Node000004" class="node">
<title>Node4</title>
<g id="a_Node000004"><a xlink:href="_core_8hpp.html" target="_top" xlink:title="모든 해더를 포함하는 헤더">
<polygon fill="white" stroke="#666666" points="198.6,-129.75 142.85,-129.75 142.85,-110.5 198.6,-110.5 198.6,-129.75"/>
<text text-anchor="middle" x="170.73" y="-116.25" font-family="Helvetica,sans-Serif" font-size="10.00">Core.hpp</text>
</a>
</g>
</g>
<!-- Node3&#45;&gt;Node4 -->
<g id="edge3_Node000003_Node000004" class="edge">
<title>Node3&#45;&gt;Node4</title>
<g id="a_edge3_Node000003_Node000004"><a xlink:title=" ">
<path fill="none" stroke="#63b8ff" d="M100.49,-211.85C118.64,-188.41 149.9,-148.03 163.76,-130.13"/>
<polygon fill="#63b8ff" stroke="#63b8ff" points="97.88,-209.5 94.53,-219.55 103.42,-213.78 97.88,-209.5"/>
</a>
</g>
</g>
<!-- Node5 -->
<g id="Node000005" class="node">
<title>Node5</title>
<g id="a_Node000005"><a xlink:href="_game_8hpp.html" target="_top" xlink:title="Game 세팅, 실제 게임이 구현되는 워크 스페이스">
<polygon fill="white" stroke="#666666" points="201.23,-19.25 140.23,-19.25 140.23,0 201.23,0 201.23,-19.25"/>
<text text-anchor="middle" x="170.73" y="-5.75" font-family="Helvetica,sans-Serif" font-size="10.00">Game.hpp</text>
</a>
</g>
</g>
<!-- Node4&#45;&gt;Node5 -->
<g id="edge4_Node000004_Node000005" class="edge">
<title>Node4&#45;&gt;Node5</title>
<g id="a_edge4_Node000004_Node000005"><a xlink:title=" ">
<path fill="none" stroke="#63b8ff" d="M161.58,-99.93C156.66,-87.32 152.09,-70.43 154.73,-55.25 156.95,-42.44 162.53,-28.44 166.47,-19.6"/>
<polygon fill="#63b8ff" stroke="#63b8ff" points="158.21,-100.95 165.4,-108.73 164.63,-98.16 158.21,-100.95"/>
</a>
</g>
</g>
<!-- Node6 -->
<g id="Node000006" class="node">
<title>Node6</title>
<g id="a_Node000006"><a xlink:href="_protagonist_8hpp_source.html" target="_top" xlink:title=" ">
<polygon fill="white" stroke="#666666" points="247.85,-74.5 163.6,-74.5 163.6,-55.25 247.85,-55.25 247.85,-74.5"/>
<text text-anchor="middle" x="205.73" y="-61" font-family="Helvetica,sans-Serif" font-size="10.00">Protagonist.hpp</text>
</a>
</g>
</g>
<!-- Node4&#45;&gt;Node6 -->
<g id="edge5_Node000004_Node000006" class="edge">
<title>Node4&#45;&gt;Node6</title>
<g id="a_edge5_Node000004_Node000006"><a xlink:title=" ">
<path fill="none" stroke="#63b8ff" d="M182.7,-100.9C188.48,-92.11 195.15,-81.96 199.82,-74.86"/>
<polygon fill="#63b8ff" stroke="#63b8ff" points="179.91,-98.79 177.34,-109.07 185.75,-102.63 179.91,-98.79"/>
</a>
</g>
</g>
<!-- Node6&#45;&gt;Node5 -->
<g id="edge6_Node000006_Node000005" class="edge">
<title>Node6&#45;&gt;Node5</title>
<g id="a_edge6_Node000006_Node000005"><a xlink:title=" ">
<path fill="none" stroke="#63b8ff" d="M193.75,-45.65C187.97,-36.86 181.3,-26.71 176.63,-19.61"/>
<polygon fill="#63b8ff" stroke="#63b8ff" points="190.7,-47.38 199.12,-53.82 196.55,-43.54 190.7,-47.38"/>
</a>
</g>
</g>
<!-- Node8 -->
<g id="Node000008" class="node">
<title>Node8</title>
<g id="a_Node000008"><a xlink:href="_animating_8hpp.html" target="_top" xlink:title="애니메이션 시스템 헤더">
<polygon fill="white" stroke="#666666" points="90.85,-295.5 12.6,-295.5 12.6,-276.25 90.85,-276.25 90.85,-295.5"/>
<text text-anchor="middle" x="51.73" y="-282" font-family="Helvetica,sans-Serif" font-size="10.00">Animating.hpp</text>
</a>
</g>
</g>
<!-- Node7&#45;&gt;Node8 -->
<g id="edge8_Node000007_Node000008" class="edge">
<title>Node7&#45;&gt;Node8</title>
<g id="a_edge8_Node000007_Node000008"><a xlink:title=" ">
<path fill="none" stroke="#63b8ff" d="M157.33,-327.04C131.95,-317.39 98.06,-304.5 75.59,-295.95"/>
<polygon fill="#63b8ff" stroke="#63b8ff" points="155.97,-330.27 166.56,-330.55 158.46,-323.73 155.97,-330.27"/>
</a>
</g>
</g>
<!-- Node11 -->
<g id="Node000011" class="node">
<title>Node11</title>
<g id="a_Node000011"><a xlink:href="_collision_8hpp.html" target="_top" xlink:title="충돌 시스템 헤더">
<polygon fill="white" stroke="#666666" points="180.85,-295.5 108.6,-295.5 108.6,-276.25 180.85,-276.25 180.85,-295.5"/>
<text text-anchor="middle" x="144.73" y="-282" font-family="Helvetica,sans-Serif" font-size="10.00">Collision.hpp</text>
</a>
</g>
</g>
<!-- Node7&#45;&gt;Node11 -->
<g id="edge13_Node000007_Node000011" class="edge">
<title>Node7&#45;&gt;Node11</title>
<g id="a_edge13_Node000007_Node000011"><a xlink:title=" ">
<path fill="none" stroke="#63b8ff" d="M176.4,-322.76C168.47,-313.78 159.13,-303.2 152.66,-295.86"/>
<polygon fill="#63b8ff" stroke="#63b8ff" points="173.72,-325.02 182.96,-330.2 178.97,-320.38 173.72,-325.02"/>
</a>
</g>
</g>
<!-- Node12 -->
<g id="Node000012" class="node">
<title>Node12</title>
<g id="a_Node000012"><a xlink:href="_movement_8hpp.html" target="_top" xlink:title="이동 시스템 헤더">
<polygon fill="white" stroke="#666666" points="278.98,-295.5 198.48,-295.5 198.48,-276.25 278.98,-276.25 278.98,-295.5"/>
<text text-anchor="middle" x="238.73" y="-282" font-family="Helvetica,sans-Serif" font-size="10.00">Movement.hpp</text>
</a>
</g>
</g>
<!-- Node7&#45;&gt;Node12 -->
<g id="edge15_Node000007_Node000012" class="edge">
<title>Node7&#45;&gt;Node12</title>
<g id="a_edge15_Node000007_Node000012"><a xlink:title=" ">
<path fill="none" stroke="#63b8ff" d="M207.05,-322.76C214.98,-313.78 224.32,-303.2 230.8,-295.86"/>
<polygon fill="#63b8ff" stroke="#63b8ff" points="204.48,-320.38 200.49,-330.2 209.73,-325.02 204.48,-320.38"/>
</a>
</g>
</g>
<!-- Node13 -->
<g id="Node000013" class="node">
<title>Node13</title>
<g id="a_Node000013"><a xlink:href="_rendering_8hpp.html" target="_top" xlink:title="렌더링 시스템 헤더">
<polygon fill="white" stroke="#666666" points="376.23,-295.5 297.23,-295.5 297.23,-276.25 376.23,-276.25 376.23,-295.5"/>
<text text-anchor="middle" x="336.73" y="-282" font-family="Helvetica,sans-Serif" font-size="10.00">Rendering.hpp</text>
</a>
</g>
</g>
<!-- Node7&#45;&gt;Node13 -->
<g id="edge17_Node000007_Node000013" class="edge">
<title>Node7&#45;&gt;Node13</title>
<g id="a_edge17_Node000007_Node000013"><a xlink:title=" ">
<path fill="none" stroke="#63b8ff" d="M227,-327.17C253.32,-317.5 288.64,-304.54 312.01,-295.95"/>
<polygon fill="#63b8ff" stroke="#63b8ff" points="225.93,-323.84 217.74,-330.57 228.34,-330.41 225.93,-323.84"/>
</a>
</g>
</g>
<!-- Node9 -->
<g id="Node000009" class="node">
<title>Node9</title>
<g id="a_Node000009"><a xlink:href="_systems_8hpp.html" target="_top" xlink:title="게임 내 주요 시스템들을 한데 모아 포함하는 헤더 파일">
<polygon fill="white" stroke="#666666" points="228.6,-240.25 154.85,-240.25 154.85,-221 228.6,-221 228.6,-240.25"/>
<text text-anchor="middle" x="191.73" y="-226.75" font-family="Helvetica,sans-Serif" font-size="10.00">Systems.hpp</text>
</a>
</g>
</g>
<!-- Node8&#45;&gt;Node9 -->
<g id="edge9_Node000008_Node000009" class="edge">
<title>Node8&#45;&gt;Node9</title>
<g id="a_edge9_Node000008_Node000009"><a xlink:title=" ">
<path fill="none" stroke="#63b8ff" d="M86.12,-271.79C111.5,-262.14 145.4,-249.25 167.86,-240.7"/>
<polygon fill="#63b8ff" stroke="#63b8ff" points="84.99,-268.48 76.89,-275.3 87.48,-275.02 84.99,-268.48"/>
</a>
</g>
</g>
<!-- Node9&#45;&gt;Node4 -->
<g id="edge10_Node000009_Node000004" class="edge">
<title>Node9&#45;&gt;Node4</title>
<g id="a_edge10_Node000009_Node000004"><a xlink:title=" ">
<path fill="none" stroke="#63b8ff" d="M187.85,-209.6C183.26,-185.9 175.83,-147.47 172.47,-130.13"/>
<polygon fill="#63b8ff" stroke="#63b8ff" points="184.38,-210.11 189.72,-219.26 191.26,-208.78 184.38,-210.11"/>
</a>
</g>
</g>
<!-- Node9&#45;&gt;Node10 -->
<g id="edge11_Node000009_Node000010" class="edge">
<title>Node9&#45;&gt;Node10</title>
<g id="a_edge11_Node000009_Node000010"><a xlink:title=" ">
<path fill="none" stroke="#63b8ff" d="M204.39,-211.4C210.49,-202.61 217.55,-192.46 222.48,-185.36"/>
<polygon fill="#63b8ff" stroke="#63b8ff" points="201.53,-209.38 198.7,-219.59 207.28,-213.37 201.53,-209.38"/>
</a>
</g>
</g>
<!-- Node10&#45;&gt;Node4 -->
<g id="edge12_Node000010_Node000004" class="edge">
<title>Node10&#45;&gt;Node4</title>
<g id="a_edge12_Node000010_Node000004"><a xlink:title=" ">
<path fill="none" stroke="#63b8ff" d="M210.46,-157.61C200.51,-148.47 188.59,-137.53 180.42,-130.02"/>
<polygon fill="#63b8ff" stroke="#63b8ff" points="208.04,-160.13 217.77,-164.32 212.77,-154.98 208.04,-160.13"/>
</a>
</g>
</g>
<!-- Node11&#45;&gt;Node9 -->
<g id="edge14_Node000011_Node000009" class="edge">
<title>Node11&#45;&gt;Node9</title>
<g id="a_edge14_Node000011_Node000009"><a xlink:title=" ">
<path fill="none" stroke="#63b8ff" d="M160.05,-267.51C167.98,-258.53 177.32,-247.95 183.8,-240.61"/>
<polygon fill="#63b8ff" stroke="#63b8ff" points="157.48,-265.13 153.49,-274.95 162.73,-269.77 157.48,-265.13"/>
</a>
</g>
</g>
<!-- Node12&#45;&gt;Node9 -->
<g id="edge16_Node000012_Node000009" class="edge">
<title>Node12&#45;&gt;Node9</title>
<g id="a_edge16_Node000012_Node000009"><a xlink:title=" ">
<path fill="none" stroke="#63b8ff" d="M223.4,-267.51C215.47,-258.53 206.13,-247.95 199.66,-240.61"/>
<polygon fill="#63b8ff" stroke="#63b8ff" points="220.72,-269.77 229.96,-274.95 225.97,-265.13 220.72,-269.77"/>
</a>
</g>
</g>
<!-- Node13&#45;&gt;Node9 -->
<g id="edge18_Node000013_Node000009" class="edge">
<title>Node13&#45;&gt;Node9</title>
<g id="a_edge18_Node000013_Node000009"><a xlink:title=" ">
<path fill="none" stroke="#63b8ff" d="M301.46,-271.92C275.13,-262.25 239.82,-249.29 216.44,-240.7"/>
<polygon fill="#63b8ff" stroke="#63b8ff" points="300.11,-275.16 310.71,-275.32 302.53,-268.59 300.11,-275.16"/>
</a>
</g>
</g>
</g>
</svg>
