<?xml version="1.0" encoding="UTF-8" standalone="no"?>
<!DOCTYPE svg PUBLIC "-//W3C//DTD SVG 1.1//EN"
 "http://www.w3.org/Graphics/SVG/1.1/DTD/svg11.dtd">
<!-- Generated by graphviz version 12.2.1 (20241206.2353)
 -->
<!-- Title: Components.hpp Pages: 1 -->
<svg width="165pt" height="248pt"
 viewBox="0.00 0.00 165.12 248.25" xmlns="http://www.w3.org/2000/svg" xmlns:xlink="http://www.w3.org/1999/xlink">
<g id="graph0" class="graph" transform="scale(1 1) rotate(0) translate(4 244.25)">
<title>Components.hpp</title>
<!-- Node1 -->
<g id="Node000001" class="node">
<title>Node1</title>
<g id="a_Node000001"><a xlink:title="ECS 아키텍처에서 사용되는 주요 컴포넌트를 한데 모아 포함하는 헤더">
<polygon fill="#999999" stroke="#666666" points="90.49,-240.25 0.24,-240.25 0.24,-221 90.49,-221 90.49,-240.25"/>
<text text-anchor="middle" x="45.37" y="-226.75" font-family="Helvetica,sans-Serif" font-size="10.00">Components.hpp</text>
</a>
</g>
</g>
<!-- Node2 -->
<g id="Node000002" class="node">
<title>Node2</title>
<g id="a_Node000002"><a xlink:href="_core_8hpp.html" target="_top" xlink:title="모든 해더를 포함하는 헤더">
<polygon fill="white" stroke="#666666" points="73.24,-129.75 17.49,-129.75 17.49,-110.5 73.24,-110.5 73.24,-129.75"/>
<text text-anchor="middle" x="45.37" y="-116.25" font-family="Helvetica,sans-Serif" font-size="10.00">Core.hpp</text>
</a>
</g>
</g>
<!-- Node1&#45;&gt;Node2 -->
<g id="edge1_Node000001_Node000002" class="edge">
<title>Node1&#45;&gt;Node2</title>
<g id="a_edge1_Node000001_Node000002"><a xlink:title=" ">
<path fill="none" stroke="#63b8ff" d="M23.72,-213.38C15.38,-205.79 6.8,-195.99 2.37,-185 -6.28,-163.55 16.39,-141.92 32.01,-130.15"/>
<polygon fill="#63b8ff" stroke="#63b8ff" points="21.39,-215.99 31.3,-219.73 25.89,-210.63 21.39,-215.99"/>
</a>
</g>
</g>
<!-- Node5 -->
<g id="Node000005" class="node">
<title>Node5</title>
<g id="a_Node000005"><a xlink:href="_storage_8hpp.html" target="_top" xlink:title="게임 상태 저장 클래스 헤더">
<polygon fill="white" stroke="#666666" points="79.62,-185 11.12,-185 11.12,-165.75 79.62,-165.75 79.62,-185"/>
<text text-anchor="middle" x="45.37" y="-171.5" font-family="Helvetica,sans-Serif" font-size="10.00">Storage.hpp</text>
</a>
</g>
</g>
<!-- Node1&#45;&gt;Node5 -->
<g id="edge5_Node000001_Node000005" class="edge">
<title>Node1&#45;&gt;Node5</title>
<g id="a_edge5_Node000001_Node000005"><a xlink:title=" ">
<path fill="none" stroke="#63b8ff" d="M45.37,-209.38C45.37,-201.09 45.37,-191.92 45.37,-185.36"/>
<polygon fill="#63b8ff" stroke="#63b8ff" points="41.87,-209.32 45.37,-219.32 48.87,-209.32 41.87,-209.32"/>
</a>
</g>
</g>
<!-- Node6 -->
<g id="Node000006" class="node">
<title>Node6</title>
<g id="a_Node000006"><a xlink:href="_world_8hpp.html" target="_top" xlink:title="시스템을 관리하는 클래스 헤더">
<polygon fill="white" stroke="#666666" points="157.12,-185 97.62,-185 97.62,-165.75 157.12,-165.75 157.12,-185"/>
<text text-anchor="middle" x="127.37" y="-171.5" font-family="Helvetica,sans-Serif" font-size="10.00">World.hpp</text>
</a>
</g>
</g>
<!-- Node1&#45;&gt;Node6 -->
<g id="edge7_Node000001_Node000006" class="edge">
<title>Node1&#45;&gt;Node6</title>
<g id="a_edge7_Node000001_Node000006"><a xlink:title=" ">
<path fill="none" stroke="#63b8ff" d="M68.58,-214.55C83.02,-205.17 101.12,-193.42 113.39,-185.45"/>
<polygon fill="#63b8ff" stroke="#63b8ff" points="67.03,-211.39 60.55,-219.77 70.84,-217.26 67.03,-211.39"/>
</a>
</g>
</g>
<!-- Node3 -->
<g id="Node000003" class="node">
<title>Node3</title>
<g id="a_Node000003"><a xlink:href="_game_8hpp.html" target="_top" xlink:title="Game 세팅, 실제 게임이 구현되는 워크 스페이스">
<polygon fill="white" stroke="#666666" points="75.87,-19.25 14.87,-19.25 14.87,0 75.87,0 75.87,-19.25"/>
<text text-anchor="middle" x="45.37" y="-5.75" font-family="Helvetica,sans-Serif" font-size="10.00">Game.hpp</text>
</a>
</g>
</g>
<!-- Node2&#45;&gt;Node3 -->
<g id="edge2_Node000002_Node000003" class="edge">
<title>Node2&#45;&gt;Node3</title>
<g id="a_edge2_Node000002_Node000003"><a xlink:title=" ">
<path fill="none" stroke="#63b8ff" d="M36.22,-99.93C31.3,-87.32 26.73,-70.43 29.37,-55.25 31.6,-42.44 37.17,-28.44 41.11,-19.6"/>
<polygon fill="#63b8ff" stroke="#63b8ff" points="32.85,-100.95 40.04,-108.73 39.27,-98.16 32.85,-100.95"/>
</a>
</g>
</g>
<!-- Node4 -->
<g id="Node000004" class="node">
<title>Node4</title>
<g id="a_Node000004"><a xlink:href="_protagonist_8hpp_source.html" target="_top" xlink:title=" ">
<polygon fill="white" stroke="#666666" points="122.49,-74.5 38.24,-74.5 38.24,-55.25 122.49,-55.25 122.49,-74.5"/>
<text text-anchor="middle" x="80.37" y="-61" font-family="Helvetica,sans-Serif" font-size="10.00">Protagonist.hpp</text>
</a>
</g>
</g>
<!-- Node2&#45;&gt;Node4 -->
<g id="edge3_Node000002_Node000004" class="edge">
<title>Node2&#45;&gt;Node4</title>
<g id="a_edge3_Node000002_Node000004"><a xlink:title=" ">
<path fill="none" stroke="#63b8ff" d="M57.34,-100.9C63.12,-92.11 69.79,-81.96 74.46,-74.86"/>
<polygon fill="#63b8ff" stroke="#63b8ff" points="54.55,-98.79 51.98,-109.07 60.4,-102.63 54.55,-98.79"/>
</a>
</g>
</g>
<!-- Node4&#45;&gt;Node3 -->
<g id="edge4_Node000004_Node000003" class="edge">
<title>Node4&#45;&gt;Node3</title>
<g id="a_edge4_Node000004_Node000003"><a xlink:title=" ">
<path fill="none" stroke="#63b8ff" d="M68.39,-45.65C62.61,-36.86 55.94,-26.71 51.27,-19.61"/>
<polygon fill="#63b8ff" stroke="#63b8ff" points="65.34,-47.38 73.76,-53.82 71.19,-43.54 65.34,-47.38"/>
</a>
</g>
</g>
<!-- Node5&#45;&gt;Node2 -->
<g id="edge6_Node000005_Node000002" class="edge">
<title>Node5&#45;&gt;Node2</title>
<g id="a_edge6_Node000005_Node000002"><a xlink:title=" ">
<path fill="none" stroke="#63b8ff" d="M45.37,-154.13C45.37,-145.84 45.37,-136.67 45.37,-130.11"/>
<polygon fill="#63b8ff" stroke="#63b8ff" points="41.87,-154.07 45.37,-164.07 48.87,-154.07 41.87,-154.07"/>
</a>
</g>
</g>
<!-- Node6&#45;&gt;Node2 -->
<g id="edge8_Node000006_Node000002" class="edge">
<title>Node6&#45;&gt;Node2</title>
<g id="a_edge8_Node000006_Node000002"><a xlink:title=" ">
<path fill="none" stroke="#63b8ff" d="M104.16,-159.3C89.72,-149.92 71.62,-138.17 59.35,-130.2"/>
<polygon fill="#63b8ff" stroke="#63b8ff" points="101.9,-162.01 112.19,-164.52 105.71,-156.14 101.9,-162.01"/>
</a>
</g>
</g>
</g>
</svg>
