<?xml version="1.0" encoding="UTF-8" standalone="no"?>
<!DOCTYPE svg PUBLIC "-//W3C//DTD SVG 1.1//EN"
 "http://www.w3.org/Graphics/SVG/1.1/DTD/svg11.dtd">
<!-- Generated by graphviz version 12.2.1 (20241206.2353)
 -->
<!-- Title: Dispatcher.hpp Pages: 1 -->
<svg width="307pt" height="83pt"
 viewBox="0.00 0.00 306.50 82.50" xmlns="http://www.w3.org/2000/svg" xmlns:xlink="http://www.w3.org/1999/xlink">
<g id="graph0" class="graph" transform="scale(1 1) rotate(0) translate(4 78.5)">
<title>Dispatcher.hpp</title>
<!-- Node1 -->
<g id="Node000001" class="node">
<title>Node1</title>
<g id="a_Node000001"><a xlink:title="이벤트 디스패처 헤더">
<polygon fill="#999999" stroke="#666666" points="197,-74.5 115.75,-74.5 115.75,-55.25 197,-55.25 197,-74.5"/>
<text text-anchor="middle" x="156.38" y="-61" font-family="Helvetica,sans-Serif" font-size="10.00">Dispatcher.hpp</text>
</a>
</g>
</g>
<!-- Node2 -->
<g id="Node000002" class="node">
<title>Node2</title>
<g id="a_Node000002"><a xlink:title=" ">
<polygon fill="#e0e0e0" stroke="#999999" points="82.75,-19.25 0,-19.25 0,0 82.75,0 82.75,-19.25"/>
<text text-anchor="middle" x="41.38" y="-5.75" font-family="Helvetica,sans-Serif" font-size="10.00">unordered_map</text>
</a>
</g>
</g>
<!-- Node1&#45;&gt;Node2 -->
<g id="edge1_Node000001_Node000002" class="edge">
<title>Node1&#45;&gt;Node2</title>
<g id="a_edge1_Node000001_Node000002"><a xlink:title=" ">
<path fill="none" stroke="#63b8ff" d="M136.87,-54.84C118.86,-46.5 91.85,-34 71.15,-24.41"/>
<polygon fill="#63b8ff" stroke="#63b8ff" points="72.9,-21.36 62.35,-20.34 69.96,-27.72 72.9,-21.36"/>
</a>
</g>
</g>
<!-- Node3 -->
<g id="Node000003" class="node">
<title>Node3</title>
<g id="a_Node000003"><a xlink:title=" ">
<polygon fill="#e0e0e0" stroke="#999999" points="143.88,-19.25 100.88,-19.25 100.88,0 143.88,0 143.88,-19.25"/>
<text text-anchor="middle" x="122.38" y="-5.75" font-family="Helvetica,sans-Serif" font-size="10.00">vector</text>
</a>
</g>
</g>
<!-- Node1&#45;&gt;Node3 -->
<g id="edge2_Node000001_Node000003" class="edge">
<title>Node1&#45;&gt;Node3</title>
<g id="a_edge2_Node000001_Node000003"><a xlink:title=" ">
<path fill="none" stroke="#63b8ff" d="M150.76,-55.08C146.26,-48.03 139.79,-37.9 134.16,-29.08"/>
<polygon fill="#63b8ff" stroke="#63b8ff" points="137.26,-27.43 128.93,-20.88 131.36,-31.2 137.26,-27.43"/>
</a>
</g>
</g>
<!-- Node4 -->
<g id="Node000004" class="node">
<title>Node4</title>
<g id="a_Node000004"><a xlink:title=" ">
<polygon fill="#e0e0e0" stroke="#999999" points="220.38,-19.25 162.38,-19.25 162.38,0 220.38,0 220.38,-19.25"/>
<text text-anchor="middle" x="191.38" y="-5.75" font-family="Helvetica,sans-Serif" font-size="10.00">functional</text>
</a>
</g>
</g>
<!-- Node1&#45;&gt;Node4 -->
<g id="edge3_Node000001_Node000004" class="edge">
<title>Node1&#45;&gt;Node4</title>
<g id="a_edge3_Node000001_Node000004"><a xlink:title=" ">
<path fill="none" stroke="#63b8ff" d="M162.15,-55.08C166.79,-48.03 173.45,-37.9 179.24,-29.08"/>
<polygon fill="#63b8ff" stroke="#63b8ff" points="182.07,-31.15 184.64,-20.87 176.22,-27.31 182.07,-31.15"/>
</a>
</g>
</g>
<!-- Node5 -->
<g id="Node000005" class="node">
<title>Node5</title>
<g id="a_Node000005"><a xlink:href="_event_8hpp.html" target="_top" xlink:title="이벤트 베이스 클래스 헤더">
<polygon fill="white" stroke="#666666" points="298.5,-19.25 238.25,-19.25 238.25,0 298.5,0 298.5,-19.25"/>
<text text-anchor="middle" x="268.38" y="-5.75" font-family="Helvetica,sans-Serif" font-size="10.00">Event.hpp</text>
</a>
</g>
</g>
<!-- Node1&#45;&gt;Node5 -->
<g id="edge4_Node000001_Node000005" class="edge">
<title>Node1&#45;&gt;Node5</title>
<g id="a_edge4_Node000001_Node000005"><a xlink:title=" ">
<path fill="none" stroke="#63b8ff" d="M175.37,-54.84C192.83,-46.54 218.97,-34.11 239.1,-24.54"/>
<polygon fill="#63b8ff" stroke="#63b8ff" points="240.39,-27.81 247.92,-20.35 237.38,-21.49 240.39,-27.81"/>
</a>
</g>
</g>
</g>
</svg>
