<?xml version="1.0" encoding="UTF-8" standalone="no"?>
<!DOCTYPE svg PUBLIC "-//W3C//DTD SVG 1.1//EN"
 "http://www.w3.org/Graphics/SVG/1.1/DTD/svg11.dtd">
<!-- Generated by graphviz version 12.2.1 (20241206.2353)
 -->
<!-- Title: ECSManager.hpp Pages: 1 -->
<svg width="797pt" height="138pt"
 viewBox="0.00 0.00 797.00 137.75" xmlns="http://www.w3.org/2000/svg" xmlns:xlink="http://www.w3.org/1999/xlink">
<g id="graph0" class="graph" transform="scale(1 1) rotate(0) translate(4 133.75)">
<title>ECSManager.hpp</title>
<!-- Node1 -->
<g id="Node000001" class="node">
<title>Node1</title>
<g id="a_Node000001"><a xlink:title="ECS 매니저의 중추 설계 헤더">
<polygon fill="#999999" stroke="#666666" points="333.62,-129.75 241.12,-129.75 241.12,-110.5 333.62,-110.5 333.62,-129.75"/>
<text text-anchor="middle" x="287.38" y="-116.25" font-family="Helvetica,sans-Serif" font-size="10.00">ECSManager.hpp</text>
</a>
</g>
</g>
<!-- Node2 -->
<g id="Node000002" class="node">
<title>Node2</title>
<g id="a_Node000002"><a xlink:title=" ">
<polygon fill="#e0e0e0" stroke="#999999" points="82.75,-74.5 0,-74.5 0,-55.25 82.75,-55.25 82.75,-74.5"/>
<text text-anchor="middle" x="41.38" y="-61" font-family="Helvetica,sans-Serif" font-size="10.00">unordered_map</text>
</a>
</g>
</g>
<!-- Node1&#45;&gt;Node2 -->
<g id="edge1_Node000001_Node000002" class="edge">
<title>Node1&#45;&gt;Node2</title>
<g id="a_edge1_Node000001_Node000002"><a xlink:title=" ">
<path fill="none" stroke="#63b8ff" d="M245.37,-110.03C203.62,-100.99 139.46,-87.11 94.27,-77.32"/>
<polygon fill="#63b8ff" stroke="#63b8ff" points="95.2,-73.95 84.69,-75.25 93.72,-80.79 95.2,-73.95"/>
</a>
</g>
</g>
<!-- Node3 -->
<g id="Node000003" class="node">
<title>Node3</title>
<g id="a_Node000003"><a xlink:title=" ">
<polygon fill="#e0e0e0" stroke="#999999" points="143.88,-74.5 100.88,-74.5 100.88,-55.25 143.88,-55.25 143.88,-74.5"/>
<text text-anchor="middle" x="122.38" y="-61" font-family="Helvetica,sans-Serif" font-size="10.00">vector</text>
</a>
</g>
</g>
<!-- Node1&#45;&gt;Node3 -->
<g id="edge2_Node000001_Node000003" class="edge">
<title>Node1&#45;&gt;Node3</title>
<g id="a_edge2_Node000001_Node000003"><a xlink:title=" ">
<path fill="none" stroke="#63b8ff" d="M259.38,-110.09C230.52,-100.78 185.55,-86.26 155.07,-76.43"/>
<polygon fill="#63b8ff" stroke="#63b8ff" points="156.2,-73.11 145.61,-73.37 154.05,-79.77 156.2,-73.11"/>
</a>
</g>
</g>
<!-- Node4 -->
<g id="Node000004" class="node">
<title>Node4</title>
<g id="a_Node000004"><a xlink:title=" ">
<polygon fill="#e0e0e0" stroke="#999999" points="202.38,-74.5 162.38,-74.5 162.38,-55.25 202.38,-55.25 202.38,-74.5"/>
<text text-anchor="middle" x="182.38" y="-61" font-family="Helvetica,sans-Serif" font-size="10.00">bitset</text>
</a>
</g>
</g>
<!-- Node1&#45;&gt;Node4 -->
<g id="edge3_Node000001_Node000004" class="edge">
<title>Node1&#45;&gt;Node4</title>
<g id="a_edge3_Node000001_Node000004"><a xlink:title=" ">
<path fill="none" stroke="#63b8ff" d="M269.56,-110.09C253.35,-101.87 229.14,-89.59 210.34,-80.06"/>
<polygon fill="#63b8ff" stroke="#63b8ff" points="212.13,-77.04 201.62,-75.64 208.96,-83.28 212.13,-77.04"/>
</a>
</g>
</g>
<!-- Node5 -->
<g id="Node000005" class="node">
<title>Node5</title>
<g id="a_Node000005"><a xlink:title=" ">
<polygon fill="#e0e0e0" stroke="#999999" points="256,-19.25 204.75,-19.25 204.75,0 256,0 256,-19.25"/>
<text text-anchor="middle" x="230.38" y="-5.75" font-family="Helvetica,sans-Serif" font-size="10.00">memory</text>
</a>
</g>
</g>
<!-- Node1&#45;&gt;Node5 -->
<g id="edge4_Node000001_Node000005" class="edge">
<title>Node1&#45;&gt;Node5</title>
<g id="a_edge4_Node000001_Node000005"><a xlink:title=" ">
<path fill="none" stroke="#63b8ff" d="M277.64,-110.08C269.08,-101.62 256.85,-88.27 249.38,-74.5 241.85,-60.63 236.95,-43.41 234.01,-30.34"/>
<polygon fill="#63b8ff" stroke="#63b8ff" points="237.5,-29.92 232.08,-20.82 230.64,-31.31 237.5,-29.92"/>
</a>
</g>
</g>
<!-- Node6 -->
<g id="Node000006" class="node">
<title>Node6</title>
<g id="a_Node000006"><a xlink:title=" ">
<polygon fill="#e0e0e0" stroke="#999999" points="569.25,-74.5 513.5,-74.5 513.5,-55.25 569.25,-55.25 569.25,-74.5"/>
<text text-anchor="middle" x="541.38" y="-61" font-family="Helvetica,sans-Serif" font-size="10.00">concepts</text>
</a>
</g>
</g>
<!-- Node1&#45;&gt;Node6 -->
<g id="edge5_Node000001_Node000006" class="edge">
<title>Node1&#45;&gt;Node6</title>
<g id="a_edge5_Node000001_Node000006"><a xlink:title=" ">
<path fill="none" stroke="#63b8ff" d="M333.17,-110.07C374.73,-101.77 438,-88.94 502,-74.98"/>
<polygon fill="#63b8ff" stroke="#63b8ff" points="502.61,-78.43 511.63,-72.87 501.11,-71.59 502.61,-78.43"/>
</a>
</g>
</g>
<!-- Node7 -->
<g id="Node000007" class="node">
<title>Node7</title>
<g id="a_Node000007"><a xlink:title=" ">
<polygon fill="#e0e0e0" stroke="#999999" points="629.5,-74.5 587.25,-74.5 587.25,-55.25 629.5,-55.25 629.5,-74.5"/>
<text text-anchor="middle" x="608.38" y="-61" font-family="Helvetica,sans-Serif" font-size="10.00">queue</text>
</a>
</g>
</g>
<!-- Node1&#45;&gt;Node7 -->
<g id="edge6_Node000001_Node000007" class="edge">
<title>Node1&#45;&gt;Node7</title>
<g id="a_edge6_Node000001_Node000007"><a xlink:title=" ">
<path fill="none" stroke="#63b8ff" d="M334.08,-113.83C389.59,-107.13 485.17,-94.29 575.8,-74.83"/>
<polygon fill="#63b8ff" stroke="#63b8ff" points="576.33,-78.3 585.35,-72.75 574.83,-71.46 576.33,-78.3"/>
</a>
</g>
</g>
<!-- Node8 -->
<g id="Node000008" class="node">
<title>Node8</title>
<g id="a_Node000008"><a xlink:href="_entity_8hpp.html" target="_top" xlink:title="엔티티(ID) 정의를 물리적으로 분리한 헤더">
<polygon fill="white" stroke="#666666" points="316.75,-74.5 258,-74.5 258,-55.25 316.75,-55.25 316.75,-74.5"/>
<text text-anchor="middle" x="287.38" y="-61" font-family="Helvetica,sans-Serif" font-size="10.00">Entity.hpp</text>
</a>
</g>
</g>
<!-- Node1&#45;&gt;Node8 -->
<g id="edge7_Node000001_Node000008" class="edge">
<title>Node1&#45;&gt;Node8</title>
<g id="a_edge7_Node000001_Node000008"><a xlink:title=" ">
<path fill="none" stroke="#63b8ff" d="M287.38,-110.33C287.38,-103.82 287.38,-94.67 287.38,-86.37"/>
<polygon fill="#63b8ff" stroke="#63b8ff" points="290.88,-86.37 287.38,-76.37 283.88,-86.37 290.88,-86.37"/>
</a>
</g>
</g>
<!-- Node10 -->
<g id="Node000010" class="node">
<title>Node10</title>
<g id="a_Node000010"><a xlink:href="_component_8hpp.html" target="_top" xlink:title="컴포넌트 베이스">
<polygon fill="white" stroke="#666666" points="789,-74.5 647.75,-74.5 647.75,-55.25 789,-55.25 789,-74.5"/>
<text text-anchor="middle" x="718.38" y="-61" font-family="Helvetica,sans-Serif" font-size="10.00">components/Component.hpp</text>
</a>
</g>
</g>
<!-- Node1&#45;&gt;Node10 -->
<g id="edge9_Node000001_Node000010" class="edge">
<title>Node1&#45;&gt;Node10</title>
<g id="a_edge9_Node000001_Node000010"><a xlink:title=" ">
<path fill="none" stroke="#63b8ff" d="M333.91,-113.38C406.24,-104.44 546.62,-87.1 636.26,-76.02"/>
<polygon fill="#63b8ff" stroke="#63b8ff" points="636.48,-79.52 645.97,-74.82 635.62,-72.57 636.48,-79.52"/>
</a>
</g>
</g>
<!-- Node11 -->
<g id="Node000011" class="node">
<title>Node11</title>
<g id="a_Node000011"><a xlink:href="_component_pool_8hpp.html" target="_top" xlink:title="풀(Pool) 기반 메모리 관리 인터페이스 및 컴포넌트 전용 풀 구현">
<polygon fill="white" stroke="#666666" points="495.75,-74.5 335,-74.5 335,-55.25 495.75,-55.25 495.75,-74.5"/>
<text text-anchor="middle" x="415.38" y="-61" font-family="Helvetica,sans-Serif" font-size="10.00">components/ComponentPool.hpp</text>
</a>
</g>
</g>
<!-- Node1&#45;&gt;Node11 -->
<g id="edge10_Node000001_Node000011" class="edge">
<title>Node1&#45;&gt;Node11</title>
<g id="a_edge10_Node000001_Node000011"><a xlink:title=" ">
<path fill="none" stroke="#63b8ff" d="M309.09,-110.09C329.41,-101.64 360.02,-88.9 383.18,-79.27"/>
<polygon fill="#63b8ff" stroke="#63b8ff" points="384.27,-82.61 392.16,-75.53 381.58,-76.14 384.27,-82.61"/>
</a>
</g>
</g>
<!-- Node9 -->
<g id="Node000009" class="node">
<title>Node9</title>
<g id="a_Node000009"><a xlink:title=" ">
<polygon fill="#e0e0e0" stroke="#999999" points="319,-19.25 273.75,-19.25 273.75,0 319,0 319,-19.25"/>
<text text-anchor="middle" x="296.38" y="-5.75" font-family="Helvetica,sans-Serif" font-size="10.00">cstdint</text>
</a>
</g>
</g>
<!-- Node8&#45;&gt;Node9 -->
<g id="edge8_Node000008_Node000009" class="edge">
<title>Node8&#45;&gt;Node9</title>
<g id="a_edge8_Node000008_Node000009"><a xlink:title=" ">
<path fill="none" stroke="#63b8ff" d="M288.86,-55.08C289.97,-48.49 291.54,-39.21 292.96,-30.82"/>
<polygon fill="#63b8ff" stroke="#63b8ff" points="296.39,-31.55 294.6,-21.1 289.49,-30.38 296.39,-31.55"/>
</a>
</g>
</g>
<!-- Node11&#45;&gt;Node5 -->
<g id="edge12_Node000011_Node000005" class="edge">
<title>Node11&#45;&gt;Node5</title>
<g id="a_edge12_Node000011_Node000005"><a xlink:title=" ">
<path fill="none" stroke="#63b8ff" d="M383.99,-54.84C351.67,-45.54 301.32,-31.05 267.15,-21.21"/>
<polygon fill="#63b8ff" stroke="#63b8ff" points="268.26,-17.89 257.69,-18.49 266.33,-24.62 268.26,-17.89"/>
</a>
</g>
</g>
<!-- Node11&#45;&gt;Node9 -->
<g id="edge11_Node000011_Node000009" class="edge">
<title>Node11&#45;&gt;Node9</title>
<g id="a_edge11_Node000011_Node000009"><a xlink:title=" ">
<path fill="none" stroke="#63b8ff" d="M395.19,-54.84C376.47,-46.47 348.35,-33.88 326.89,-24.28"/>
<polygon fill="#63b8ff" stroke="#63b8ff" points="328.6,-21.21 318.04,-20.32 325.74,-27.6 328.6,-21.21"/>
</a>
</g>
</g>
<!-- Node12 -->
<g id="Node000012" class="node">
<title>Node12</title>
<g id="a_Node000012"><a xlink:title=" ">
<polygon fill="#e0e0e0" stroke="#999999" points="377.38,-19.25 337.38,-19.25 337.38,0 377.38,0 377.38,-19.25"/>
<text text-anchor="middle" x="357.38" y="-5.75" font-family="Helvetica,sans-Serif" font-size="10.00">stack</text>
</a>
</g>
</g>
<!-- Node11&#45;&gt;Node12 -->
<g id="edge13_Node000011_Node000012" class="edge">
<title>Node11&#45;&gt;Node12</title>
<g id="a_edge13_Node000011_Node000012"><a xlink:title=" ">
<path fill="none" stroke="#63b8ff" d="M405.54,-54.84C397.32,-47.3 385.39,-36.35 375.46,-27.23"/>
<polygon fill="#63b8ff" stroke="#63b8ff" points="377.92,-24.73 368.18,-20.55 373.18,-29.89 377.92,-24.73"/>
</a>
</g>
</g>
<!-- Node13 -->
<g id="Node000013" class="node">
<title>Node13</title>
<g id="a_Node000013"><a xlink:title=" ">
<polygon fill="#e0e0e0" stroke="#999999" points="453.38,-19.25 395.38,-19.25 395.38,0 453.38,0 453.38,-19.25"/>
<text text-anchor="middle" x="424.38" y="-5.75" font-family="Helvetica,sans-Serif" font-size="10.00">functional</text>
</a>
</g>
</g>
<!-- Node11&#45;&gt;Node13 -->
<g id="edge14_Node000011_Node000013" class="edge">
<title>Node11&#45;&gt;Node13</title>
<g id="a_edge14_Node000011_Node000013"><a xlink:title=" ">
<path fill="none" stroke="#63b8ff" d="M416.86,-55.08C417.97,-48.49 419.54,-39.21 420.96,-30.82"/>
<polygon fill="#63b8ff" stroke="#63b8ff" points="424.39,-31.55 422.6,-21.1 417.49,-30.38 424.39,-31.55"/>
</a>
</g>
</g>
<!-- Node14 -->
<g id="Node000014" class="node">
<title>Node14</title>
<g id="a_Node000014"><a xlink:title=" ">
<polygon fill="#e0e0e0" stroke="#999999" points="529.75,-19.25 471,-19.25 471,0 529.75,0 529.75,-19.25"/>
<text text-anchor="middle" x="500.38" y="-5.75" font-family="Helvetica,sans-Serif" font-size="10.00">stdexcept</text>
</a>
</g>
</g>
<!-- Node11&#45;&gt;Node14 -->
<g id="edge15_Node000011_Node000014" class="edge">
<title>Node11&#45;&gt;Node14</title>
<g id="a_edge15_Node000011_Node000014"><a xlink:title=" ">
<path fill="none" stroke="#63b8ff" d="M429.79,-54.84C442.49,-46.89 461.25,-35.14 476.23,-25.75"/>
<polygon fill="#63b8ff" stroke="#63b8ff" points="477.99,-28.78 484.6,-20.51 474.27,-22.85 477.99,-28.78"/>
</a>
</g>
</g>
</g>
</svg>
