<?xml version="1.0" encoding="UTF-8" standalone="no"?>
<!DOCTYPE svg PUBLIC "-//W3C//DTD SVG 1.1//EN"
 "http://www.w3.org/Graphics/SVG/1.1/DTD/svg11.dtd">
<!-- Generated by graphviz version 12.2.1 (20241206.2353)
 -->
<!-- Title: Entity.hpp Pages: 1 -->
<svg width="554pt" height="469pt"
 viewBox="0.00 0.00 553.75 469.25" xmlns="http://www.w3.org/2000/svg" xmlns:xlink="http://www.w3.org/1999/xlink">
<g id="graph0" class="graph" transform="scale(1 1) rotate(0) translate(4 465.25)">
<title>Entity.hpp</title>
<!-- Node1 -->
<g id="Node000001" class="node">
<title>Node1</title>
<g id="a_Node000001"><a xlink:title="엔티티(ID) 정의를 물리적으로 분리한 헤더">
<polygon fill="#999999" stroke="#666666" points="274.38,-461.25 215.62,-461.25 215.62,-442 274.38,-442 274.38,-461.25"/>
<text text-anchor="middle" x="245" y="-447.75" font-family="Helvetica,sans-Serif" font-size="10.00">Entity.hpp</text>
</a>
</g>
</g>
<!-- Node2 -->
<g id="Node000002" class="node">
<title>Node2</title>
<g id="a_Node000002"><a xlink:href="_core_8hpp.html" target="_top" xlink:title="모든 해더를 포함하는 헤더">
<polygon fill="white" stroke="#666666" points="348.88,-129.75 293.12,-129.75 293.12,-110.5 348.88,-110.5 348.88,-129.75"/>
<text text-anchor="middle" x="321" y="-116.25" font-family="Helvetica,sans-Serif" font-size="10.00">Core.hpp</text>
</a>
</g>
</g>
<!-- Node1&#45;&gt;Node2 -->
<g id="edge1_Node000001_Node000002" class="edge">
<title>Node1&#45;&gt;Node2</title>
<g id="a_edge1_Node000001_Node000002"><a xlink:title=" ">
<path fill="none" stroke="#63b8ff" d="M204.03,-450.31C134.3,-447.38 0,-430.3 0,-342.12 0,-342.12 0,-342.12 0,-229.62 0,-168.08 214.46,-134.66 292.79,-124.5"/>
<polygon fill="#63b8ff" stroke="#63b8ff" points="203.82,-453.81 213.93,-450.64 204.06,-446.81 203.82,-453.81"/>
</a>
</g>
</g>
<!-- Node5 -->
<g id="Node000005" class="node">
<title>Node5</title>
<g id="a_Node000005"><a xlink:href="_e_c_s_manager_8hpp.html" target="_top" xlink:title="ECS 매니저의 중추 설계 헤더">
<polygon fill="white" stroke="#666666" points="291.25,-406 198.75,-406 198.75,-386.75 291.25,-386.75 291.25,-406"/>
<text text-anchor="middle" x="245" y="-392.5" font-family="Helvetica,sans-Serif" font-size="10.00">ECSManager.hpp</text>
</a>
</g>
</g>
<!-- Node1&#45;&gt;Node5 -->
<g id="edge5_Node000001_Node000005" class="edge">
<title>Node1&#45;&gt;Node5</title>
<g id="a_edge5_Node000001_Node000005"><a xlink:title=" ">
<path fill="none" stroke="#63b8ff" d="M245,-430.38C245,-422.09 245,-412.92 245,-406.36"/>
<polygon fill="#63b8ff" stroke="#63b8ff" points="241.5,-430.32 245,-440.32 248.5,-430.32 241.5,-430.32"/>
</a>
</g>
</g>
<!-- Node14 -->
<g id="Node000014" class="node">
<title>Node14</title>
<g id="a_Node000014"><a xlink:href="_player_collided_8hpp.html" target="_top" xlink:title="플레이어 충돌 이벤트">
<polygon fill="white" stroke="#666666" points="498.88,-406 401.12,-406 401.12,-386.75 498.88,-386.75 498.88,-406"/>
<text text-anchor="middle" x="450" y="-392.5" font-family="Helvetica,sans-Serif" font-size="10.00">PlayerCollided.hpp</text>
</a>
</g>
</g>
<!-- Node1&#45;&gt;Node14 -->
<g id="edge21_Node000001_Node000014" class="edge">
<title>Node1&#45;&gt;Node14</title>
<g id="a_edge21_Node000001_Node000014"><a xlink:title=" ">
<path fill="none" stroke="#63b8ff" d="M285.92,-439.99C323.71,-430.18 379.23,-415.76 415,-406.47"/>
<polygon fill="#63b8ff" stroke="#63b8ff" points="285.07,-436.6 276.27,-442.5 286.83,-443.37 285.07,-436.6"/>
</a>
</g>
</g>
<!-- Node3 -->
<g id="Node000003" class="node">
<title>Node3</title>
<g id="a_Node000003"><a xlink:href="_game_8hpp.html" target="_top" xlink:title="Game 세팅, 실제 게임이 구현되는 워크 스페이스">
<polygon fill="white" stroke="#666666" points="351.5,-19.25 290.5,-19.25 290.5,0 351.5,0 351.5,-19.25"/>
<text text-anchor="middle" x="321" y="-5.75" font-family="Helvetica,sans-Serif" font-size="10.00">Game.hpp</text>
</a>
</g>
</g>
<!-- Node2&#45;&gt;Node3 -->
<g id="edge2_Node000002_Node000003" class="edge">
<title>Node2&#45;&gt;Node3</title>
<g id="a_edge2_Node000002_Node000003"><a xlink:title=" ">
<path fill="none" stroke="#63b8ff" d="M311.86,-99.93C306.93,-87.32 302.36,-70.43 305,-55.25 307.23,-42.44 312.8,-28.44 316.74,-19.6"/>
<polygon fill="#63b8ff" stroke="#63b8ff" points="308.49,-100.95 315.68,-108.73 314.91,-98.16 308.49,-100.95"/>
</a>
</g>
</g>
<!-- Node4 -->
<g id="Node000004" class="node">
<title>Node4</title>
<g id="a_Node000004"><a xlink:href="_protagonist_8hpp_source.html" target="_top" xlink:title=" ">
<polygon fill="white" stroke="#666666" points="398.12,-74.5 313.88,-74.5 313.88,-55.25 398.12,-55.25 398.12,-74.5"/>
<text text-anchor="middle" x="356" y="-61" font-family="Helvetica,sans-Serif" font-size="10.00">Protagonist.hpp</text>
</a>
</g>
</g>
<!-- Node2&#45;&gt;Node4 -->
<g id="edge3_Node000002_Node000004" class="edge">
<title>Node2&#45;&gt;Node4</title>
<g id="a_edge3_Node000002_Node000004"><a xlink:title=" ">
<path fill="none" stroke="#63b8ff" d="M332.98,-100.9C338.75,-92.11 345.43,-81.96 350.09,-74.86"/>
<polygon fill="#63b8ff" stroke="#63b8ff" points="330.18,-98.79 327.61,-109.07 336.03,-102.63 330.18,-98.79"/>
</a>
</g>
</g>
<!-- Node4&#45;&gt;Node3 -->
<g id="edge4_Node000004_Node000003" class="edge">
<title>Node4&#45;&gt;Node3</title>
<g id="a_edge4_Node000004_Node000003"><a xlink:title=" ">
<path fill="none" stroke="#63b8ff" d="M344.02,-45.65C338.25,-36.86 331.57,-26.71 326.91,-19.61"/>
<polygon fill="#63b8ff" stroke="#63b8ff" points="340.97,-47.38 349.39,-53.82 346.82,-43.54 340.97,-47.38"/>
</a>
</g>
</g>
<!-- Node6 -->
<g id="Node000006" class="node">
<title>Node6</title>
<g id="a_Node000006"><a xlink:href="_storage_8hpp.html" target="_top" xlink:title="게임 상태 저장 클래스 헤더">
<polygon fill="white" stroke="#666666" points="168.25,-350.75 99.75,-350.75 99.75,-331.5 168.25,-331.5 168.25,-350.75"/>
<text text-anchor="middle" x="134" y="-337.25" font-family="Helvetica,sans-Serif" font-size="10.00">Storage.hpp</text>
</a>
</g>
</g>
<!-- Node5&#45;&gt;Node6 -->
<g id="edge6_Node000005_Node000006" class="edge">
<title>Node5&#45;&gt;Node6</title>
<g id="a_edge6_Node000005_Node000006"><a xlink:title=" ">
<path fill="none" stroke="#63b8ff" d="M215.82,-381.37C195.93,-371.83 170.17,-359.48 152.92,-351.2"/>
<polygon fill="#63b8ff" stroke="#63b8ff" points="214.28,-384.52 224.81,-385.69 217.3,-378.21 214.28,-384.52"/>
</a>
</g>
</g>
<!-- Node7 -->
<g id="Node000007" class="node">
<title>Node7</title>
<g id="a_Node000007"><a xlink:href="_system_8hpp.html" target="_top" xlink:title="시스템 베이스 클래스">
<polygon fill="white" stroke="#666666" points="279.25,-350.75 210.75,-350.75 210.75,-331.5 279.25,-331.5 279.25,-350.75"/>
<text text-anchor="middle" x="245" y="-337.25" font-family="Helvetica,sans-Serif" font-size="10.00">System.hpp</text>
</a>
</g>
</g>
<!-- Node5&#45;&gt;Node7 -->
<g id="edge8_Node000005_Node000007" class="edge">
<title>Node5&#45;&gt;Node7</title>
<g id="a_edge8_Node000005_Node000007"><a xlink:title=" ">
<path fill="none" stroke="#63b8ff" d="M245,-375.13C245,-366.84 245,-357.67 245,-351.11"/>
<polygon fill="#63b8ff" stroke="#63b8ff" points="241.5,-375.07 245,-385.07 248.5,-375.07 241.5,-375.07"/>
</a>
</g>
</g>
<!-- Node10 -->
<g id="Node000010" class="node">
<title>Node10</title>
<g id="a_Node000010"><a xlink:href="_world_8hpp.html" target="_top" xlink:title="시스템을 관리하는 클래스 헤더">
<polygon fill="white" stroke="#666666" points="379.75,-185 320.25,-185 320.25,-165.75 379.75,-165.75 379.75,-185"/>
<text text-anchor="middle" x="350" y="-171.5" font-family="Helvetica,sans-Serif" font-size="10.00">World.hpp</text>
</a>
</g>
</g>
<!-- Node5&#45;&gt;Node10 -->
<g id="edge20_Node000005_Node000010" class="edge">
<title>Node5&#45;&gt;Node10</title>
<g id="a_edge20_Node000005_Node000010"><a xlink:title=" ">
<path fill="none" stroke="#63b8ff" d="M301.48,-383.29C347.41,-370.16 409.3,-344.2 439,-295.5 465.62,-251.86 397.82,-204.46 365.73,-185.23"/>
<polygon fill="#63b8ff" stroke="#63b8ff" points="300.67,-379.88 291.94,-385.88 302.51,-386.64 300.67,-379.88"/>
</a>
</g>
</g>
<!-- Node6&#45;&gt;Node2 -->
<g id="edge7_Node000006_Node000002" class="edge">
<title>Node6&#45;&gt;Node2</title>
<g id="a_edge7_Node000006_Node000002"><a xlink:title=" ">
<path fill="none" stroke="#63b8ff" d="M95.74,-326.7C70.63,-315.55 44.54,-298.01 57,-276.25 108.75,-185.82 236.01,-142.93 292.82,-127.79"/>
<polygon fill="#63b8ff" stroke="#63b8ff" points="94.36,-329.91 104.93,-330.5 97.03,-323.44 94.36,-329.91"/>
</a>
</g>
</g>
<!-- Node8 -->
<g id="Node000008" class="node">
<title>Node8</title>
<g id="a_Node000008"><a xlink:href="_animating_8hpp.html" target="_top" xlink:title="애니메이션 시스템 헤더">
<polygon fill="white" stroke="#666666" points="144.12,-295.5 65.88,-295.5 65.88,-276.25 144.12,-276.25 144.12,-295.5"/>
<text text-anchor="middle" x="105" y="-282" font-family="Helvetica,sans-Serif" font-size="10.00">Animating.hpp</text>
</a>
</g>
</g>
<!-- Node7&#45;&gt;Node8 -->
<g id="edge9_Node000007_Node000008" class="edge">
<title>Node7&#45;&gt;Node8</title>
<g id="a_edge9_Node000007_Node000008"><a xlink:title=" ">
<path fill="none" stroke="#63b8ff" d="M210.61,-327.04C185.22,-317.39 151.33,-304.5 128.87,-295.95"/>
<polygon fill="#63b8ff" stroke="#63b8ff" points="209.25,-330.27 219.84,-330.55 211.73,-323.73 209.25,-330.27"/>
</a>
</g>
</g>
<!-- Node11 -->
<g id="Node000011" class="node">
<title>Node11</title>
<g id="a_Node000011"><a xlink:href="_collision_8hpp.html" target="_top" xlink:title="충돌 시스템 헤더">
<polygon fill="white" stroke="#666666" points="234.12,-295.5 161.88,-295.5 161.88,-276.25 234.12,-276.25 234.12,-295.5"/>
<text text-anchor="middle" x="198" y="-282" font-family="Helvetica,sans-Serif" font-size="10.00">Collision.hpp</text>
</a>
</g>
</g>
<!-- Node7&#45;&gt;Node11 -->
<g id="edge14_Node000007_Node000011" class="edge">
<title>Node7&#45;&gt;Node11</title>
<g id="a_edge14_Node000007_Node000011"><a xlink:title=" ">
<path fill="none" stroke="#63b8ff" d="M229.67,-322.76C221.75,-313.78 212.4,-303.2 205.93,-295.86"/>
<polygon fill="#63b8ff" stroke="#63b8ff" points="227,-325.02 236.24,-330.2 232.24,-320.38 227,-325.02"/>
</a>
</g>
</g>
<!-- Node12 -->
<g id="Node000012" class="node">
<title>Node12</title>
<g id="a_Node000012"><a xlink:href="_movement_8hpp.html" target="_top" xlink:title="이동 시스템 헤더">
<polygon fill="white" stroke="#666666" points="332.25,-295.5 251.75,-295.5 251.75,-276.25 332.25,-276.25 332.25,-295.5"/>
<text text-anchor="middle" x="292" y="-282" font-family="Helvetica,sans-Serif" font-size="10.00">Movement.hpp</text>
</a>
</g>
</g>
<!-- Node7&#45;&gt;Node12 -->
<g id="edge16_Node000007_Node000012" class="edge">
<title>Node7&#45;&gt;Node12</title>
<g id="a_edge16_Node000007_Node000012"><a xlink:title=" ">
<path fill="none" stroke="#63b8ff" d="M260.33,-322.76C268.25,-313.78 277.6,-303.2 284.07,-295.86"/>
<polygon fill="#63b8ff" stroke="#63b8ff" points="257.76,-320.38 253.76,-330.2 263,-325.02 257.76,-320.38"/>
</a>
</g>
</g>
<!-- Node13 -->
<g id="Node000013" class="node">
<title>Node13</title>
<g id="a_Node000013"><a xlink:href="_rendering_8hpp.html" target="_top" xlink:title="렌더링 시스템 헤더">
<polygon fill="white" stroke="#666666" points="429.5,-295.5 350.5,-295.5 350.5,-276.25 429.5,-276.25 429.5,-295.5"/>
<text text-anchor="middle" x="390" y="-282" font-family="Helvetica,sans-Serif" font-size="10.00">Rendering.hpp</text>
</a>
</g>
</g>
<!-- Node7&#45;&gt;Node13 -->
<g id="edge18_Node000007_Node000013" class="edge">
<title>Node7&#45;&gt;Node13</title>
<g id="a_edge18_Node000007_Node000013"><a xlink:title=" ">
<path fill="none" stroke="#63b8ff" d="M280.27,-327.17C306.59,-317.5 341.91,-304.54 365.28,-295.95"/>
<polygon fill="#63b8ff" stroke="#63b8ff" points="279.2,-323.84 271.02,-330.57 281.61,-330.41 279.2,-323.84"/>
</a>
</g>
</g>
<!-- Node9 -->
<g id="Node000009" class="node">
<title>Node9</title>
<g id="a_Node000009"><a xlink:href="_systems_8hpp.html" target="_top" xlink:title="게임 내 주요 시스템들을 한데 모아 포함하는 헤더 파일">
<polygon fill="white" stroke="#666666" points="328.88,-240.25 255.12,-240.25 255.12,-221 328.88,-221 328.88,-240.25"/>
<text text-anchor="middle" x="292" y="-226.75" font-family="Helvetica,sans-Serif" font-size="10.00">Systems.hpp</text>
</a>
</g>
</g>
<!-- Node8&#45;&gt;Node9 -->
<g id="edge10_Node000008_Node000009" class="edge">
<title>Node8&#45;&gt;Node9</title>
<g id="a_edge10_Node000008_Node000009"><a xlink:title=" ">
<path fill="none" stroke="#63b8ff" d="M147.78,-272.69C181.99,-262.95 229.17,-249.52 260.12,-240.7"/>
<polygon fill="#63b8ff" stroke="#63b8ff" points="146.84,-269.32 138.18,-275.43 148.75,-276.05 146.84,-269.32"/>
</a>
</g>
</g>
<!-- Node9&#45;&gt;Node2 -->
<g id="edge11_Node000009_Node000002" class="edge">
<title>Node9&#45;&gt;Node2</title>
<g id="a_edge11_Node000009_Node000002"><a xlink:title=" ">
<path fill="none" stroke="#63b8ff" d="M297.26,-209.93C303.59,-186.26 313.94,-147.55 318.59,-130.13"/>
<polygon fill="#63b8ff" stroke="#63b8ff" points="293.96,-208.72 294.76,-219.28 300.73,-210.53 293.96,-208.72"/>
</a>
</g>
</g>
<!-- Node9&#45;&gt;Node10 -->
<g id="edge12_Node000009_Node000010" class="edge">
<title>Node9&#45;&gt;Node10</title>
<g id="a_edge12_Node000009_Node000010"><a xlink:title=" ">
<path fill="none" stroke="#63b8ff" d="M310.26,-212.86C320.22,-203.72 332.14,-192.78 340.31,-185.27"/>
<polygon fill="#63b8ff" stroke="#63b8ff" points="307.95,-210.23 302.95,-219.57 312.69,-215.38 307.95,-210.23"/>
</a>
</g>
</g>
<!-- Node10&#45;&gt;Node2 -->
<g id="edge13_Node000010_Node000002" class="edge">
<title>Node10&#45;&gt;Node2</title>
<g id="a_edge13_Node000010_Node000002"><a xlink:title=" ">
<path fill="none" stroke="#63b8ff" d="M339.76,-155.58C335.05,-146.92 329.68,-137.06 325.89,-130.11"/>
<polygon fill="#63b8ff" stroke="#63b8ff" points="336.63,-157.14 344.49,-164.25 342.78,-153.8 336.63,-157.14"/>
</a>
</g>
</g>
<!-- Node11&#45;&gt;Node9 -->
<g id="edge15_Node000011_Node000009" class="edge">
<title>Node11&#45;&gt;Node9</title>
<g id="a_edge15_Node000011_Node000009"><a xlink:title=" ">
<path fill="none" stroke="#63b8ff" d="M223.65,-270.34C240.36,-260.88 261.64,-248.83 275.98,-240.7"/>
<polygon fill="#63b8ff" stroke="#63b8ff" points="222.24,-267.12 215.26,-275.1 225.69,-273.21 222.24,-267.12"/>
</a>
</g>
</g>
<!-- Node12&#45;&gt;Node9 -->
<g id="edge17_Node000012_Node000009" class="edge">
<title>Node12&#45;&gt;Node9</title>
<g id="a_edge17_Node000012_Node000009"><a xlink:title=" ">
<path fill="none" stroke="#63b8ff" d="M292,-264.63C292,-256.34 292,-247.17 292,-240.61"/>
<polygon fill="#63b8ff" stroke="#63b8ff" points="288.5,-264.57 292,-274.57 295.5,-264.57 288.5,-264.57"/>
</a>
</g>
</g>
<!-- Node13&#45;&gt;Node9 -->
<g id="edge19_Node000013_Node000009" class="edge">
<title>Node13&#45;&gt;Node9</title>
<g id="a_edge19_Node000013_Node000009"><a xlink:title=" ">
<path fill="none" stroke="#63b8ff" d="M363.75,-270.61C346.26,-261.11 323.8,-248.9 308.71,-240.7"/>
<polygon fill="#63b8ff" stroke="#63b8ff" points="361.59,-273.42 372.05,-275.12 364.93,-267.27 361.59,-273.42"/>
</a>
</g>
</g>
<!-- Node15 -->
<g id="Node000015" class="node">
<title>Node15</title>
<g id="a_Node000015"><a xlink:href="_events_8hpp.html" target="_top" xlink:title="다양한 이벤트 클래스를 한 데 모아 포함하는 헤더 파일">
<polygon fill="white" stroke="#666666" points="545.75,-240.25 480.25,-240.25 480.25,-221 545.75,-221 545.75,-240.25"/>
<text text-anchor="middle" x="513" y="-226.75" font-family="Helvetica,sans-Serif" font-size="10.00">Events.hpp</text>
</a>
</g>
</g>
<!-- Node14&#45;&gt;Node15 -->
<g id="edge22_Node000014_Node000015" class="edge">
<title>Node14&#45;&gt;Node15</title>
<g id="a_edge22_Node000014_Node000015"><a xlink:title=" ">
<path fill="none" stroke="#63b8ff" d="M460.16,-376.11C464.09,-368.33 468.47,-359.21 472,-350.75 488.74,-310.57 504.23,-260.88 510.3,-240.74"/>
<polygon fill="#63b8ff" stroke="#63b8ff" points="457.07,-374.47 455.59,-384.96 463.29,-377.68 457.07,-374.47"/>
</a>
</g>
</g>
<!-- Node15&#45;&gt;Node2 -->
<g id="edge25_Node000015_Node000002" class="edge">
<title>Node15&#45;&gt;Node2</title>
<g id="a_edge25_Node000015_Node000002"><a xlink:title=" ">
<path fill="none" stroke="#63b8ff" d="M487.09,-214.98C446.81,-192.22 370.38,-149.03 337.13,-130.24"/>
<polygon fill="#63b8ff" stroke="#63b8ff" points="485.21,-217.94 495.64,-219.82 488.66,-211.85 485.21,-217.94"/>
</a>
</g>
</g>
<!-- Node16 -->
<g id="Node000016" class="node">
<title>Node16</title>
<g id="a_Node000016"><a xlink:href="_announcer_8hpp.html" target="_top" xlink:title="이벤트 아나운서 헤더">
<polygon fill="white" stroke="#666666" points="545.25,-185 464.75,-185 464.75,-165.75 545.25,-165.75 545.25,-185"/>
<text text-anchor="middle" x="505" y="-171.5" font-family="Helvetica,sans-Serif" font-size="10.00">Announcer.hpp</text>
</a>
</g>
</g>
<!-- Node15&#45;&gt;Node16 -->
<g id="edge23_Node000015_Node000016" class="edge">
<title>Node15&#45;&gt;Node16</title>
<g id="a_edge23_Node000015_Node000016"><a xlink:title=" ">
<path fill="none" stroke="#63b8ff" d="M510,-209.67C508.75,-201.3 507.35,-192 506.35,-185.36"/>
<polygon fill="#63b8ff" stroke="#63b8ff" points="506.51,-209.97 511.45,-219.34 513.43,-208.93 506.51,-209.97"/>
</a>
</g>
</g>
<!-- Node16&#45;&gt;Node2 -->
<g id="edge24_Node000016_Node000002" class="edge">
<title>Node16&#45;&gt;Node2</title>
<g id="a_edge24_Node000016_Node000002"><a xlink:title=" ">
<path fill="none" stroke="#63b8ff" d="M463.01,-162.22C428.21,-152.15 379.7,-138.11 349.34,-129.33"/>
<polygon fill="#63b8ff" stroke="#63b8ff" points="461.75,-165.5 472.33,-164.92 463.7,-158.78 461.75,-165.5"/>
</a>
</g>
</g>
</g>
</svg>
