<?xml version="1.0" encoding="UTF-8" standalone="no"?>
<!DOCTYPE svg PUBLIC "-//W3C//DTD SVG 1.1//EN"
 "http://www.w3.org/Graphics/SVG/1.1/DTD/svg11.dtd">
<!-- Generated by graphviz version 12.2.1 (20241206.2353)
 -->
<!-- Title: Event.hpp Pages: 1 -->
<svg width="307pt" height="359pt"
 viewBox="0.00 0.00 306.50 358.75" xmlns="http://www.w3.org/2000/svg" xmlns:xlink="http://www.w3.org/1999/xlink">
<g id="graph0" class="graph" transform="scale(1 1) rotate(0) translate(4 354.75)">
<title>Event.hpp</title>
<!-- Node1 -->
<g id="Node000001" class="node">
<title>Node1</title>
<g id="a_Node000001"><a xlink:title="이벤트 베이스 클래스 헤더">
<polygon fill="#999999" stroke="#666666" points="141.75,-350.75 81.5,-350.75 81.5,-331.5 141.75,-331.5 141.75,-350.75"/>
<text text-anchor="middle" x="111.62" y="-337.25" font-family="Helvetica,sans-Serif" font-size="10.00">Event.hpp</text>
</a>
</g>
</g>
<!-- Node2 -->
<g id="Node000002" class="node">
<title>Node2</title>
<g id="a_Node000002"><a xlink:href="_dispatcher_8hpp.html" target="_top" xlink:title="이벤트 디스패처 헤더">
<polygon fill="white" stroke="#666666" points="81.25,-240.25 0,-240.25 0,-221 81.25,-221 81.25,-240.25"/>
<text text-anchor="middle" x="40.62" y="-226.75" font-family="Helvetica,sans-Serif" font-size="10.00">Dispatcher.hpp</text>
</a>
</g>
</g>
<!-- Node1&#45;&gt;Node2 -->
<g id="edge1_Node000001_Node000002" class="edge">
<title>Node1&#45;&gt;Node2</title>
<g id="a_edge1_Node000001_Node000002"><a xlink:title=" ">
<path fill="none" stroke="#63b8ff" d="M99.58,-321.72C84.18,-298.19 58.13,-258.37 46.52,-240.63"/>
<polygon fill="#63b8ff" stroke="#63b8ff" points="96.58,-323.53 104.99,-329.98 102.44,-319.7 96.58,-323.53"/>
</a>
</g>
</g>
<!-- Node7 -->
<g id="Node000007" class="node">
<title>Node7</title>
<g id="a_Node000007"><a xlink:href="_events_8hpp.html" target="_top" xlink:title="다양한 이벤트 클래스를 한 데 모아 포함하는 헤더 파일">
<polygon fill="white" stroke="#666666" points="177.38,-240.25 111.88,-240.25 111.88,-221 177.38,-221 177.38,-240.25"/>
<text text-anchor="middle" x="144.62" y="-226.75" font-family="Helvetica,sans-Serif" font-size="10.00">Events.hpp</text>
</a>
</g>
</g>
<!-- Node1&#45;&gt;Node7 -->
<g id="edge8_Node000001_Node000007" class="edge">
<title>Node1&#45;&gt;Node7</title>
<g id="a_edge8_Node000001_Node000007"><a xlink:title=" ">
<path fill="none" stroke="#63b8ff" d="M101.46,-321.01C95.97,-308 91.46,-290.61 97.62,-276.25 104.2,-260.95 118.88,-248.42 130.1,-240.58"/>
<polygon fill="#63b8ff" stroke="#63b8ff" points="98.18,-322.24 105.64,-329.75 104.49,-319.22 98.18,-322.24"/>
</a>
</g>
</g>
<!-- Node8 -->
<g id="Node000008" class="node">
<title>Node8</title>
<g id="a_Node000008"><a xlink:href="_keyboard_8hpp.html" target="_top" xlink:title="키보드 이벤트 헤더">
<polygon fill="white" stroke="#666666" points="182.62,-295.5 106.62,-295.5 106.62,-276.25 182.62,-276.25 182.62,-295.5"/>
<text text-anchor="middle" x="144.62" y="-282" font-family="Helvetica,sans-Serif" font-size="10.00">Keyboard.hpp</text>
</a>
</g>
</g>
<!-- Node1&#45;&gt;Node8 -->
<g id="edge11_Node000001_Node000008" class="edge">
<title>Node1&#45;&gt;Node8</title>
<g id="a_edge11_Node000001_Node000008"><a xlink:title=" ">
<path fill="none" stroke="#63b8ff" d="M123.1,-321.62C128.5,-312.89 134.7,-302.89 139.06,-295.86"/>
<polygon fill="#63b8ff" stroke="#63b8ff" points="120.16,-319.7 117.87,-330.05 126.11,-323.39 120.16,-319.7"/>
</a>
</g>
</g>
<!-- Node9 -->
<g id="Node000009" class="node">
<title>Node9</title>
<g id="a_Node000009"><a xlink:href="_player_collided_8hpp.html" target="_top" xlink:title="플레이어 충돌 이벤트">
<polygon fill="white" stroke="#666666" points="298.5,-295.5 200.75,-295.5 200.75,-276.25 298.5,-276.25 298.5,-295.5"/>
<text text-anchor="middle" x="249.62" y="-282" font-family="Helvetica,sans-Serif" font-size="10.00">PlayerCollided.hpp</text>
</a>
</g>
</g>
<!-- Node1&#45;&gt;Node9 -->
<g id="edge13_Node000001_Node000009" class="edge">
<title>Node1&#45;&gt;Node9</title>
<g id="a_edge13_Node000001_Node000009"><a xlink:title=" ">
<path fill="none" stroke="#63b8ff" d="M145.53,-327.04C170.55,-317.39 203.96,-304.5 226.1,-295.95"/>
<polygon fill="#63b8ff" stroke="#63b8ff" points="144.52,-323.68 136.45,-330.55 147.04,-330.21 144.52,-323.68"/>
</a>
</g>
</g>
<!-- Node3 -->
<g id="Node000003" class="node">
<title>Node3</title>
<g id="a_Node000003"><a xlink:href="_announcer_8hpp.html" target="_top" xlink:title="이벤트 아나운서 헤더">
<polygon fill="white" stroke="#666666" points="132.88,-185 52.38,-185 52.38,-165.75 132.88,-165.75 132.88,-185"/>
<text text-anchor="middle" x="92.62" y="-171.5" font-family="Helvetica,sans-Serif" font-size="10.00">Announcer.hpp</text>
</a>
</g>
</g>
<!-- Node2&#45;&gt;Node3 -->
<g id="edge2_Node000002_Node000003" class="edge">
<title>Node2&#45;&gt;Node3</title>
<g id="a_edge2_Node000002_Node000003"><a xlink:title=" ">
<path fill="none" stroke="#63b8ff" d="M57.03,-212.82C65.92,-203.73 76.54,-192.85 83.85,-185.36"/>
<polygon fill="#63b8ff" stroke="#63b8ff" points="54.75,-210.15 50.27,-219.75 59.76,-215.04 54.75,-210.15"/>
</a>
</g>
</g>
<!-- Node4 -->
<g id="Node000004" class="node">
<title>Node4</title>
<g id="a_Node000004"><a xlink:href="_core_8hpp.html" target="_top" xlink:title="모든 해더를 포함하는 헤더">
<polygon fill="white" stroke="#666666" points="120.5,-129.75 64.75,-129.75 64.75,-110.5 120.5,-110.5 120.5,-129.75"/>
<text text-anchor="middle" x="92.62" y="-116.25" font-family="Helvetica,sans-Serif" font-size="10.00">Core.hpp</text>
</a>
</g>
</g>
<!-- Node2&#45;&gt;Node4 -->
<g id="edge7_Node000002_Node000004" class="edge">
<title>Node2&#45;&gt;Node4</title>
<g id="a_edge7_Node000002_Node000004"><a xlink:title=" ">
<path fill="none" stroke="#63b8ff" d="M37.76,-209.8C36.75,-196.69 37.18,-179.45 43.62,-165.75 50.87,-150.34 66.12,-137.83 77.69,-130.02"/>
<polygon fill="#63b8ff" stroke="#63b8ff" points="34.24,-209.81 38.84,-219.36 41.19,-209.03 34.24,-209.81"/>
</a>
</g>
</g>
<!-- Node3&#45;&gt;Node4 -->
<g id="edge3_Node000003_Node000004" class="edge">
<title>Node3&#45;&gt;Node4</title>
<g id="a_edge3_Node000003_Node000004"><a xlink:title=" ">
<path fill="none" stroke="#63b8ff" d="M92.62,-154.13C92.62,-145.84 92.62,-136.67 92.62,-130.11"/>
<polygon fill="#63b8ff" stroke="#63b8ff" points="89.13,-154.07 92.63,-164.07 96.13,-154.07 89.13,-154.07"/>
</a>
</g>
</g>
<!-- Node5 -->
<g id="Node000005" class="node">
<title>Node5</title>
<g id="a_Node000005"><a xlink:href="_game_8hpp.html" target="_top" xlink:title="Game 세팅, 실제 게임이 구현되는 워크 스페이스">
<polygon fill="white" stroke="#666666" points="123.12,-19.25 62.12,-19.25 62.12,0 123.12,0 123.12,-19.25"/>
<text text-anchor="middle" x="92.62" y="-5.75" font-family="Helvetica,sans-Serif" font-size="10.00">Game.hpp</text>
</a>
</g>
</g>
<!-- Node4&#45;&gt;Node5 -->
<g id="edge4_Node000004_Node000005" class="edge">
<title>Node4&#45;&gt;Node5</title>
<g id="a_edge4_Node000004_Node000005"><a xlink:title=" ">
<path fill="none" stroke="#63b8ff" d="M83.48,-99.93C78.56,-87.32 73.99,-70.43 76.62,-55.25 78.85,-42.44 84.43,-28.44 88.37,-19.6"/>
<polygon fill="#63b8ff" stroke="#63b8ff" points="80.11,-100.95 87.3,-108.73 86.53,-98.16 80.11,-100.95"/>
</a>
</g>
</g>
<!-- Node6 -->
<g id="Node000006" class="node">
<title>Node6</title>
<g id="a_Node000006"><a xlink:href="_protagonist_8hpp_source.html" target="_top" xlink:title=" ">
<polygon fill="white" stroke="#666666" points="169.75,-74.5 85.5,-74.5 85.5,-55.25 169.75,-55.25 169.75,-74.5"/>
<text text-anchor="middle" x="127.62" y="-61" font-family="Helvetica,sans-Serif" font-size="10.00">Protagonist.hpp</text>
</a>
</g>
</g>
<!-- Node4&#45;&gt;Node6 -->
<g id="edge5_Node000004_Node000006" class="edge">
<title>Node4&#45;&gt;Node6</title>
<g id="a_edge5_Node000004_Node000006"><a xlink:title=" ">
<path fill="none" stroke="#63b8ff" d="M104.6,-100.9C110.38,-92.11 117.05,-81.96 121.72,-74.86"/>
<polygon fill="#63b8ff" stroke="#63b8ff" points="101.8,-98.79 99.24,-109.07 107.65,-102.63 101.8,-98.79"/>
</a>
</g>
</g>
<!-- Node6&#45;&gt;Node5 -->
<g id="edge6_Node000006_Node000005" class="edge">
<title>Node6&#45;&gt;Node5</title>
<g id="a_edge6_Node000006_Node000005"><a xlink:title=" ">
<path fill="none" stroke="#63b8ff" d="M115.65,-45.65C109.87,-36.86 103.2,-26.71 98.53,-19.61"/>
<polygon fill="#63b8ff" stroke="#63b8ff" points="112.6,-47.38 121.01,-53.82 118.45,-43.54 112.6,-47.38"/>
</a>
</g>
</g>
<!-- Node7&#45;&gt;Node3 -->
<g id="edge9_Node000007_Node000003" class="edge">
<title>Node7&#45;&gt;Node3</title>
<g id="a_edge9_Node000007_Node000003"><a xlink:title=" ">
<path fill="none" stroke="#63b8ff" d="M128.22,-212.82C119.33,-203.73 108.71,-192.85 101.4,-185.36"/>
<polygon fill="#63b8ff" stroke="#63b8ff" points="125.49,-215.04 134.98,-219.75 130.5,-210.15 125.49,-215.04"/>
</a>
</g>
</g>
<!-- Node7&#45;&gt;Node4 -->
<g id="edge10_Node000007_Node000004" class="edge">
<title>Node7&#45;&gt;Node4</title>
<g id="a_edge10_Node000007_Node000004"><a xlink:title=" ">
<path fill="none" stroke="#63b8ff" d="M147.49,-209.8C148.5,-196.69 148.07,-179.45 141.62,-165.75 134.38,-150.34 119.13,-137.83 107.56,-130.02"/>
<polygon fill="#63b8ff" stroke="#63b8ff" points="144.06,-209.03 146.41,-219.36 151.01,-209.81 144.06,-209.03"/>
</a>
</g>
</g>
<!-- Node8&#45;&gt;Node7 -->
<g id="edge12_Node000008_Node000007" class="edge">
<title>Node8&#45;&gt;Node7</title>
<g id="a_edge12_Node000008_Node000007"><a xlink:title=" ">
<path fill="none" stroke="#63b8ff" d="M144.62,-264.63C144.62,-256.34 144.62,-247.17 144.62,-240.61"/>
<polygon fill="#63b8ff" stroke="#63b8ff" points="141.13,-264.57 144.63,-274.57 148.13,-264.57 141.13,-264.57"/>
</a>
</g>
</g>
<!-- Node9&#45;&gt;Node7 -->
<g id="edge14_Node000009_Node000007" class="edge">
<title>Node9&#45;&gt;Node7</title>
<g id="a_edge14_Node000009_Node000007"><a xlink:title=" ">
<path fill="none" stroke="#63b8ff" d="M221.76,-270.74C202.98,-261.22 178.77,-248.94 162.52,-240.7"/>
<polygon fill="#63b8ff" stroke="#63b8ff" points="219.96,-273.76 230.46,-275.16 223.13,-267.51 219.96,-273.76"/>
</a>
</g>
</g>
</g>
</svg>
