<?xml version="1.0" encoding="UTF-8" standalone="no"?>
<!DOCTYPE svg PUBLIC "-//W3C//DTD SVG 1.1//EN"
 "http://www.w3.org/Graphics/SVG/1.1/DTD/svg11.dtd">
<!-- Generated by graphviz version 12.2.1 (20241206.2353)
 -->
<!-- Title: Events.hpp Pages: 1 -->
<svg width="282pt" height="193pt"
 viewBox="0.00 0.00 282.12 193.00" xmlns="http://www.w3.org/2000/svg" xmlns:xlink="http://www.w3.org/1999/xlink">
<g id="graph0" class="graph" transform="scale(1 1) rotate(0) translate(4 189)">
<title>Events.hpp</title>
<!-- Node1 -->
<g id="Node000001" class="node">
<title>Node1</title>
<g id="a_Node000001"><a xlink:title="다양한 이벤트 클래스를 한 데 모아 포함하는 헤더 파일">
<polygon fill="#999999" stroke="#666666" points="178.62,-185 113.12,-185 113.12,-165.75 178.62,-165.75 178.62,-185"/>
<text text-anchor="middle" x="145.88" y="-171.5" font-family="Helvetica,sans-Serif" font-size="10.00">Events.hpp</text>
</a>
</g>
</g>
<!-- Node2 -->
<g id="Node000002" class="node">
<title>Node2</title>
<g id="a_Node000002"><a xlink:href="_event_8hpp.html" target="_top" xlink:title="이벤트 베이스 클래스 헤더">
<polygon fill="white" stroke="#666666" points="176,-74.5 115.75,-74.5 115.75,-55.25 176,-55.25 176,-74.5"/>
<text text-anchor="middle" x="145.88" y="-61" font-family="Helvetica,sans-Serif" font-size="10.00">Event.hpp</text>
</a>
</g>
</g>
<!-- Node1&#45;&gt;Node2 -->
<g id="edge1_Node000001_Node000002" class="edge">
<title>Node1&#45;&gt;Node2</title>
<g id="a_edge1_Node000001_Node000002"><a xlink:title=" ">
<path fill="none" stroke="#63b8ff" d="M145.88,-165.5C145.88,-148.25 145.88,-109.83 145.88,-86.06"/>
<polygon fill="#63b8ff" stroke="#63b8ff" points="149.38,-86.39 145.88,-76.39 142.38,-86.39 149.38,-86.39"/>
</a>
</g>
</g>
<!-- Node3 -->
<g id="Node000003" class="node">
<title>Node3</title>
<g id="a_Node000003"><a xlink:href="_keyboard_8hpp.html" target="_top" xlink:title="키보드 이벤트 헤더">
<polygon fill="white" stroke="#666666" points="117.88,-129.75 41.88,-129.75 41.88,-110.5 117.88,-110.5 117.88,-129.75"/>
<text text-anchor="middle" x="79.88" y="-116.25" font-family="Helvetica,sans-Serif" font-size="10.00">Keyboard.hpp</text>
</a>
</g>
</g>
<!-- Node1&#45;&gt;Node3 -->
<g id="edge2_Node000001_Node000003" class="edge">
<title>Node1&#45;&gt;Node3</title>
<g id="a_edge2_Node000001_Node000003"><a xlink:title=" ">
<path fill="none" stroke="#63b8ff" d="M134.68,-165.34C125.14,-157.65 111.2,-146.4 99.77,-137.18"/>
<polygon fill="#63b8ff" stroke="#63b8ff" points="102.06,-134.53 92.08,-130.98 97.67,-139.98 102.06,-134.53"/>
</a>
</g>
</g>
<!-- Node5 -->
<g id="Node000005" class="node">
<title>Node5</title>
<g id="a_Node000005"><a xlink:href="_player_collided_8hpp.html" target="_top" xlink:title="플레이어 충돌 이벤트">
<polygon fill="white" stroke="#666666" points="271.75,-129.75 174,-129.75 174,-110.5 271.75,-110.5 271.75,-129.75"/>
<text text-anchor="middle" x="222.88" y="-116.25" font-family="Helvetica,sans-Serif" font-size="10.00">PlayerCollided.hpp</text>
</a>
</g>
</g>
<!-- Node1&#45;&gt;Node5 -->
<g id="edge5_Node000001_Node000005" class="edge">
<title>Node1&#45;&gt;Node5</title>
<g id="a_edge5_Node000001_Node000005"><a xlink:title=" ">
<path fill="none" stroke="#63b8ff" d="M158.94,-165.34C170.33,-157.46 187.1,-145.86 200.61,-136.52"/>
<polygon fill="#63b8ff" stroke="#63b8ff" points="202.27,-139.63 208.5,-131.06 198.29,-133.87 202.27,-139.63"/>
</a>
</g>
</g>
<!-- Node3&#45;&gt;Node2 -->
<g id="edge4_Node000003_Node000002" class="edge">
<title>Node3&#45;&gt;Node2</title>
<g id="a_edge4_Node000003_Node000002"><a xlink:title=" ">
<path fill="none" stroke="#63b8ff" d="M91.07,-110.09C100.61,-102.4 114.55,-91.15 125.98,-81.93"/>
<polygon fill="#63b8ff" stroke="#63b8ff" points="128.08,-84.73 133.67,-75.73 123.69,-79.28 128.08,-84.73"/>
</a>
</g>
</g>
<!-- Node4 -->
<g id="Node000004" class="node">
<title>Node4</title>
<g id="a_Node000004"><a xlink:title=" ">
<polygon fill="#e0e0e0" stroke="#999999" points="97.75,-74.5 0,-74.5 0,-55.25 97.75,-55.25 97.75,-74.5"/>
<text text-anchor="middle" x="48.88" y="-61" font-family="Helvetica,sans-Serif" font-size="10.00">SFML/Window.hpp</text>
</a>
</g>
</g>
<!-- Node3&#45;&gt;Node4 -->
<g id="edge3_Node000003_Node000004" class="edge">
<title>Node3&#45;&gt;Node4</title>
<g id="a_edge3_Node000003_Node000004"><a xlink:title=" ">
<path fill="none" stroke="#63b8ff" d="M74.76,-110.33C70.7,-103.36 64.88,-93.37 59.79,-84.62"/>
<polygon fill="#63b8ff" stroke="#63b8ff" points="62.92,-83.05 54.87,-76.17 56.87,-86.57 62.92,-83.05"/>
</a>
</g>
</g>
<!-- Node5&#45;&gt;Node2 -->
<g id="edge6_Node000005_Node000002" class="edge">
<title>Node5&#45;&gt;Node2</title>
<g id="a_edge6_Node000005_Node000002"><a xlink:title=" ">
<path fill="none" stroke="#63b8ff" d="M209.81,-110.09C198.42,-102.21 181.65,-90.61 168.14,-81.27"/>
<polygon fill="#63b8ff" stroke="#63b8ff" points="170.46,-78.62 160.25,-75.81 166.48,-84.38 170.46,-78.62"/>
</a>
</g>
</g>
<!-- Node6 -->
<g id="Node000006" class="node">
<title>Node6</title>
<g id="a_Node000006"><a xlink:href="_entity_8hpp.html" target="_top" xlink:title="엔티티(ID) 정의를 물리적으로 분리한 헤더">
<polygon fill="white" stroke="#666666" points="274.12,-74.5 193.62,-74.5 193.62,-55.25 274.12,-55.25 274.12,-74.5"/>
<text text-anchor="middle" x="233.88" y="-61" font-family="Helvetica,sans-Serif" font-size="10.00">core/Entity.hpp</text>
</a>
</g>
</g>
<!-- Node5&#45;&gt;Node6 -->
<g id="edge7_Node000005_Node000006" class="edge">
<title>Node5&#45;&gt;Node6</title>
<g id="a_edge7_Node000005_Node000006"><a xlink:title=" ">
<path fill="none" stroke="#63b8ff" d="M224.69,-110.33C226.05,-103.74 227.97,-94.46 229.7,-86.07"/>
<polygon fill="#63b8ff" stroke="#63b8ff" points="233.12,-86.84 231.71,-76.34 226.26,-85.43 233.12,-86.84"/>
</a>
</g>
</g>
<!-- Node7 -->
<g id="Node000007" class="node">
<title>Node7</title>
<g id="a_Node000007"><a xlink:title=" ">
<polygon fill="#e0e0e0" stroke="#999999" points="256.5,-19.25 211.25,-19.25 211.25,0 256.5,0 256.5,-19.25"/>
<text text-anchor="middle" x="233.88" y="-5.75" font-family="Helvetica,sans-Serif" font-size="10.00">cstdint</text>
</a>
</g>
</g>
<!-- Node6&#45;&gt;Node7 -->
<g id="edge8_Node000006_Node000007" class="edge">
<title>Node6&#45;&gt;Node7</title>
<g id="a_edge8_Node000006_Node000007"><a xlink:title=" ">
<path fill="none" stroke="#63b8ff" d="M233.88,-55.08C233.88,-48.57 233.88,-39.42 233.88,-31.12"/>
<polygon fill="#63b8ff" stroke="#63b8ff" points="237.38,-31.12 233.88,-21.12 230.38,-31.12 237.38,-31.12"/>
</a>
</g>
</g>
</g>
</svg>
