<?xml version="1.0" encoding="UTF-8" standalone="no"?>
<!DOCTYPE svg PUBLIC "-//W3C//DTD SVG 1.1//EN"
 "http://www.w3.org/Graphics/SVG/1.1/DTD/svg11.dtd">
<!-- Generated by graphviz version 12.2.1 (20241206.2353)
 -->
<!-- Title: Events.hpp Pages: 1 -->
<svg width="159pt" height="248pt"
 viewBox="0.00 0.00 159.38 248.25" xmlns="http://www.w3.org/2000/svg" xmlns:xlink="http://www.w3.org/1999/xlink">
<g id="graph0" class="graph" transform="scale(1 1) rotate(0) translate(4 244.25)">
<title>Events.hpp</title>
<!-- Node1 -->
<g id="Node000001" class="node">
<title>Node1</title>
<g id="a_Node000001"><a xlink:title="다양한 이벤트 클래스를 한 데 모아 포함하는 헤더 파일">
<polygon fill="#999999" stroke="#666666" points="107,-240.25 41.5,-240.25 41.5,-221 107,-221 107,-240.25"/>
<text text-anchor="middle" x="74.25" y="-226.75" font-family="Helvetica,sans-Serif" font-size="10.00">Events.hpp</text>
</a>
</g>
</g>
<!-- Node2 -->
<g id="Node000002" class="node">
<title>Node2</title>
<g id="a_Node000002"><a xlink:href="_announcer_8hpp.html" target="_top" xlink:title="이벤트 아나운서 헤더">
<polygon fill="white" stroke="#666666" points="80.5,-185 0,-185 0,-165.75 80.5,-165.75 80.5,-185"/>
<text text-anchor="middle" x="40.25" y="-171.5" font-family="Helvetica,sans-Serif" font-size="10.00">Announcer.hpp</text>
</a>
</g>
</g>
<!-- Node1&#45;&gt;Node2 -->
<g id="edge1_Node000001_Node000002" class="edge">
<title>Node1&#45;&gt;Node2</title>
<g id="a_edge1_Node000001_Node000002"><a xlink:title=" ">
<path fill="none" stroke="#63b8ff" d="M62.62,-211.4C57,-202.61 50.52,-192.46 45.99,-185.36"/>
<polygon fill="#63b8ff" stroke="#63b8ff" points="59.49,-213.01 67.82,-219.56 65.39,-209.24 59.49,-213.01"/>
</a>
</g>
</g>
<!-- Node3 -->
<g id="Node000003" class="node">
<title>Node3</title>
<g id="a_Node000003"><a xlink:href="_core_8hpp.html" target="_top" xlink:title="모든 해더를 포함하는 헤더">
<polygon fill="white" stroke="#666666" points="102.12,-129.75 46.38,-129.75 46.38,-110.5 102.12,-110.5 102.12,-129.75"/>
<text text-anchor="middle" x="74.25" y="-116.25" font-family="Helvetica,sans-Serif" font-size="10.00">Core.hpp</text>
</a>
</g>
</g>
<!-- Node1&#45;&gt;Node3 -->
<g id="edge6_Node000001_Node000003" class="edge">
<title>Node1&#45;&gt;Node3</title>
<g id="a_edge6_Node000001_Node000003"><a xlink:title=" ">
<path fill="none" stroke="#63b8ff" d="M82.41,-209.91C85.16,-202.27 87.88,-193.36 89.25,-185 92.49,-165.21 84.18,-142.44 78.68,-130.14"/>
<polygon fill="#63b8ff" stroke="#63b8ff" points="79.16,-208.62 78.79,-219.21 85.68,-211.15 79.16,-208.62"/>
</a>
</g>
</g>
<!-- Node2&#45;&gt;Node3 -->
<g id="edge2_Node000002_Node000003" class="edge">
<title>Node2&#45;&gt;Node3</title>
<g id="a_edge2_Node000002_Node000003"><a xlink:title=" ">
<path fill="none" stroke="#63b8ff" d="M51.88,-156.15C57.5,-147.36 63.98,-137.21 68.51,-130.11"/>
<polygon fill="#63b8ff" stroke="#63b8ff" points="49.11,-153.99 46.68,-164.31 55.01,-157.76 49.11,-153.99"/>
</a>
</g>
</g>
<!-- Node4 -->
<g id="Node000004" class="node">
<title>Node4</title>
<g id="a_Node000004"><a xlink:href="_game_8hpp.html" target="_top" xlink:title="Game 세팅, 실제 게임이 구현되는 워크 스페이스">
<polygon fill="white" stroke="#666666" points="104.75,-19.25 43.75,-19.25 43.75,0 104.75,0 104.75,-19.25"/>
<text text-anchor="middle" x="74.25" y="-5.75" font-family="Helvetica,sans-Serif" font-size="10.00">Game.hpp</text>
</a>
</g>
</g>
<!-- Node3&#45;&gt;Node4 -->
<g id="edge3_Node000003_Node000004" class="edge">
<title>Node3&#45;&gt;Node4</title>
<g id="a_edge3_Node000003_Node000004"><a xlink:title=" ">
<path fill="none" stroke="#63b8ff" d="M65.11,-99.93C60.18,-87.32 55.61,-70.43 58.25,-55.25 60.48,-42.44 66.05,-28.44 69.99,-19.6"/>
<polygon fill="#63b8ff" stroke="#63b8ff" points="61.74,-100.95 68.93,-108.73 68.16,-98.16 61.74,-100.95"/>
</a>
</g>
</g>
<!-- Node5 -->
<g id="Node000005" class="node">
<title>Node5</title>
<g id="a_Node000005"><a xlink:href="_protagonist_8hpp_source.html" target="_top" xlink:title=" ">
<polygon fill="white" stroke="#666666" points="151.38,-74.5 67.12,-74.5 67.12,-55.25 151.38,-55.25 151.38,-74.5"/>
<text text-anchor="middle" x="109.25" y="-61" font-family="Helvetica,sans-Serif" font-size="10.00">Protagonist.hpp</text>
</a>
</g>
</g>
<!-- Node3&#45;&gt;Node5 -->
<g id="edge4_Node000003_Node000005" class="edge">
<title>Node3&#45;&gt;Node5</title>
<g id="a_edge4_Node000003_Node000005"><a xlink:title=" ">
<path fill="none" stroke="#63b8ff" d="M86.23,-100.9C92,-92.11 98.68,-81.96 103.34,-74.86"/>
<polygon fill="#63b8ff" stroke="#63b8ff" points="83.43,-98.79 80.86,-109.07 89.28,-102.63 83.43,-98.79"/>
</a>
</g>
</g>
<!-- Node5&#45;&gt;Node4 -->
<g id="edge5_Node000005_Node000004" class="edge">
<title>Node5&#45;&gt;Node4</title>
<g id="a_edge5_Node000005_Node000004"><a xlink:title=" ">
<path fill="none" stroke="#63b8ff" d="M97.27,-45.65C91.5,-36.86 84.82,-26.71 80.16,-19.61"/>
<polygon fill="#63b8ff" stroke="#63b8ff" points="94.22,-47.38 102.64,-53.82 100.07,-43.54 94.22,-47.38"/>
</a>
</g>
</g>
</g>
</svg>
