<?xml version="1.0" encoding="UTF-8" standalone="no"?>
<!DOCTYPE svg PUBLIC "-//W3C//DTD SVG 1.1//EN"
 "http://www.w3.org/Graphics/SVG/1.1/DTD/svg11.dtd">
<!-- Generated by graphviz version 12.2.1 (20241206.2353)
 -->
<!-- Title: Keyboard.hpp Pages: 1 -->
<svg width="184pt" height="83pt"
 viewBox="0.00 0.00 184.00 82.50" xmlns="http://www.w3.org/2000/svg" xmlns:xlink="http://www.w3.org/1999/xlink">
<g id="graph0" class="graph" transform="scale(1 1) rotate(0) translate(4 78.5)">
<title>Keyboard.hpp</title>
<!-- Node1 -->
<g id="Node000001" class="node">
<title>Node1</title>
<g id="a_Node000001"><a xlink:title="키보드 이벤트 헤더">
<polygon fill="#999999" stroke="#666666" points="134.88,-74.5 58.88,-74.5 58.88,-55.25 134.88,-55.25 134.88,-74.5"/>
<text text-anchor="middle" x="96.88" y="-61" font-family="Helvetica,sans-Serif" font-size="10.00">Keyboard.hpp</text>
</a>
</g>
</g>
<!-- Node2 -->
<g id="Node000002" class="node">
<title>Node2</title>
<g id="a_Node000002"><a xlink:title=" ">
<polygon fill="#e0e0e0" stroke="#999999" points="97.75,-19.25 0,-19.25 0,0 97.75,0 97.75,-19.25"/>
<text text-anchor="middle" x="48.88" y="-5.75" font-family="Helvetica,sans-Serif" font-size="10.00">SFML/Window.hpp</text>
</a>
</g>
</g>
<!-- Node1&#45;&gt;Node2 -->
<g id="edge1_Node000001_Node000002" class="edge">
<title>Node1&#45;&gt;Node2</title>
<g id="a_edge1_Node000001_Node000002"><a xlink:title=" ">
<path fill="none" stroke="#63b8ff" d="M88.95,-55.08C82.32,-47.73 72.66,-37.01 64.49,-27.94"/>
<polygon fill="#63b8ff" stroke="#63b8ff" points="67.28,-25.82 57.99,-20.73 62.08,-30.5 67.28,-25.82"/>
</a>
</g>
</g>
<!-- Node3 -->
<g id="Node000003" class="node">
<title>Node3</title>
<g id="a_Node000003"><a xlink:href="_event_8hpp.html" target="_top" xlink:title="이벤트 베이스 클래스 헤더">
<polygon fill="white" stroke="#666666" points="176,-19.25 115.75,-19.25 115.75,0 176,0 176,-19.25"/>
<text text-anchor="middle" x="145.88" y="-5.75" font-family="Helvetica,sans-Serif" font-size="10.00">Event.hpp</text>
</a>
</g>
</g>
<!-- Node1&#45;&gt;Node3 -->
<g id="edge2_Node000001_Node000003" class="edge">
<title>Node1&#45;&gt;Node3</title>
<g id="a_edge2_Node000001_Node000003"><a xlink:title=" ">
<path fill="none" stroke="#63b8ff" d="M104.97,-55.08C111.73,-47.73 121.6,-37.01 129.94,-27.94"/>
<polygon fill="#63b8ff" stroke="#63b8ff" points="132.39,-30.45 136.58,-20.72 127.24,-25.71 132.39,-30.45"/>
</a>
</g>
</g>
</g>
</svg>
