<?xml version="1.0" encoding="UTF-8" standalone="no"?>
<!DOCTYPE svg PUBLIC "-//W3C//DTD SVG 1.1//EN"
 "http://www.w3.org/Graphics/SVG/1.1/DTD/svg11.dtd">
<!-- Generated by graphviz version 12.2.1 (20241206.2353)
 -->
<!-- Title: Movement.hpp Pages: 1 -->
<svg width="125pt" height="304pt"
 viewBox="0.00 0.00 125.38 303.50" xmlns="http://www.w3.org/2000/svg" xmlns:xlink="http://www.w3.org/1999/xlink">
<g id="graph0" class="graph" transform="scale(1 1) rotate(0) translate(4 299.5)">
<title>Movement.hpp</title>
<!-- Node1 -->
<g id="Node000001" class="node">
<title>Node1</title>
<g id="a_Node000001"><a xlink:title="이동 시스템 헤더">
<polygon fill="#999999" stroke="#666666" points="80.5,-295.5 0,-295.5 0,-276.25 80.5,-276.25 80.5,-295.5"/>
<text text-anchor="middle" x="40.25" y="-282" font-family="Helvetica,sans-Serif" font-size="10.00">Movement.hpp</text>
</a>
</g>
</g>
<!-- Node2 -->
<g id="Node000002" class="node">
<title>Node2</title>
<g id="a_Node000002"><a xlink:href="_systems_8hpp.html" target="_top" xlink:title="게임 내 주요 시스템들을 한데 모아 포함하는 헤더 파일">
<polygon fill="white" stroke="#666666" points="77.12,-240.25 3.38,-240.25 3.38,-221 77.12,-221 77.12,-240.25"/>
<text text-anchor="middle" x="40.25" y="-226.75" font-family="Helvetica,sans-Serif" font-size="10.00">Systems.hpp</text>
</a>
</g>
</g>
<!-- Node1&#45;&gt;Node2 -->
<g id="edge1_Node000001_Node000002" class="edge">
<title>Node1&#45;&gt;Node2</title>
<g id="a_edge1_Node000001_Node000002"><a xlink:title=" ">
<path fill="none" stroke="#63b8ff" d="M40.25,-264.63C40.25,-256.34 40.25,-247.17 40.25,-240.61"/>
<polygon fill="#63b8ff" stroke="#63b8ff" points="36.75,-264.57 40.25,-274.57 43.75,-264.57 36.75,-264.57"/>
</a>
</g>
</g>
<!-- Node3 -->
<g id="Node000003" class="node">
<title>Node3</title>
<g id="a_Node000003"><a xlink:href="_core_8hpp.html" target="_top" xlink:title="모든 해더를 포함하는 헤더">
<polygon fill="white" stroke="#666666" points="68.12,-129.75 12.38,-129.75 12.38,-110.5 68.12,-110.5 68.12,-129.75"/>
<text text-anchor="middle" x="40.25" y="-116.25" font-family="Helvetica,sans-Serif" font-size="10.00">Core.hpp</text>
</a>
</g>
</g>
<!-- Node2&#45;&gt;Node3 -->
<g id="edge2_Node000002_Node000003" class="edge">
<title>Node2&#45;&gt;Node3</title>
<g id="a_edge2_Node000002_Node000003"><a xlink:title=" ">
<path fill="none" stroke="#63b8ff" d="M34.34,-209.55C31.33,-197 28.62,-180.48 30.25,-165.75 31.65,-153.12 35.2,-138.85 37.68,-129.92"/>
<polygon fill="#63b8ff" stroke="#63b8ff" points="30.93,-210.35 36.9,-219.1 37.69,-208.54 30.93,-210.35"/>
</a>
</g>
</g>
<!-- Node6 -->
<g id="Node000006" class="node">
<title>Node6</title>
<g id="a_Node000006"><a xlink:href="_world_8hpp.html" target="_top" xlink:title="시스템을 관리하는 클래스 헤더">
<polygon fill="white" stroke="#666666" points="99,-185 39.5,-185 39.5,-165.75 99,-165.75 99,-185"/>
<text text-anchor="middle" x="69.25" y="-171.5" font-family="Helvetica,sans-Serif" font-size="10.00">World.hpp</text>
</a>
</g>
</g>
<!-- Node2&#45;&gt;Node6 -->
<g id="edge6_Node000002_Node000006" class="edge">
<title>Node2&#45;&gt;Node6</title>
<g id="a_edge6_Node000002_Node000006"><a xlink:title=" ">
<path fill="none" stroke="#63b8ff" d="M50.49,-210.83C55.2,-202.17 60.57,-192.31 64.36,-185.36"/>
<polygon fill="#63b8ff" stroke="#63b8ff" points="47.47,-209.05 45.76,-219.5 53.62,-212.39 47.47,-209.05"/>
</a>
</g>
</g>
<!-- Node4 -->
<g id="Node000004" class="node">
<title>Node4</title>
<g id="a_Node000004"><a xlink:href="_game_8hpp.html" target="_top" xlink:title="Game 세팅, 실제 게임이 구현되는 워크 스페이스">
<polygon fill="white" stroke="#666666" points="70.75,-19.25 9.75,-19.25 9.75,0 70.75,0 70.75,-19.25"/>
<text text-anchor="middle" x="40.25" y="-5.75" font-family="Helvetica,sans-Serif" font-size="10.00">Game.hpp</text>
</a>
</g>
</g>
<!-- Node3&#45;&gt;Node4 -->
<g id="edge3_Node000003_Node000004" class="edge">
<title>Node3&#45;&gt;Node4</title>
<g id="a_edge3_Node000003_Node000004"><a xlink:title=" ">
<path fill="none" stroke="#63b8ff" d="M31.11,-99.93C26.18,-87.32 21.61,-70.43 24.25,-55.25 26.48,-42.44 32.05,-28.44 35.99,-19.6"/>
<polygon fill="#63b8ff" stroke="#63b8ff" points="27.74,-100.95 34.93,-108.73 34.16,-98.16 27.74,-100.95"/>
</a>
</g>
</g>
<!-- Node5 -->
<g id="Node000005" class="node">
<title>Node5</title>
<g id="a_Node000005"><a xlink:href="_protagonist_8hpp_source.html" target="_top" xlink:title=" ">
<polygon fill="white" stroke="#666666" points="117.38,-74.5 33.12,-74.5 33.12,-55.25 117.38,-55.25 117.38,-74.5"/>
<text text-anchor="middle" x="75.25" y="-61" font-family="Helvetica,sans-Serif" font-size="10.00">Protagonist.hpp</text>
</a>
</g>
</g>
<!-- Node3&#45;&gt;Node5 -->
<g id="edge4_Node000003_Node000005" class="edge">
<title>Node3&#45;&gt;Node5</title>
<g id="a_edge4_Node000003_Node000005"><a xlink:title=" ">
<path fill="none" stroke="#63b8ff" d="M52.23,-100.9C58,-92.11 64.68,-81.96 69.34,-74.86"/>
<polygon fill="#63b8ff" stroke="#63b8ff" points="49.43,-98.79 46.86,-109.07 55.28,-102.63 49.43,-98.79"/>
</a>
</g>
</g>
<!-- Node5&#45;&gt;Node4 -->
<g id="edge5_Node000005_Node000004" class="edge">
<title>Node5&#45;&gt;Node4</title>
<g id="a_edge5_Node000005_Node000004"><a xlink:title=" ">
<path fill="none" stroke="#63b8ff" d="M63.27,-45.65C57.5,-36.86 50.82,-26.71 46.16,-19.61"/>
<polygon fill="#63b8ff" stroke="#63b8ff" points="60.22,-47.38 68.64,-53.82 66.07,-43.54 60.22,-47.38"/>
</a>
</g>
</g>
<!-- Node6&#45;&gt;Node3 -->
<g id="edge7_Node000006_Node000003" class="edge">
<title>Node6&#45;&gt;Node3</title>
<g id="a_edge7_Node000006_Node000003"><a xlink:title=" ">
<path fill="none" stroke="#63b8ff" d="M59.01,-155.58C54.3,-146.92 48.93,-137.06 45.14,-130.11"/>
<polygon fill="#63b8ff" stroke="#63b8ff" points="55.88,-157.14 63.74,-164.25 62.03,-153.8 55.88,-157.14"/>
</a>
</g>
</g>
</g>
</svg>
