<?xml version="1.0" encoding="UTF-8" standalone="no"?>
<!DOCTYPE svg PUBLIC "-//W3C//DTD SVG 1.1//EN"
 "http://www.w3.org/Graphics/SVG/1.1/DTD/svg11.dtd">
<!-- Generated by graphviz version 12.2.1 (20241206.2353)
 -->
<!-- Title: PlayerCollided.hpp Pages: 1 -->
<svg width="166pt" height="138pt"
 viewBox="0.00 0.00 166.38 137.75" xmlns="http://www.w3.org/2000/svg" xmlns:xlink="http://www.w3.org/1999/xlink">
<g id="graph0" class="graph" transform="scale(1 1) rotate(0) translate(4 133.75)">
<title>PlayerCollided.hpp</title>
<!-- Node1 -->
<g id="Node000001" class="node">
<title>Node1</title>
<g id="a_Node000001"><a xlink:title="플레이어 충돌 이벤트">
<polygon fill="#999999" stroke="#666666" points="123,-129.75 25.25,-129.75 25.25,-110.5 123,-110.5 123,-129.75"/>
<text text-anchor="middle" x="74.12" y="-116.25" font-family="Helvetica,sans-Serif" font-size="10.00">PlayerCollided.hpp</text>
</a>
</g>
</g>
<!-- Node2 -->
<g id="Node000002" class="node">
<title>Node2</title>
<g id="a_Node000002"><a xlink:href="_event_8hpp.html" target="_top" xlink:title="이벤트 베이스 클래스 헤더">
<polygon fill="white" stroke="#666666" points="60.25,-74.5 0,-74.5 0,-55.25 60.25,-55.25 60.25,-74.5"/>
<text text-anchor="middle" x="30.12" y="-61" font-family="Helvetica,sans-Serif" font-size="10.00">Event.hpp</text>
</a>
</g>
</g>
<!-- Node1&#45;&gt;Node2 -->
<g id="edge1_Node000001_Node000002" class="edge">
<title>Node1&#45;&gt;Node2</title>
<g id="a_edge1_Node000001_Node000002"><a xlink:title=" ">
<path fill="none" stroke="#63b8ff" d="M66.86,-110.33C60.84,-103.05 52.11,-92.48 44.67,-83.48"/>
<polygon fill="#63b8ff" stroke="#63b8ff" points="47.58,-81.51 38.51,-76.03 42.18,-85.96 47.58,-81.51"/>
</a>
</g>
</g>
<!-- Node3 -->
<g id="Node000003" class="node">
<title>Node3</title>
<g id="a_Node000003"><a xlink:href="_entity_8hpp.html" target="_top" xlink:title="엔티티(ID) 정의를 물리적으로 분리한 헤더">
<polygon fill="white" stroke="#666666" points="158.38,-74.5 77.88,-74.5 77.88,-55.25 158.38,-55.25 158.38,-74.5"/>
<text text-anchor="middle" x="118.12" y="-61" font-family="Helvetica,sans-Serif" font-size="10.00">core/Entity.hpp</text>
</a>
</g>
</g>
<!-- Node1&#45;&gt;Node3 -->
<g id="edge2_Node000001_Node000003" class="edge">
<title>Node1&#45;&gt;Node3</title>
<g id="a_edge2_Node000001_Node000003"><a xlink:title=" ">
<path fill="none" stroke="#63b8ff" d="M81.39,-110.33C87.41,-103.05 96.14,-92.48 103.58,-83.48"/>
<polygon fill="#63b8ff" stroke="#63b8ff" points="106.07,-85.96 109.74,-76.03 100.67,-81.51 106.07,-85.96"/>
</a>
</g>
</g>
<!-- Node4 -->
<g id="Node000004" class="node">
<title>Node4</title>
<g id="a_Node000004"><a xlink:title=" ">
<polygon fill="#e0e0e0" stroke="#999999" points="140.75,-19.25 95.5,-19.25 95.5,0 140.75,0 140.75,-19.25"/>
<text text-anchor="middle" x="118.12" y="-5.75" font-family="Helvetica,sans-Serif" font-size="10.00">cstdint</text>
</a>
</g>
</g>
<!-- Node3&#45;&gt;Node4 -->
<g id="edge3_Node000003_Node000004" class="edge">
<title>Node3&#45;&gt;Node4</title>
<g id="a_edge3_Node000003_Node000004"><a xlink:title=" ">
<path fill="none" stroke="#63b8ff" d="M118.12,-55.08C118.12,-48.57 118.12,-39.42 118.12,-31.12"/>
<polygon fill="#63b8ff" stroke="#63b8ff" points="121.63,-31.12 118.13,-21.12 114.63,-31.12 121.63,-31.12"/>
</a>
</g>
</g>
</g>
</svg>
