<?xml version="1.0" encoding="UTF-8" standalone="no"?>
<!DOCTYPE svg PUBLIC "-//W3C//DTD SVG 1.1//EN"
 "http://www.w3.org/Graphics/SVG/1.1/DTD/svg11.dtd">
<!-- Generated by graphviz version 12.2.1 (20241206.2353)
 -->
<!-- Title: Position.hpp Pages: 1 -->
<svg width="241pt" height="359pt"
 viewBox="0.00 0.00 241.12 358.75" xmlns="http://www.w3.org/2000/svg" xmlns:xlink="http://www.w3.org/1999/xlink">
<g id="graph0" class="graph" transform="scale(1 1) rotate(0) translate(4 354.75)">
<title>Position.hpp</title>
<!-- Node1 -->
<g id="Node000001" class="node">
<title>Node1</title>
<g id="a_Node000001"><a xlink:title="위치 컴포넌트">
<polygon fill="#999999" stroke="#666666" points="121.88,-350.75 51.88,-350.75 51.88,-331.5 121.88,-331.5 121.88,-350.75"/>
<text text-anchor="middle" x="86.88" y="-337.25" font-family="Helvetica,sans-Serif" font-size="10.00">Position.hpp</text>
</a>
</g>
</g>
<!-- Node2 -->
<g id="Node000002" class="node">
<title>Node2</title>
<g id="a_Node000002"><a xlink:href="_collision_8hpp.html" target="_top" xlink:title="충돌 시스템 헤더">
<polygon fill="white" stroke="#666666" points="91,-295.5 18.75,-295.5 18.75,-276.25 91,-276.25 91,-295.5"/>
<text text-anchor="middle" x="54.88" y="-282" font-family="Helvetica,sans-Serif" font-size="10.00">Collision.hpp</text>
</a>
</g>
</g>
<!-- Node1&#45;&gt;Node2 -->
<g id="edge1_Node000001_Node000002" class="edge">
<title>Node1&#45;&gt;Node2</title>
<g id="a_edge1_Node000001_Node000002"><a xlink:title=" ">
<path fill="none" stroke="#63b8ff" d="M75.75,-321.62C70.51,-312.89 64.5,-302.89 60.27,-295.86"/>
<polygon fill="#63b8ff" stroke="#63b8ff" points="72.66,-323.27 80.81,-330.03 78.66,-319.66 72.66,-323.27"/>
</a>
</g>
</g>
<!-- Node8 -->
<g id="Node000008" class="node">
<title>Node8</title>
<g id="a_Node000008"><a xlink:href="_components_8hpp.html" target="_top" xlink:title="ECS 아키텍처에서 사용되는 주요 컴포넌트를 한데 모아 포함하는 헤더">
<polygon fill="white" stroke="#666666" points="182,-240.25 91.75,-240.25 91.75,-221 182,-221 182,-240.25"/>
<text text-anchor="middle" x="136.88" y="-226.75" font-family="Helvetica,sans-Serif" font-size="10.00">Components.hpp</text>
</a>
</g>
</g>
<!-- Node1&#45;&gt;Node8 -->
<g id="edge9_Node000001_Node000008" class="edge">
<title>Node1&#45;&gt;Node8</title>
<g id="a_edge9_Node000001_Node000008"><a xlink:title=" ">
<path fill="none" stroke="#63b8ff" d="M95.65,-321.08C106.53,-297.47 124.62,-258.21 132.73,-240.63"/>
<polygon fill="#63b8ff" stroke="#63b8ff" points="92.61,-319.32 91.6,-329.87 98.96,-322.25 92.61,-319.32"/>
</a>
</g>
</g>
<!-- Node3 -->
<g id="Node000003" class="node">
<title>Node3</title>
<g id="a_Node000003"><a xlink:href="_systems_8hpp.html" target="_top" xlink:title="게임 내 주요 시스템들을 한데 모아 포함하는 헤더 파일">
<polygon fill="white" stroke="#666666" points="73.75,-240.25 0,-240.25 0,-221 73.75,-221 73.75,-240.25"/>
<text text-anchor="middle" x="36.88" y="-226.75" font-family="Helvetica,sans-Serif" font-size="10.00">Systems.hpp</text>
</a>
</g>
</g>
<!-- Node2&#45;&gt;Node3 -->
<g id="edge2_Node000002_Node000003" class="edge">
<title>Node2&#45;&gt;Node3</title>
<g id="a_edge2_Node000002_Node000003"><a xlink:title=" ">
<path fill="none" stroke="#63b8ff" d="M48.23,-265.21C45.37,-256.77 42.18,-247.33 39.91,-240.61"/>
<polygon fill="#63b8ff" stroke="#63b8ff" points="44.9,-266.3 51.42,-274.65 51.53,-264.05 44.9,-266.3"/>
</a>
</g>
</g>
<!-- Node4 -->
<g id="Node000004" class="node">
<title>Node4</title>
<g id="a_Node000004"><a xlink:href="_core_8hpp.html" target="_top" xlink:title="모든 해더를 포함하는 헤더">
<polygon fill="white" stroke="#666666" points="135.75,-129.75 80,-129.75 80,-110.5 135.75,-110.5 135.75,-129.75"/>
<text text-anchor="middle" x="107.88" y="-116.25" font-family="Helvetica,sans-Serif" font-size="10.00">Core.hpp</text>
</a>
</g>
</g>
<!-- Node3&#45;&gt;Node4 -->
<g id="edge3_Node000003_Node000004" class="edge">
<title>Node3&#45;&gt;Node4</title>
<g id="a_edge3_Node000003_Node000004"><a xlink:title=" ">
<path fill="none" stroke="#63b8ff" d="M33.31,-209.44C32.01,-196.17 32.37,-178.9 39.88,-165.75 49.46,-148.95 68.26,-137.35 83.67,-130.2"/>
<polygon fill="#63b8ff" stroke="#63b8ff" points="29.82,-209.75 34.68,-219.17 36.76,-208.78 29.82,-209.75"/>
</a>
</g>
</g>
<!-- Node7 -->
<g id="Node000007" class="node">
<title>Node7</title>
<g id="a_Node000007"><a xlink:href="_world_8hpp.html" target="_top" xlink:title="시스템을 관리하는 클래스 헤더">
<polygon fill="white" stroke="#666666" points="108.62,-185 49.12,-185 49.12,-165.75 108.62,-165.75 108.62,-185"/>
<text text-anchor="middle" x="78.88" y="-171.5" font-family="Helvetica,sans-Serif" font-size="10.00">World.hpp</text>
</a>
</g>
</g>
<!-- Node3&#45;&gt;Node7 -->
<g id="edge7_Node000003_Node000007" class="edge">
<title>Node3&#45;&gt;Node7</title>
<g id="a_edge7_Node000003_Node000007"><a xlink:title=" ">
<path fill="none" stroke="#63b8ff" d="M50.8,-211.97C57.83,-203.06 66.06,-192.62 71.79,-185.36"/>
<polygon fill="#63b8ff" stroke="#63b8ff" points="48.19,-209.62 44.75,-219.64 53.69,-213.96 48.19,-209.62"/>
</a>
</g>
</g>
<!-- Node5 -->
<g id="Node000005" class="node">
<title>Node5</title>
<g id="a_Node000005"><a xlink:href="_game_8hpp.html" target="_top" xlink:title="Game 세팅, 실제 게임이 구현되는 워크 스페이스">
<polygon fill="white" stroke="#666666" points="138.38,-19.25 77.38,-19.25 77.38,0 138.38,0 138.38,-19.25"/>
<text text-anchor="middle" x="107.88" y="-5.75" font-family="Helvetica,sans-Serif" font-size="10.00">Game.hpp</text>
</a>
</g>
</g>
<!-- Node4&#45;&gt;Node5 -->
<g id="edge4_Node000004_Node000005" class="edge">
<title>Node4&#45;&gt;Node5</title>
<g id="a_edge4_Node000004_Node000005"><a xlink:title=" ">
<path fill="none" stroke="#63b8ff" d="M98.73,-99.93C93.81,-87.32 89.24,-70.43 91.88,-55.25 94.1,-42.44 99.68,-28.44 103.62,-19.6"/>
<polygon fill="#63b8ff" stroke="#63b8ff" points="95.36,-100.95 102.55,-108.73 101.78,-98.16 95.36,-100.95"/>
</a>
</g>
</g>
<!-- Node6 -->
<g id="Node000006" class="node">
<title>Node6</title>
<g id="a_Node000006"><a xlink:href="_protagonist_8hpp_source.html" target="_top" xlink:title=" ">
<polygon fill="white" stroke="#666666" points="185,-74.5 100.75,-74.5 100.75,-55.25 185,-55.25 185,-74.5"/>
<text text-anchor="middle" x="142.88" y="-61" font-family="Helvetica,sans-Serif" font-size="10.00">Protagonist.hpp</text>
</a>
</g>
</g>
<!-- Node4&#45;&gt;Node6 -->
<g id="edge5_Node000004_Node000006" class="edge">
<title>Node4&#45;&gt;Node6</title>
<g id="a_edge5_Node000004_Node000006"><a xlink:title=" ">
<path fill="none" stroke="#63b8ff" d="M119.85,-100.9C125.63,-92.11 132.3,-81.96 136.97,-74.86"/>
<polygon fill="#63b8ff" stroke="#63b8ff" points="117.05,-98.79 114.49,-109.07 122.9,-102.63 117.05,-98.79"/>
</a>
</g>
</g>
<!-- Node6&#45;&gt;Node5 -->
<g id="edge6_Node000006_Node000005" class="edge">
<title>Node6&#45;&gt;Node5</title>
<g id="a_edge6_Node000006_Node000005"><a xlink:title=" ">
<path fill="none" stroke="#63b8ff" d="M130.9,-45.65C125.12,-36.86 118.45,-26.71 113.78,-19.61"/>
<polygon fill="#63b8ff" stroke="#63b8ff" points="127.85,-47.38 136.26,-53.82 133.7,-43.54 127.85,-47.38"/>
</a>
</g>
</g>
<!-- Node7&#45;&gt;Node4 -->
<g id="edge8_Node000007_Node000004" class="edge">
<title>Node7&#45;&gt;Node4</title>
<g id="a_edge8_Node000007_Node000004"><a xlink:title=" ">
<path fill="none" stroke="#63b8ff" d="M89.11,-155.58C93.82,-146.92 99.2,-137.06 102.98,-130.11"/>
<polygon fill="#63b8ff" stroke="#63b8ff" points="86.1,-153.8 84.39,-164.25 92.24,-157.14 86.1,-153.8"/>
</a>
</g>
</g>
<!-- Node8&#45;&gt;Node4 -->
<g id="edge10_Node000008_Node000004" class="edge">
<title>Node8&#45;&gt;Node4</title>
<g id="a_edge10_Node000008_Node000004"><a xlink:title=" ">
<path fill="none" stroke="#63b8ff" d="M131.61,-209.93C125.28,-186.26 114.94,-147.55 110.28,-130.13"/>
<polygon fill="#63b8ff" stroke="#63b8ff" points="128.15,-210.53 134.11,-219.28 134.91,-208.72 128.15,-210.53"/>
</a>
</g>
</g>
<!-- Node8&#45;&gt;Node7 -->
<g id="edge13_Node000008_Node000007" class="edge">
<title>Node8&#45;&gt;Node7</title>
<g id="a_edge13_Node000008_Node000007"><a xlink:title=" ">
<path fill="none" stroke="#63b8ff" d="M118.61,-212.86C108.66,-203.72 96.74,-192.78 88.57,-185.27"/>
<polygon fill="#63b8ff" stroke="#63b8ff" points="116.19,-215.38 125.92,-219.57 120.92,-210.23 116.19,-215.38"/>
</a>
</g>
</g>
<!-- Node9 -->
<g id="Node000009" class="node">
<title>Node9</title>
<g id="a_Node000009"><a xlink:href="_storage_8hpp.html" target="_top" xlink:title="게임 상태 저장 클래스 헤더">
<polygon fill="white" stroke="#666666" points="233.12,-185 164.62,-185 164.62,-165.75 233.12,-165.75 233.12,-185"/>
<text text-anchor="middle" x="198.88" y="-171.5" font-family="Helvetica,sans-Serif" font-size="10.00">Storage.hpp</text>
</a>
</g>
</g>
<!-- Node8&#45;&gt;Node9 -->
<g id="edge11_Node000008_Node000009" class="edge">
<title>Node8&#45;&gt;Node9</title>
<g id="a_edge11_Node000008_Node000009"><a xlink:title=" ">
<path fill="none" stroke="#63b8ff" d="M156.07,-213.14C166.78,-203.94 179.69,-192.85 188.51,-185.27"/>
<polygon fill="#63b8ff" stroke="#63b8ff" points="153.85,-210.44 148.54,-219.61 158.41,-215.75 153.85,-210.44"/>
</a>
</g>
</g>
<!-- Node9&#45;&gt;Node4 -->
<g id="edge12_Node000009_Node000004" class="edge">
<title>Node9&#45;&gt;Node4</title>
<g id="a_edge12_Node000009_Node000004"><a xlink:title=" ">
<path fill="none" stroke="#63b8ff" d="M173.58,-159.57C157.48,-150.15 137.14,-138.25 123.39,-130.2"/>
<polygon fill="#63b8ff" stroke="#63b8ff" points="171.73,-162.55 182.13,-164.58 175.27,-156.51 171.73,-162.55"/>
</a>
</g>
</g>
</g>
</svg>
