<?xml version="1.0" encoding="UTF-8" standalone="no"?>
<!DOCTYPE svg PUBLIC "-//W3C//DTD SVG 1.1//EN"
 "http://www.w3.org/Graphics/SVG/1.1/DTD/svg11.dtd">
<!-- Generated by graphviz version 12.2.1 (20241206.2353)
 -->
<!-- Title: Rendering.hpp Pages: 1 -->
<svg width="125pt" height="304pt"
 viewBox="0.00 0.00 124.62 303.50" xmlns="http://www.w3.org/2000/svg" xmlns:xlink="http://www.w3.org/1999/xlink">
<g id="graph0" class="graph" transform="scale(1 1) rotate(0) translate(4 299.5)">
<title>Rendering.hpp</title>
<!-- Node1 -->
<g id="Node000001" class="node">
<title>Node1</title>
<g id="a_Node000001"><a xlink:title="렌더링 시스템 헤더">
<polygon fill="#999999" stroke="#666666" points="79,-295.5 0,-295.5 0,-276.25 79,-276.25 79,-295.5"/>
<text text-anchor="middle" x="39.5" y="-282" font-family="Helvetica,sans-Serif" font-size="10.00">Rendering.hpp</text>
</a>
</g>
</g>
<!-- Node2 -->
<g id="Node000002" class="node">
<title>Node2</title>
<g id="a_Node000002"><a xlink:href="_systems_8hpp.html" target="_top" xlink:title="게임 내 주요 시스템들을 한데 모아 포함하는 헤더 파일">
<polygon fill="white" stroke="#666666" points="76.38,-240.25 2.62,-240.25 2.62,-221 76.38,-221 76.38,-240.25"/>
<text text-anchor="middle" x="39.5" y="-226.75" font-family="Helvetica,sans-Serif" font-size="10.00">Systems.hpp</text>
</a>
</g>
</g>
<!-- Node1&#45;&gt;Node2 -->
<g id="edge1_Node000001_Node000002" class="edge">
<title>Node1&#45;&gt;Node2</title>
<g id="a_edge1_Node000001_Node000002"><a xlink:title=" ">
<path fill="none" stroke="#63b8ff" d="M39.5,-264.63C39.5,-256.34 39.5,-247.17 39.5,-240.61"/>
<polygon fill="#63b8ff" stroke="#63b8ff" points="36,-264.57 39.5,-274.57 43,-264.57 36,-264.57"/>
</a>
</g>
</g>
<!-- Node3 -->
<g id="Node000003" class="node">
<title>Node3</title>
<g id="a_Node000003"><a xlink:href="_core_8hpp.html" target="_top" xlink:title="모든 해더를 포함하는 헤더">
<polygon fill="white" stroke="#666666" points="67.38,-129.75 11.62,-129.75 11.62,-110.5 67.38,-110.5 67.38,-129.75"/>
<text text-anchor="middle" x="39.5" y="-116.25" font-family="Helvetica,sans-Serif" font-size="10.00">Core.hpp</text>
</a>
</g>
</g>
<!-- Node2&#45;&gt;Node3 -->
<g id="edge2_Node000002_Node000003" class="edge">
<title>Node2&#45;&gt;Node3</title>
<g id="a_edge2_Node000002_Node000003"><a xlink:title=" ">
<path fill="none" stroke="#63b8ff" d="M33.59,-209.55C30.58,-197 27.87,-180.48 29.5,-165.75 30.9,-153.12 34.45,-138.85 36.93,-129.92"/>
<polygon fill="#63b8ff" stroke="#63b8ff" points="30.18,-210.35 36.15,-219.1 36.94,-208.54 30.18,-210.35"/>
</a>
</g>
</g>
<!-- Node6 -->
<g id="Node000006" class="node">
<title>Node6</title>
<g id="a_Node000006"><a xlink:href="_world_8hpp.html" target="_top" xlink:title="시스템을 관리하는 클래스 헤더">
<polygon fill="white" stroke="#666666" points="98.25,-185 38.75,-185 38.75,-165.75 98.25,-165.75 98.25,-185"/>
<text text-anchor="middle" x="68.5" y="-171.5" font-family="Helvetica,sans-Serif" font-size="10.00">World.hpp</text>
</a>
</g>
</g>
<!-- Node2&#45;&gt;Node6 -->
<g id="edge6_Node000002_Node000006" class="edge">
<title>Node2&#45;&gt;Node6</title>
<g id="a_edge6_Node000002_Node000006"><a xlink:title=" ">
<path fill="none" stroke="#63b8ff" d="M49.74,-210.83C54.45,-202.17 59.82,-192.31 63.61,-185.36"/>
<polygon fill="#63b8ff" stroke="#63b8ff" points="46.72,-209.05 45.01,-219.5 52.87,-212.39 46.72,-209.05"/>
</a>
</g>
</g>
<!-- Node4 -->
<g id="Node000004" class="node">
<title>Node4</title>
<g id="a_Node000004"><a xlink:href="_game_8hpp.html" target="_top" xlink:title="Game 세팅, 실제 게임이 구현되는 워크 스페이스">
<polygon fill="white" stroke="#666666" points="70,-19.25 9,-19.25 9,0 70,0 70,-19.25"/>
<text text-anchor="middle" x="39.5" y="-5.75" font-family="Helvetica,sans-Serif" font-size="10.00">Game.hpp</text>
</a>
</g>
</g>
<!-- Node3&#45;&gt;Node4 -->
<g id="edge3_Node000003_Node000004" class="edge">
<title>Node3&#45;&gt;Node4</title>
<g id="a_edge3_Node000003_Node000004"><a xlink:title=" ">
<path fill="none" stroke="#63b8ff" d="M30.36,-99.93C25.43,-87.32 20.86,-70.43 23.5,-55.25 25.73,-42.44 31.3,-28.44 35.24,-19.6"/>
<polygon fill="#63b8ff" stroke="#63b8ff" points="26.99,-100.95 34.18,-108.73 33.41,-98.16 26.99,-100.95"/>
</a>
</g>
</g>
<!-- Node5 -->
<g id="Node000005" class="node">
<title>Node5</title>
<g id="a_Node000005"><a xlink:href="_protagonist_8hpp_source.html" target="_top" xlink:title=" ">
<polygon fill="white" stroke="#666666" points="116.62,-74.5 32.38,-74.5 32.38,-55.25 116.62,-55.25 116.62,-74.5"/>
<text text-anchor="middle" x="74.5" y="-61" font-family="Helvetica,sans-Serif" font-size="10.00">Protagonist.hpp</text>
</a>
</g>
</g>
<!-- Node3&#45;&gt;Node5 -->
<g id="edge4_Node000003_Node000005" class="edge">
<title>Node3&#45;&gt;Node5</title>
<g id="a_edge4_Node000003_Node000005"><a xlink:title=" ">
<path fill="none" stroke="#63b8ff" d="M51.48,-100.9C57.25,-92.11 63.93,-81.96 68.59,-74.86"/>
<polygon fill="#63b8ff" stroke="#63b8ff" points="48.68,-98.79 46.11,-109.07 54.53,-102.63 48.68,-98.79"/>
</a>
</g>
</g>
<!-- Node5&#45;&gt;Node4 -->
<g id="edge5_Node000005_Node000004" class="edge">
<title>Node5&#45;&gt;Node4</title>
<g id="a_edge5_Node000005_Node000004"><a xlink:title=" ">
<path fill="none" stroke="#63b8ff" d="M62.52,-45.65C56.75,-36.86 50.07,-26.71 45.41,-19.61"/>
<polygon fill="#63b8ff" stroke="#63b8ff" points="59.47,-47.38 67.89,-53.82 65.32,-43.54 59.47,-47.38"/>
</a>
</g>
</g>
<!-- Node6&#45;&gt;Node3 -->
<g id="edge7_Node000006_Node000003" class="edge">
<title>Node6&#45;&gt;Node3</title>
<g id="a_edge7_Node000006_Node000003"><a xlink:title=" ">
<path fill="none" stroke="#63b8ff" d="M58.26,-155.58C53.55,-146.92 48.18,-137.06 44.39,-130.11"/>
<polygon fill="#63b8ff" stroke="#63b8ff" points="55.13,-157.14 62.99,-164.25 61.28,-153.8 55.13,-157.14"/>
</a>
</g>
</g>
</g>
</svg>
