<?xml version="1.0" encoding="UTF-8" standalone="no"?>
<!DOCTYPE svg PUBLIC "-//W3C//DTD SVG 1.1//EN"
 "http://www.w3.org/Graphics/SVG/1.1/DTD/svg11.dtd">
<!-- Generated by graphviz version 12.2.1 (20241206.2353)
 -->
<!-- Title: ServiceLocater.hpp Pages: 1 -->
<svg width="135pt" height="193pt"
 viewBox="0.00 0.00 134.75 193.00" xmlns="http://www.w3.org/2000/svg" xmlns:xlink="http://www.w3.org/1999/xlink">
<g id="graph0" class="graph" transform="scale(1 1) rotate(0) translate(4 189)">
<title>ServiceLocater.hpp</title>
<!-- Node1 -->
<g id="Node000001" class="node">
<title>Node1</title>
<g id="a_Node000001"><a xlink:title="Service Locater 클래스 헤더">
<polygon fill="#999999" stroke="#666666" points="99.25,-185 0,-185 0,-165.75 99.25,-165.75 99.25,-185"/>
<text text-anchor="middle" x="49.62" y="-171.5" font-family="Helvetica,sans-Serif" font-size="10.00">ServiceLocater.hpp</text>
</a>
</g>
</g>
<!-- Node2 -->
<g id="Node000002" class="node">
<title>Node2</title>
<g id="a_Node000002"><a xlink:href="_core_8hpp.html" target="_top" xlink:title="모든 해더를 포함하는 헤더">
<polygon fill="white" stroke="#666666" points="77.5,-129.75 21.75,-129.75 21.75,-110.5 77.5,-110.5 77.5,-129.75"/>
<text text-anchor="middle" x="49.62" y="-116.25" font-family="Helvetica,sans-Serif" font-size="10.00">Core.hpp</text>
</a>
</g>
</g>
<!-- Node1&#45;&gt;Node2 -->
<g id="edge1_Node000001_Node000002" class="edge">
<title>Node1&#45;&gt;Node2</title>
<g id="a_edge1_Node000001_Node000002"><a xlink:title=" ">
<path fill="none" stroke="#63b8ff" d="M49.62,-154.13C49.62,-145.84 49.62,-136.67 49.62,-130.11"/>
<polygon fill="#63b8ff" stroke="#63b8ff" points="46.13,-154.07 49.63,-164.07 53.13,-154.07 46.13,-154.07"/>
</a>
</g>
</g>
<!-- Node3 -->
<g id="Node000003" class="node">
<title>Node3</title>
<g id="a_Node000003"><a xlink:href="_game_8hpp.html" target="_top" xlink:title="Game 세팅, 실제 게임이 구현되는 워크 스페이스">
<polygon fill="white" stroke="#666666" points="80.12,-19.25 19.13,-19.25 19.13,0 80.12,0 80.12,-19.25"/>
<text text-anchor="middle" x="49.62" y="-5.75" font-family="Helvetica,sans-Serif" font-size="10.00">Game.hpp</text>
</a>
</g>
</g>
<!-- Node2&#45;&gt;Node3 -->
<g id="edge2_Node000002_Node000003" class="edge">
<title>Node2&#45;&gt;Node3</title>
<g id="a_edge2_Node000002_Node000003"><a xlink:title=" ">
<path fill="none" stroke="#63b8ff" d="M40.48,-99.93C35.56,-87.32 30.99,-70.43 33.62,-55.25 35.85,-42.44 41.43,-28.44 45.37,-19.6"/>
<polygon fill="#63b8ff" stroke="#63b8ff" points="37.11,-100.95 44.3,-108.73 43.53,-98.16 37.11,-100.95"/>
</a>
</g>
</g>
<!-- Node4 -->
<g id="Node000004" class="node">
<title>Node4</title>
<g id="a_Node000004"><a xlink:href="_protagonist_8hpp_source.html" target="_top" xlink:title=" ">
<polygon fill="white" stroke="#666666" points="126.75,-74.5 42.5,-74.5 42.5,-55.25 126.75,-55.25 126.75,-74.5"/>
<text text-anchor="middle" x="84.62" y="-61" font-family="Helvetica,sans-Serif" font-size="10.00">Protagonist.hpp</text>
</a>
</g>
</g>
<!-- Node2&#45;&gt;Node4 -->
<g id="edge3_Node000002_Node000004" class="edge">
<title>Node2&#45;&gt;Node4</title>
<g id="a_edge3_Node000002_Node000004"><a xlink:title=" ">
<path fill="none" stroke="#63b8ff" d="M61.6,-100.9C67.38,-92.11 74.05,-81.96 78.72,-74.86"/>
<polygon fill="#63b8ff" stroke="#63b8ff" points="58.8,-98.79 56.24,-109.07 64.65,-102.63 58.8,-98.79"/>
</a>
</g>
</g>
<!-- Node4&#45;&gt;Node3 -->
<g id="edge4_Node000004_Node000003" class="edge">
<title>Node4&#45;&gt;Node3</title>
<g id="a_edge4_Node000004_Node000003"><a xlink:title=" ">
<path fill="none" stroke="#63b8ff" d="M72.65,-45.65C66.87,-36.86 60.2,-26.71 55.53,-19.61"/>
<polygon fill="#63b8ff" stroke="#63b8ff" points="69.6,-47.38 78.01,-53.82 75.45,-43.54 69.6,-47.38"/>
</a>
</g>
</g>
</g>
</svg>
