<?xml version="1.0" encoding="UTF-8" standalone="no"?>
<!DOCTYPE svg PUBLIC "-//W3C//DTD SVG 1.1//EN"
 "http://www.w3.org/Graphics/SVG/1.1/DTD/svg11.dtd">
<!-- Generated by graphviz version 12.2.1 (20241206.2353)
 -->
<!-- Title: Sprite.hpp Pages: 1 -->
<svg width="283pt" height="83pt"
 viewBox="0.00 0.00 283.00 82.50" xmlns="http://www.w3.org/2000/svg" xmlns:xlink="http://www.w3.org/1999/xlink">
<g id="graph0" class="graph" transform="scale(1 1) rotate(0) translate(4 78.5)">
<title>Sprite.hpp</title>
<!-- Node1 -->
<g id="Node000001" class="node">
<title>Node1</title>
<g id="a_Node000001"><a xlink:title="스프라이트 컴포넌트">
<polygon fill="#999999" stroke="#666666" points="176.62,-74.5 116.38,-74.5 116.38,-55.25 176.62,-55.25 176.62,-74.5"/>
<text text-anchor="middle" x="146.5" y="-61" font-family="Helvetica,sans-Serif" font-size="10.00">Sprite.hpp</text>
</a>
</g>
</g>
<!-- Node2 -->
<g id="Node000002" class="node">
<title>Node2</title>
<g id="a_Node000002"><a xlink:title=" ">
<polygon fill="#e0e0e0" stroke="#999999" points="103,-19.25 0,-19.25 0,0 103,0 103,-19.25"/>
<text text-anchor="middle" x="51.5" y="-5.75" font-family="Helvetica,sans-Serif" font-size="10.00">SFML/Graphics.hpp</text>
</a>
</g>
</g>
<!-- Node1&#45;&gt;Node2 -->
<g id="edge1_Node000001_Node000002" class="edge">
<title>Node1&#45;&gt;Node2</title>
<g id="a_edge1_Node000001_Node000002"><a xlink:title=" ">
<path fill="none" stroke="#63b8ff" d="M130.38,-54.84C115.92,-46.73 94.42,-34.68 77.52,-25.21"/>
<polygon fill="#63b8ff" stroke="#63b8ff" points="79.45,-22.28 69.01,-20.44 76.03,-28.39 79.45,-22.28"/>
</a>
</g>
</g>
<!-- Node3 -->
<g id="Node000003" class="node">
<title>Node3</title>
<g id="a_Node000003"><a xlink:title=" ">
<polygon fill="#e0e0e0" stroke="#999999" points="172.12,-19.25 120.88,-19.25 120.88,0 172.12,0 172.12,-19.25"/>
<text text-anchor="middle" x="146.5" y="-5.75" font-family="Helvetica,sans-Serif" font-size="10.00">memory</text>
</a>
</g>
</g>
<!-- Node1&#45;&gt;Node3 -->
<g id="edge2_Node000001_Node000003" class="edge">
<title>Node1&#45;&gt;Node3</title>
<g id="a_edge2_Node000001_Node000003"><a xlink:title=" ">
<path fill="none" stroke="#63b8ff" d="M146.5,-55.08C146.5,-48.57 146.5,-39.42 146.5,-31.12"/>
<polygon fill="#63b8ff" stroke="#63b8ff" points="150,-31.12 146.5,-21.12 143,-31.12 150,-31.12"/>
</a>
</g>
</g>
<!-- Node4 -->
<g id="Node000004" class="node">
<title>Node4</title>
<g id="a_Node000004"><a xlink:href="_component_8hpp.html" target="_top" xlink:title="컴포넌트 베이스">
<polygon fill="white" stroke="#666666" points="275,-19.25 190,-19.25 190,0 275,0 275,-19.25"/>
<text text-anchor="middle" x="232.5" y="-5.75" font-family="Helvetica,sans-Serif" font-size="10.00">Component.hpp</text>
</a>
</g>
</g>
<!-- Node1&#45;&gt;Node4 -->
<g id="edge3_Node000001_Node000004" class="edge">
<title>Node1&#45;&gt;Node4</title>
<g id="a_edge3_Node000001_Node000004"><a xlink:title=" ">
<path fill="none" stroke="#63b8ff" d="M161.09,-54.84C173.94,-46.89 192.91,-35.14 208.07,-25.75"/>
<polygon fill="#63b8ff" stroke="#63b8ff" points="209.89,-28.74 216.55,-20.5 206.21,-22.79 209.89,-28.74"/>
</a>
</g>
</g>
</g>
</svg>
