<?xml version="1.0" encoding="UTF-8" standalone="no"?>
<!DOCTYPE svg PUBLIC "-//W3C//DTD SVG 1.1//EN"
 "http://www.w3.org/Graphics/SVG/1.1/DTD/svg11.dtd">
<!-- Generated by graphviz version 12.2.1 (20241206.2353)
 -->
<!-- Title: Storage.hpp Pages: 1 -->
<svg width="1228pt" height="193pt"
 viewBox="0.00 0.00 1227.88 193.00" xmlns="http://www.w3.org/2000/svg" xmlns:xlink="http://www.w3.org/1999/xlink">
<g id="graph0" class="graph" transform="scale(1 1) rotate(0) translate(4 189)">
<title>Storage.hpp</title>
<!-- Node1 -->
<g id="Node000001" class="node">
<title>Node1</title>
<g id="a_Node000001"><a xlink:title="게임 상태 저장 클래스 헤더">
<polygon fill="#999999" stroke="#666666" points="624.12,-185 555.62,-185 555.62,-165.75 624.12,-165.75 624.12,-185"/>
<text text-anchor="middle" x="589.88" y="-171.5" font-family="Helvetica,sans-Serif" font-size="10.00">Storage.hpp</text>
</a>
</g>
</g>
<!-- Node2 -->
<g id="Node000002" class="node">
<title>Node2</title>
<g id="a_Node000002"><a xlink:title=" ">
<polygon fill="#e0e0e0" stroke="#999999" points="381.88,-129.75 341.88,-129.75 341.88,-110.5 381.88,-110.5 381.88,-129.75"/>
<text text-anchor="middle" x="361.88" y="-116.25" font-family="Helvetica,sans-Serif" font-size="10.00">string</text>
</a>
</g>
</g>
<!-- Node1&#45;&gt;Node2 -->
<g id="edge1_Node000001_Node000002" class="edge">
<title>Node1&#45;&gt;Node2</title>
<g id="a_edge1_Node000001_Node000002"><a xlink:title=" ">
<path fill="none" stroke="#63b8ff" d="M555.39,-167.24C517.94,-159.35 456.11,-145.93 393.11,-129.93"/>
<polygon fill="#63b8ff" stroke="#63b8ff" points="394.19,-126.6 383.63,-127.51 392.45,-133.38 394.19,-126.6"/>
</a>
</g>
</g>
<!-- Node3 -->
<g id="Node000003" class="node">
<title>Node3</title>
<g id="a_Node000003"><a xlink:title=" ">
<polygon fill="#e0e0e0" stroke="#999999" points="449.38,-129.75 400.38,-129.75 400.38,-110.5 449.38,-110.5 449.38,-129.75"/>
<text text-anchor="middle" x="424.88" y="-116.25" font-family="Helvetica,sans-Serif" font-size="10.00">fstream</text>
</a>
</g>
</g>
<!-- Node1&#45;&gt;Node3 -->
<g id="edge2_Node000001_Node000003" class="edge">
<title>Node1&#45;&gt;Node3</title>
<g id="a_edge2_Node000001_Node000003"><a xlink:title=" ">
<path fill="none" stroke="#63b8ff" d="M561.88,-165.34C533.88,-156.3 490.71,-142.37 460.32,-132.56"/>
<polygon fill="#63b8ff" stroke="#63b8ff" points="461.79,-129.36 451.2,-129.62 459.64,-136.02 461.79,-129.36"/>
</a>
</g>
</g>
<!-- Node4 -->
<g id="Node000004" class="node">
<title>Node4</title>
<g id="a_Node000004"><a xlink:title=" ">
<polygon fill="#e0e0e0" stroke="#999999" points="655.38,-19.25 612.38,-19.25 612.38,0 655.38,0 655.38,-19.25"/>
<text text-anchor="middle" x="633.88" y="-5.75" font-family="Helvetica,sans-Serif" font-size="10.00">vector</text>
</a>
</g>
</g>
<!-- Node1&#45;&gt;Node4 -->
<g id="edge3_Node000001_Node000004" class="edge">
<title>Node1&#45;&gt;Node4</title>
<g id="a_edge3_Node000001_Node000004"><a xlink:title=" ">
<path fill="none" stroke="#63b8ff" d="M592.24,-165.57C599.07,-140.14 618.97,-66.1 628.57,-30.37"/>
<polygon fill="#63b8ff" stroke="#63b8ff" points="631.89,-31.5 631.1,-20.93 625.13,-29.68 631.89,-31.5"/>
</a>
</g>
</g>
<!-- Node5 -->
<g id="Node000005" class="node">
<title>Node5</title>
<g id="a_Node000005"><a xlink:title=" ">
<polygon fill="#e0e0e0" stroke="#999999" points="977.25,-129.75 924.5,-129.75 924.5,-110.5 977.25,-110.5 977.25,-129.75"/>
<text text-anchor="middle" x="950.88" y="-116.25" font-family="Helvetica,sans-Serif" font-size="10.00">json.hpp</text>
</a>
</g>
</g>
<!-- Node1&#45;&gt;Node5 -->
<g id="edge4_Node000001_Node000005" class="edge">
<title>Node1&#45;&gt;Node5</title>
<g id="a_edge4_Node000001_Node000005"><a xlink:title=" ">
<path fill="none" stroke="#63b8ff" d="M624.21,-170.79C681.78,-164.53 801.6,-150.47 913.09,-129.9"/>
<polygon fill="#63b8ff" stroke="#63b8ff" points="913.53,-133.38 922.71,-128.1 912.24,-126.5 913.53,-133.38"/>
</a>
</g>
</g>
<!-- Node6 -->
<g id="Node000006" class="node">
<title>Node6</title>
<g id="a_Node000006"><a xlink:href="_e_c_s_manager_8hpp.html" target="_top" xlink:title="ECS 매니저의 중추 설계 헤더">
<polygon fill="white" stroke="#666666" points="560.12,-129.75 467.62,-129.75 467.62,-110.5 560.12,-110.5 560.12,-129.75"/>
<text text-anchor="middle" x="513.88" y="-116.25" font-family="Helvetica,sans-Serif" font-size="10.00">ECSManager.hpp</text>
</a>
</g>
</g>
<!-- Node1&#45;&gt;Node6 -->
<g id="edge5_Node000001_Node000006" class="edge">
<title>Node1&#45;&gt;Node6</title>
<g id="a_edge5_Node000001_Node000006"><a xlink:title=" ">
<path fill="none" stroke="#63b8ff" d="M576.98,-165.34C565.85,-157.54 549.5,-146.09 536.24,-136.79"/>
<polygon fill="#63b8ff" stroke="#63b8ff" points="538.27,-133.94 528.07,-131.07 534.25,-139.68 538.27,-133.94"/>
</a>
</g>
</g>
<!-- Node19 -->
<g id="Node000019" class="node">
<title>Node19</title>
<g id="a_Node000019"><a xlink:href="_components_8hpp.html" target="_top" xlink:title="ECS 아키텍처에서 사용되는 주요 컴포넌트를 한데 모아 포함하는 헤더">
<polygon fill="white" stroke="#666666" points="906.12,-129.75 759.62,-129.75 759.62,-110.5 906.12,-110.5 906.12,-129.75"/>
<text text-anchor="middle" x="832.88" y="-116.25" font-family="Helvetica,sans-Serif" font-size="10.00">components/Components.hpp</text>
</a>
</g>
</g>
<!-- Node1&#45;&gt;Node19 -->
<g id="edge21_Node000001_Node000019" class="edge">
<title>Node1&#45;&gt;Node19</title>
<g id="a_edge21_Node000001_Node000019"><a xlink:title=" ">
<path fill="none" stroke="#63b8ff" d="M624.43,-166.8C665.11,-157.89 733.08,-142.99 780.29,-132.65"/>
<polygon fill="#63b8ff" stroke="#63b8ff" points="781.03,-136.07 790.05,-130.51 779.53,-129.23 781.03,-136.07"/>
</a>
</g>
</g>
<!-- Node6&#45;&gt;Node4 -->
<g id="edge7_Node000006_Node000004" class="edge">
<title>Node6&#45;&gt;Node4</title>
<g id="a_edge7_Node000006_Node000004"><a xlink:title=" ">
<path fill="none" stroke="#63b8ff" d="M528.58,-110.07C541.81,-101.61 561.48,-88.25 576.88,-74.5 592.93,-60.16 609.06,-41.6 620.05,-28.18"/>
<polygon fill="#63b8ff" stroke="#63b8ff" points="622.57,-30.62 626.11,-20.64 617.12,-26.24 622.57,-30.62"/>
</a>
</g>
</g>
<!-- Node7 -->
<g id="Node000007" class="node">
<title>Node7</title>
<g id="a_Node000007"><a xlink:title=" ">
<polygon fill="#e0e0e0" stroke="#999999" points="396.25,-74.5 313.5,-74.5 313.5,-55.25 396.25,-55.25 396.25,-74.5"/>
<text text-anchor="middle" x="354.88" y="-61" font-family="Helvetica,sans-Serif" font-size="10.00">unordered_map</text>
</a>
</g>
</g>
<!-- Node6&#45;&gt;Node7 -->
<g id="edge6_Node000006_Node000007" class="edge">
<title>Node6&#45;&gt;Node7</title>
<g id="a_edge6_Node000006_Node000007"><a xlink:title=" ">
<path fill="none" stroke="#63b8ff" d="M486.9,-110.09C460.98,-101.41 421.56,-88.21 392.54,-78.49"/>
<polygon fill="#63b8ff" stroke="#63b8ff" points="394.01,-75.29 383.41,-75.43 391.79,-81.93 394.01,-75.29"/>
</a>
</g>
</g>
<!-- Node8 -->
<g id="Node000008" class="node">
<title>Node8</title>
<g id="a_Node000008"><a xlink:title=" ">
<polygon fill="#e0e0e0" stroke="#999999" points="567.88,-74.5 527.88,-74.5 527.88,-55.25 567.88,-55.25 567.88,-74.5"/>
<text text-anchor="middle" x="547.88" y="-61" font-family="Helvetica,sans-Serif" font-size="10.00">bitset</text>
</a>
</g>
</g>
<!-- Node6&#45;&gt;Node8 -->
<g id="edge8_Node000006_Node000008" class="edge">
<title>Node6&#45;&gt;Node8</title>
<g id="a_edge8_Node000006_Node000008"><a xlink:title=" ">
<path fill="none" stroke="#63b8ff" d="M519.49,-110.33C523.99,-103.28 530.46,-93.15 536.09,-84.33"/>
<polygon fill="#63b8ff" stroke="#63b8ff" points="538.89,-86.45 541.32,-76.13 532.99,-82.68 538.89,-86.45"/>
</a>
</g>
</g>
<!-- Node9 -->
<g id="Node000009" class="node">
<title>Node9</title>
<g id="a_Node000009"><a xlink:title=" ">
<polygon fill="#e0e0e0" stroke="#999999" points="444.5,-19.25 393.25,-19.25 393.25,0 444.5,0 444.5,-19.25"/>
<text text-anchor="middle" x="418.88" y="-5.75" font-family="Helvetica,sans-Serif" font-size="10.00">memory</text>
</a>
</g>
</g>
<!-- Node6&#45;&gt;Node9 -->
<g id="edge9_Node000006_Node000009" class="edge">
<title>Node6&#45;&gt;Node9</title>
<g id="a_edge9_Node000006_Node000009"><a xlink:title=" ">
<path fill="none" stroke="#63b8ff" d="M492.28,-110.14C476.65,-102.66 456.04,-90.63 442.88,-74.5 432.44,-61.71 426.25,-43.92 422.78,-30.36"/>
<polygon fill="#63b8ff" stroke="#63b8ff" points="426.25,-29.83 420.65,-20.84 419.42,-31.36 426.25,-29.83"/>
</a>
</g>
</g>
<!-- Node10 -->
<g id="Node000010" class="node">
<title>Node10</title>
<g id="a_Node000010"><a xlink:title=" ">
<polygon fill="#e0e0e0" stroke="#999999" points="55.75,-74.5 0,-74.5 0,-55.25 55.75,-55.25 55.75,-74.5"/>
<text text-anchor="middle" x="27.88" y="-61" font-family="Helvetica,sans-Serif" font-size="10.00">concepts</text>
</a>
</g>
</g>
<!-- Node6&#45;&gt;Node10 -->
<g id="edge10_Node000006_Node000010" class="edge">
<title>Node6&#45;&gt;Node10</title>
<g id="a_edge10_Node000006_Node000010"><a xlink:title=" ">
<path fill="none" stroke="#63b8ff" d="M467.39,-111.62C464.51,-111.22 461.66,-110.84 458.88,-110.5 288.03,-89.32 240.45,-101.97 67.39,-74.68"/>
<polygon fill="#63b8ff" stroke="#63b8ff" points="68,-71.24 57.57,-73.11 66.89,-78.15 68,-71.24"/>
</a>
</g>
</g>
<!-- Node11 -->
<g id="Node000011" class="node">
<title>Node11</title>
<g id="a_Node000011"><a xlink:title=" ">
<polygon fill="#e0e0e0" stroke="#999999" points="116,-74.5 73.75,-74.5 73.75,-55.25 116,-55.25 116,-74.5"/>
<text text-anchor="middle" x="94.88" y="-61" font-family="Helvetica,sans-Serif" font-size="10.00">queue</text>
</a>
</g>
</g>
<!-- Node6&#45;&gt;Node11 -->
<g id="edge11_Node000006_Node000011" class="edge">
<title>Node6&#45;&gt;Node11</title>
<g id="a_edge11_Node000006_Node000011"><a xlink:title=" ">
<path fill="none" stroke="#63b8ff" d="M467.39,-111.67C464.51,-111.26 461.65,-110.87 458.88,-110.5 314.9,-91.44 274.05,-102 127.64,-74.5"/>
<polygon fill="#63b8ff" stroke="#63b8ff" points="128.41,-71.08 117.93,-72.65 127.1,-77.96 128.41,-71.08"/>
</a>
</g>
</g>
<!-- Node12 -->
<g id="Node000012" class="node">
<title>Node12</title>
<g id="a_Node000012"><a xlink:href="_entity_8hpp.html" target="_top" xlink:title="엔티티(ID) 정의를 물리적으로 분리한 헤더">
<polygon fill="white" stroke="#666666" points="510.25,-74.5 451.5,-74.5 451.5,-55.25 510.25,-55.25 510.25,-74.5"/>
<text text-anchor="middle" x="480.88" y="-61" font-family="Helvetica,sans-Serif" font-size="10.00">Entity.hpp</text>
</a>
</g>
</g>
<!-- Node6&#45;&gt;Node12 -->
<g id="edge12_Node000006_Node000012" class="edge">
<title>Node6&#45;&gt;Node12</title>
<g id="a_edge12_Node000006_Node000012"><a xlink:title=" ">
<path fill="none" stroke="#63b8ff" d="M508.43,-110.33C504.1,-103.36 497.91,-93.37 492.49,-84.62"/>
<polygon fill="#63b8ff" stroke="#63b8ff" points="495.48,-82.8 487.24,-76.15 489.53,-86.49 495.48,-82.8"/>
</a>
</g>
</g>
<!-- Node14 -->
<g id="Node000014" class="node">
<title>Node14</title>
<g id="a_Node000014"><a xlink:href="_component_8hpp.html" target="_top" xlink:title="컴포넌트 베이스">
<polygon fill="white" stroke="#666666" points="1020.5,-19.25 879.25,-19.25 879.25,0 1020.5,0 1020.5,-19.25"/>
<text text-anchor="middle" x="949.88" y="-5.75" font-family="Helvetica,sans-Serif" font-size="10.00">components/Component.hpp</text>
</a>
</g>
</g>
<!-- Node6&#45;&gt;Node14 -->
<g id="edge14_Node000006_Node000014" class="edge">
<title>Node6&#45;&gt;Node14</title>
<g id="a_edge14_Node000006_Node000014"><a xlink:title=" ">
<path fill="none" stroke="#63b8ff" d="M560.6,-117.02C663.52,-111.96 902.86,-97.82 930.88,-74.5 943.53,-63.97 947.99,-45.41 949.45,-31"/>
<polygon fill="#63b8ff" stroke="#63b8ff" points="952.93,-31.4 950.01,-21.22 945.94,-31 952.93,-31.4"/>
</a>
</g>
</g>
<!-- Node15 -->
<g id="Node000015" class="node">
<title>Node15</title>
<g id="a_Node000015"><a xlink:href="_component_pool_8hpp.html" target="_top" xlink:title="풀(Pool) 기반 메모리 관리 인터페이스 및 컴포넌트 전용 풀 구현">
<polygon fill="white" stroke="#666666" points="295.25,-74.5 134.5,-74.5 134.5,-55.25 295.25,-55.25 295.25,-74.5"/>
<text text-anchor="middle" x="214.88" y="-61" font-family="Helvetica,sans-Serif" font-size="10.00">components/ComponentPool.hpp</text>
</a>
</g>
</g>
<!-- Node6&#45;&gt;Node15 -->
<g id="edge15_Node000006_Node000015" class="edge">
<title>Node6&#45;&gt;Node15</title>
<g id="a_edge15_Node000006_Node000015"><a xlink:title=" ">
<path fill="none" stroke="#63b8ff" d="M467.16,-110.8C416.06,-101.71 333.93,-87.08 277.34,-77"/>
<polygon fill="#63b8ff" stroke="#63b8ff" points="277.97,-73.56 267.51,-75.25 276.74,-80.45 277.97,-73.56"/>
</a>
</g>
</g>
<!-- Node13 -->
<g id="Node000013" class="node">
<title>Node13</title>
<g id="a_Node000013"><a xlink:title=" ">
<polygon fill="#e0e0e0" stroke="#999999" points="507.5,-19.25 462.25,-19.25 462.25,0 507.5,0 507.5,-19.25"/>
<text text-anchor="middle" x="484.88" y="-5.75" font-family="Helvetica,sans-Serif" font-size="10.00">cstdint</text>
</a>
</g>
</g>
<!-- Node12&#45;&gt;Node13 -->
<g id="edge13_Node000012_Node000013" class="edge">
<title>Node12&#45;&gt;Node13</title>
<g id="a_edge13_Node000012_Node000013"><a xlink:title=" ">
<path fill="none" stroke="#63b8ff" d="M481.54,-55.08C482.03,-48.49 482.73,-39.21 483.36,-30.82"/>
<polygon fill="#63b8ff" stroke="#63b8ff" points="486.83,-31.35 484.09,-21.12 479.85,-30.83 486.83,-31.35"/>
</a>
</g>
</g>
<!-- Node15&#45;&gt;Node9 -->
<g id="edge17_Node000015_Node000009" class="edge">
<title>Node15&#45;&gt;Node9</title>
<g id="a_edge17_Node000015_Node000009"><a xlink:title=" ">
<path fill="none" stroke="#63b8ff" d="M249.48,-54.84C286.26,-45.24 344.19,-30.12 381.86,-20.29"/>
<polygon fill="#63b8ff" stroke="#63b8ff" points="382.6,-23.71 391.39,-17.8 380.83,-16.94 382.6,-23.71"/>
</a>
</g>
</g>
<!-- Node15&#45;&gt;Node13 -->
<g id="edge16_Node000015_Node000013" class="edge">
<title>Node15&#45;&gt;Node13</title>
<g id="a_edge16_Node000015_Node000013"><a xlink:title=" ">
<path fill="none" stroke="#63b8ff" d="M271.18,-54.78C317.23,-47.02 384.26,-35.01 450.8,-19.82"/>
<polygon fill="#63b8ff" stroke="#63b8ff" points="451.48,-23.26 460.43,-17.59 449.9,-16.44 451.48,-23.26"/>
</a>
</g>
</g>
<!-- Node16 -->
<g id="Node000016" class="node">
<title>Node16</title>
<g id="a_Node000016"><a xlink:title=" ">
<polygon fill="#e0e0e0" stroke="#999999" points="167.88,-19.25 127.88,-19.25 127.88,0 167.88,0 167.88,-19.25"/>
<text text-anchor="middle" x="147.88" y="-5.75" font-family="Helvetica,sans-Serif" font-size="10.00">stack</text>
</a>
</g>
</g>
<!-- Node15&#45;&gt;Node16 -->
<g id="edge18_Node000015_Node000016" class="edge">
<title>Node15&#45;&gt;Node16</title>
<g id="a_edge18_Node000015_Node000016"><a xlink:title=" ">
<path fill="none" stroke="#63b8ff" d="M203.51,-54.84C193.83,-47.15 179.68,-35.9 168.07,-26.68"/>
<polygon fill="#63b8ff" stroke="#63b8ff" points="170.26,-23.95 160.26,-20.47 165.91,-29.43 170.26,-23.95"/>
</a>
</g>
</g>
<!-- Node17 -->
<g id="Node000017" class="node">
<title>Node17</title>
<g id="a_Node000017"><a xlink:title=" ">
<polygon fill="#e0e0e0" stroke="#999999" points="243.88,-19.25 185.88,-19.25 185.88,0 243.88,0 243.88,-19.25"/>
<text text-anchor="middle" x="214.88" y="-5.75" font-family="Helvetica,sans-Serif" font-size="10.00">functional</text>
</a>
</g>
</g>
<!-- Node15&#45;&gt;Node17 -->
<g id="edge19_Node000015_Node000017" class="edge">
<title>Node15&#45;&gt;Node17</title>
<g id="a_edge19_Node000015_Node000017"><a xlink:title=" ">
<path fill="none" stroke="#63b8ff" d="M214.88,-55.08C214.88,-48.57 214.88,-39.42 214.88,-31.12"/>
<polygon fill="#63b8ff" stroke="#63b8ff" points="218.38,-31.12 214.88,-21.12 211.38,-31.12 218.38,-31.12"/>
</a>
</g>
</g>
<!-- Node18 -->
<g id="Node000018" class="node">
<title>Node18</title>
<g id="a_Node000018"><a xlink:title=" ">
<polygon fill="#e0e0e0" stroke="#999999" points="320.25,-19.25 261.5,-19.25 261.5,0 320.25,0 320.25,-19.25"/>
<text text-anchor="middle" x="290.88" y="-5.75" font-family="Helvetica,sans-Serif" font-size="10.00">stdexcept</text>
</a>
</g>
</g>
<!-- Node15&#45;&gt;Node18 -->
<g id="edge20_Node000015_Node000018" class="edge">
<title>Node15&#45;&gt;Node18</title>
<g id="a_edge20_Node000015_Node000018"><a xlink:title=" ">
<path fill="none" stroke="#63b8ff" d="M227.77,-54.84C238.9,-47.04 255.25,-35.59 268.51,-26.29"/>
<polygon fill="#63b8ff" stroke="#63b8ff" points="270.5,-29.18 276.68,-20.57 266.48,-23.44 270.5,-29.18"/>
</a>
</g>
</g>
<!-- Node20 -->
<g id="Node000020" class="node">
<title>Node20</title>
<g id="a_Node000020"><a xlink:href="_animation_8hpp.html" target="_top" xlink:title="애니메이션 컴포넌트">
<polygon fill="white" stroke="#666666" points="922,-74.5 843.75,-74.5 843.75,-55.25 922,-55.25 922,-74.5"/>
<text text-anchor="middle" x="882.88" y="-61" font-family="Helvetica,sans-Serif" font-size="10.00">Animation.hpp</text>
</a>
</g>
</g>
<!-- Node19&#45;&gt;Node20 -->
<g id="edge22_Node000019_Node000020" class="edge">
<title>Node19&#45;&gt;Node20</title>
<g id="a_edge22_Node000019_Node000020"><a xlink:title=" ">
<path fill="none" stroke="#63b8ff" d="M841.13,-110.33C848.04,-102.98 858.1,-92.26 866.61,-83.19"/>
<polygon fill="#63b8ff" stroke="#63b8ff" points="869.11,-85.65 873.4,-75.96 864.01,-80.86 869.11,-85.65"/>
</a>
</g>
</g>
<!-- Node22 -->
<g id="Node000022" class="node">
<title>Node22</title>
<g id="a_Node000022"><a xlink:href="_collider_8hpp.html" target="_top" xlink:title="충돌 컴포넌트">
<polygon fill="white" stroke="#666666" points="1131.38,-74.5 1064.38,-74.5 1064.38,-55.25 1131.38,-55.25 1131.38,-74.5"/>
<text text-anchor="middle" x="1097.88" y="-61" font-family="Helvetica,sans-Serif" font-size="10.00">Collider.hpp</text>
</a>
</g>
</g>
<!-- Node19&#45;&gt;Node22 -->
<g id="edge26_Node000019_Node000022" class="edge">
<title>Node19&#45;&gt;Node22</title>
<g id="a_edge26_Node000019_Node000022"><a xlink:title=" ">
<path fill="none" stroke="#63b8ff" d="M878.13,-110.03C926.99,-100.21 1004.33,-84.67 1053.03,-74.89"/>
<polygon fill="#63b8ff" stroke="#63b8ff" points="1053.56,-78.35 1062.68,-72.95 1052.18,-71.49 1053.56,-78.35"/>
</a>
</g>
</g>
<!-- Node23 -->
<g id="Node000023" class="node">
<title>Node23</title>
<g id="a_Node000023"><a xlink:href="_sprite_8hpp.html" target="_top" xlink:title="스프라이트 컴포넌트">
<polygon fill="white" stroke="#666666" points="722,-74.5 661.75,-74.5 661.75,-55.25 722,-55.25 722,-74.5"/>
<text text-anchor="middle" x="691.88" y="-61" font-family="Helvetica,sans-Serif" font-size="10.00">Sprite.hpp</text>
</a>
</g>
</g>
<!-- Node19&#45;&gt;Node23 -->
<g id="edge28_Node000019_Node000023" class="edge">
<title>Node19&#45;&gt;Node23</title>
<g id="a_edge28_Node000019_Node000023"><a xlink:title=" ">
<path fill="none" stroke="#63b8ff" d="M808.96,-110.09C786.37,-101.56 752.24,-88.67 726.65,-79.01"/>
<polygon fill="#63b8ff" stroke="#63b8ff" points="727.92,-75.75 717.33,-75.49 725.45,-82.29 727.92,-75.75"/>
</a>
</g>
</g>
<!-- Node24 -->
<g id="Node000024" class="node">
<title>Node24</title>
<g id="a_Node000024"><a xlink:href="_position_8hpp.html" target="_top" xlink:title="위치 컴포넌트">
<polygon fill="white" stroke="#666666" points="1219.88,-74.5 1149.88,-74.5 1149.88,-55.25 1219.88,-55.25 1219.88,-74.5"/>
<text text-anchor="middle" x="1184.88" y="-61" font-family="Helvetica,sans-Serif" font-size="10.00">Position.hpp</text>
</a>
</g>
</g>
<!-- Node19&#45;&gt;Node24 -->
<g id="edge32_Node000019_Node000024" class="edge">
<title>Node19&#45;&gt;Node24</title>
<g id="a_edge32_Node000019_Node000024"><a xlink:title=" ">
<path fill="none" stroke="#63b8ff" d="M902.76,-110.01C962.72,-101.95 1051.72,-89.46 1138.69,-74.8"/>
<polygon fill="#63b8ff" stroke="#63b8ff" points="1139.07,-78.28 1148.35,-73.16 1137.9,-71.38 1139.07,-78.28"/>
</a>
</g>
</g>
<!-- Node25 -->
<g id="Node000025" class="node">
<title>Node25</title>
<g id="a_Node000025"><a xlink:href="_velocity_8hpp.html" target="_top" xlink:title="속도 컴포넌트">
<polygon fill="white" stroke="#666666" points="1046.12,-74.5 977.62,-74.5 977.62,-55.25 1046.12,-55.25 1046.12,-74.5"/>
<text text-anchor="middle" x="1011.88" y="-61" font-family="Helvetica,sans-Serif" font-size="10.00">Velocity.hpp</text>
</a>
</g>
</g>
<!-- Node19&#45;&gt;Node25 -->
<g id="edge34_Node000019_Node000025" class="edge">
<title>Node19&#45;&gt;Node25</title>
<g id="a_edge34_Node000019_Node000025"><a xlink:title=" ">
<path fill="none" stroke="#63b8ff" d="M863.24,-110.09C892.68,-101.33 937.58,-87.98 970.33,-78.23"/>
<polygon fill="#63b8ff" stroke="#63b8ff" points="971.32,-81.59 979.91,-75.38 969.33,-74.88 971.32,-81.59"/>
</a>
</g>
</g>
<!-- Node26 -->
<g id="Node000026" class="node">
<title>Node26</title>
<g id="a_Node000026"><a xlink:href="_player_state_8hpp.html" target="_top" xlink:title="플레이어 상태 컴포넌트 헤더">
<polygon fill="white" stroke="#666666" points="825.75,-74.5 740,-74.5 740,-55.25 825.75,-55.25 825.75,-74.5"/>
<text text-anchor="middle" x="782.88" y="-61" font-family="Helvetica,sans-Serif" font-size="10.00">PlayerState.hpp</text>
</a>
</g>
</g>
<!-- Node19&#45;&gt;Node26 -->
<g id="edge36_Node000019_Node000026" class="edge">
<title>Node19&#45;&gt;Node26</title>
<g id="a_edge36_Node000019_Node000026"><a xlink:title=" ">
<path fill="none" stroke="#63b8ff" d="M824.62,-110.33C817.71,-102.98 807.65,-92.26 799.14,-83.19"/>
<polygon fill="#63b8ff" stroke="#63b8ff" points="801.74,-80.86 792.35,-75.96 796.64,-85.65 801.74,-80.86"/>
</a>
</g>
</g>
<!-- Node20&#45;&gt;Node4 -->
<g id="edge24_Node000020_Node000004" class="edge">
<title>Node20&#45;&gt;Node4</title>
<g id="a_edge24_Node000020_Node000004"><a xlink:title=" ">
<path fill="none" stroke="#63b8ff" d="M843.42,-55.44C794.6,-45 712.36,-27.41 666.78,-17.66"/>
<polygon fill="#63b8ff" stroke="#63b8ff" points="667.75,-14.29 657.24,-15.62 666.28,-21.13 667.75,-14.29"/>
</a>
</g>
</g>
<!-- Node20&#45;&gt;Node14 -->
<g id="edge25_Node000020_Node000014" class="edge">
<title>Node20&#45;&gt;Node14</title>
<g id="a_edge25_Node000020_Node000014"><a xlink:title=" ">
<path fill="none" stroke="#63b8ff" d="M894.24,-54.84C903.92,-47.15 918.07,-35.9 929.68,-26.68"/>
<polygon fill="#63b8ff" stroke="#63b8ff" points="931.84,-29.43 937.49,-20.47 927.49,-23.95 931.84,-29.43"/>
</a>
</g>
</g>
<!-- Node21 -->
<g id="Node000021" class="node">
<title>Node21</title>
<g id="a_Node000021"><a xlink:title=" ">
<polygon fill="#e0e0e0" stroke="#999999" points="819.38,-19.25 716.38,-19.25 716.38,0 819.38,0 819.38,-19.25"/>
<text text-anchor="middle" x="767.88" y="-5.75" font-family="Helvetica,sans-Serif" font-size="10.00">SFML/Graphics.hpp</text>
</a>
</g>
</g>
<!-- Node20&#45;&gt;Node21 -->
<g id="edge23_Node000020_Node000021" class="edge">
<title>Node20&#45;&gt;Node21</title>
<g id="a_edge23_Node000020_Node000021"><a xlink:title=" ">
<path fill="none" stroke="#63b8ff" d="M863.37,-54.84C845.36,-46.5 818.35,-34 797.65,-24.41"/>
<polygon fill="#63b8ff" stroke="#63b8ff" points="799.4,-21.36 788.85,-20.34 796.46,-27.72 799.4,-21.36"/>
</a>
</g>
</g>
<!-- Node22&#45;&gt;Node14 -->
<g id="edge27_Node000022_Node000014" class="edge">
<title>Node22&#45;&gt;Node14</title>
<g id="a_edge27_Node000022_Node000014"><a xlink:title=" ">
<path fill="none" stroke="#63b8ff" d="M1072.77,-54.84C1048.85,-46.24 1012.59,-33.19 985.65,-23.5"/>
<polygon fill="#63b8ff" stroke="#63b8ff" points="987.12,-20.31 976.53,-20.21 984.75,-26.89 987.12,-20.31"/>
</a>
</g>
</g>
<!-- Node23&#45;&gt;Node9 -->
<g id="edge30_Node000023_Node000009" class="edge">
<title>Node23&#45;&gt;Node9</title>
<g id="a_edge30_Node000023_Node000009"><a xlink:title=" ">
<path fill="none" stroke="#63b8ff" d="M661.57,-58.85C618.11,-51.52 535.36,-37.04 456,-19.83"/>
<polygon fill="#63b8ff" stroke="#63b8ff" points="456.82,-16.43 446.3,-17.71 455.32,-23.27 456.82,-16.43"/>
</a>
</g>
</g>
<!-- Node23&#45;&gt;Node14 -->
<g id="edge31_Node000023_Node000014" class="edge">
<title>Node23&#45;&gt;Node14</title>
<g id="a_edge31_Node000023_Node000014"><a xlink:title=" ">
<path fill="none" stroke="#63b8ff" d="M722.1,-57.14C725.06,-56.49 728.03,-55.86 730.88,-55.25 785.87,-43.57 848.76,-30.81 893,-21.94"/>
<polygon fill="#63b8ff" stroke="#63b8ff" points="893.51,-25.41 902.63,-20.02 892.13,-18.55 893.51,-25.41"/>
</a>
</g>
</g>
<!-- Node23&#45;&gt;Node21 -->
<g id="edge29_Node000023_Node000021" class="edge">
<title>Node23&#45;&gt;Node21</title>
<g id="a_edge29_Node000023_Node000021"><a xlink:title=" ">
<path fill="none" stroke="#63b8ff" d="M704.77,-54.84C715.9,-47.04 732.25,-35.59 745.51,-26.29"/>
<polygon fill="#63b8ff" stroke="#63b8ff" points="747.5,-29.18 753.68,-20.57 743.48,-23.44 747.5,-29.18"/>
</a>
</g>
</g>
<!-- Node24&#45;&gt;Node14 -->
<g id="edge33_Node000024_Node000014" class="edge">
<title>Node24&#45;&gt;Node14</title>
<g id="a_edge33_Node000024_Node000014"><a xlink:title=" ">
<path fill="none" stroke="#63b8ff" d="M1149.44,-55.85C1109.96,-46.9 1045.79,-32.36 1000.91,-22.19"/>
<polygon fill="#63b8ff" stroke="#63b8ff" points="1001.94,-18.83 991.41,-20.04 1000.39,-25.66 1001.94,-18.83"/>
</a>
</g>
</g>
<!-- Node25&#45;&gt;Node14 -->
<g id="edge35_Node000025_Node000014" class="edge">
<title>Node25&#45;&gt;Node14</title>
<g id="a_edge35_Node000025_Node000014"><a xlink:title=" ">
<path fill="none" stroke="#63b8ff" d="M1001.36,-54.84C992.49,-47.22 979.56,-36.12 968.89,-26.95"/>
<polygon fill="#63b8ff" stroke="#63b8ff" points="971.25,-24.37 961.39,-20.51 966.69,-29.68 971.25,-24.37"/>
</a>
</g>
</g>
<!-- Node26&#45;&gt;Node13 -->
<g id="edge37_Node000026_Node000013" class="edge">
<title>Node26&#45;&gt;Node13</title>
<g id="a_edge37_Node000026_Node000013"><a xlink:title=" ">
<path fill="none" stroke="#63b8ff" d="M739.54,-56.13C679.84,-45.46 573.5,-26.46 519.05,-16.73"/>
<polygon fill="#63b8ff" stroke="#63b8ff" points="519.9,-13.33 509.44,-15.01 518.67,-20.22 519.9,-13.33"/>
</a>
</g>
</g>
<!-- Node26&#45;&gt;Node14 -->
<g id="edge38_Node000026_Node000014" class="edge">
<title>Node26&#45;&gt;Node14</title>
<g id="a_edge38_Node000026_Node000014"><a xlink:title=" ">
<path fill="none" stroke="#63b8ff" d="M811.2,-54.84C838.55,-46.12 880.2,-32.84 910.71,-23.11"/>
<polygon fill="#63b8ff" stroke="#63b8ff" points="911.5,-26.53 919.96,-20.16 909.37,-19.87 911.5,-26.53"/>
</a>
</g>
</g>
</g>
</svg>
