<?xml version="1.0" encoding="UTF-8" standalone="no"?>
<!DOCTYPE svg PUBLIC "-//W3C//DTD SVG 1.1//EN"
 "http://www.w3.org/Graphics/SVG/1.1/DTD/svg11.dtd">
<!-- Generated by graphviz version 12.2.1 (20241206.2353)
 -->
<!-- Title: Storage.hpp Pages: 1 -->
<svg width="119pt" height="193pt"
 viewBox="0.00 0.00 119.38 193.00" xmlns="http://www.w3.org/2000/svg" xmlns:xlink="http://www.w3.org/1999/xlink">
<g id="graph0" class="graph" transform="scale(1 1) rotate(0) translate(4 189)">
<title>Storage.hpp</title>
<!-- Node1 -->
<g id="Node000001" class="node">
<title>Node1</title>
<g id="a_Node000001"><a xlink:title="게임 상태 저장 클래스 헤더">
<polygon fill="#999999" stroke="#666666" points="68.5,-185 0,-185 0,-165.75 68.5,-165.75 68.5,-185"/>
<text text-anchor="middle" x="34.25" y="-171.5" font-family="Helvetica,sans-Serif" font-size="10.00">Storage.hpp</text>
</a>
</g>
</g>
<!-- Node2 -->
<g id="Node000002" class="node">
<title>Node2</title>
<g id="a_Node000002"><a xlink:href="_core_8hpp.html" target="_top" xlink:title="모든 해더를 포함하는 헤더">
<polygon fill="white" stroke="#666666" points="62.12,-129.75 6.38,-129.75 6.38,-110.5 62.12,-110.5 62.12,-129.75"/>
<text text-anchor="middle" x="34.25" y="-116.25" font-family="Helvetica,sans-Serif" font-size="10.00">Core.hpp</text>
</a>
</g>
</g>
<!-- Node1&#45;&gt;Node2 -->
<g id="edge1_Node000001_Node000002" class="edge">
<title>Node1&#45;&gt;Node2</title>
<g id="a_edge1_Node000001_Node000002"><a xlink:title=" ">
<path fill="none" stroke="#63b8ff" d="M34.25,-154.13C34.25,-145.84 34.25,-136.67 34.25,-130.11"/>
<polygon fill="#63b8ff" stroke="#63b8ff" points="30.75,-154.07 34.25,-164.07 37.75,-154.07 30.75,-154.07"/>
</a>
</g>
</g>
<!-- Node3 -->
<g id="Node000003" class="node">
<title>Node3</title>
<g id="a_Node000003"><a xlink:href="_game_8hpp.html" target="_top" xlink:title="Game 세팅, 실제 게임이 구현되는 워크 스페이스">
<polygon fill="white" stroke="#666666" points="64.75,-19.25 3.75,-19.25 3.75,0 64.75,0 64.75,-19.25"/>
<text text-anchor="middle" x="34.25" y="-5.75" font-family="Helvetica,sans-Serif" font-size="10.00">Game.hpp</text>
</a>
</g>
</g>
<!-- Node2&#45;&gt;Node3 -->
<g id="edge2_Node000002_Node000003" class="edge">
<title>Node2&#45;&gt;Node3</title>
<g id="a_edge2_Node000002_Node000003"><a xlink:title=" ">
<path fill="none" stroke="#63b8ff" d="M25.11,-99.93C20.18,-87.32 15.61,-70.43 18.25,-55.25 20.48,-42.44 26.05,-28.44 29.99,-19.6"/>
<polygon fill="#63b8ff" stroke="#63b8ff" points="21.74,-100.95 28.93,-108.73 28.16,-98.16 21.74,-100.95"/>
</a>
</g>
</g>
<!-- Node4 -->
<g id="Node000004" class="node">
<title>Node4</title>
<g id="a_Node000004"><a xlink:href="_protagonist_8hpp_source.html" target="_top" xlink:title=" ">
<polygon fill="white" stroke="#666666" points="111.38,-74.5 27.12,-74.5 27.12,-55.25 111.38,-55.25 111.38,-74.5"/>
<text text-anchor="middle" x="69.25" y="-61" font-family="Helvetica,sans-Serif" font-size="10.00">Protagonist.hpp</text>
</a>
</g>
</g>
<!-- Node2&#45;&gt;Node4 -->
<g id="edge3_Node000002_Node000004" class="edge">
<title>Node2&#45;&gt;Node4</title>
<g id="a_edge3_Node000002_Node000004"><a xlink:title=" ">
<path fill="none" stroke="#63b8ff" d="M46.23,-100.9C52,-92.11 58.68,-81.96 63.34,-74.86"/>
<polygon fill="#63b8ff" stroke="#63b8ff" points="43.43,-98.79 40.86,-109.07 49.28,-102.63 43.43,-98.79"/>
</a>
</g>
</g>
<!-- Node4&#45;&gt;Node3 -->
<g id="edge4_Node000004_Node000003" class="edge">
<title>Node4&#45;&gt;Node3</title>
<g id="a_edge4_Node000004_Node000003"><a xlink:title=" ">
<path fill="none" stroke="#63b8ff" d="M57.27,-45.65C51.5,-36.86 44.82,-26.71 40.16,-19.61"/>
<polygon fill="#63b8ff" stroke="#63b8ff" points="54.22,-47.38 62.64,-53.82 60.07,-43.54 54.22,-47.38"/>
</a>
</g>
</g>
</g>
</svg>
