<?xml version="1.0" encoding="UTF-8" standalone="no"?>
<!DOCTYPE svg PUBLIC "-//W3C//DTD SVG 1.1//EN"
 "http://www.w3.org/Graphics/SVG/1.1/DTD/svg11.dtd">
<!-- Generated by graphviz version 12.2.1 (20241206.2353)
 -->
<!-- Title: System.hpp Pages: 1 -->
<svg width="372pt" height="359pt"
 viewBox="0.00 0.00 371.62 358.75" xmlns="http://www.w3.org/2000/svg" xmlns:xlink="http://www.w3.org/1999/xlink">
<g id="graph0" class="graph" transform="scale(1 1) rotate(0) translate(4 354.75)">
<title>System.hpp</title>
<!-- Node1 -->
<g id="Node000001" class="node">
<title>Node1</title>
<g id="a_Node000001"><a xlink:title="시스템 베이스 클래스">
<polygon fill="#999999" stroke="#666666" points="213.38,-350.75 144.88,-350.75 144.88,-331.5 213.38,-331.5 213.38,-350.75"/>
<text text-anchor="middle" x="179.12" y="-337.25" font-family="Helvetica,sans-Serif" font-size="10.00">System.hpp</text>
</a>
</g>
</g>
<!-- Node2 -->
<g id="Node000002" class="node">
<title>Node2</title>
<g id="a_Node000002"><a xlink:href="_animating_8hpp.html" target="_top" xlink:title="애니메이션 시스템 헤더">
<polygon fill="white" stroke="#666666" points="78.25,-295.5 0,-295.5 0,-276.25 78.25,-276.25 78.25,-295.5"/>
<text text-anchor="middle" x="39.12" y="-282" font-family="Helvetica,sans-Serif" font-size="10.00">Animating.hpp</text>
</a>
</g>
</g>
<!-- Node1&#45;&gt;Node2 -->
<g id="edge1_Node000001_Node000002" class="edge">
<title>Node1&#45;&gt;Node2</title>
<g id="a_edge1_Node000001_Node000002"><a xlink:title=" ">
<path fill="none" stroke="#63b8ff" d="M144.73,-327.04C119.35,-317.39 85.46,-304.5 62.99,-295.95"/>
<polygon fill="#63b8ff" stroke="#63b8ff" points="143.37,-330.27 153.96,-330.55 145.86,-323.73 143.37,-330.27"/>
</a>
</g>
</g>
<!-- Node8 -->
<g id="Node000008" class="node">
<title>Node8</title>
<g id="a_Node000008"><a xlink:href="_collision_8hpp.html" target="_top" xlink:title="충돌 시스템 헤더">
<polygon fill="white" stroke="#666666" points="168.25,-295.5 96,-295.5 96,-276.25 168.25,-276.25 168.25,-295.5"/>
<text text-anchor="middle" x="132.12" y="-282" font-family="Helvetica,sans-Serif" font-size="10.00">Collision.hpp</text>
</a>
</g>
</g>
<!-- Node1&#45;&gt;Node8 -->
<g id="edge9_Node000001_Node000008" class="edge">
<title>Node1&#45;&gt;Node8</title>
<g id="a_edge9_Node000001_Node000008"><a xlink:title=" ">
<path fill="none" stroke="#63b8ff" d="M163.8,-322.76C155.87,-313.78 146.53,-303.2 140.05,-295.86"/>
<polygon fill="#63b8ff" stroke="#63b8ff" points="161.12,-325.02 170.36,-330.2 166.37,-320.38 161.12,-325.02"/>
</a>
</g>
</g>
<!-- Node9 -->
<g id="Node000009" class="node">
<title>Node9</title>
<g id="a_Node000009"><a xlink:href="_movement_8hpp.html" target="_top" xlink:title="이동 시스템 헤더">
<polygon fill="white" stroke="#666666" points="266.38,-295.5 185.88,-295.5 185.88,-276.25 266.38,-276.25 266.38,-295.5"/>
<text text-anchor="middle" x="226.12" y="-282" font-family="Helvetica,sans-Serif" font-size="10.00">Movement.hpp</text>
</a>
</g>
</g>
<!-- Node1&#45;&gt;Node9 -->
<g id="edge11_Node000001_Node000009" class="edge">
<title>Node1&#45;&gt;Node9</title>
<g id="a_edge11_Node000001_Node000009"><a xlink:title=" ">
<path fill="none" stroke="#63b8ff" d="M194.45,-322.76C202.38,-313.78 211.72,-303.2 218.2,-295.86"/>
<polygon fill="#63b8ff" stroke="#63b8ff" points="191.88,-320.38 187.89,-330.2 197.13,-325.02 191.88,-320.38"/>
</a>
</g>
</g>
<!-- Node10 -->
<g id="Node000010" class="node">
<title>Node10</title>
<g id="a_Node000010"><a xlink:href="_rendering_8hpp.html" target="_top" xlink:title="렌더링 시스템 헤더">
<polygon fill="white" stroke="#666666" points="363.62,-295.5 284.62,-295.5 284.62,-276.25 363.62,-276.25 363.62,-295.5"/>
<text text-anchor="middle" x="324.12" y="-282" font-family="Helvetica,sans-Serif" font-size="10.00">Rendering.hpp</text>
</a>
</g>
</g>
<!-- Node1&#45;&gt;Node10 -->
<g id="edge13_Node000001_Node000010" class="edge">
<title>Node1&#45;&gt;Node10</title>
<g id="a_edge13_Node000001_Node000010"><a xlink:title=" ">
<path fill="none" stroke="#63b8ff" d="M214.39,-327.17C240.72,-317.5 276.04,-304.54 299.41,-295.95"/>
<polygon fill="#63b8ff" stroke="#63b8ff" points="213.32,-323.84 205.14,-330.57 215.74,-330.41 213.32,-323.84"/>
</a>
</g>
</g>
<!-- Node3 -->
<g id="Node000003" class="node">
<title>Node3</title>
<g id="a_Node000003"><a xlink:href="_systems_8hpp.html" target="_top" xlink:title="게임 내 주요 시스템들을 한데 모아 포함하는 헤더 파일">
<polygon fill="white" stroke="#666666" points="216,-240.25 142.25,-240.25 142.25,-221 216,-221 216,-240.25"/>
<text text-anchor="middle" x="179.12" y="-226.75" font-family="Helvetica,sans-Serif" font-size="10.00">Systems.hpp</text>
</a>
</g>
</g>
<!-- Node2&#45;&gt;Node3 -->
<g id="edge2_Node000002_Node000003" class="edge">
<title>Node2&#45;&gt;Node3</title>
<g id="a_edge2_Node000002_Node000003"><a xlink:title=" ">
<path fill="none" stroke="#63b8ff" d="M73.52,-271.79C98.9,-262.14 132.79,-249.25 155.26,-240.7"/>
<polygon fill="#63b8ff" stroke="#63b8ff" points="72.39,-268.48 64.29,-275.3 74.88,-275.02 72.39,-268.48"/>
</a>
</g>
</g>
<!-- Node4 -->
<g id="Node000004" class="node">
<title>Node4</title>
<g id="a_Node000004"><a xlink:href="_core_8hpp.html" target="_top" xlink:title="모든 해더를 포함하는 헤더">
<polygon fill="white" stroke="#666666" points="207,-129.75 151.25,-129.75 151.25,-110.5 207,-110.5 207,-129.75"/>
<text text-anchor="middle" x="179.12" y="-116.25" font-family="Helvetica,sans-Serif" font-size="10.00">Core.hpp</text>
</a>
</g>
</g>
<!-- Node3&#45;&gt;Node4 -->
<g id="edge3_Node000003_Node000004" class="edge">
<title>Node3&#45;&gt;Node4</title>
<g id="a_edge3_Node000003_Node000004"><a xlink:title=" ">
<path fill="none" stroke="#63b8ff" d="M173.21,-209.55C170.2,-197 167.5,-180.48 169.12,-165.75 170.52,-153.12 174.08,-138.85 176.55,-129.92"/>
<polygon fill="#63b8ff" stroke="#63b8ff" points="169.8,-210.35 175.78,-219.1 176.56,-208.54 169.8,-210.35"/>
</a>
</g>
</g>
<!-- Node7 -->
<g id="Node000007" class="node">
<title>Node7</title>
<g id="a_Node000007"><a xlink:href="_world_8hpp.html" target="_top" xlink:title="시스템을 관리하는 클래스 헤더">
<polygon fill="white" stroke="#666666" points="237.88,-185 178.38,-185 178.38,-165.75 237.88,-165.75 237.88,-185"/>
<text text-anchor="middle" x="208.12" y="-171.5" font-family="Helvetica,sans-Serif" font-size="10.00">World.hpp</text>
</a>
</g>
</g>
<!-- Node3&#45;&gt;Node7 -->
<g id="edge7_Node000003_Node000007" class="edge">
<title>Node3&#45;&gt;Node7</title>
<g id="a_edge7_Node000003_Node000007"><a xlink:title=" ">
<path fill="none" stroke="#63b8ff" d="M189.36,-210.83C194.07,-202.17 199.45,-192.31 203.23,-185.36"/>
<polygon fill="#63b8ff" stroke="#63b8ff" points="186.35,-209.05 184.64,-219.5 192.49,-212.39 186.35,-209.05"/>
</a>
</g>
</g>
<!-- Node5 -->
<g id="Node000005" class="node">
<title>Node5</title>
<g id="a_Node000005"><a xlink:href="_game_8hpp.html" target="_top" xlink:title="Game 세팅, 실제 게임이 구현되는 워크 스페이스">
<polygon fill="white" stroke="#666666" points="209.62,-19.25 148.62,-19.25 148.62,0 209.62,0 209.62,-19.25"/>
<text text-anchor="middle" x="179.12" y="-5.75" font-family="Helvetica,sans-Serif" font-size="10.00">Game.hpp</text>
</a>
</g>
</g>
<!-- Node4&#45;&gt;Node5 -->
<g id="edge4_Node000004_Node000005" class="edge">
<title>Node4&#45;&gt;Node5</title>
<g id="a_edge4_Node000004_Node000005"><a xlink:title=" ">
<path fill="none" stroke="#63b8ff" d="M169.98,-99.93C165.06,-87.32 160.49,-70.43 163.12,-55.25 165.35,-42.44 170.93,-28.44 174.87,-19.6"/>
<polygon fill="#63b8ff" stroke="#63b8ff" points="166.61,-100.95 173.8,-108.73 173.03,-98.16 166.61,-100.95"/>
</a>
</g>
</g>
<!-- Node6 -->
<g id="Node000006" class="node">
<title>Node6</title>
<g id="a_Node000006"><a xlink:href="_protagonist_8hpp_source.html" target="_top" xlink:title=" ">
<polygon fill="white" stroke="#666666" points="256.25,-74.5 172,-74.5 172,-55.25 256.25,-55.25 256.25,-74.5"/>
<text text-anchor="middle" x="214.12" y="-61" font-family="Helvetica,sans-Serif" font-size="10.00">Protagonist.hpp</text>
</a>
</g>
</g>
<!-- Node4&#45;&gt;Node6 -->
<g id="edge5_Node000004_Node000006" class="edge">
<title>Node4&#45;&gt;Node6</title>
<g id="a_edge5_Node000004_Node000006"><a xlink:title=" ">
<path fill="none" stroke="#63b8ff" d="M191.1,-100.9C196.88,-92.11 203.55,-81.96 208.22,-74.86"/>
<polygon fill="#63b8ff" stroke="#63b8ff" points="188.3,-98.79 185.74,-109.07 194.15,-102.63 188.3,-98.79"/>
</a>
</g>
</g>
<!-- Node6&#45;&gt;Node5 -->
<g id="edge6_Node000006_Node000005" class="edge">
<title>Node6&#45;&gt;Node5</title>
<g id="a_edge6_Node000006_Node000005"><a xlink:title=" ">
<path fill="none" stroke="#63b8ff" d="M202.15,-45.65C196.37,-36.86 189.7,-26.71 185.03,-19.61"/>
<polygon fill="#63b8ff" stroke="#63b8ff" points="199.1,-47.38 207.51,-53.82 204.95,-43.54 199.1,-47.38"/>
</a>
</g>
</g>
<!-- Node7&#45;&gt;Node4 -->
<g id="edge8_Node000007_Node000004" class="edge">
<title>Node7&#45;&gt;Node4</title>
<g id="a_edge8_Node000007_Node000004"><a xlink:title=" ">
<path fill="none" stroke="#63b8ff" d="M197.89,-155.58C193.18,-146.92 187.8,-137.06 184.02,-130.11"/>
<polygon fill="#63b8ff" stroke="#63b8ff" points="194.76,-157.14 202.61,-164.25 200.9,-153.8 194.76,-157.14"/>
</a>
</g>
</g>
<!-- Node8&#45;&gt;Node3 -->
<g id="edge10_Node000008_Node000003" class="edge">
<title>Node8&#45;&gt;Node3</title>
<g id="a_edge10_Node000008_Node000003"><a xlink:title=" ">
<path fill="none" stroke="#63b8ff" d="M147.45,-267.51C155.38,-258.53 164.72,-247.95 171.2,-240.61"/>
<polygon fill="#63b8ff" stroke="#63b8ff" points="144.88,-265.13 140.89,-274.95 150.13,-269.77 144.88,-265.13"/>
</a>
</g>
</g>
<!-- Node9&#45;&gt;Node3 -->
<g id="edge12_Node000009_Node000003" class="edge">
<title>Node9&#45;&gt;Node3</title>
<g id="a_edge12_Node000009_Node000003"><a xlink:title=" ">
<path fill="none" stroke="#63b8ff" d="M210.8,-267.51C202.87,-258.53 193.53,-247.95 187.05,-240.61"/>
<polygon fill="#63b8ff" stroke="#63b8ff" points="208.12,-269.77 217.36,-274.95 213.37,-265.13 208.12,-269.77"/>
</a>
</g>
</g>
<!-- Node10&#45;&gt;Node3 -->
<g id="edge14_Node000010_Node000003" class="edge">
<title>Node10&#45;&gt;Node3</title>
<g id="a_edge14_Node000010_Node000003"><a xlink:title=" ">
<path fill="none" stroke="#63b8ff" d="M288.86,-271.92C262.53,-262.25 227.21,-249.29 203.84,-240.7"/>
<polygon fill="#63b8ff" stroke="#63b8ff" points="287.51,-275.16 298.11,-275.32 289.93,-268.59 287.51,-275.16"/>
</a>
</g>
</g>
</g>
</svg>
