<?xml version="1.0" encoding="UTF-8" standalone="no"?>
<!DOCTYPE svg PUBLIC "-//W3C//DTD SVG 1.1//EN"
 "http://www.w3.org/Graphics/SVG/1.1/DTD/svg11.dtd">
<!-- Generated by graphviz version 12.2.1 (20241206.2353)
 -->
<!-- Title: Systems.hpp Pages: 1 -->
<svg width="955pt" height="304pt"
 viewBox="0.00 0.00 954.75 303.50" xmlns="http://www.w3.org/2000/svg" xmlns:xlink="http://www.w3.org/1999/xlink">
<g id="graph0" class="graph" transform="scale(1 1) rotate(0) translate(4 299.5)">
<title>Systems.hpp</title>
<!-- Node1 -->
<g id="Node000001" class="node">
<title>Node1</title>
<g id="a_Node000001"><a xlink:title="게임 내 주요 시스템들을 한데 모아 포함하는 헤더 파일">
<polygon fill="#999999" stroke="#666666" points="626.5,-295.5 552.75,-295.5 552.75,-276.25 626.5,-276.25 626.5,-295.5"/>
<text text-anchor="middle" x="589.62" y="-282" font-family="Helvetica,sans-Serif" font-size="10.00">Systems.hpp</text>
</a>
</g>
</g>
<!-- Node2 -->
<g id="Node000002" class="node">
<title>Node2</title>
<g id="a_Node000002"><a xlink:href="_movement_8hpp.html" target="_top" xlink:title="이동 시스템 헤더">
<polygon fill="white" stroke="#666666" points="444.12,-240.25 323.12,-240.25 323.12,-221 444.12,-221 444.12,-240.25"/>
<text text-anchor="middle" x="383.62" y="-226.75" font-family="Helvetica,sans-Serif" font-size="10.00">systems/Movement.hpp</text>
</a>
</g>
</g>
<!-- Node1&#45;&gt;Node2 -->
<g id="edge1_Node000001_Node000002" class="edge">
<title>Node1&#45;&gt;Node2</title>
<g id="a_edge1_Node000001_Node000002"><a xlink:title=" ">
<path fill="none" stroke="#63b8ff" d="M554.68,-275.84C520.2,-266.93 467.31,-253.26 429.47,-243.48"/>
<polygon fill="#63b8ff" stroke="#63b8ff" points="430.76,-240.2 420.21,-241.08 429.01,-246.97 430.76,-240.2"/>
</a>
</g>
</g>
<!-- Node18 -->
<g id="Node000018" class="node">
<title>Node18</title>
<g id="a_Node000018"><a xlink:href="_rendering_8hpp.html" target="_top" xlink:title="렌더링 시스템 헤더">
<polygon fill="white" stroke="#666666" points="581.38,-240.25 461.88,-240.25 461.88,-221 581.38,-221 581.38,-240.25"/>
<text text-anchor="middle" x="521.62" y="-226.75" font-family="Helvetica,sans-Serif" font-size="10.00">systems/Rendering.hpp</text>
</a>
</g>
</g>
<!-- Node1&#45;&gt;Node18 -->
<g id="edge19_Node000001_Node000018" class="edge">
<title>Node1&#45;&gt;Node18</title>
<g id="a_edge19_Node000001_Node000018"><a xlink:title=" ">
<path fill="none" stroke="#63b8ff" d="M578.09,-275.84C568.16,-268.07 553.61,-256.67 541.77,-247.4"/>
<polygon fill="#63b8ff" stroke="#63b8ff" points="544.21,-244.87 534.18,-241.46 539.9,-250.38 544.21,-244.87"/>
</a>
</g>
</g>
<!-- Node19 -->
<g id="Node000019" class="node">
<title>Node19</title>
<g id="a_Node000019"><a xlink:href="_animating_8hpp.html" target="_top" xlink:title="애니메이션 시스템 헤더">
<polygon fill="white" stroke="#666666" points="718,-240.25 599.25,-240.25 599.25,-221 718,-221 718,-240.25"/>
<text text-anchor="middle" x="658.62" y="-226.75" font-family="Helvetica,sans-Serif" font-size="10.00">systems/Animating.hpp</text>
</a>
</g>
</g>
<!-- Node1&#45;&gt;Node19 -->
<g id="edge21_Node000001_Node000019" class="edge">
<title>Node1&#45;&gt;Node19</title>
<g id="a_edge21_Node000001_Node000019"><a xlink:title=" ">
<path fill="none" stroke="#63b8ff" d="M601.33,-275.84C611.4,-268.07 626.17,-256.67 638.19,-247.4"/>
<polygon fill="#63b8ff" stroke="#63b8ff" points="640.12,-250.33 645.89,-241.45 635.84,-244.79 640.12,-250.33"/>
</a>
</g>
</g>
<!-- Node20 -->
<g id="Node000020" class="node">
<title>Node20</title>
<g id="a_Node000020"><a xlink:href="_collision_8hpp.html" target="_top" xlink:title="충돌 시스템 헤더">
<polygon fill="white" stroke="#666666" points="849,-240.25 736.25,-240.25 736.25,-221 849,-221 849,-240.25"/>
<text text-anchor="middle" x="792.62" y="-226.75" font-family="Helvetica,sans-Serif" font-size="10.00">systems/Collision.hpp</text>
</a>
</g>
</g>
<!-- Node1&#45;&gt;Node20 -->
<g id="edge25_Node000001_Node000020" class="edge">
<title>Node1&#45;&gt;Node20</title>
<g id="a_edge25_Node000001_Node000020"><a xlink:title=" ">
<path fill="none" stroke="#63b8ff" d="M624.06,-275.84C657.89,-266.97 709.71,-253.37 746.96,-243.6"/>
<polygon fill="#63b8ff" stroke="#63b8ff" points="747.77,-247.01 756.56,-241.09 746,-240.24 747.77,-247.01"/>
</a>
</g>
</g>
<!-- Node3 -->
<g id="Node000003" class="node">
<title>Node3</title>
<g id="a_Node000003"><a xlink:href="_system_8hpp.html" target="_top" xlink:title="시스템 베이스 클래스">
<polygon fill="white" stroke="#666666" points="555.88,-185 487.38,-185 487.38,-165.75 555.88,-165.75 555.88,-185"/>
<text text-anchor="middle" x="521.62" y="-171.5" font-family="Helvetica,sans-Serif" font-size="10.00">System.hpp</text>
</a>
</g>
</g>
<!-- Node2&#45;&gt;Node3 -->
<g id="edge2_Node000002_Node000003" class="edge">
<title>Node2&#45;&gt;Node3</title>
<g id="a_edge2_Node000002_Node000003"><a xlink:title=" ">
<path fill="none" stroke="#63b8ff" d="M407.03,-220.59C429.14,-212.06 462.54,-199.17 487.59,-189.51"/>
<polygon fill="#63b8ff" stroke="#63b8ff" points="488.62,-192.86 496.69,-186 486.1,-186.33 488.62,-192.86"/>
</a>
</g>
</g>
<!-- Node4 -->
<g id="Node000004" class="node">
<title>Node4</title>
<g id="a_Node000004"><a xlink:href="_e_c_s_manager_8hpp.html" target="_top" xlink:title="ECS 매니저의 중추 설계 헤더">
<polygon fill="white" stroke="#666666" points="510.75,-129.75 396.5,-129.75 396.5,-110.5 510.75,-110.5 510.75,-129.75"/>
<text text-anchor="middle" x="453.62" y="-116.25" font-family="Helvetica,sans-Serif" font-size="10.00">core/ECSManager.hpp</text>
</a>
</g>
</g>
<!-- Node3&#45;&gt;Node4 -->
<g id="edge3_Node000003_Node000004" class="edge">
<title>Node3&#45;&gt;Node4</title>
<g id="a_edge3_Node000003_Node000004"><a xlink:title=" ">
<path fill="none" stroke="#63b8ff" d="M510.09,-165.34C500.16,-157.57 485.61,-146.17 473.77,-136.9"/>
<polygon fill="#63b8ff" stroke="#63b8ff" points="476.21,-134.37 466.18,-130.96 471.9,-139.88 476.21,-134.37"/>
</a>
</g>
</g>
<!-- Node5 -->
<g id="Node000005" class="node">
<title>Node5</title>
<g id="a_Node000005"><a xlink:title=" ">
<polygon fill="#e0e0e0" stroke="#999999" points="676,-74.5 593.25,-74.5 593.25,-55.25 676,-55.25 676,-74.5"/>
<text text-anchor="middle" x="634.62" y="-61" font-family="Helvetica,sans-Serif" font-size="10.00">unordered_map</text>
</a>
</g>
</g>
<!-- Node4&#45;&gt;Node5 -->
<g id="edge4_Node000004_Node000005" class="edge">
<title>Node4&#45;&gt;Node5</title>
<g id="a_edge4_Node000004_Node000005"><a xlink:title=" ">
<path fill="none" stroke="#63b8ff" d="M484.33,-110.09C514.23,-101.29 559.9,-87.86 593.05,-78.11"/>
<polygon fill="#63b8ff" stroke="#63b8ff" points="593.71,-81.56 602.32,-75.38 591.74,-74.84 593.71,-81.56"/>
</a>
</g>
</g>
<!-- Node6 -->
<g id="Node000006" class="node">
<title>Node6</title>
<g id="a_Node000006"><a xlink:title=" ">
<polygon fill="#e0e0e0" stroke="#999999" points="382.12,-74.5 339.12,-74.5 339.12,-55.25 382.12,-55.25 382.12,-74.5"/>
<text text-anchor="middle" x="360.62" y="-61" font-family="Helvetica,sans-Serif" font-size="10.00">vector</text>
</a>
</g>
</g>
<!-- Node4&#45;&gt;Node6 -->
<g id="edge5_Node000004_Node000006" class="edge">
<title>Node4&#45;&gt;Node6</title>
<g id="a_edge5_Node000004_Node000006"><a xlink:title=" ">
<path fill="none" stroke="#63b8ff" d="M437.85,-110.09C423.69,-101.98 402.64,-89.93 386.1,-80.46"/>
<polygon fill="#63b8ff" stroke="#63b8ff" points="388.21,-77.64 377.79,-75.7 384.73,-83.71 388.21,-77.64"/>
</a>
</g>
</g>
<!-- Node7 -->
<g id="Node000007" class="node">
<title>Node7</title>
<g id="a_Node000007"><a xlink:title=" ">
<polygon fill="#e0e0e0" stroke="#999999" points="440.62,-74.5 400.62,-74.5 400.62,-55.25 440.62,-55.25 440.62,-74.5"/>
<text text-anchor="middle" x="420.62" y="-61" font-family="Helvetica,sans-Serif" font-size="10.00">bitset</text>
</a>
</g>
</g>
<!-- Node4&#45;&gt;Node7 -->
<g id="edge6_Node000004_Node000007" class="edge">
<title>Node4&#45;&gt;Node7</title>
<g id="a_edge6_Node000004_Node000007"><a xlink:title=" ">
<path fill="none" stroke="#63b8ff" d="M448.18,-110.33C443.85,-103.36 437.66,-93.37 432.24,-84.62"/>
<polygon fill="#63b8ff" stroke="#63b8ff" points="435.23,-82.8 426.99,-76.15 429.28,-86.49 435.23,-82.8"/>
</a>
</g>
</g>
<!-- Node8 -->
<g id="Node000008" class="node">
<title>Node8</title>
<g id="a_Node000008"><a xlink:title=" ">
<polygon fill="#e0e0e0" stroke="#999999" points="51.25,-19.25 0,-19.25 0,0 51.25,0 51.25,-19.25"/>
<text text-anchor="middle" x="25.62" y="-5.75" font-family="Helvetica,sans-Serif" font-size="10.00">memory</text>
</a>
</g>
</g>
<!-- Node4&#45;&gt;Node8 -->
<g id="edge7_Node000004_Node000008" class="edge">
<title>Node4&#45;&gt;Node8</title>
<g id="a_edge7_Node000004_Node000008"><a xlink:title=" ">
<path fill="none" stroke="#63b8ff" d="M396.13,-117.77C303.99,-114.71 128.19,-104.95 74.62,-74.5 56.61,-64.26 43.03,-44.47 34.79,-29.61"/>
<polygon fill="#63b8ff" stroke="#63b8ff" points="37.94,-28.08 30.24,-20.8 31.72,-31.29 37.94,-28.08"/>
</a>
</g>
</g>
<!-- Node9 -->
<g id="Node000009" class="node">
<title>Node9</title>
<g id="a_Node000009"><a xlink:title=" ">
<polygon fill="#e0e0e0" stroke="#999999" points="514.5,-74.5 458.75,-74.5 458.75,-55.25 514.5,-55.25 514.5,-74.5"/>
<text text-anchor="middle" x="486.62" y="-61" font-family="Helvetica,sans-Serif" font-size="10.00">concepts</text>
</a>
</g>
</g>
<!-- Node4&#45;&gt;Node9 -->
<g id="edge8_Node000004_Node000009" class="edge">
<title>Node4&#45;&gt;Node9</title>
<g id="a_edge8_Node000004_Node000009"><a xlink:title=" ">
<path fill="none" stroke="#63b8ff" d="M459.07,-110.33C463.4,-103.36 469.59,-93.37 475.01,-84.62"/>
<polygon fill="#63b8ff" stroke="#63b8ff" points="477.97,-86.49 480.26,-76.15 472.02,-82.8 477.97,-86.49"/>
</a>
</g>
</g>
<!-- Node10 -->
<g id="Node000010" class="node">
<title>Node10</title>
<g id="a_Node000010"><a xlink:title=" ">
<polygon fill="#e0e0e0" stroke="#999999" points="574.75,-74.5 532.5,-74.5 532.5,-55.25 574.75,-55.25 574.75,-74.5"/>
<text text-anchor="middle" x="553.62" y="-61" font-family="Helvetica,sans-Serif" font-size="10.00">queue</text>
</a>
</g>
</g>
<!-- Node4&#45;&gt;Node10 -->
<g id="edge9_Node000004_Node000010" class="edge">
<title>Node4&#45;&gt;Node10</title>
<g id="a_edge9_Node000004_Node000010"><a xlink:title=" ">
<path fill="none" stroke="#63b8ff" d="M470.59,-110.09C485.89,-101.94 508.66,-89.82 526.49,-80.33"/>
<polygon fill="#63b8ff" stroke="#63b8ff" points="528.06,-83.45 535.24,-75.66 524.77,-77.27 528.06,-83.45"/>
</a>
</g>
</g>
<!-- Node11 -->
<g id="Node000011" class="node">
<title>Node11</title>
<g id="a_Node000011"><a xlink:href="_entity_8hpp.html" target="_top" xlink:title="엔티티(ID) 정의를 물리적으로 분리한 헤더">
<polygon fill="white" stroke="#666666" points="321,-74.5 262.25,-74.5 262.25,-55.25 321,-55.25 321,-74.5"/>
<text text-anchor="middle" x="291.62" y="-61" font-family="Helvetica,sans-Serif" font-size="10.00">Entity.hpp</text>
</a>
</g>
</g>
<!-- Node4&#45;&gt;Node11 -->
<g id="edge10_Node000004_Node000011" class="edge">
<title>Node4&#45;&gt;Node11</title>
<g id="a_edge10_Node000004_Node000011"><a xlink:title=" ">
<path fill="none" stroke="#63b8ff" d="M426.14,-110.09C399.73,-101.41 359.57,-88.21 330,-78.49"/>
<polygon fill="#63b8ff" stroke="#63b8ff" points="331.27,-75.22 320.68,-75.43 329.09,-81.87 331.27,-75.22"/>
</a>
</g>
</g>
<!-- Node13 -->
<g id="Node000013" class="node">
<title>Node13</title>
<g id="a_Node000013"><a xlink:href="_component_8hpp.html" target="_top" xlink:title="컴포넌트 베이스">
<polygon fill="white" stroke="#666666" points="873.25,-74.5 732,-74.5 732,-55.25 873.25,-55.25 873.25,-74.5"/>
<text text-anchor="middle" x="802.62" y="-61" font-family="Helvetica,sans-Serif" font-size="10.00">components/Component.hpp</text>
</a>
</g>
</g>
<!-- Node4&#45;&gt;Node13 -->
<g id="edge12_Node000004_Node000013" class="edge">
<title>Node4&#45;&gt;Node13</title>
<g id="a_edge12_Node000004_Node000013"><a xlink:title=" ">
<path fill="none" stroke="#63b8ff" d="M510.86,-110.39C571.37,-101.16 666.89,-86.59 732.03,-76.65"/>
<polygon fill="#63b8ff" stroke="#63b8ff" points="732.16,-80.17 741.52,-75.2 731.11,-73.25 732.16,-80.17"/>
</a>
</g>
</g>
<!-- Node14 -->
<g id="Node000014" class="node">
<title>Node14</title>
<g id="a_Node000014"><a xlink:href="_component_pool_8hpp.html" target="_top" xlink:title="풀(Pool) 기반 메모리 관리 인터페이스 및 컴포넌트 전용 풀 구현">
<polygon fill="white" stroke="#666666" points="244,-74.5 83.25,-74.5 83.25,-55.25 244,-55.25 244,-74.5"/>
<text text-anchor="middle" x="163.62" y="-61" font-family="Helvetica,sans-Serif" font-size="10.00">components/ComponentPool.hpp</text>
</a>
</g>
</g>
<!-- Node4&#45;&gt;Node14 -->
<g id="edge13_Node000004_Node000014" class="edge">
<title>Node4&#45;&gt;Node14</title>
<g id="a_edge13_Node000004_Node000014"><a xlink:title=" ">
<path fill="none" stroke="#63b8ff" d="M404.1,-110.03C354.26,-100.88 277.33,-86.75 223.96,-76.95"/>
<polygon fill="#63b8ff" stroke="#63b8ff" points="224.9,-73.57 214.43,-75.2 223.64,-80.45 224.9,-73.57"/>
</a>
</g>
</g>
<!-- Node12 -->
<g id="Node000012" class="node">
<title>Node12</title>
<g id="a_Node000012"><a xlink:title=" ">
<polygon fill="#e0e0e0" stroke="#999999" points="325.25,-19.25 280,-19.25 280,0 325.25,0 325.25,-19.25"/>
<text text-anchor="middle" x="302.62" y="-5.75" font-family="Helvetica,sans-Serif" font-size="10.00">cstdint</text>
</a>
</g>
</g>
<!-- Node11&#45;&gt;Node12 -->
<g id="edge11_Node000011_Node000012" class="edge">
<title>Node11&#45;&gt;Node12</title>
<g id="a_edge11_Node000011_Node000012"><a xlink:title=" ">
<path fill="none" stroke="#63b8ff" d="M293.44,-55.08C294.8,-48.49 296.72,-39.21 298.45,-30.82"/>
<polygon fill="#63b8ff" stroke="#63b8ff" points="301.87,-31.59 300.46,-21.09 295.01,-30.18 301.87,-31.59"/>
</a>
</g>
</g>
<!-- Node14&#45;&gt;Node8 -->
<g id="edge15_Node000014_Node000008" class="edge">
<title>Node14&#45;&gt;Node8</title>
<g id="a_edge15_Node000014_Node000008"><a xlink:title=" ">
<path fill="none" stroke="#63b8ff" d="M140.22,-54.84C118.11,-46.31 84.71,-33.42 59.66,-23.76"/>
<polygon fill="#63b8ff" stroke="#63b8ff" points="61.15,-20.58 50.56,-20.25 58.63,-27.11 61.15,-20.58"/>
</a>
</g>
</g>
<!-- Node14&#45;&gt;Node12 -->
<g id="edge14_Node000014_Node000012" class="edge">
<title>Node14&#45;&gt;Node12</title>
<g id="a_edge14_Node000014_Node000012"><a xlink:title=" ">
<path fill="none" stroke="#63b8ff" d="M187.2,-54.84C209.74,-46.21 243.93,-33.11 269.26,-23.41"/>
<polygon fill="#63b8ff" stroke="#63b8ff" points="270.35,-26.74 278.44,-19.89 267.85,-20.2 270.35,-26.74"/>
</a>
</g>
</g>
<!-- Node15 -->
<g id="Node000015" class="node">
<title>Node15</title>
<g id="a_Node000015"><a xlink:title=" ">
<polygon fill="#e0e0e0" stroke="#999999" points="261.62,-19.25 221.62,-19.25 221.62,0 261.62,0 261.62,-19.25"/>
<text text-anchor="middle" x="241.62" y="-5.75" font-family="Helvetica,sans-Serif" font-size="10.00">stack</text>
</a>
</g>
</g>
<!-- Node14&#45;&gt;Node15 -->
<g id="edge16_Node000014_Node000015" class="edge">
<title>Node14&#45;&gt;Node15</title>
<g id="a_edge16_Node000014_Node000015"><a xlink:title=" ">
<path fill="none" stroke="#63b8ff" d="M176.86,-54.84C188.4,-46.96 205.39,-35.36 219.07,-26.02"/>
<polygon fill="#63b8ff" stroke="#63b8ff" points="220.79,-29.08 227.08,-20.56 216.85,-23.3 220.79,-29.08"/>
</a>
</g>
</g>
<!-- Node16 -->
<g id="Node000016" class="node">
<title>Node16</title>
<g id="a_Node000016"><a xlink:title=" ">
<polygon fill="#e0e0e0" stroke="#999999" points="127.62,-19.25 69.62,-19.25 69.62,0 127.62,0 127.62,-19.25"/>
<text text-anchor="middle" x="98.62" y="-5.75" font-family="Helvetica,sans-Serif" font-size="10.00">functional</text>
</a>
</g>
</g>
<!-- Node14&#45;&gt;Node16 -->
<g id="edge17_Node000014_Node000016" class="edge">
<title>Node14&#45;&gt;Node16</title>
<g id="a_edge17_Node000014_Node000016"><a xlink:title=" ">
<path fill="none" stroke="#63b8ff" d="M152.6,-54.84C143.2,-47.15 129.48,-35.9 118.22,-26.68"/>
<polygon fill="#63b8ff" stroke="#63b8ff" points="120.61,-24.11 110.66,-20.48 116.18,-29.53 120.61,-24.11"/>
</a>
</g>
</g>
<!-- Node17 -->
<g id="Node000017" class="node">
<title>Node17</title>
<g id="a_Node000017"><a xlink:title=" ">
<polygon fill="#e0e0e0" stroke="#999999" points="204,-19.25 145.25,-19.25 145.25,0 204,0 204,-19.25"/>
<text text-anchor="middle" x="174.62" y="-5.75" font-family="Helvetica,sans-Serif" font-size="10.00">stdexcept</text>
</a>
</g>
</g>
<!-- Node14&#45;&gt;Node17 -->
<g id="edge18_Node000014_Node000017" class="edge">
<title>Node14&#45;&gt;Node17</title>
<g id="a_edge18_Node000014_Node000017"><a xlink:title=" ">
<path fill="none" stroke="#63b8ff" d="M165.44,-55.08C166.8,-48.49 168.72,-39.21 170.45,-30.82"/>
<polygon fill="#63b8ff" stroke="#63b8ff" points="173.87,-31.59 172.46,-21.09 167.01,-30.18 173.87,-31.59"/>
</a>
</g>
</g>
<!-- Node18&#45;&gt;Node3 -->
<g id="edge20_Node000018_Node000003" class="edge">
<title>Node18&#45;&gt;Node3</title>
<g id="a_edge20_Node000018_Node000003"><a xlink:title=" ">
<path fill="none" stroke="#63b8ff" d="M521.62,-220.83C521.62,-214.32 521.62,-205.17 521.62,-196.87"/>
<polygon fill="#63b8ff" stroke="#63b8ff" points="525.13,-196.87 521.63,-186.87 518.13,-196.87 525.13,-196.87"/>
</a>
</g>
</g>
<!-- Node19&#45;&gt;Node3 -->
<g id="edge24_Node000019_Node000003" class="edge">
<title>Node19&#45;&gt;Node3</title>
<g id="a_edge24_Node000019_Node000003"><a xlink:title=" ">
<path fill="none" stroke="#63b8ff" d="M635.38,-220.59C613.44,-212.06 580.28,-199.17 555.41,-189.51"/>
<polygon fill="#63b8ff" stroke="#63b8ff" points="556.98,-186.36 546.39,-186 554.44,-192.89 556.98,-186.36"/>
</a>
</g>
</g>
<!-- Node19&#45;&gt;Node5 -->
<g id="edge22_Node000019_Node000005" class="edge">
<title>Node19&#45;&gt;Node5</title>
<g id="a_edge22_Node000019_Node000005"><a xlink:title=" ">
<path fill="none" stroke="#63b8ff" d="M657.33,-220.82C653.62,-195.5 642.85,-122 637.59,-86.09"/>
<polygon fill="#63b8ff" stroke="#63b8ff" points="641.05,-85.61 636.14,-76.22 634.13,-86.62 641.05,-85.61"/>
</a>
</g>
</g>
<!-- Node19&#45;&gt;Node12 -->
<g id="edge23_Node000019_Node000012" class="edge">
<title>Node19&#45;&gt;Node12</title>
<g id="a_edge23_Node000019_Node000012"><a xlink:title=" ">
<path fill="none" stroke="#63b8ff" d="M664.25,-220.64C681.19,-192.33 727.97,-103.95 684.62,-55.25 661.68,-29.47 426.65,-16.22 337.06,-12.08"/>
<polygon fill="#63b8ff" stroke="#63b8ff" points="337.32,-8.59 327.17,-11.64 337,-15.58 337.32,-8.59"/>
</a>
</g>
</g>
<!-- Node20&#45;&gt;Node3 -->
<g id="edge26_Node000020_Node000003" class="edge">
<title>Node20&#45;&gt;Node3</title>
<g id="a_edge26_Node000020_Node000003"><a xlink:title=" ">
<path fill="none" stroke="#63b8ff" d="M746.35,-220.53C696.28,-210.69 616.95,-195.11 567.17,-185.32"/>
<polygon fill="#63b8ff" stroke="#63b8ff" points="568.07,-181.94 557.59,-183.44 566.73,-188.8 568.07,-181.94"/>
</a>
</g>
</g>
<!-- Node21 -->
<g id="Node000021" class="node">
<title>Node21</title>
<g id="a_Node000021"><a xlink:href="_collider_8hpp.html" target="_top" xlink:title="충돌 컴포넌트">
<polygon fill="white" stroke="#666666" points="855.25,-129.75 732,-129.75 732,-110.5 855.25,-110.5 855.25,-129.75"/>
<text text-anchor="middle" x="793.62" y="-116.25" font-family="Helvetica,sans-Serif" font-size="10.00">components/Collider.hpp</text>
</a>
</g>
</g>
<!-- Node20&#45;&gt;Node21 -->
<g id="edge27_Node000020_Node000021" class="edge">
<title>Node20&#45;&gt;Node21</title>
<g id="a_edge27_Node000020_Node000021"><a xlink:title=" ">
<path fill="none" stroke="#63b8ff" d="M792.71,-220.75C792.87,-203.5 793.22,-165.08 793.44,-141.31"/>
<polygon fill="#63b8ff" stroke="#63b8ff" points="796.94,-141.67 793.53,-131.64 789.94,-141.61 796.94,-141.67"/>
</a>
</g>
</g>
<!-- Node22 -->
<g id="Node000022" class="node">
<title>Node22</title>
<g id="a_Node000022"><a xlink:href="_position_8hpp.html" target="_top" xlink:title="위치 컴포넌트">
<polygon fill="white" stroke="#666666" points="946.75,-185 820.5,-185 820.5,-165.75 946.75,-165.75 946.75,-185"/>
<text text-anchor="middle" x="883.62" y="-171.5" font-family="Helvetica,sans-Serif" font-size="10.00">components/Position.hpp</text>
</a>
</g>
</g>
<!-- Node20&#45;&gt;Node22 -->
<g id="edge29_Node000020_Node000022" class="edge">
<title>Node20&#45;&gt;Node22</title>
<g id="a_edge29_Node000020_Node000022"><a xlink:title=" ">
<path fill="none" stroke="#63b8ff" d="M808.06,-220.59C821.79,-212.56 842.12,-200.66 858.24,-191.23"/>
<polygon fill="#63b8ff" stroke="#63b8ff" points="859.94,-194.29 866.81,-186.22 856.41,-188.25 859.94,-194.29"/>
</a>
</g>
</g>
<!-- Node21&#45;&gt;Node13 -->
<g id="edge28_Node000021_Node000013" class="edge">
<title>Node21&#45;&gt;Node13</title>
<g id="a_edge28_Node000021_Node000013"><a xlink:title=" ">
<path fill="none" stroke="#63b8ff" d="M795.11,-110.33C796.22,-103.74 797.79,-94.46 799.21,-86.07"/>
<polygon fill="#63b8ff" stroke="#63b8ff" points="802.64,-86.8 800.85,-76.35 795.74,-85.63 802.64,-86.8"/>
</a>
</g>
</g>
<!-- Node22&#45;&gt;Node13 -->
<g id="edge30_Node000022_Node000013" class="edge">
<title>Node22&#45;&gt;Node13</title>
<g id="a_edge30_Node000022_Node000013"><a xlink:title=" ">
<path fill="none" stroke="#63b8ff" d="M882.79,-165.32C881.18,-152.16 876.69,-127.47 864.62,-110.5 855.92,-98.26 842.78,-88.11 830.83,-80.6"/>
<polygon fill="#63b8ff" stroke="#63b8ff" points="832.9,-77.76 822.51,-75.7 829.34,-83.79 832.9,-77.76"/>
</a>
</g>
</g>
</g>
</svg>
