<?xml version="1.0" encoding="UTF-8" standalone="no"?>
<!DOCTYPE svg PUBLIC "-//W3C//DTD SVG 1.1//EN"
 "http://www.w3.org/Graphics/SVG/1.1/DTD/svg11.dtd">
<!-- Generated by graphviz version 12.2.1 (20241206.2353)
 -->
<!-- Title: World.hpp Pages: 1 -->
<svg width="116pt" height="193pt"
 viewBox="0.00 0.00 115.62 193.00" xmlns="http://www.w3.org/2000/svg" xmlns:xlink="http://www.w3.org/1999/xlink">
<g id="graph0" class="graph" transform="scale(1 1) rotate(0) translate(4 189)">
<title>World.hpp</title>
<!-- Node1 -->
<g id="Node000001" class="node">
<title>Node1</title>
<g id="a_Node000001"><a xlink:title="시스템을 관리하는 클래스 헤더">
<polygon fill="#999999" stroke="#666666" points="60.25,-185 0.75,-185 0.75,-165.75 60.25,-165.75 60.25,-185"/>
<text text-anchor="middle" x="30.5" y="-171.5" font-family="Helvetica,sans-Serif" font-size="10.00">World.hpp</text>
</a>
</g>
</g>
<!-- Node2 -->
<g id="Node000002" class="node">
<title>Node2</title>
<g id="a_Node000002"><a xlink:href="_core_8hpp.html" target="_top" xlink:title="모든 해더를 포함하는 헤더">
<polygon fill="white" stroke="#666666" points="58.38,-129.75 2.62,-129.75 2.62,-110.5 58.38,-110.5 58.38,-129.75"/>
<text text-anchor="middle" x="30.5" y="-116.25" font-family="Helvetica,sans-Serif" font-size="10.00">Core.hpp</text>
</a>
</g>
</g>
<!-- Node1&#45;&gt;Node2 -->
<g id="edge1_Node000001_Node000002" class="edge">
<title>Node1&#45;&gt;Node2</title>
<g id="a_edge1_Node000001_Node000002"><a xlink:title=" ">
<path fill="none" stroke="#63b8ff" d="M30.5,-154.13C30.5,-145.84 30.5,-136.67 30.5,-130.11"/>
<polygon fill="#63b8ff" stroke="#63b8ff" points="27,-154.07 30.5,-164.07 34,-154.07 27,-154.07"/>
</a>
</g>
</g>
<!-- Node3 -->
<g id="Node000003" class="node">
<title>Node3</title>
<g id="a_Node000003"><a xlink:href="_game_8hpp.html" target="_top" xlink:title="Game 세팅, 실제 게임이 구현되는 워크 스페이스">
<polygon fill="white" stroke="#666666" points="61,-19.25 0,-19.25 0,0 61,0 61,-19.25"/>
<text text-anchor="middle" x="30.5" y="-5.75" font-family="Helvetica,sans-Serif" font-size="10.00">Game.hpp</text>
</a>
</g>
</g>
<!-- Node2&#45;&gt;Node3 -->
<g id="edge2_Node000002_Node000003" class="edge">
<title>Node2&#45;&gt;Node3</title>
<g id="a_edge2_Node000002_Node000003"><a xlink:title=" ">
<path fill="none" stroke="#63b8ff" d="M21.36,-99.93C16.43,-87.32 11.86,-70.43 14.5,-55.25 16.73,-42.44 22.3,-28.44 26.24,-19.6"/>
<polygon fill="#63b8ff" stroke="#63b8ff" points="17.99,-100.95 25.18,-108.73 24.41,-98.16 17.99,-100.95"/>
</a>
</g>
</g>
<!-- Node4 -->
<g id="Node000004" class="node">
<title>Node4</title>
<g id="a_Node000004"><a xlink:href="_protagonist_8hpp_source.html" target="_top" xlink:title=" ">
<polygon fill="white" stroke="#666666" points="107.62,-74.5 23.38,-74.5 23.38,-55.25 107.62,-55.25 107.62,-74.5"/>
<text text-anchor="middle" x="65.5" y="-61" font-family="Helvetica,sans-Serif" font-size="10.00">Protagonist.hpp</text>
</a>
</g>
</g>
<!-- Node2&#45;&gt;Node4 -->
<g id="edge3_Node000002_Node000004" class="edge">
<title>Node2&#45;&gt;Node4</title>
<g id="a_edge3_Node000002_Node000004"><a xlink:title=" ">
<path fill="none" stroke="#63b8ff" d="M42.48,-100.9C48.25,-92.11 54.93,-81.96 59.59,-74.86"/>
<polygon fill="#63b8ff" stroke="#63b8ff" points="39.68,-98.79 37.11,-109.07 45.53,-102.63 39.68,-98.79"/>
</a>
</g>
</g>
<!-- Node4&#45;&gt;Node3 -->
<g id="edge4_Node000004_Node000003" class="edge">
<title>Node4&#45;&gt;Node3</title>
<g id="a_edge4_Node000004_Node000003"><a xlink:title=" ">
<path fill="none" stroke="#63b8ff" d="M53.52,-45.65C47.75,-36.86 41.07,-26.71 36.41,-19.61"/>
<polygon fill="#63b8ff" stroke="#63b8ff" points="50.47,-47.38 58.89,-53.82 56.32,-43.54 50.47,-47.38"/>
</a>
</g>
</g>
</g>
</svg>
