<?xml version="1.0" encoding="UTF-8" standalone="no"?>
<!DOCTYPE svg PUBLIC "-//W3C//DTD SVG 1.1//EN"
 "http://www.w3.org/Graphics/SVG/1.1/DTD/svg11.dtd">
<!-- Generated by graphviz version 12.2.1 (20241206.2353)
 -->
<!-- Title: World.hpp Pages: 1 -->
<svg width="1066pt" height="359pt"
 viewBox="0.00 0.00 1066.00 358.75" xmlns="http://www.w3.org/2000/svg" xmlns:xlink="http://www.w3.org/1999/xlink">
<g id="graph0" class="graph" transform="scale(1 1) rotate(0) translate(4 354.75)">
<title>World.hpp</title>
<!-- Node1 -->
<g id="Node000001" class="node">
<title>Node1</title>
<g id="a_Node000001"><a xlink:title="시스템을 관리하는 클래스 헤더">
<polygon fill="#999999" stroke="#666666" points="327.75,-350.75 268.25,-350.75 268.25,-331.5 327.75,-331.5 327.75,-350.75"/>
<text text-anchor="middle" x="298" y="-337.25" font-family="Helvetica,sans-Serif" font-size="10.00">World.hpp</text>
</a>
</g>
</g>
<!-- Node2 -->
<g id="Node000002" class="node">
<title>Node2</title>
<g id="a_Node000002"><a xlink:title=" ">
<polygon fill="#e0e0e0" stroke="#999999" points="423.62,-19.25 372.38,-19.25 372.38,0 423.62,0 423.62,-19.25"/>
<text text-anchor="middle" x="398" y="-5.75" font-family="Helvetica,sans-Serif" font-size="10.00">memory</text>
</a>
</g>
</g>
<!-- Node1&#45;&gt;Node2 -->
<g id="edge1_Node000001_Node000002" class="edge">
<title>Node1&#45;&gt;Node2</title>
<g id="a_edge1_Node000001_Node000002"><a xlink:title=" ">
<path fill="none" stroke="#63b8ff" d="M267.97,-337.53C209.86,-332.05 84.52,-317.97 48,-295.5 17.75,-276.89 0,-267.14 0,-231.62 0,-231.62 0,-231.62 0,-119.12 0,-83.61 17.3,-73.1 48,-55.25 100.51,-24.72 281.71,-14.71 360.7,-11.75"/>
<polygon fill="#63b8ff" stroke="#63b8ff" points="360.64,-15.26 370.51,-11.4 360.39,-8.26 360.64,-15.26"/>
</a>
</g>
</g>
<!-- Node3 -->
<g id="Node000003" class="node">
<title>Node3</title>
<g id="a_Node000003"><a xlink:title=" ">
<polygon fill="#e0e0e0" stroke="#999999" points="230.5,-74.5 187.5,-74.5 187.5,-55.25 230.5,-55.25 230.5,-74.5"/>
<text text-anchor="middle" x="209" y="-61" font-family="Helvetica,sans-Serif" font-size="10.00">vector</text>
</a>
</g>
</g>
<!-- Node1&#45;&gt;Node3 -->
<g id="edge2_Node000001_Node000003" class="edge">
<title>Node1&#45;&gt;Node3</title>
<g id="a_edge2_Node000001_Node000003"><a xlink:title=" ">
<path fill="none" stroke="#63b8ff" d="M267.92,-340.87C199.48,-340.84 38,-330.3 38,-231.62 38,-231.62 38,-231.62 38,-174.38 38,-144.76 36.02,-131.41 57,-110.5 59.17,-108.33 132.25,-87.48 176.27,-75.06"/>
<polygon fill="#63b8ff" stroke="#63b8ff" points="177.17,-78.45 185.85,-72.37 175.28,-71.71 177.17,-78.45"/>
</a>
</g>
</g>
<!-- Node4 -->
<g id="Node000004" class="node">
<title>Node4</title>
<g id="a_Node000004"><a xlink:href="_e_c_s_manager_8hpp.html" target="_top" xlink:title="ECS 매니저의 중추 설계 헤더">
<polygon fill="white" stroke="#666666" points="741.25,-129.75 648.75,-129.75 648.75,-110.5 741.25,-110.5 741.25,-129.75"/>
<text text-anchor="middle" x="695" y="-116.25" font-family="Helvetica,sans-Serif" font-size="10.00">ECSManager.hpp</text>
</a>
</g>
</g>
<!-- Node1&#45;&gt;Node4 -->
<g id="edge3_Node000001_Node000004" class="edge">
<title>Node1&#45;&gt;Node4</title>
<g id="a_edge3_Node000001_Node000004"><a xlink:title=" ">
<path fill="none" stroke="#63b8ff" d="M328.08,-339.9C437.39,-338.4 810.87,-326.91 882,-240.25 925.41,-187.37 818.4,-150.49 748.91,-132.89"/>
<polygon fill="#63b8ff" stroke="#63b8ff" points="750.13,-129.58 739.58,-130.59 748.45,-136.38 750.13,-129.58"/>
</a>
</g>
</g>
<!-- Node16 -->
<g id="Node000016" class="node">
<title>Node16</title>
<g id="a_Node000016"><a xlink:href="_components_8hpp.html" target="_top" xlink:title="ECS 아키텍처에서 사용되는 주요 컴포넌트를 한데 모아 포함하는 헤더">
<polygon fill="white" stroke="#666666" points="371.25,-185 224.75,-185 224.75,-165.75 371.25,-165.75 371.25,-185"/>
<text text-anchor="middle" x="298" y="-171.5" font-family="Helvetica,sans-Serif" font-size="10.00">components/Components.hpp</text>
</a>
</g>
</g>
<!-- Node1&#45;&gt;Node16 -->
<g id="edge19_Node000001_Node000016" class="edge">
<title>Node1&#45;&gt;Node16</title>
<g id="a_edge19_Node000001_Node000016"><a xlink:title=" ">
<path fill="none" stroke="#63b8ff" d="M298,-331.32C298,-306 298,-232.5 298,-196.59"/>
<polygon fill="#63b8ff" stroke="#63b8ff" points="301.5,-196.74 298,-186.74 294.5,-196.74 301.5,-196.74"/>
</a>
</g>
</g>
<!-- Node24 -->
<g id="Node000024" class="node">
<title>Node24</title>
<g id="a_Node000024"><a xlink:href="_systems_8hpp.html" target="_top" xlink:title="게임 내 주요 시스템들을 한데 모아 포함하는 헤더 파일">
<polygon fill="white" stroke="#666666" points="595.12,-295.5 480.88,-295.5 480.88,-276.25 595.12,-276.25 595.12,-295.5"/>
<text text-anchor="middle" x="538" y="-282" font-family="Helvetica,sans-Serif" font-size="10.00">systems/Systems.hpp</text>
</a>
</g>
</g>
<!-- Node1&#45;&gt;Node24 -->
<g id="edge37_Node000001_Node000024" class="edge">
<title>Node1&#45;&gt;Node24</title>
<g id="a_edge37_Node000001_Node000024"><a xlink:title=" ">
<path fill="none" stroke="#63b8ff" d="M327.91,-333.49C367.46,-324.71 437.79,-309.11 486.1,-298.39"/>
<polygon fill="#63b8ff" stroke="#63b8ff" points="486.78,-301.82 495.79,-296.24 485.27,-294.99 486.78,-301.82"/>
</a>
</g>
</g>
<!-- Node4&#45;&gt;Node2 -->
<g id="edge7_Node000004_Node000002" class="edge">
<title>Node4&#45;&gt;Node2</title>
<g id="a_edge7_Node000004_Node000002"><a xlink:title=" ">
<path fill="none" stroke="#63b8ff" d="M706.38,-110.11C721.59,-97 744.98,-72.38 730,-55.25 692.04,-11.84 513.65,-8.91 435.19,-9.79"/>
<polygon fill="#63b8ff" stroke="#63b8ff" points="435.39,-6.29 425.44,-9.93 435.49,-13.29 435.39,-6.29"/>
</a>
</g>
</g>
<!-- Node4&#45;&gt;Node3 -->
<g id="edge5_Node000004_Node000003" class="edge">
<title>Node4&#45;&gt;Node3</title>
<g id="a_edge5_Node000004_Node000003"><a xlink:title=" ">
<path fill="none" stroke="#63b8ff" d="M648.38,-114.41C571.27,-106.55 412.34,-90.08 278,-74.5 266.25,-73.14 253.39,-71.55 241.99,-70.12"/>
<polygon fill="#63b8ff" stroke="#63b8ff" points="242.6,-66.67 232.24,-68.88 241.72,-73.61 242.6,-66.67"/>
</a>
</g>
</g>
<!-- Node5 -->
<g id="Node000005" class="node">
<title>Node5</title>
<g id="a_Node000005"><a xlink:title=" ">
<polygon fill="#e0e0e0" stroke="#999999" points="529.38,-74.5 446.62,-74.5 446.62,-55.25 529.38,-55.25 529.38,-74.5"/>
<text text-anchor="middle" x="488" y="-61" font-family="Helvetica,sans-Serif" font-size="10.00">unordered_map</text>
</a>
</g>
</g>
<!-- Node4&#45;&gt;Node5 -->
<g id="edge4_Node000004_Node000005" class="edge">
<title>Node4&#45;&gt;Node5</title>
<g id="a_edge4_Node000004_Node000005"><a xlink:title=" ">
<path fill="none" stroke="#63b8ff" d="M659.89,-110.09C625.24,-101.18 572.09,-87.51 534.07,-77.73"/>
<polygon fill="#63b8ff" stroke="#63b8ff" points="535.31,-74.43 524.75,-75.33 533.57,-81.21 535.31,-74.43"/>
</a>
</g>
</g>
<!-- Node6 -->
<g id="Node000006" class="node">
<title>Node6</title>
<g id="a_Node000006"><a xlink:title=" ">
<polygon fill="#e0e0e0" stroke="#999999" points="721,-74.5 681,-74.5 681,-55.25 721,-55.25 721,-74.5"/>
<text text-anchor="middle" x="701" y="-61" font-family="Helvetica,sans-Serif" font-size="10.00">bitset</text>
</a>
</g>
</g>
<!-- Node4&#45;&gt;Node6 -->
<g id="edge6_Node000004_Node000006" class="edge">
<title>Node4&#45;&gt;Node6</title>
<g id="a_edge6_Node000004_Node000006"><a xlink:title=" ">
<path fill="none" stroke="#63b8ff" d="M695.99,-110.33C696.73,-103.74 697.78,-94.46 698.72,-86.07"/>
<polygon fill="#63b8ff" stroke="#63b8ff" points="702.18,-86.69 699.82,-76.36 695.22,-85.91 702.18,-86.69"/>
</a>
</g>
</g>
<!-- Node7 -->
<g id="Node000007" class="node">
<title>Node7</title>
<g id="a_Node000007"><a xlink:title=" ">
<polygon fill="#e0e0e0" stroke="#999999" points="602.88,-74.5 547.12,-74.5 547.12,-55.25 602.88,-55.25 602.88,-74.5"/>
<text text-anchor="middle" x="575" y="-61" font-family="Helvetica,sans-Serif" font-size="10.00">concepts</text>
</a>
</g>
</g>
<!-- Node4&#45;&gt;Node7 -->
<g id="edge8_Node000004_Node000007" class="edge">
<title>Node4&#45;&gt;Node7</title>
<g id="a_edge8_Node000004_Node000007"><a xlink:title=" ">
<path fill="none" stroke="#63b8ff" d="M674.64,-110.09C655.77,-101.72 627.41,-89.13 605.77,-79.53"/>
<polygon fill="#63b8ff" stroke="#63b8ff" points="607.4,-76.42 596.84,-75.57 604.56,-82.82 607.4,-76.42"/>
</a>
</g>
</g>
<!-- Node8 -->
<g id="Node000008" class="node">
<title>Node8</title>
<g id="a_Node000008"><a xlink:title=" ">
<polygon fill="#e0e0e0" stroke="#999999" points="663.12,-74.5 620.88,-74.5 620.88,-55.25 663.12,-55.25 663.12,-74.5"/>
<text text-anchor="middle" x="642" y="-61" font-family="Helvetica,sans-Serif" font-size="10.00">queue</text>
</a>
</g>
</g>
<!-- Node4&#45;&gt;Node8 -->
<g id="edge9_Node000004_Node000008" class="edge">
<title>Node4&#45;&gt;Node8</title>
<g id="a_edge9_Node000004_Node000008"><a xlink:title=" ">
<path fill="none" stroke="#63b8ff" d="M686.25,-110.33C678.85,-102.9 668.04,-92.04 658.95,-82.91"/>
<polygon fill="#63b8ff" stroke="#63b8ff" points="661.54,-80.55 652.01,-75.93 656.58,-85.49 661.54,-80.55"/>
</a>
</g>
</g>
<!-- Node9 -->
<g id="Node000009" class="node">
<title>Node9</title>
<g id="a_Node000009"><a xlink:href="_entity_8hpp.html" target="_top" xlink:title="엔티티(ID) 정의를 물리적으로 분리한 헤더">
<polygon fill="white" stroke="#666666" points="835.38,-74.5 776.62,-74.5 776.62,-55.25 835.38,-55.25 835.38,-74.5"/>
<text text-anchor="middle" x="806" y="-61" font-family="Helvetica,sans-Serif" font-size="10.00">Entity.hpp</text>
</a>
</g>
</g>
<!-- Node4&#45;&gt;Node9 -->
<g id="edge10_Node000004_Node000009" class="edge">
<title>Node4&#45;&gt;Node9</title>
<g id="a_edge10_Node000004_Node000009"><a xlink:title=" ">
<path fill="none" stroke="#63b8ff" d="M713.83,-110.09C731.05,-101.83 756.8,-89.48 776.71,-79.93"/>
<polygon fill="#63b8ff" stroke="#63b8ff" points="778.21,-83.09 785.71,-75.61 775.18,-76.78 778.21,-83.09"/>
</a>
</g>
</g>
<!-- Node11 -->
<g id="Node000011" class="node">
<title>Node11</title>
<g id="a_Node000011"><a xlink:href="_component_8hpp.html" target="_top" xlink:title="컴포넌트 베이스">
<polygon fill="white" stroke="#666666" points="428.62,-74.5 287.38,-74.5 287.38,-55.25 428.62,-55.25 428.62,-74.5"/>
<text text-anchor="middle" x="358" y="-61" font-family="Helvetica,sans-Serif" font-size="10.00">components/Component.hpp</text>
</a>
</g>
</g>
<!-- Node4&#45;&gt;Node11 -->
<g id="edge12_Node000004_Node000011" class="edge">
<title>Node4&#45;&gt;Node11</title>
<g id="a_edge12_Node000004_Node000011"><a xlink:title=" ">
<path fill="none" stroke="#63b8ff" d="M648.5,-111.78C591.06,-102.7 492.86,-87.18 426.72,-76.73"/>
<polygon fill="#63b8ff" stroke="#63b8ff" points="427.5,-73.31 417.07,-75.21 426.41,-80.23 427.5,-73.31"/>
</a>
</g>
</g>
<!-- Node12 -->
<g id="Node000012" class="node">
<title>Node12</title>
<g id="a_Node000012"><a xlink:href="_component_pool_8hpp.html" target="_top" xlink:title="풀(Pool) 기반 메모리 관리 인터페이스 및 컴포넌트 전용 풀 구현">
<polygon fill="white" stroke="#666666" points="1051.38,-74.5 890.62,-74.5 890.62,-55.25 1051.38,-55.25 1051.38,-74.5"/>
<text text-anchor="middle" x="971" y="-61" font-family="Helvetica,sans-Serif" font-size="10.00">components/ComponentPool.hpp</text>
</a>
</g>
</g>
<!-- Node4&#45;&gt;Node12 -->
<g id="edge13_Node000004_Node000012" class="edge">
<title>Node4&#45;&gt;Node12</title>
<g id="a_edge13_Node000004_Node000012"><a xlink:title=" ">
<path fill="none" stroke="#63b8ff" d="M741.51,-110.15C788.64,-101.06 861.69,-86.96 912.67,-77.13"/>
<polygon fill="#63b8ff" stroke="#63b8ff" points="913.2,-80.59 922.35,-75.26 911.87,-73.72 913.2,-80.59"/>
</a>
</g>
</g>
<!-- Node10 -->
<g id="Node000010" class="node">
<title>Node10</title>
<g id="a_Node000010"><a xlink:title=" ">
<polygon fill="#e0e0e0" stroke="#999999" points="837.62,-19.25 792.38,-19.25 792.38,0 837.62,0 837.62,-19.25"/>
<text text-anchor="middle" x="815" y="-5.75" font-family="Helvetica,sans-Serif" font-size="10.00">cstdint</text>
</a>
</g>
</g>
<!-- Node9&#45;&gt;Node10 -->
<g id="edge11_Node000009_Node000010" class="edge">
<title>Node9&#45;&gt;Node10</title>
<g id="a_edge11_Node000009_Node000010"><a xlink:title=" ">
<path fill="none" stroke="#63b8ff" d="M807.49,-55.08C808.6,-48.49 810.17,-39.21 811.59,-30.82"/>
<polygon fill="#63b8ff" stroke="#63b8ff" points="815.01,-31.55 813.23,-21.1 808.11,-30.38 815.01,-31.55"/>
</a>
</g>
</g>
<!-- Node12&#45;&gt;Node2 -->
<g id="edge15_Node000012_Node000002" class="edge">
<title>Node12&#45;&gt;Node2</title>
<g id="a_edge15_Node000012_Node000002"><a xlink:title=" ">
<path fill="none" stroke="#63b8ff" d="M890.42,-56.39C764.75,-44.71 526.99,-22.61 435.34,-14.09"/>
<polygon fill="#63b8ff" stroke="#63b8ff" points="435.69,-10.61 425.4,-13.17 435.04,-17.58 435.69,-10.61"/>
</a>
</g>
</g>
<!-- Node12&#45;&gt;Node10 -->
<g id="edge14_Node000012_Node000010" class="edge">
<title>Node12&#45;&gt;Node10</title>
<g id="a_edge14_Node000012_Node000010"><a xlink:title=" ">
<path fill="none" stroke="#63b8ff" d="M944.54,-54.84C918.14,-45.83 877.48,-31.95 848.77,-22.15"/>
<polygon fill="#63b8ff" stroke="#63b8ff" points="850.06,-18.89 839.46,-18.97 847.79,-25.52 850.06,-18.89"/>
</a>
</g>
</g>
<!-- Node13 -->
<g id="Node000013" class="node">
<title>Node13</title>
<g id="a_Node000013"><a xlink:title=" ">
<polygon fill="#e0e0e0" stroke="#999999" points="1058,-19.25 1018,-19.25 1018,0 1058,0 1058,-19.25"/>
<text text-anchor="middle" x="1038" y="-5.75" font-family="Helvetica,sans-Serif" font-size="10.00">stack</text>
</a>
</g>
</g>
<!-- Node12&#45;&gt;Node13 -->
<g id="edge16_Node000012_Node000013" class="edge">
<title>Node12&#45;&gt;Node13</title>
<g id="a_edge16_Node000012_Node000013"><a xlink:title=" ">
<path fill="none" stroke="#63b8ff" d="M982.37,-54.84C992.05,-47.15 1006.2,-35.9 1017.81,-26.68"/>
<polygon fill="#63b8ff" stroke="#63b8ff" points="1019.97,-29.43 1025.62,-20.47 1015.61,-23.95 1019.97,-29.43"/>
</a>
</g>
</g>
<!-- Node14 -->
<g id="Node000014" class="node">
<title>Node14</title>
<g id="a_Node000014"><a xlink:title=" ">
<polygon fill="#e0e0e0" stroke="#999999" points="924,-19.25 866,-19.25 866,0 924,0 924,-19.25"/>
<text text-anchor="middle" x="895" y="-5.75" font-family="Helvetica,sans-Serif" font-size="10.00">functional</text>
</a>
</g>
</g>
<!-- Node12&#45;&gt;Node14 -->
<g id="edge17_Node000012_Node000014" class="edge">
<title>Node12&#45;&gt;Node14</title>
<g id="a_edge17_Node000012_Node000014"><a xlink:title=" ">
<path fill="none" stroke="#63b8ff" d="M958.11,-54.84C946.97,-47.04 930.63,-35.59 917.36,-26.29"/>
<polygon fill="#63b8ff" stroke="#63b8ff" points="919.39,-23.44 909.2,-20.57 915.38,-29.18 919.39,-23.44"/>
</a>
</g>
</g>
<!-- Node15 -->
<g id="Node000015" class="node">
<title>Node15</title>
<g id="a_Node000015"><a xlink:title=" ">
<polygon fill="#e0e0e0" stroke="#999999" points="1000.38,-19.25 941.62,-19.25 941.62,0 1000.38,0 1000.38,-19.25"/>
<text text-anchor="middle" x="971" y="-5.75" font-family="Helvetica,sans-Serif" font-size="10.00">stdexcept</text>
</a>
</g>
</g>
<!-- Node12&#45;&gt;Node15 -->
<g id="edge18_Node000012_Node000015" class="edge">
<title>Node12&#45;&gt;Node15</title>
<g id="a_edge18_Node000012_Node000015"><a xlink:title=" ">
<path fill="none" stroke="#63b8ff" d="M971,-55.08C971,-48.57 971,-39.42 971,-31.12"/>
<polygon fill="#63b8ff" stroke="#63b8ff" points="974.5,-31.12 971,-21.12 967.5,-31.12 974.5,-31.12"/>
</a>
</g>
</g>
<!-- Node17 -->
<g id="Node000017" class="node">
<title>Node17</title>
<g id="a_Node000017"><a xlink:href="_animation_8hpp.html" target="_top" xlink:title="애니메이션 컴포넌트">
<polygon fill="white" stroke="#666666" points="222.12,-129.75 143.88,-129.75 143.88,-110.5 222.12,-110.5 222.12,-129.75"/>
<text text-anchor="middle" x="183" y="-116.25" font-family="Helvetica,sans-Serif" font-size="10.00">Animation.hpp</text>
</a>
</g>
</g>
<!-- Node16&#45;&gt;Node17 -->
<g id="edge20_Node000016_Node000017" class="edge">
<title>Node16&#45;&gt;Node17</title>
<g id="a_edge20_Node000016_Node000017"><a xlink:title=" ">
<path fill="none" stroke="#63b8ff" d="M278.49,-165.34C260.48,-157 233.48,-144.5 212.77,-134.91"/>
<polygon fill="#63b8ff" stroke="#63b8ff" points="214.52,-131.86 203.98,-130.84 211.58,-138.22 214.52,-131.86"/>
</a>
</g>
</g>
<!-- Node19 -->
<g id="Node000019" class="node">
<title>Node19</title>
<g id="a_Node000019"><a xlink:href="_collider_8hpp.html" target="_top" xlink:title="충돌 컴포넌트">
<polygon fill="white" stroke="#666666" points="585.5,-129.75 518.5,-129.75 518.5,-110.5 585.5,-110.5 585.5,-129.75"/>
<text text-anchor="middle" x="552" y="-116.25" font-family="Helvetica,sans-Serif" font-size="10.00">Collider.hpp</text>
</a>
</g>
</g>
<!-- Node16&#45;&gt;Node19 -->
<g id="edge24_Node000016_Node000019" class="edge">
<title>Node16&#45;&gt;Node19</title>
<g id="a_edge24_Node000016_Node000019"><a xlink:title=" ">
<path fill="none" stroke="#63b8ff" d="M341.38,-165.28C387.58,-155.59 460.38,-140.33 507.14,-130.53"/>
<polygon fill="#63b8ff" stroke="#63b8ff" points="507.6,-134.01 516.67,-128.53 506.16,-127.16 507.6,-134.01"/>
</a>
</g>
</g>
<!-- Node20 -->
<g id="Node000020" class="node">
<title>Node20</title>
<g id="a_Node000020"><a xlink:href="_sprite_8hpp.html" target="_top" xlink:title="스프라이트 컴포넌트">
<polygon fill="white" stroke="#666666" points="126.12,-129.75 65.88,-129.75 65.88,-110.5 126.12,-110.5 126.12,-129.75"/>
<text text-anchor="middle" x="96" y="-116.25" font-family="Helvetica,sans-Serif" font-size="10.00">Sprite.hpp</text>
</a>
</g>
</g>
<!-- Node16&#45;&gt;Node20 -->
<g id="edge26_Node000016_Node000020" class="edge">
<title>Node16&#45;&gt;Node20</title>
<g id="a_edge26_Node000016_Node000020"><a xlink:title=" ">
<path fill="none" stroke="#63b8ff" d="M263.73,-165.34C228.85,-156.15 174.73,-141.88 137.45,-132.05"/>
<polygon fill="#63b8ff" stroke="#63b8ff" points="138.49,-128.71 127.93,-129.54 136.7,-135.47 138.49,-128.71"/>
</a>
</g>
</g>
<!-- Node21 -->
<g id="Node000021" class="node">
<title>Node21</title>
<g id="a_Node000021"><a xlink:href="_position_8hpp.html" target="_top" xlink:title="위치 컴포넌트">
<polygon fill="white" stroke="#666666" points="500,-129.75 430,-129.75 430,-110.5 500,-110.5 500,-129.75"/>
<text text-anchor="middle" x="465" y="-116.25" font-family="Helvetica,sans-Serif" font-size="10.00">Position.hpp</text>
</a>
</g>
</g>
<!-- Node16&#45;&gt;Node21 -->
<g id="edge30_Node000016_Node000021" class="edge">
<title>Node16&#45;&gt;Node21</title>
<g id="a_edge30_Node000016_Node000021"><a xlink:title=" ">
<path fill="none" stroke="#63b8ff" d="M326.33,-165.34C353.68,-156.62 395.32,-143.34 425.84,-133.61"/>
<polygon fill="#63b8ff" stroke="#63b8ff" points="426.63,-137.03 435.09,-130.66 424.5,-130.37 426.63,-137.03"/>
</a>
</g>
</g>
<!-- Node22 -->
<g id="Node000022" class="node">
<title>Node22</title>
<g id="a_Node000022"><a xlink:href="_velocity_8hpp.html" target="_top" xlink:title="속도 컴포넌트">
<polygon fill="white" stroke="#666666" points="412.25,-129.75 343.75,-129.75 343.75,-110.5 412.25,-110.5 412.25,-129.75"/>
<text text-anchor="middle" x="378" y="-116.25" font-family="Helvetica,sans-Serif" font-size="10.00">Velocity.hpp</text>
</a>
</g>
</g>
<!-- Node16&#45;&gt;Node22 -->
<g id="edge32_Node000016_Node000022" class="edge">
<title>Node16&#45;&gt;Node22</title>
<g id="a_edge32_Node000016_Node000022"><a xlink:title=" ">
<path fill="none" stroke="#63b8ff" d="M311.57,-165.34C323.41,-157.46 340.84,-145.86 354.87,-136.52"/>
<polygon fill="#63b8ff" stroke="#63b8ff" points="356.72,-139.5 363.1,-131.04 352.84,-133.67 356.72,-139.5"/>
</a>
</g>
</g>
<!-- Node23 -->
<g id="Node000023" class="node">
<title>Node23</title>
<g id="a_Node000023"><a xlink:href="_player_state_8hpp.html" target="_top" xlink:title="플레이어 상태 컴포넌트 헤더">
<polygon fill="white" stroke="#666666" points="325.88,-129.75 240.12,-129.75 240.12,-110.5 325.88,-110.5 325.88,-129.75"/>
<text text-anchor="middle" x="283" y="-116.25" font-family="Helvetica,sans-Serif" font-size="10.00">PlayerState.hpp</text>
</a>
</g>
</g>
<!-- Node16&#45;&gt;Node23 -->
<g id="edge34_Node000016_Node000023" class="edge">
<title>Node16&#45;&gt;Node23</title>
<g id="a_edge34_Node000016_Node000023"><a xlink:title=" ">
<path fill="none" stroke="#63b8ff" d="M295.52,-165.58C293.65,-158.92 290.99,-149.49 288.61,-141.03"/>
<polygon fill="#63b8ff" stroke="#63b8ff" points="292.02,-140.24 285.94,-131.57 285.28,-142.14 292.02,-140.24"/>
</a>
</g>
</g>
<!-- Node17&#45;&gt;Node3 -->
<g id="edge22_Node000017_Node000003" class="edge">
<title>Node17&#45;&gt;Node3</title>
<g id="a_edge22_Node000017_Node000003"><a xlink:title=" ">
<path fill="none" stroke="#63b8ff" d="M187.29,-110.33C190.62,-103.51 195.36,-93.81 199.56,-85.2"/>
<polygon fill="#63b8ff" stroke="#63b8ff" points="202.71,-86.74 203.95,-76.22 196.42,-83.67 202.71,-86.74"/>
</a>
</g>
</g>
<!-- Node17&#45;&gt;Node11 -->
<g id="edge23_Node000017_Node000011" class="edge">
<title>Node17&#45;&gt;Node11</title>
<g id="a_edge23_Node000017_Node000011"><a xlink:title=" ">
<path fill="none" stroke="#63b8ff" d="M212.69,-110.09C241.47,-101.33 285.37,-87.98 317.38,-78.23"/>
<polygon fill="#63b8ff" stroke="#63b8ff" points="318.17,-81.65 326.72,-75.39 316.13,-74.96 318.17,-81.65"/>
</a>
</g>
</g>
<!-- Node18 -->
<g id="Node000018" class="node">
<title>Node18</title>
<g id="a_Node000018"><a xlink:title=" ">
<polygon fill="#e0e0e0" stroke="#999999" points="169.5,-74.5 66.5,-74.5 66.5,-55.25 169.5,-55.25 169.5,-74.5"/>
<text text-anchor="middle" x="118" y="-61" font-family="Helvetica,sans-Serif" font-size="10.00">SFML/Graphics.hpp</text>
</a>
</g>
</g>
<!-- Node17&#45;&gt;Node18 -->
<g id="edge21_Node000017_Node000018" class="edge">
<title>Node17&#45;&gt;Node18</title>
<g id="a_edge21_Node000017_Node000018"><a xlink:title=" ">
<path fill="none" stroke="#63b8ff" d="M171.97,-110.09C162.58,-102.4 148.85,-91.15 137.59,-81.93"/>
<polygon fill="#63b8ff" stroke="#63b8ff" points="139.99,-79.36 130.03,-75.73 135.55,-84.78 139.99,-79.36"/>
</a>
</g>
</g>
<!-- Node19&#45;&gt;Node11 -->
<g id="edge25_Node000019_Node000011" class="edge">
<title>Node19&#45;&gt;Node11</title>
<g id="a_edge25_Node000019_Node000011"><a xlink:title=" ">
<path fill="none" stroke="#63b8ff" d="M519.09,-110.09C486.9,-101.26 437.66,-87.74 402.1,-77.98"/>
<polygon fill="#63b8ff" stroke="#63b8ff" points="403.1,-74.62 392.53,-75.35 401.25,-81.38 403.1,-74.62"/>
</a>
</g>
</g>
<!-- Node20&#45;&gt;Node2 -->
<g id="edge28_Node000020_Node000002" class="edge">
<title>Node20&#45;&gt;Node2</title>
<g id="a_edge28_Node000020_Node000002"><a xlink:title=" ">
<path fill="none" stroke="#63b8ff" d="M83.37,-110.01C66.84,-96.99 41.66,-72.73 57,-55.25 76.82,-32.67 276.34,-18 360.68,-12.77"/>
<polygon fill="#63b8ff" stroke="#63b8ff" points="360.74,-16.28 370.51,-12.17 360.32,-9.29 360.74,-16.28"/>
</a>
</g>
</g>
<!-- Node20&#45;&gt;Node11 -->
<g id="edge29_Node000020_Node000011" class="edge">
<title>Node20&#45;&gt;Node11</title>
<g id="a_edge29_Node000020_Node000011"><a xlink:title=" ">
<path fill="none" stroke="#63b8ff" d="M126.22,-112.38C129.19,-111.74 132.15,-111.1 135,-110.5 191.1,-98.69 255.3,-85.92 300.36,-77.08"/>
<polygon fill="#63b8ff" stroke="#63b8ff" points="300.76,-80.57 309.9,-75.21 299.42,-73.7 300.76,-80.57"/>
</a>
</g>
</g>
<!-- Node20&#45;&gt;Node18 -->
<g id="edge27_Node000020_Node000018" class="edge">
<title>Node20&#45;&gt;Node18</title>
<g id="a_edge27_Node000020_Node000018"><a xlink:title=" ">
<path fill="none" stroke="#63b8ff" d="M99.63,-110.33C102.42,-103.59 106.37,-94.02 109.9,-85.49"/>
<polygon fill="#63b8ff" stroke="#63b8ff" points="113.13,-86.84 113.71,-76.26 106.66,-84.16 113.13,-86.84"/>
</a>
</g>
</g>
<!-- Node21&#45;&gt;Node11 -->
<g id="edge31_Node000021_Node000011" class="edge">
<title>Node21&#45;&gt;Node11</title>
<g id="a_edge31_Node000021_Node000011"><a xlink:title=" ">
<path fill="none" stroke="#63b8ff" d="M446.85,-110.09C430.32,-101.87 405.66,-89.59 386.5,-80.06"/>
<polygon fill="#63b8ff" stroke="#63b8ff" points="388.11,-76.95 377.6,-75.63 384.99,-83.22 388.11,-76.95"/>
</a>
</g>
</g>
<!-- Node22&#45;&gt;Node11 -->
<g id="edge33_Node000022_Node000011" class="edge">
<title>Node22&#45;&gt;Node11</title>
<g id="a_edge33_Node000022_Node000011"><a xlink:title=" ">
<path fill="none" stroke="#63b8ff" d="M374.7,-110.33C372.17,-103.59 368.57,-94.02 365.37,-85.49"/>
<polygon fill="#63b8ff" stroke="#63b8ff" points="368.7,-84.41 361.91,-76.28 362.15,-86.87 368.7,-84.41"/>
</a>
</g>
</g>
<!-- Node23&#45;&gt;Node10 -->
<g id="edge35_Node000023_Node000010" class="edge">
<title>Node23&#45;&gt;Node10</title>
<g id="a_edge35_Node000023_Node000010"><a xlink:title=" ">
<path fill="none" stroke="#63b8ff" d="M278.75,-110.38C272.79,-96.72 264.14,-70.31 278,-55.25 312.04,-18.27 667.41,-11.93 780.58,-10.85"/>
<polygon fill="#63b8ff" stroke="#63b8ff" points="780.48,-14.35 790.45,-10.76 780.42,-7.35 780.48,-14.35"/>
</a>
</g>
</g>
<!-- Node23&#45;&gt;Node11 -->
<g id="edge36_Node000023_Node000011" class="edge">
<title>Node23&#45;&gt;Node11</title>
<g id="a_edge36_Node000023_Node000011"><a xlink:title=" ">
<path fill="none" stroke="#63b8ff" d="M295.72,-110.09C306.71,-102.29 322.84,-90.84 335.93,-81.54"/>
<polygon fill="#63b8ff" stroke="#63b8ff" points="337.85,-84.47 343.98,-75.83 333.8,-78.76 337.85,-84.47"/>
</a>
</g>
</g>
<!-- Node25 -->
<g id="Node000025" class="node">
<title>Node25</title>
<g id="a_Node000025"><a xlink:href="_movement_8hpp.html" target="_top" xlink:title="이동 시스템 헤더">
<polygon fill="white" stroke="#666666" points="736.5,-240.25 615.5,-240.25 615.5,-221 736.5,-221 736.5,-240.25"/>
<text text-anchor="middle" x="676" y="-226.75" font-family="Helvetica,sans-Serif" font-size="10.00">systems/Movement.hpp</text>
</a>
</g>
</g>
<!-- Node24&#45;&gt;Node25 -->
<g id="edge38_Node000024_Node000025" class="edge">
<title>Node24&#45;&gt;Node25</title>
<g id="a_edge38_Node000024_Node000025"><a xlink:title=" ">
<path fill="none" stroke="#63b8ff" d="M561.41,-275.84C583.52,-267.31 616.92,-254.42 641.97,-244.76"/>
<polygon fill="#63b8ff" stroke="#63b8ff" points="642.99,-248.11 651.06,-241.25 640.47,-241.58 642.99,-248.11"/>
</a>
</g>
</g>
<!-- Node27 -->
<g id="Node000027" class="node">
<title>Node27</title>
<g id="a_Node000027"><a xlink:href="_rendering_8hpp.html" target="_top" xlink:title="렌더링 시스템 헤더">
<polygon fill="white" stroke="#666666" points="597.75,-240.25 478.25,-240.25 478.25,-221 597.75,-221 597.75,-240.25"/>
<text text-anchor="middle" x="538" y="-226.75" font-family="Helvetica,sans-Serif" font-size="10.00">systems/Rendering.hpp</text>
</a>
</g>
</g>
<!-- Node24&#45;&gt;Node27 -->
<g id="edge41_Node000024_Node000027" class="edge">
<title>Node24&#45;&gt;Node27</title>
<g id="a_edge41_Node000024_Node000027"><a xlink:title=" ">
<path fill="none" stroke="#63b8ff" d="M538,-276.08C538,-269.57 538,-260.42 538,-252.12"/>
<polygon fill="#63b8ff" stroke="#63b8ff" points="541.5,-252.12 538,-242.12 534.5,-252.12 541.5,-252.12"/>
</a>
</g>
</g>
<!-- Node28 -->
<g id="Node000028" class="node">
<title>Node28</title>
<g id="a_Node000028"><a xlink:href="_animating_8hpp.html" target="_top" xlink:title="애니메이션 시스템 헤더">
<polygon fill="white" stroke="#666666" points="873.38,-240.25 754.62,-240.25 754.62,-221 873.38,-221 873.38,-240.25"/>
<text text-anchor="middle" x="814" y="-226.75" font-family="Helvetica,sans-Serif" font-size="10.00">systems/Animating.hpp</text>
</a>
</g>
</g>
<!-- Node24&#45;&gt;Node28 -->
<g id="edge43_Node000024_Node000028" class="edge">
<title>Node24&#45;&gt;Node28</title>
<g id="a_edge43_Node000024_Node000028"><a xlink:title=" ">
<path fill="none" stroke="#63b8ff" d="M585.13,-275.78C632.37,-266.67 705.17,-252.62 755.94,-242.83"/>
<polygon fill="#63b8ff" stroke="#63b8ff" points="756.42,-246.3 765.58,-240.97 755.09,-239.43 756.42,-246.3"/>
</a>
</g>
</g>
<!-- Node29 -->
<g id="Node000029" class="node">
<title>Node29</title>
<g id="a_Node000029"><a xlink:href="_collision_8hpp.html" target="_top" xlink:title="충돌 시스템 헤더">
<polygon fill="white" stroke="#666666" points="460.38,-240.25 347.62,-240.25 347.62,-221 460.38,-221 460.38,-240.25"/>
<text text-anchor="middle" x="404" y="-226.75" font-family="Helvetica,sans-Serif" font-size="10.00">systems/Collision.hpp</text>
</a>
</g>
</g>
<!-- Node24&#45;&gt;Node29 -->
<g id="edge47_Node000024_Node000029" class="edge">
<title>Node24&#45;&gt;Node29</title>
<g id="a_edge47_Node000024_Node000029"><a xlink:title=" ">
<path fill="none" stroke="#63b8ff" d="M515.27,-275.84C493.9,-267.35 461.66,-254.54 437.37,-244.89"/>
<polygon fill="#63b8ff" stroke="#63b8ff" points="438.84,-241.7 428.25,-241.26 436.25,-248.21 438.84,-241.7"/>
</a>
</g>
</g>
<!-- Node26 -->
<g id="Node000026" class="node">
<title>Node26</title>
<g id="a_Node000026"><a xlink:href="_system_8hpp.html" target="_top" xlink:title="시스템 베이스 클래스">
<polygon fill="white" stroke="#666666" points="593.25,-185 524.75,-185 524.75,-165.75 593.25,-165.75 593.25,-185"/>
<text text-anchor="middle" x="559" y="-171.5" font-family="Helvetica,sans-Serif" font-size="10.00">System.hpp</text>
</a>
</g>
</g>
<!-- Node25&#45;&gt;Node26 -->
<g id="edge39_Node000025_Node000026" class="edge">
<title>Node25&#45;&gt;Node26</title>
<g id="a_edge39_Node000025_Node000026"><a xlink:title=" ">
<path fill="none" stroke="#63b8ff" d="M656.15,-220.59C637.83,-212.25 610.35,-199.75 589.29,-190.16"/>
<polygon fill="#63b8ff" stroke="#63b8ff" points="590.87,-187.04 580.32,-186.08 587.97,-193.41 590.87,-187.04"/>
</a>
</g>
</g>
<!-- Node26&#45;&gt;Node4 -->
<g id="edge40_Node000026_Node000004" class="edge">
<title>Node26&#45;&gt;Node4</title>
<g id="a_edge40_Node000026_Node000004"><a xlink:title=" ">
<path fill="none" stroke="#63b8ff" d="M582.07,-165.34C603.76,-156.85 636.48,-144.04 661.13,-134.39"/>
<polygon fill="#63b8ff" stroke="#63b8ff" points="662.37,-137.66 670.41,-130.75 659.82,-131.14 662.37,-137.66"/>
</a>
</g>
</g>
<!-- Node27&#45;&gt;Node26 -->
<g id="edge42_Node000027_Node000026" class="edge">
<title>Node27&#45;&gt;Node26</title>
<g id="a_edge42_Node000027_Node000026"><a xlink:title=" ">
<path fill="none" stroke="#63b8ff" d="M541.47,-220.83C544.13,-214.09 547.9,-204.52 551.26,-195.99"/>
<polygon fill="#63b8ff" stroke="#63b8ff" points="554.49,-197.35 554.9,-186.77 547.98,-194.79 554.49,-197.35"/>
</a>
</g>
</g>
<!-- Node28&#45;&gt;Node5 -->
<g id="edge44_Node000028_Node000005" class="edge">
<title>Node28&#45;&gt;Node5</title>
<g id="a_edge44_Node000028_Node000005"><a xlink:title=" ">
<path fill="none" stroke="#63b8ff" d="M798.53,-220.57C762.99,-199.91 672.52,-148.17 594,-110.5 570.35,-99.15 543.05,-87.7 522.08,-79.23"/>
<polygon fill="#63b8ff" stroke="#63b8ff" points="523.44,-76.01 512.85,-75.54 520.84,-82.51 523.44,-76.01"/>
</a>
</g>
</g>
<!-- Node28&#45;&gt;Node10 -->
<g id="edge45_Node000028_Node000010" class="edge">
<title>Node28&#45;&gt;Node10</title>
<g id="a_edge45_Node000028_Node000010"><a xlink:title=" ">
<path fill="none" stroke="#63b8ff" d="M818.33,-220.75C830.4,-194.82 862.33,-117.1 844,-55.25 841.19,-45.76 835.66,-36.41 830.17,-28.73"/>
<polygon fill="#63b8ff" stroke="#63b8ff" points="833.03,-26.7 824.14,-20.93 827.49,-30.99 833.03,-26.7"/>
</a>
</g>
</g>
<!-- Node28&#45;&gt;Node26 -->
<g id="edge46_Node000028_Node000026" class="edge">
<title>Node28&#45;&gt;Node26</title>
<g id="a_edge46_Node000028_Node000026"><a xlink:title=" ">
<path fill="none" stroke="#63b8ff" d="M770.45,-220.53C724.2,-210.87 651.4,-195.67 604.43,-185.86"/>
<polygon fill="#63b8ff" stroke="#63b8ff" points="605.36,-182.48 594.86,-183.86 603.93,-189.33 605.36,-182.48"/>
</a>
</g>
</g>
<!-- Node29&#45;&gt;Node19 -->
<g id="edge49_Node000029_Node000019" class="edge">
<title>Node29&#45;&gt;Node19</title>
<g id="a_edge49_Node000029_Node000019"><a xlink:title=" ">
<path fill="none" stroke="#63b8ff" d="M416.36,-220.56C441.56,-202.09 499.14,-159.88 530.57,-136.84"/>
<polygon fill="#63b8ff" stroke="#63b8ff" points="532.56,-139.72 538.55,-130.98 528.42,-134.07 532.56,-139.72"/>
</a>
</g>
</g>
<!-- Node29&#45;&gt;Node21 -->
<g id="edge50_Node000029_Node000021" class="edge">
<title>Node29&#45;&gt;Node21</title>
<g id="a_edge50_Node000029_Node000021"><a xlink:title=" ">
<path fill="none" stroke="#63b8ff" d="M408.99,-220.75C418.87,-203.18 441.09,-163.66 454.38,-140.02"/>
<polygon fill="#63b8ff" stroke="#63b8ff" points="457.35,-141.88 459.2,-131.45 451.25,-138.45 457.35,-141.88"/>
</a>
</g>
</g>
<!-- Node29&#45;&gt;Node26 -->
<g id="edge48_Node000029_Node000026" class="edge">
<title>Node29&#45;&gt;Node26</title>
<g id="a_edge48_Node000029_Node000026"><a xlink:title=" ">
<path fill="none" stroke="#63b8ff" d="M430.29,-220.59C455.46,-211.95 493.65,-198.82 521.91,-189.12"/>
<polygon fill="#63b8ff" stroke="#63b8ff" points="522.83,-192.5 531.15,-185.94 520.55,-185.88 522.83,-192.5"/>
</a>
</g>
</g>
</g>
</svg>
