<?xml version="1.0" encoding="UTF-8" standalone="no"?>
<!DOCTYPE svg PUBLIC "-//W3C//DTD SVG 1.1//EN"
 "http://www.w3.org/Graphics/SVG/1.1/DTD/svg11.dtd">
<!-- Generated by graphviz version 12.2.1 (20241206.2353)
 -->
<!-- Title: MIR::System Pages: 1 -->
<svg width="396pt" height="83pt"
 viewBox="0.00 0.00 395.62 82.50" xmlns="http://www.w3.org/2000/svg" xmlns:xlink="http://www.w3.org/1999/xlink">
<g id="graph0" class="graph" transform="scale(1 1) rotate(0) translate(4 78.5)">
<title>MIR::System</title>
<!-- Node1 -->
<g id="Node000001" class="node">
<title>Node1</title>
<g id="a_Node000001"><a xlink:title="ECS 아키텍처에서 시스템을 나타내는 추상 클래스">
<polygon fill="#999999" stroke="#666666" points="228.38,-74.5 153.88,-74.5 153.88,-55.25 228.38,-55.25 228.38,-74.5"/>
<text text-anchor="middle" x="191.12" y="-61" font-family="Helvetica,sans-Serif" font-size="10.00">MIR::System</text>
</a>
</g>
</g>
<!-- Node2 -->
<g id="Node000002" class="node">
<title>Node2</title>
<g id="a_Node000002"><a xlink:href="class_m_i_r_1_1_animating.html" target="_top" xlink:title="엔티티 애니메이션 상태를 업데이트하는 시스템 클래스">
<polygon fill="white" stroke="#666666" points="84.25,-19.25 0,-19.25 0,0 84.25,0 84.25,-19.25"/>
<text text-anchor="middle" x="42.12" y="-5.75" font-family="Helvetica,sans-Serif" font-size="10.00">MIR::Animating</text>
</a>
</g>
</g>
<!-- Node1&#45;&gt;Node2 -->
<g id="edge1_Node000001_Node000002" class="edge">
<title>Node1&#45;&gt;Node2</title>
<g id="a_edge1_Node000001_Node000002"><a xlink:title=" ">
<path fill="none" stroke="#63b8ff" d="M155.25,-51.05C128.16,-41.37 91.65,-28.32 67.52,-19.7"/>
<polygon fill="#63b8ff" stroke="#63b8ff" points="153.83,-54.26 164.42,-54.33 156.19,-47.67 153.83,-54.26"/>
</a>
</g>
</g>
<!-- Node3 -->
<g id="Node000003" class="node">
<title>Node3</title>
<g id="a_Node000003"><a xlink:href="class_m_i_r_1_1_collision.html" target="_top" xlink:title="엔티티 간 충돌을 감지하고 처리하는 시스템 클래스">
<polygon fill="white" stroke="#666666" points="180.25,-19.25 102,-19.25 102,0 180.25,0 180.25,-19.25"/>
<text text-anchor="middle" x="141.12" y="-5.75" font-family="Helvetica,sans-Serif" font-size="10.00">MIR::Collision</text>
</a>
</g>
</g>
<!-- Node1&#45;&gt;Node3 -->
<g id="edge2_Node000001_Node000003" class="edge">
<title>Node1&#45;&gt;Node3</title>
<g id="a_edge2_Node000001_Node000003"><a xlink:title=" ">
<path fill="none" stroke="#63b8ff" d="M175.08,-46.79C166.6,-37.75 156.52,-27.02 149.56,-19.61"/>
<polygon fill="#63b8ff" stroke="#63b8ff" points="172.44,-49.08 181.83,-53.98 177.54,-44.29 172.44,-49.08"/>
</a>
</g>
</g>
<!-- Node4 -->
<g id="Node000004" class="node">
<title>Node4</title>
<g id="a_Node000004"><a xlink:href="class_m_i_r_1_1_movement.html" target="_top" xlink:title="엔티티 이동 로직을 담당하는 시스템 클래스">
<polygon fill="white" stroke="#666666" points="284.38,-19.25 197.88,-19.25 197.88,0 284.38,0 284.38,-19.25"/>
<text text-anchor="middle" x="241.12" y="-5.75" font-family="Helvetica,sans-Serif" font-size="10.00">MIR::Movement</text>
</a>
</g>
</g>
<!-- Node1&#45;&gt;Node4 -->
<g id="edge3_Node000001_Node000004" class="edge">
<title>Node1&#45;&gt;Node4</title>
<g id="a_edge3_Node000001_Node000004"><a xlink:title=" ">
<path fill="none" stroke="#63b8ff" d="M207.17,-46.79C215.65,-37.75 225.73,-27.02 232.69,-19.61"/>
<polygon fill="#63b8ff" stroke="#63b8ff" points="204.71,-44.29 200.42,-53.98 209.81,-49.08 204.71,-44.29"/>
</a>
</g>
</g>
<!-- Node5 -->
<g id="Node000005" class="node">
<title>Node5</title>
<g id="a_Node000005"><a xlink:href="class_m_i_r_1_1_rendering.html" target="_top" xlink:title="엔티티의 그래픽 렌더링을 담당하는 시스템 클래스">
<polygon fill="white" stroke="#666666" points="387.62,-19.25 302.62,-19.25 302.62,0 387.62,0 387.62,-19.25"/>
<text text-anchor="middle" x="345.12" y="-5.75" font-family="Helvetica,sans-Serif" font-size="10.00">MIR::Rendering</text>
</a>
</g>
</g>
<!-- Node1&#45;&gt;Node5 -->
<g id="edge4_Node000001_Node000005" class="edge">
<title>Node1&#45;&gt;Node5</title>
<g id="a_edge4_Node000001_Node000005"><a xlink:title=" ">
<path fill="none" stroke="#63b8ff" d="M227.84,-51.18C255.87,-41.49 293.83,-28.36 318.87,-19.7"/>
<polygon fill="#63b8ff" stroke="#63b8ff" points="226.99,-47.77 218.68,-54.35 229.27,-54.39 226.99,-47.77"/>
</a>
</g>
</g>
</g>
</svg>
