<?xml version="1.0" encoding="UTF-8" standalone="no"?>
<!DOCTYPE svg PUBLIC "-//W3C//DTD SVG 1.1//EN"
 "http://www.w3.org/Graphics/SVG/1.1/DTD/svg11.dtd">
<!-- Generated by graphviz version 12.2.1 (20241206.2353)
 -->
<!-- Title: 그래픽컬한 클래스 계통도 Pages: 1 -->
<svg width="214pt" height="64pt"
 viewBox="0.00 0.00 214.00 64.25" xmlns="http://www.w3.org/2000/svg" xmlns:xlink="http://www.w3.org/1999/xlink">
<g id="graph0" class="graph" transform="scale(1 1) rotate(0) translate(4 60.25)">
<title>그래픽컬한 클래스 계통도</title>
<!-- Node0 -->
<g id="Node000000" class="node">
<title>Node0</title>
<g id="a_Node000000"><a xlink:href="struct_m_i_r_1_1_event.html" target="_top" xlink:title="모든 이벤트의 기본 구조체">
<polygon fill="white" stroke="#666666" points="66.25,-37.25 0,-37.25 0,-18 66.25,-18 66.25,-37.25"/>
<text text-anchor="middle" x="33.12" y="-23.75" font-family="Helvetica,sans-Serif" font-size="10.00">MIR::Event</text>
</a>
</g>
</g>
<!-- Node1 -->
<g id="Node000001" class="node">
<title>Node1</title>
<g id="a_Node000001"><a xlink:href="struct_m_i_r_1_1_keyboard.html" target="_top" xlink:title="키보드 입력 이벤트를 나타내는 구조체">
<polygon fill="white" stroke="#666666" points="195.12,-56.25 113.12,-56.25 113.12,-37 195.12,-37 195.12,-56.25"/>
<text text-anchor="middle" x="154.12" y="-42.75" font-family="Helvetica,sans-Serif" font-size="10.00">MIR::Keyboard</text>
</a>
</g>
</g>
<!-- Node0&#45;&gt;Node1 -->
<g id="edge8_Node000000_Node000001" class="edge">
<title>Node0&#45;&gt;Node1</title>
<g id="a_edge8_Node000000_Node000001"><a xlink:title=" ">
<path fill="none" stroke="#63b8ff" d="M77.8,-34.6C89.32,-36.44 101.69,-38.41 113,-40.22"/>
<polygon fill="#63b8ff" stroke="#63b8ff" points="78.56,-31.18 68.14,-33.06 77.46,-38.09 78.56,-31.18"/>
</a>
</g>
</g>
<!-- Node2 -->
<g id="Node000002" class="node">
<title>Node2</title>
<g id="a_Node000002"><a xlink:href="struct_m_i_r_1_1_player_collided.html" target="_top" xlink:title="플레이어 충돌 발생 시점을 나타내는 이벤트 구조체">
<polygon fill="white" stroke="#666666" points="206,-19.25 102.25,-19.25 102.25,0 206,0 206,-19.25"/>
<text text-anchor="middle" x="154.12" y="-5.75" font-family="Helvetica,sans-Serif" font-size="10.00">MIR::PlayerCollided</text>
</a>
</g>
</g>
<!-- Node0&#45;&gt;Node2 -->
<g id="edge9_Node000000_Node000002" class="edge">
<title>Node0&#45;&gt;Node2</title>
<g id="a_edge9_Node000000_Node000002"><a xlink:title=" ">
<path fill="none" stroke="#63b8ff" d="M77.77,-21.02C85.6,-19.84 93.83,-18.59 101.86,-17.38"/>
<polygon fill="#63b8ff" stroke="#63b8ff" points="77.5,-17.52 68.14,-22.48 78.55,-24.45 77.5,-17.52"/>
</a>
</g>
</g>
</g>
</svg>
