<?xml version="1.0" encoding="UTF-8" standalone="no"?>
<!DOCTYPE svg PUBLIC "-//W3C//DTD SVG 1.1//EN"
 "http://www.w3.org/Graphics/SVG/1.1/DTD/svg11.dtd">
<!-- Generated by graphviz version 12.2.1 (20241206.2353)
 -->
<!-- Title: 그래픽컬한 클래스 계통도 Pages: 1 -->
<svg width="205pt" height="138pt"
 viewBox="0.00 0.00 205.00 138.25" xmlns="http://www.w3.org/2000/svg" xmlns:xlink="http://www.w3.org/1999/xlink">
<g id="graph0" class="graph" transform="scale(1 1) rotate(0) translate(4 134.25)">
<title>그래픽컬한 클래스 계통도</title>
<!-- Node0 -->
<g id="Node000000" class="node">
<title>Node0</title>
<g id="a_Node000000"><a xlink:href="class_m_i_r_1_1_system.html" target="_top" xlink:title="ECS 아키텍처에서 시스템을 나타내는 추상 클래스">
<polygon fill="white" stroke="#666666" points="74.5,-74.25 0,-74.25 0,-55 74.5,-55 74.5,-74.25"/>
<text text-anchor="middle" x="37.25" y="-60.75" font-family="Helvetica,sans-Serif" font-size="10.00">MIR::System</text>
</a>
</g>
</g>
<!-- Node1 -->
<g id="Node000001" class="node">
<title>Node1</title>
<g id="a_Node000001"><a xlink:href="class_m_i_r_1_1_animating.html" target="_top" xlink:title="엔티티 애니메이션 상태를 업데이트하는 시스템 클래스">
<polygon fill="white" stroke="#666666" points="195.88,-130.25 111.62,-130.25 111.62,-111 195.88,-111 195.88,-130.25"/>
<text text-anchor="middle" x="153.75" y="-116.75" font-family="Helvetica,sans-Serif" font-size="10.00">MIR::Animating</text>
</a>
</g>
</g>
<!-- Node0&#45;&gt;Node1 -->
<g id="edge11_Node000000_Node000001" class="edge">
<title>Node0&#45;&gt;Node1</title>
<g id="a_edge11_Node000000_Node000001"><a xlink:title=" ">
<path fill="none" stroke="#63b8ff" d="M66.39,-80.11C79.65,-87.22 95.75,-95.62 110.5,-102.62 116.26,-105.36 122.55,-108.15 128.47,-110.68"/>
<polygon fill="#63b8ff" stroke="#63b8ff" points="68.24,-77.13 57.78,-75.45 64.91,-83.29 68.24,-77.13"/>
</a>
</g>
</g>
<!-- Node2 -->
<g id="Node000002" class="node">
<title>Node2</title>
<g id="a_Node000002"><a xlink:href="class_m_i_r_1_1_collision.html" target="_top" xlink:title="엔티티 간 충돌을 감지하고 처리하는 시스템 클래스">
<polygon fill="white" stroke="#666666" points="192.88,-93.25 114.62,-93.25 114.62,-74 192.88,-74 192.88,-93.25"/>
<text text-anchor="middle" x="153.75" y="-79.75" font-family="Helvetica,sans-Serif" font-size="10.00">MIR::Collision</text>
</a>
</g>
</g>
<!-- Node0&#45;&gt;Node2 -->
<g id="edge12_Node000000_Node000002" class="edge">
<title>Node0&#45;&gt;Node2</title>
<g id="a_edge12_Node000000_Node000002"><a xlink:title=" ">
<path fill="none" stroke="#63b8ff" d="M86.01,-72.55C95.4,-74.11 105.14,-75.72 114.19,-77.23"/>
<polygon fill="#63b8ff" stroke="#63b8ff" points="86.72,-69.12 76.29,-70.94 85.58,-76.03 86.72,-69.12"/>
</a>
</g>
</g>
<!-- Node3 -->
<g id="Node000003" class="node">
<title>Node3</title>
<g id="a_Node000003"><a xlink:href="class_m_i_r_1_1_movement.html" target="_top" xlink:title="엔티티 이동 로직을 담당하는 시스템 클래스">
<polygon fill="white" stroke="#666666" points="197,-56.25 110.5,-56.25 110.5,-37 197,-37 197,-56.25"/>
<text text-anchor="middle" x="153.75" y="-42.75" font-family="Helvetica,sans-Serif" font-size="10.00">MIR::Movement</text>
</a>
</g>
</g>
<!-- Node0&#45;&gt;Node3 -->
<g id="edge13_Node000000_Node000003" class="edge">
<title>Node0&#45;&gt;Node3</title>
<g id="a_edge13_Node000000_Node000003"><a xlink:title=" ">
<path fill="none" stroke="#63b8ff" d="M85.92,-57.13C93.96,-55.87 102.27,-54.56 110.17,-53.32"/>
<polygon fill="#63b8ff" stroke="#63b8ff" points="85.62,-53.63 76.29,-58.65 86.71,-60.55 85.62,-53.63"/>
</a>
</g>
</g>
<!-- Node4 -->
<g id="Node000004" class="node">
<title>Node4</title>
<g id="a_Node000004"><a xlink:href="class_m_i_r_1_1_rendering.html" target="_top" xlink:title="엔티티의 그래픽 렌더링을 담당하는 시스템 클래스">
<polygon fill="white" stroke="#666666" points="196.25,-19.25 111.25,-19.25 111.25,0 196.25,0 196.25,-19.25"/>
<text text-anchor="middle" x="153.75" y="-5.75" font-family="Helvetica,sans-Serif" font-size="10.00">MIR::Rendering</text>
</a>
</g>
</g>
<!-- Node0&#45;&gt;Node4 -->
<g id="edge14_Node000000_Node000004" class="edge">
<title>Node0&#45;&gt;Node4</title>
<g id="a_edge14_Node000000_Node000004"><a xlink:title=" ">
<path fill="none" stroke="#63b8ff" d="M66.98,-49.32C80.14,-42.47 96,-34.42 110.5,-27.62 116.28,-24.92 122.57,-22.15 128.49,-19.61"/>
<polygon fill="#63b8ff" stroke="#63b8ff" points="65.65,-46.07 58.42,-53.81 68.91,-52.27 65.65,-46.07"/>
</a>
</g>
</g>
</g>
</svg>
