<?xml version="1.0" encoding="UTF-8" standalone="no"?>
<!DOCTYPE svg PUBLIC "-//W3C//DTD SVG 1.1//EN"
 "http://www.w3.org/Graphics/SVG/1.1/DTD/svg11.dtd">
<!-- Generated by graphviz version 12.2.1 (20241206.2353)
 -->
<!-- Title: MIR::Event Pages: 1 -->
<svg width="212pt" height="83pt"
 viewBox="0.00 0.00 211.88 82.50" xmlns="http://www.w3.org/2000/svg" xmlns:xlink="http://www.w3.org/1999/xlink">
<g id="graph0" class="graph" transform="scale(1 1) rotate(0) translate(4 78.5)">
<title>MIR::Event</title>
<!-- Node1 -->
<g id="Node000001" class="node">
<title>Node1</title>
<g id="a_Node000001"><a xlink:title="모든 이벤트의 기본 구조체">
<polygon fill="#999999" stroke="#666666" points="129.12,-74.5 62.88,-74.5 62.88,-55.25 129.12,-55.25 129.12,-74.5"/>
<text text-anchor="middle" x="96" y="-61" font-family="Helvetica,sans-Serif" font-size="10.00">MIR::Event</text>
</a>
</g>
</g>
<!-- Node2 -->
<g id="Node000002" class="node">
<title>Node2</title>
<g id="a_Node000002"><a xlink:href="struct_m_i_r_1_1_keyboard.html" target="_top" xlink:title="키보드 입력 이벤트를 나타내는 구조체">
<polygon fill="white" stroke="#666666" points="82,-19.25 0,-19.25 0,0 82,0 82,-19.25"/>
<text text-anchor="middle" x="41" y="-5.75" font-family="Helvetica,sans-Serif" font-size="10.00">MIR::Keyboard</text>
</a>
</g>
</g>
<!-- Node1&#45;&gt;Node2 -->
<g id="edge1_Node000001_Node000002" class="edge">
<title>Node1&#45;&gt;Node2</title>
<g id="a_edge1_Node000001_Node000002"><a xlink:title=" ">
<path fill="none" stroke="#63b8ff" d="M78.65,-47.07C69.25,-37.98 58.02,-27.1 50.28,-19.61"/>
<polygon fill="#63b8ff" stroke="#63b8ff" points="76.21,-49.59 85.83,-54.03 81.08,-44.56 76.21,-49.59"/>
</a>
</g>
</g>
<!-- Node3 -->
<g id="Node000003" class="node">
<title>Node3</title>
<g id="a_Node000003"><a xlink:href="struct_m_i_r_1_1_player_collided.html" target="_top" xlink:title="플레이어 충돌 발생 시점을 나타내는 이벤트 구조체">
<polygon fill="white" stroke="#666666" points="203.88,-19.25 100.12,-19.25 100.12,0 203.88,0 203.88,-19.25"/>
<text text-anchor="middle" x="152" y="-5.75" font-family="Helvetica,sans-Serif" font-size="10.00">MIR::PlayerCollided</text>
</a>
</g>
</g>
<!-- Node1&#45;&gt;Node3 -->
<g id="edge2_Node000001_Node000003" class="edge">
<title>Node1&#45;&gt;Node3</title>
<g id="a_edge2_Node000001_Node000003"><a xlink:title=" ">
<path fill="none" stroke="#63b8ff" d="M113.63,-47.11C123.24,-37.97 134.75,-27.03 142.64,-19.52"/>
<polygon fill="#63b8ff" stroke="#63b8ff" points="111.43,-44.37 106.6,-53.8 116.26,-49.44 111.43,-44.37"/>
</a>
</g>
</g>
</g>
</svg>
