<?xml version="1.0" encoding="UTF-8" standalone="no"?>
<!DOCTYPE svg PUBLIC "-//W3C//DTD SVG 1.1//EN"
 "http://www.w3.org/Graphics/SVG/1.1/DTD/svg11.dtd">
<!-- Generated by graphviz version 12.2.1 (20241206.2353)
 -->
<!-- Title: MIR::Component Pages: 1 -->
<svg width="227pt" height="249pt"
 viewBox="0.00 0.00 226.75 249.25" xmlns="http://www.w3.org/2000/svg" xmlns:xlink="http://www.w3.org/1999/xlink">
<g id="graph0" class="graph" transform="scale(1 1) rotate(0) translate(4 245.25)">
<title>MIR::Component</title>
<!-- Node1 -->
<g id="Node000001" class="node">
<title>Node1</title>
<g id="a_Node000001"><a xlink:title="모든 컴포넌트의 기본 클래스">
<polygon fill="#999999" stroke="#666666" points="91,-130.25 0,-130.25 0,-111 91,-111 91,-130.25"/>
<text text-anchor="middle" x="45.5" y="-116.75" font-family="Helvetica,sans-Serif" font-size="10.00">MIR::Component</text>
</a>
</g>
</g>
<!-- Node2 -->
<g id="Node000002" class="node">
<title>Node2</title>
<g id="a_Node000002"><a xlink:href="struct_m_i_r_1_1_animation.html" target="_top" xlink:title="애니메이션 데이터를 관리하는 컴포넌트 구조체">
<polygon fill="white" stroke="#666666" points="215,-241.25 130.75,-241.25 130.75,-222 215,-222 215,-241.25"/>
<text text-anchor="middle" x="172.88" y="-227.75" font-family="Helvetica,sans-Serif" font-size="10.00">MIR::Animation</text>
</a>
</g>
</g>
<!-- Node1&#45;&gt;Node2 -->
<g id="edge1_Node000001_Node000002" class="edge">
<title>Node1&#45;&gt;Node2</title>
<g id="a_edge1_Node000001_Node000002"><a xlink:title=" ">
<path fill="none" stroke="#63b8ff" d="M59.1,-140.05C73.39,-160.75 98.44,-193.26 127,-213.62 131.37,-216.74 136.37,-219.43 141.39,-221.7"/>
<polygon fill="#63b8ff" stroke="#63b8ff" points="62.14,-138.3 53.66,-131.95 56.33,-142.2 62.14,-138.3"/>
</a>
</g>
</g>
<!-- Node3 -->
<g id="Node000003" class="node">
<title>Node3</title>
<g id="a_Node000003"><a xlink:href="struct_m_i_r_1_1_collider.html" target="_top" xlink:title="충돌 영역 정보를 나타내는 컴포넌트 구조체">
<polygon fill="white" stroke="#666666" points="209.75,-204.25 136,-204.25 136,-185 209.75,-185 209.75,-204.25"/>
<text text-anchor="middle" x="172.88" y="-190.75" font-family="Helvetica,sans-Serif" font-size="10.00">MIR::Collider</text>
</a>
</g>
</g>
<!-- Node1&#45;&gt;Node3 -->
<g id="edge2_Node000001_Node000003" class="edge">
<title>Node1&#45;&gt;Node3</title>
<g id="a_edge2_Node000001_Node000003"><a xlink:title=" ">
<path fill="none" stroke="#63b8ff" d="M67.92,-137.53C83.67,-149.45 105.91,-165.25 127,-176.62 132.32,-179.49 138.2,-182.17 143.9,-184.54"/>
<polygon fill="#63b8ff" stroke="#63b8ff" points="70.29,-134.93 60.23,-131.61 66.02,-140.48 70.29,-134.93"/>
</a>
</g>
</g>
<!-- Node4 -->
<g id="Node000004" class="node">
<title>Node4</title>
<g id="a_Node000004"><a xlink:href="struct_m_i_r_1_1_gravity.html" target="_top" xlink:title="엔티티에 중력 특성을 부여하는 컴포넌트">
<polygon fill="white" stroke="#666666" points="209,-167.25 136.75,-167.25 136.75,-148 209,-148 209,-167.25"/>
<text text-anchor="middle" x="172.88" y="-153.75" font-family="Helvetica,sans-Serif" font-size="10.00">MIR::Gravity</text>
</a>
</g>
</g>
<!-- Node1&#45;&gt;Node4 -->
<g id="edge3_Node000001_Node000004" class="edge">
<title>Node1&#45;&gt;Node4</title>
<g id="a_edge3_Node000001_Node000004"><a xlink:title=" ">
<path fill="none" stroke="#63b8ff" d="M91.51,-133.91C106.71,-138.39 123.43,-143.33 137.66,-147.53"/>
<polygon fill="#63b8ff" stroke="#63b8ff" points="92.79,-130.64 82.21,-131.16 90.81,-137.35 92.79,-130.64"/>
</a>
</g>
</g>
<!-- Node5 -->
<g id="Node000005" class="node">
<title>Node5</title>
<g id="a_Node000005"><a xlink:href="struct_m_i_r_1_1_player_state.html" target="_top" xlink:title="플레이어 상태를 관리하는 컴포넌트 구조체">
<polygon fill="white" stroke="#666666" points="218.75,-130.25 127,-130.25 127,-111 218.75,-111 218.75,-130.25"/>
<text text-anchor="middle" x="172.88" y="-116.75" font-family="Helvetica,sans-Serif" font-size="10.00">MIR::PlayerState</text>
</a>
</g>
</g>
<!-- Node1&#45;&gt;Node5 -->
<g id="edge4_Node000001_Node000005" class="edge">
<title>Node1&#45;&gt;Node5</title>
<g id="a_edge4_Node000001_Node000005"><a xlink:title=" ">
<path fill="none" stroke="#63b8ff" d="M102.69,-120.62C110.79,-120.62 119.02,-120.62 126.86,-120.62"/>
<polygon fill="#63b8ff" stroke="#63b8ff" points="102.92,-117.13 92.92,-120.63 102.92,-124.13 102.92,-117.13"/>
</a>
</g>
</g>
<!-- Node6 -->
<g id="Node000006" class="node">
<title>Node6</title>
<g id="a_Node000006"><a xlink:href="struct_m_i_r_1_1_position.html" target="_top" xlink:title="엔티티의 위치를 나타내는 컴포넌트 구조체">
<polygon fill="white" stroke="#666666" points="210.88,-93.25 134.88,-93.25 134.88,-74 210.88,-74 210.88,-93.25"/>
<text text-anchor="middle" x="172.88" y="-79.75" font-family="Helvetica,sans-Serif" font-size="10.00">MIR::Position</text>
</a>
</g>
</g>
<!-- Node1&#45;&gt;Node6 -->
<g id="edge5_Node000001_Node000006" class="edge">
<title>Node1&#45;&gt;Node6</title>
<g id="a_edge5_Node000001_Node000006"><a xlink:title=" ">
<path fill="none" stroke="#63b8ff" d="M91.51,-107.34C106.71,-102.86 123.43,-97.92 137.66,-93.72"/>
<polygon fill="#63b8ff" stroke="#63b8ff" points="90.81,-103.9 82.21,-110.09 92.79,-110.61 90.81,-103.9"/>
</a>
</g>
</g>
<!-- Node7 -->
<g id="Node000007" class="node">
<title>Node7</title>
<g id="a_Node000007"><a xlink:href="struct_m_i_r_1_1_sprite.html" target="_top" xlink:title="렌더링 가능한 스프라이트 정보를 담는 컴포넌트">
<polygon fill="white" stroke="#666666" points="206,-56.25 139.75,-56.25 139.75,-37 206,-37 206,-56.25"/>
<text text-anchor="middle" x="172.88" y="-42.75" font-family="Helvetica,sans-Serif" font-size="10.00">MIR::Sprite</text>
</a>
</g>
</g>
<!-- Node1&#45;&gt;Node7 -->
<g id="edge6_Node000001_Node000007" class="edge">
<title>Node1&#45;&gt;Node7</title>
<g id="a_edge6_Node000001_Node000007"><a xlink:title=" ">
<path fill="none" stroke="#63b8ff" d="M67.92,-103.72C83.67,-91.8 105.91,-76 127,-64.62 132.32,-61.76 138.2,-59.08 143.9,-56.71"/>
<polygon fill="#63b8ff" stroke="#63b8ff" points="66.02,-100.77 60.23,-109.64 70.29,-106.32 66.02,-100.77"/>
</a>
</g>
</g>
<!-- Node8 -->
<g id="Node000008" class="node">
<title>Node8</title>
<g id="a_Node000008"><a xlink:href="struct_m_i_r_1_1_velocity.html" target="_top" xlink:title="엔티티의 속도(velocity) 정보를 담는 컴포넌트 구조체">
<polygon fill="white" stroke="#666666" points="210.88,-19.25 134.88,-19.25 134.88,0 210.88,0 210.88,-19.25"/>
<text text-anchor="middle" x="172.88" y="-5.75" font-family="Helvetica,sans-Serif" font-size="10.00">MIR::Velocity</text>
</a>
</g>
</g>
<!-- Node1&#45;&gt;Node8 -->
<g id="edge7_Node000001_Node000008" class="edge">
<title>Node1&#45;&gt;Node8</title>
<g id="a_edge7_Node000001_Node000008"><a xlink:title=" ">
<path fill="none" stroke="#63b8ff" d="M59.1,-101.2C73.39,-80.5 98.44,-47.99 127,-27.62 131.37,-24.51 136.37,-21.82 141.39,-19.55"/>
<polygon fill="#63b8ff" stroke="#63b8ff" points="56.33,-99.05 53.66,-109.3 62.14,-102.95 56.33,-99.05"/>
</a>
</g>
</g>
</g>
</svg>
